<?xml version="1.0" encoding="UTF-8" standalone="no"?>
<!-- Created with Keyshape -->
<svg xmlns="http://www.w3.org/2000/svg" xmlns:xlink="http://www.w3.org/1999/xlink" viewBox="0 0 140 130">
    <style>
@keyframes left-arrow-tail_do { 0% { stroke-dashoffset: -8px; } 46.875% { stroke-dashoffset: -8px; animation-timing-function: cubic-bezier(0.42,0,0.58,1); } 59.375% { stroke-dashoffset: -96.82px; } 100% { stroke-dashoffset: -96.82px; } }
@keyframes right-arrow-tail_do { 0% { stroke-dashoffset: 85.71px; } 15.625% { stroke-dashoffset: 85.71px; animation-timing-function: cubic-bezier(0.42,0,0.58,1); } 28.125% { stroke-dashoffset: -8.71px; } 100% { stroke-dashoffset: -8.71px; } }
    </style>
    <title>model-layer outlined</title>
    <desc>Created with Sketch.</desc>
    <g id="Group-5-Copy" stroke="none" stroke-width="1" fill="none" fill-rule="evenodd" transform="translate(10,2)">
        <path id="Rectangle" d="M10,7L110,7C115.523,7,120,11.4772,120,17L120,78C120,83.5228,115.523,88,110,88L10,88C4.47715,88,0,83.5228,0,78L0,17C0,11.4772,4.47715,7,10,7Z" stroke="#4C78BA" stroke-linecap="round" stroke-dasharray="3,3"/>
        <g id="Group-9" transform="translate(32,0)">
            <rect id="Rectangle-2" fill="#FFFFFF" width="55" height="2" transform="translate(0,0) translate(0,6)"/>
            <path id="Application" d="M4.05,2.86L5.38,2.86L8.13,10L6.79,10L6.12,8.11L3.27,8.11L2.6,10L1.31,10L4.05,2.86ZM3.61,7.16L5.79,7.16L4.72,4.09L4.69,4.09L3.61,7.16ZM8.68,4.83L9.76,4.83L9.76,5.53L9.78,5.53C9.94,5.23,10.1633,5.015,10.45,4.885C10.7367,4.755,11.0467,4.69,11.38,4.69C11.7867,4.69,12.1417,4.76167,12.445,4.905C12.7483,5.04833,13,5.245,13.2,5.495C13.4,5.745,13.55,6.03667,13.65,6.37C13.75,6.70334,13.8,7.06,13.8,7.44C13.8,7.78667,13.755,8.12333,13.665,8.45C13.575,8.77667,13.4383,9.065,13.255,9.315C13.0717,9.565,12.84,9.765,12.56,9.915C12.28,10.065,11.95,10.14,11.57,10.14C11.4033,10.14,11.2367,10.125,11.07,10.095C10.9033,10.065,10.7433,10.0167,10.59,9.95C10.4367,9.88333,10.295,9.79833,10.165,9.695C10.035,9.59167,9.92667,9.47,9.84,9.33L9.82,9.33L9.82,11.91L8.68,11.91L8.68,4.83ZM12.66,7.42C12.66,7.18667,12.63,6.96,12.57,6.74C12.51,6.52,12.42,6.325,12.3,6.155C12.18,5.985,12.03,5.84833,11.85,5.745C11.67,5.64167,11.4633,5.59,11.23,5.59C10.75,5.59,10.3883,5.75667,10.145,6.09C9.90167,6.42333,9.78,6.86666,9.78,7.42C9.78,7.68,9.81167,7.92167,9.875,8.145C9.93833,8.36833,10.0333,8.56,10.16,8.72C10.2867,8.88,10.4383,9.00667,10.615,9.1C10.7917,9.19333,10.9967,9.24,11.23,9.24C11.49,9.24,11.71,9.18667,11.89,9.08C12.07,8.97333,12.2183,8.835,12.335,8.665C12.4517,8.495,12.535,8.30167,12.585,8.085C12.635,7.86833,12.66,7.64667,12.66,7.42ZM14.79,4.83L15.87,4.83L15.87,5.53L15.89,5.53C16.05,5.23,16.2733,5.015,16.56,4.885C16.8467,4.755,17.1567,4.69,17.49,4.69C17.8967,4.69,18.2517,4.76167,18.555,4.905C18.8583,5.04833,19.11,5.245,19.31,5.495C19.51,5.745,19.66,6.03667,19.76,6.37C19.86,6.70334,19.91,7.06,19.91,7.44C19.91,7.78667,19.865,8.12333,19.775,8.45C19.685,8.77667,19.5483,9.065,19.365,9.315C19.1817,9.565,18.95,9.765,18.67,9.915C18.39,10.065,18.06,10.14,17.68,10.14C17.5133,10.14,17.3467,10.125,17.18,10.095C17.0133,10.065,16.8533,10.0167,16.7,9.95C16.5467,9.88333,16.405,9.79833,16.275,9.695C16.145,9.59167,16.0367,9.47,15.95,9.33L15.93,9.33L15.93,11.91L14.79,11.91L14.79,4.83ZM18.77,7.42C18.77,7.18667,18.74,6.96,18.68,6.74C18.62,6.52,18.53,6.325,18.41,6.155C18.29,5.985,18.14,5.84833,17.96,5.745C17.78,5.64167,17.5733,5.59,17.34,5.59C16.86,5.59,16.4983,5.75667,16.255,6.09C16.0117,6.42333,15.89,6.86666,15.89,7.42C15.89,7.68,15.9217,7.92167,15.985,8.145C16.0483,8.36833,16.1433,8.56,16.27,8.72C16.3967,8.88,16.5483,9.00667,16.725,9.1C16.9017,9.19333,17.1067,9.24,17.34,9.24C17.6,9.24,17.82,9.18667,18,9.08C18.18,8.97333,18.3283,8.835,18.445,8.665C18.5617,8.495,18.645,8.30167,18.695,8.085C18.745,7.86833,18.77,7.64667,18.77,7.42ZM20.9,2.86L22.04,2.86L22.04,10L20.9,10L20.9,2.86ZM23.31,2.86L24.45,2.86L24.45,3.94L23.31,3.94L23.31,2.86ZM23.31,4.83L24.45,4.83L24.45,10L23.31,10L23.31,4.83ZM29.18,6.56C29.1333,6.24,29.005,5.99833,28.795,5.835C28.585,5.67167,28.32,5.59,28,5.59C27.8533,5.59,27.6967,5.615,27.53,5.665C27.3633,5.715,27.21,5.80833,27.07,5.945C26.93,6.08167,26.8133,6.27167,26.72,6.515C26.6267,6.75833,26.58,7.07666,26.58,7.47C26.58,7.68333,26.605,7.89667,26.655,8.11C26.705,8.32333,26.785,8.51333,26.895,8.68C27.005,8.84667,27.1467,8.98167,27.32,9.085C27.4933,9.18833,27.7033,9.24,27.95,9.24C28.2833,9.24,28.5583,9.13667,28.775,8.93C28.9917,8.72333,29.1267,8.43334,29.18,8.06L30.32,8.06C30.2133,8.73334,29.9583,9.24833,29.555,9.605C29.1517,9.96167,28.6167,10.14,27.95,10.14C27.5433,10.14,27.185,10.0717,26.875,9.935C26.565,9.79833,26.3033,9.61167,26.09,9.375C25.8767,9.13833,25.715,8.85667,25.605,8.53C25.495,8.20333,25.44,7.85,25.44,7.47C25.44,7.08333,25.4933,6.72,25.6,6.38C25.7067,6.04,25.8667,5.745,26.08,5.495C26.2933,5.245,26.5583,5.04833,26.875,4.905C27.1917,4.76167,27.5633,4.69,27.99,4.69C28.29,4.69,28.575,4.72833,28.845,4.805C29.115,4.88167,29.355,4.99667,29.565,5.15C29.775,5.30333,29.9467,5.49667,30.08,5.73C30.2133,5.96333,30.2933,6.24,30.32,6.56L29.18,6.56ZM35.58,8.85C35.58,8.99,35.5983,9.09,35.635,9.15C35.6717,9.21,35.7433,9.24,35.85,9.24L35.97,9.24C36.0167,9.24,36.07,9.23333,36.13,9.22L36.13,10.01C36.09,10.0233,36.0383,10.0383,35.975,10.055C35.9117,10.0717,35.8467,10.0867,35.78,10.1C35.7133,10.1133,35.6467,10.1233,35.58,10.13C35.5133,10.1367,35.4567,10.14,35.41,10.14C35.1767,10.14,34.9833,10.0933,34.83,10C34.6767,9.90667,34.5767,9.74333,34.53,9.51C34.3033,9.73,34.025,9.89,33.695,9.99C33.365,10.09,33.0467,10.14,32.74,10.14C32.5067,10.14,32.2833,10.1083,32.07,10.045C31.8567,9.98167,31.6683,9.88833,31.505,9.765C31.3417,9.64167,31.2117,9.485,31.115,9.295C31.0183,9.105,30.97,8.88333,30.97,8.63C30.97,8.31,31.0283,8.05,31.145,7.85C31.2617,7.65,31.415,7.49333,31.605,7.38C31.795,7.26667,32.0083,7.185,32.245,7.135C32.4817,7.085,32.72,7.04667,32.96,7.02C33.1667,6.98,33.3633,6.95167,33.55,6.935C33.7367,6.91833,33.9017,6.89,34.045,6.85C34.1883,6.81,34.3017,6.74833,34.385,6.665C34.4683,6.58167,34.51,6.45667,34.51,6.29C34.51,6.14333,34.475,6.02333,34.405,5.93C34.335,5.83667,34.2483,5.765,34.145,5.715C34.0417,5.665,33.9267,5.63167,33.8,5.615C33.6733,5.59833,33.5533,5.59,33.44,5.59C33.12,5.59,32.8567,5.65667,32.65,5.79C32.4433,5.92333,32.3267,6.13,32.3,6.41L31.16,6.41C31.18,6.07667,31.26,5.8,31.4,5.58C31.54,5.36,31.7183,5.18333,31.935,5.05C32.1517,4.91667,32.3967,4.82333,32.67,4.77C32.9433,4.71667,33.2233,4.69,33.51,4.69C33.7633,4.69,34.0133,4.71667,34.26,4.77C34.5067,4.82333,34.7283,4.91,34.925,5.03C35.1217,5.15,35.28,5.305,35.4,5.495C35.52,5.685,35.58,5.91667,35.58,6.19L35.58,8.85ZM34.44,7.41C34.2667,7.52333,34.0533,7.59167,33.8,7.615C33.5467,7.63833,33.2933,7.67333,33.04,7.72C32.92,7.74,32.8033,7.76833,32.69,7.805C32.5767,7.84167,32.4767,7.89167,32.39,7.955C32.3033,8.01833,32.235,8.10167,32.185,8.205C32.135,8.30833,32.11,8.43333,32.11,8.58C32.11,8.70667,32.1467,8.81333,32.22,8.9C32.2933,8.98667,32.3817,9.055,32.485,9.105C32.5883,9.155,32.7017,9.19,32.825,9.21C32.9483,9.23,33.06,9.24,33.16,9.24C33.2867,9.24,33.4233,9.22333,33.57,9.19C33.7167,9.15667,33.855,9.1,33.985,9.02C34.115,8.94,34.2233,8.83833,34.31,8.715C34.3967,8.59167,34.44,8.44,34.44,8.26L34.44,7.41ZM36.29,4.83L37.15,4.83L37.15,3.28L38.29,3.28L38.29,4.83L39.32,4.83L39.32,5.68L38.29,5.68L38.29,8.44C38.29,8.56,38.295,8.66333,38.305,8.75C38.315,8.83667,38.3383,8.91,38.375,8.97C38.4117,9.03,38.4667,9.075,38.54,9.105C38.6133,9.135,38.7133,9.15,38.84,9.15C38.92,9.15,39,9.14833,39.08,9.145C39.16,9.14167,39.24,9.13,39.32,9.11L39.32,9.99C39.1933,10.0033,39.07,10.0167,38.95,10.03C38.83,10.0433,38.7067,10.05,38.58,10.05C38.28,10.05,38.0383,10.0217,37.855,9.965C37.6717,9.90833,37.5283,9.825,37.425,9.715C37.3217,9.605,37.2517,9.46667,37.215,9.3C37.1783,9.13333,37.1567,8.94333,37.15,8.73L37.15,5.68L36.29,5.68L36.29,4.83ZM40.17,2.86L41.31,2.86L41.31,3.94L40.17,3.94L40.17,2.86ZM40.17,4.83L41.31,4.83L41.31,10L40.17,10L40.17,4.83ZM44.92,10.14C44.5067,10.14,44.1383,10.0717,43.815,9.935C43.4917,9.79833,43.2183,9.61,42.995,9.37C42.7717,9.13,42.6017,8.84333,42.485,8.51C42.3683,8.17666,42.31,7.81,42.31,7.41C42.31,7.01666,42.3683,6.65333,42.485,6.32C42.6017,5.98667,42.7717,5.7,42.995,5.46C43.2183,5.22,43.4917,5.03167,43.815,4.895C44.1383,4.75833,44.5067,4.69,44.92,4.69C45.3333,4.69,45.7017,4.75833,46.025,4.895C46.3483,5.03167,46.6217,5.22,46.845,5.46C47.0683,5.7,47.2383,5.98667,47.355,6.32C47.4717,6.65333,47.53,7.01666,47.53,7.41C47.53,7.81,47.4717,8.17666,47.355,8.51C47.2383,8.84333,47.0683,9.13,46.845,9.37C46.6217,9.61,46.3483,9.79833,46.025,9.935C45.7017,10.0717,45.3333,10.14,44.92,10.14ZM44.92,9.24C45.1733,9.24,45.3933,9.18667,45.58,9.08C45.7667,8.97333,45.92,8.83333,46.04,8.66C46.16,8.48667,46.2483,8.29167,46.305,8.075C46.3617,7.85833,46.39,7.63667,46.39,7.41C46.39,7.19,46.3617,6.97,46.305,6.75C46.2483,6.53,46.16,6.335,46.04,6.165C45.92,5.995,45.7667,5.85667,45.58,5.75C45.3933,5.64333,45.1733,5.59,44.92,5.59C44.6667,5.59,44.4467,5.64333,44.26,5.75C44.0733,5.85667,43.92,5.995,43.8,6.165C43.68,6.335,43.5917,6.53,43.535,6.75C43.4783,6.97,43.45,7.19,43.45,7.41C43.45,7.63667,43.4783,7.85833,43.535,8.075C43.5917,8.29167,43.68,8.48667,43.8,8.66C43.92,8.83333,44.0733,8.97333,44.26,9.08C44.4467,9.18667,44.6667,9.24,44.92,9.24ZM48.48,4.83L49.56,4.83L49.56,5.59L49.58,5.61C49.7533,5.32333,49.98,5.09833,50.26,4.935C50.54,4.77167,50.85,4.69,51.19,4.69C51.7567,4.69,52.2033,4.83667,52.53,5.13C52.8567,5.42333,53.02,5.86333,53.02,6.45L53.02,10L51.88,10L51.88,6.75C51.8667,6.34333,51.78,6.04833,51.62,5.865C51.46,5.68167,51.21,5.59,50.87,5.59C50.6767,5.59,50.5033,5.625,50.35,5.695C50.1967,5.765,50.0667,5.86167,49.96,5.985C49.8533,6.10833,49.77,6.25333,49.71,6.42C49.65,6.58667,49.62,6.76333,49.62,6.95L49.62,10L48.48,10L48.48,4.83Z" fill="#4C78BA" fill-rule="nonzero"/>
        </g>
    </g>
    <g id="Group-4-Copy" stroke="none" stroke-width="1" fill="none" fill-rule="evenodd" transform="translate(20,19)">
        <g id="Group-2">
            <path id="Rectangle-3" d="M0.5,29.5L99.5,29.5L99.5,6C99.5,2.96243,97.0376,0.5,94,0.5L6,0.5C2.96243,0.5,0.5,2.96243,0.5,6L0.5,29.5Z" stroke="#4C78BA"/>
            <path id="Components" d="M26.355,14.13C26.3017,13.9233,26.2283,13.7333,26.135,13.56C26.0417,13.3867,25.9217,13.2367,25.775,13.11C25.6283,12.9833,25.4567,12.885,25.26,12.815C25.0633,12.745,24.835,12.71,24.575,12.71C24.195,12.71,23.8667,12.7867,23.59,12.94C23.3133,13.0933,23.0883,13.2983,22.915,13.555C22.7417,13.8117,22.6133,14.1033,22.53,14.43C22.4467,14.7567,22.405,15.09,22.405,15.43C22.405,15.77,22.4467,16.1033,22.53,16.43C22.6133,16.7567,22.7417,17.0483,22.915,17.305C23.0883,17.5617,23.3133,17.7667,23.59,17.92C23.8667,18.0733,24.195,18.15,24.575,18.15C24.855,18.15,25.1017,18.1017,25.315,18.005C25.5283,17.9083,25.7117,17.775,25.865,17.605C26.0183,17.435,26.1383,17.2367,26.225,17.01C26.3117,16.7833,26.3683,16.54,26.395,16.28L27.615,16.28C27.5883,16.7067,27.4967,17.0967,27.34,17.45C27.1833,17.8033,26.9717,18.1083,26.705,18.365C26.4383,18.6217,26.125,18.82,25.765,18.96C25.405,19.1,25.0083,19.17,24.575,19.17C24.0417,19.17,23.5633,19.0717,23.14,18.875C22.7167,18.6783,22.3583,18.41,22.065,18.07C21.7717,17.73,21.5467,17.3333,21.39,16.88C21.2333,16.4267,21.155,15.9433,21.155,15.43C21.155,14.9233,21.2333,14.4433,21.39,13.99C21.5467,13.5367,21.7717,13.14,22.065,12.8C22.3583,12.46,22.7167,12.19,23.14,11.99C23.5633,11.79,24.0417,11.69,24.575,11.69C24.975,11.69,25.3517,11.745,25.705,11.855C26.0583,11.965,26.37,12.125,26.64,12.335C26.91,12.545,27.1283,12.8,27.295,13.1C27.4617,13.4,27.565,13.7433,27.605,14.13L26.355,14.13ZM30.965,19.14C30.5517,19.14,30.1833,19.0717,29.86,18.935C29.5367,18.7983,29.2633,18.61,29.04,18.37C28.8167,18.13,28.6467,17.8433,28.53,17.51C28.4133,17.1767,28.355,16.81,28.355,16.41C28.355,16.0167,28.4133,15.6533,28.53,15.32C28.6467,14.9867,28.8167,14.7,29.04,14.46C29.2633,14.22,29.5367,14.0317,29.86,13.895C30.1833,13.7583,30.5517,13.69,30.965,13.69C31.3783,13.69,31.7467,13.7583,32.07,13.895C32.3933,14.0317,32.6667,14.22,32.89,14.46C33.1133,14.7,33.2833,14.9867,33.4,15.32C33.5167,15.6533,33.575,16.0167,33.575,16.41C33.575,16.81,33.5167,17.1767,33.4,17.51C33.2833,17.8433,33.1133,18.13,32.89,18.37C32.6667,18.61,32.3933,18.7983,32.07,18.935C31.7467,19.0717,31.3783,19.14,30.965,19.14ZM30.965,18.24C31.2183,18.24,31.4383,18.1867,31.625,18.08C31.8117,17.9733,31.965,17.8333,32.085,17.66C32.205,17.4867,32.2933,17.2917,32.35,17.075C32.4067,16.8583,32.435,16.6367,32.435,16.41C32.435,16.19,32.4067,15.97,32.35,15.75C32.2933,15.53,32.205,15.335,32.085,15.165C31.965,14.995,31.8117,14.8567,31.625,14.75C31.4383,14.6433,31.2183,14.59,30.965,14.59C30.7117,14.59,30.4917,14.6433,30.305,14.75C30.1183,14.8567,29.965,14.995,29.845,15.165C29.725,15.335,29.6367,15.53,29.58,15.75C29.5233,15.97,29.495,16.19,29.495,16.41C29.495,16.6367,29.5233,16.8583,29.58,17.075C29.6367,17.2917,29.725,17.4867,29.845,17.66C29.965,17.8333,30.1183,17.9733,30.305,18.08C30.4917,18.1867,30.7117,18.24,30.965,18.24ZM34.525,13.83L35.605,13.83L35.605,14.55L35.635,14.55C35.7217,14.4233,35.815,14.3067,35.915,14.2C36.015,14.0933,36.1267,14.0033,36.25,13.93C36.3733,13.8567,36.515,13.7983,36.675,13.755C36.835,13.7117,37.0183,13.69,37.225,13.69C37.5383,13.69,37.83,13.76,38.1,13.9C38.37,14.04,38.5617,14.2567,38.675,14.55C38.8683,14.2833,39.0917,14.0733,39.345,13.92C39.5983,13.7667,39.915,13.69,40.295,13.69C40.8417,13.69,41.2667,13.8233,41.57,14.09C41.8733,14.3567,42.025,14.8033,42.025,15.43L42.025,19L40.885,19L40.885,15.98C40.885,15.7733,40.8783,15.585,40.865,15.415C40.8517,15.245,40.8133,15.0983,40.75,14.975C40.6867,14.8517,40.5917,14.7567,40.465,14.69C40.3383,14.6233,40.165,14.59,39.945,14.59C39.5583,14.59,39.2783,14.71,39.105,14.95C38.9317,15.19,38.845,15.53,38.845,15.97L38.845,19L37.705,19L37.705,15.68C37.705,15.32,37.64,15.0483,37.51,14.865C37.38,14.6817,37.1417,14.59,36.795,14.59C36.6483,14.59,36.5067,14.62,36.37,14.68C36.2333,14.74,36.1133,14.8267,36.01,14.94C35.9067,15.0533,35.8233,15.1933,35.76,15.36C35.6967,15.5267,35.665,15.7167,35.665,15.93L35.665,19L34.525,19L34.525,13.83ZM43.255,13.83L44.335,13.83L44.335,14.53L44.355,14.53C44.515,14.23,44.7383,14.015,45.025,13.885C45.3117,13.755,45.6217,13.69,45.955,13.69C46.3617,13.69,46.7167,13.7617,47.02,13.905C47.3233,14.0483,47.575,14.245,47.775,14.495C47.975,14.745,48.125,15.0367,48.225,15.37C48.325,15.7033,48.375,16.06,48.375,16.44C48.375,16.7867,48.33,17.1233,48.24,17.45C48.15,17.7767,48.0133,18.065,47.83,18.315C47.6467,18.565,47.415,18.765,47.135,18.915C46.855,19.065,46.525,19.14,46.145,19.14C45.9783,19.14,45.8117,19.125,45.645,19.095C45.4783,19.065,45.3183,19.0167,45.165,18.95C45.0117,18.8833,44.87,18.7983,44.74,18.695C44.61,18.5917,44.5017,18.47,44.415,18.33L44.395,18.33L44.395,20.91L43.255,20.91L43.255,13.83ZM47.235,16.42C47.235,16.1867,47.205,15.96,47.145,15.74C47.085,15.52,46.995,15.325,46.875,15.155C46.755,14.985,46.605,14.8483,46.425,14.745C46.245,14.6417,46.0383,14.59,45.805,14.59C45.325,14.59,44.9633,14.7567,44.72,15.09C44.4767,15.4233,44.355,15.8667,44.355,16.42C44.355,16.68,44.3867,16.9217,44.45,17.145C44.5133,17.3683,44.6083,17.56,44.735,17.72C44.8617,17.88,45.0133,18.0067,45.19,18.1C45.3667,18.1933,45.5717,18.24,45.805,18.24C46.065,18.24,46.285,18.1867,46.465,18.08C46.645,17.9733,46.7933,17.835,46.91,17.665C47.0267,17.495,47.11,17.3017,47.16,17.085C47.21,16.8683,47.235,16.6467,47.235,16.42ZM51.705,19.14C51.2917,19.14,50.9233,19.0717,50.6,18.935C50.2767,18.7983,50.0033,18.61,49.78,18.37C49.5567,18.13,49.3867,17.8433,49.27,17.51C49.1533,17.1767,49.095,16.81,49.095,16.41C49.095,16.0167,49.1533,15.6533,49.27,15.32C49.3867,14.9867,49.5567,14.7,49.78,14.46C50.0033,14.22,50.2767,14.0317,50.6,13.895C50.9233,13.7583,51.2917,13.69,51.705,13.69C52.1183,13.69,52.4867,13.7583,52.81,13.895C53.1333,14.0317,53.4067,14.22,53.63,14.46C53.8533,14.7,54.0233,14.9867,54.14,15.32C54.2567,15.6533,54.315,16.0167,54.315,16.41C54.315,16.81,54.2567,17.1767,54.14,17.51C54.0233,17.8433,53.8533,18.13,53.63,18.37C53.4067,18.61,53.1333,18.7983,52.81,18.935C52.4867,19.0717,52.1183,19.14,51.705,19.14ZM51.705,18.24C51.9583,18.24,52.1783,18.1867,52.365,18.08C52.5517,17.9733,52.705,17.8333,52.825,17.66C52.945,17.4867,53.0333,17.2917,53.09,17.075C53.1467,16.8583,53.175,16.6367,53.175,16.41C53.175,16.19,53.1467,15.97,53.09,15.75C53.0333,15.53,52.945,15.335,52.825,15.165C52.705,14.995,52.5517,14.8567,52.365,14.75C52.1783,14.6433,51.9583,14.59,51.705,14.59C51.4517,14.59,51.2317,14.6433,51.045,14.75C50.8583,14.8567,50.705,14.995,50.585,15.165C50.465,15.335,50.3767,15.53,50.32,15.75C50.2633,15.97,50.235,16.19,50.235,16.41C50.235,16.6367,50.2633,16.8583,50.32,17.075C50.3767,17.2917,50.465,17.4867,50.585,17.66C50.705,17.8333,50.8583,17.9733,51.045,18.08C51.2317,18.1867,51.4517,18.24,51.705,18.24ZM55.265,13.83L56.345,13.83L56.345,14.59L56.365,14.61C56.5383,14.3233,56.765,14.0983,57.045,13.935C57.325,13.7717,57.635,13.69,57.975,13.69C58.5417,13.69,58.9883,13.8367,59.315,14.13C59.6417,14.4233,59.805,14.8633,59.805,15.45L59.805,19L58.665,19L58.665,15.75C58.6517,15.3433,58.565,15.0483,58.405,14.865C58.245,14.6817,57.995,14.59,57.655,14.59C57.4617,14.59,57.2883,14.625,57.135,14.695C56.9817,14.765,56.8517,14.8617,56.745,14.985C56.6383,15.1083,56.555,15.2533,56.495,15.42C56.435,15.5867,56.405,15.7633,56.405,15.95L56.405,19L55.265,19L55.265,13.83ZM64.555,15.96C64.5417,15.78,64.5033,15.6067,64.44,15.44C64.3767,15.2733,64.29,15.1283,64.18,15.005C64.07,14.8817,63.9367,14.7817,63.78,14.705C63.6233,14.6283,63.4483,14.59,63.255,14.59C63.055,14.59,62.8733,14.625,62.71,14.695C62.5467,14.765,62.4067,14.8617,62.29,14.985C62.1733,15.1083,62.08,15.2533,62.01,15.42C61.94,15.5867,61.9017,15.7667,61.895,15.96L64.555,15.96ZM61.895,16.71C61.895,16.91,61.9233,17.1033,61.98,17.29C62.0367,17.4767,62.1217,17.64,62.235,17.78C62.3483,17.92,62.4917,18.0317,62.665,18.115C62.8383,18.1983,63.045,18.24,63.285,18.24C63.6183,18.24,63.8867,18.1683,64.09,18.025C64.2933,17.8817,64.445,17.6667,64.545,17.38L65.625,17.38C65.565,17.66,65.4617,17.91,65.315,18.13C65.1683,18.35,64.9917,18.535,64.785,18.685C64.5783,18.835,64.3467,18.9483,64.09,19.025C63.8333,19.1017,63.565,19.14,63.285,19.14C62.8783,19.14,62.5183,19.0733,62.205,18.94C61.8917,18.8067,61.6267,18.62,61.41,18.38C61.1933,18.14,61.03,17.8533,60.92,17.52C60.81,17.1867,60.755,16.82,60.755,16.42C60.755,16.0533,60.8133,15.705,60.93,15.375C61.0467,15.045,61.2133,14.755,61.43,14.505C61.6467,14.255,61.9083,14.0567,62.215,13.91C62.5217,13.7633,62.8683,13.69,63.255,13.69C63.6617,13.69,64.0267,13.775,64.35,13.945C64.6733,14.115,64.9417,14.34,65.155,14.62C65.3683,14.9,65.5233,15.2217,65.62,15.585C65.7167,15.9483,65.7417,16.3233,65.695,16.71L61.895,16.71ZM66.565,13.83L67.645,13.83L67.645,14.59L67.665,14.61C67.8383,14.3233,68.065,14.0983,68.345,13.935C68.625,13.7717,68.935,13.69,69.275,13.69C69.8417,13.69,70.2883,13.8367,70.615,14.13C70.9417,14.4233,71.105,14.8633,71.105,15.45L71.105,19L69.965,19L69.965,15.75C69.9517,15.3433,69.865,15.0483,69.705,14.865C69.545,14.6817,69.295,14.59,68.955,14.59C68.7617,14.59,68.5883,14.625,68.435,14.695C68.2817,14.765,68.1517,14.8617,68.045,14.985C67.9383,15.1083,67.855,15.2533,67.795,15.42C67.735,15.5867,67.705,15.7633,67.705,15.95L67.705,19L66.565,19L66.565,13.83ZM71.785,13.83L72.645,13.83L72.645,12.28L73.785,12.28L73.785,13.83L74.815,13.83L74.815,14.68L73.785,14.68L73.785,17.44C73.785,17.56,73.79,17.6633,73.8,17.75C73.81,17.8367,73.8333,17.91,73.87,17.97C73.9067,18.03,73.9617,18.075,74.035,18.105C74.1083,18.135,74.2083,18.15,74.335,18.15C74.415,18.15,74.495,18.1483,74.575,18.145C74.655,18.1417,74.735,18.13,74.815,18.11L74.815,18.99C74.6883,19.0033,74.565,19.0167,74.445,19.03C74.325,19.0433,74.2017,19.05,74.075,19.05C73.775,19.05,73.5333,19.0217,73.35,18.965C73.1667,18.9083,73.0233,18.825,72.92,18.715C72.8167,18.605,72.7467,18.4667,72.71,18.3C72.6733,18.1333,72.6517,17.9433,72.645,17.73L72.645,14.68L71.785,14.68L71.785,13.83ZM76.495,17.34C76.5283,17.6733,76.655,17.9067,76.875,18.04C77.095,18.1733,77.3583,18.24,77.665,18.24C77.7717,18.24,77.8933,18.2317,78.03,18.215C78.1667,18.1983,78.295,18.1667,78.415,18.12C78.535,18.0733,78.6333,18.005,78.71,17.915C78.7867,17.825,78.8217,17.7067,78.815,17.56C78.8083,17.4133,78.755,17.2933,78.655,17.2C78.555,17.1067,78.4267,17.0317,78.27,16.975C78.1133,16.9183,77.935,16.87,77.735,16.83C77.535,16.79,77.3317,16.7467,77.125,16.7C76.9117,16.6533,76.7067,16.5967,76.51,16.53C76.3133,16.4633,76.1367,16.3733,75.98,16.26C75.8233,16.1467,75.6983,16.0017,75.605,15.825C75.5117,15.6483,75.465,15.43,75.465,15.17C75.465,14.89,75.5333,14.655,75.67,14.465C75.8067,14.275,75.98,14.1217,76.19,14.005C76.4,13.8883,76.6333,13.8067,76.89,13.76C77.1467,13.7133,77.3917,13.69,77.625,13.69C77.8917,13.69,78.1467,13.7183,78.39,13.775C78.6333,13.8317,78.8533,13.9233,79.05,14.05C79.2467,14.1767,79.41,14.3417,79.54,14.545C79.67,14.7483,79.7517,14.9933,79.785,15.28L78.595,15.28C78.5417,15.0067,78.4167,14.8233,78.22,14.73C78.0233,14.6367,77.7983,14.59,77.545,14.59C77.465,14.59,77.37,14.5967,77.26,14.61C77.15,14.6233,77.0467,14.6483,76.95,14.685C76.8533,14.7217,76.7717,14.775,76.705,14.845C76.6383,14.915,76.605,15.0067,76.605,15.12C76.605,15.26,76.6533,15.3733,76.75,15.46C76.8467,15.5467,76.9733,15.6183,77.13,15.675C77.2867,15.7317,77.465,15.78,77.665,15.82C77.865,15.86,78.0717,15.9033,78.285,15.95C78.4917,15.9967,78.695,16.0533,78.895,16.12C79.095,16.1867,79.2733,16.2767,79.43,16.39C79.5867,16.5033,79.7133,16.6467,79.81,16.82C79.9067,16.9933,79.955,17.2067,79.955,17.46C79.955,17.7667,79.885,18.0267,79.745,18.24C79.605,18.4533,79.4233,18.6267,79.2,18.76C78.9767,18.8933,78.7283,18.99,78.455,19.05C78.1817,19.11,77.9117,19.14,77.645,19.14C77.3183,19.14,77.0167,19.1033,76.74,19.03C76.4633,18.9567,76.2233,18.845,76.02,18.695C75.8167,18.545,75.6567,18.3583,75.54,18.135C75.4233,17.9117,75.3617,17.6467,75.355,17.34L76.495,17.34Z" fill="#4C78BA" fill-rule="nonzero"/>
            <path id="Rectangle-4" d="M0.5,33.5L0.5,57C0.5,60.0376,2.96243,62.5,6,62.5L94,62.5C97.0376,62.5,99.5,60.0376,99.5,57L99.5,33.5L0.5,33.5Z" stroke="#4C78BA" fill="#4C78BA"/>
            <path id="Models" d="M33.2,44.86L35.41,44.86L37.08,49.77L37.1,49.77L38.68,44.86L40.89,44.86L40.89,52L39.42,52L39.42,46.94L39.4,46.94L37.65,52L36.44,52L34.69,46.99L34.67,46.99L34.67,52L33.2,52L33.2,44.86ZM43.38,49.42C43.38,49.6267,43.4,49.8283,43.44,50.025C43.48,50.2217,43.5483,50.3983,43.645,50.555C43.7417,50.7117,43.87,50.8367,44.03,50.93C44.19,51.0233,44.39,51.07,44.63,51.07C44.87,51.07,45.0717,51.0233,45.235,50.93C45.3983,50.8367,45.5283,50.7117,45.625,50.555C45.7217,50.3983,45.79,50.2217,45.83,50.025C45.87,49.8283,45.89,49.6267,45.89,49.42C45.89,49.2133,45.87,49.01,45.83,48.81C45.79,48.61,45.7217,48.4333,45.625,48.28C45.5283,48.1267,45.3983,48.0017,45.235,47.905C45.0717,47.8083,44.87,47.76,44.63,47.76C44.39,47.76,44.19,47.8083,44.03,47.905C43.87,48.0017,43.7417,48.1267,43.645,48.28C43.5483,48.4333,43.48,48.61,43.44,48.81C43.4,49.01,43.38,49.2133,43.38,49.42ZM41.96,49.42C41.96,49.0067,42.0233,48.6317,42.15,48.295C42.2767,47.9583,42.4567,47.6717,42.69,47.435C42.9233,47.1983,43.2033,47.015,43.53,46.885C43.8567,46.755,44.2233,46.69,44.63,46.69C45.0367,46.69,45.405,46.755,45.735,46.885C46.065,47.015,46.3467,47.1983,46.58,47.435C46.8133,47.6717,46.9933,47.9583,47.12,48.295C47.2467,48.6317,47.31,49.0067,47.31,49.42C47.31,49.8333,47.2467,50.2067,47.12,50.54C46.9933,50.8733,46.8133,51.1583,46.58,51.395C46.3467,51.6317,46.065,51.8133,45.735,51.94C45.405,52.0667,45.0367,52.13,44.63,52.13C44.2233,52.13,43.8567,52.0667,43.53,51.94C43.2033,51.8133,42.9233,51.6317,42.69,51.395C42.4567,51.1583,42.2767,50.8733,42.15,50.54C42.0233,50.2067,41.96,49.8333,41.96,49.42ZM51.9,49.4C51.9,49.1867,51.88,48.9817,51.84,48.785C51.8,48.5883,51.7317,48.415,51.635,48.265C51.5383,48.115,51.4133,47.9933,51.26,47.9C51.1067,47.8067,50.9133,47.76,50.68,47.76C50.4467,47.76,50.25,47.8067,50.09,47.9C49.93,47.9933,49.8017,48.1167,49.705,48.27C49.6083,48.4233,49.5383,48.5983,49.495,48.795C49.4517,48.9917,49.43,49.1967,49.43,49.41C49.43,49.61,49.4533,49.81,49.5,50.01C49.5467,50.21,49.6217,50.3883,49.725,50.545C49.8283,50.7017,49.9583,50.8283,50.115,50.925C50.2717,51.0217,50.46,51.07,50.68,51.07C50.9133,51.07,51.1083,51.0233,51.265,50.93C51.4217,50.8367,51.5467,50.7117,51.64,50.555C51.7333,50.3983,51.8,50.22,51.84,50.02C51.88,49.82,51.9,49.6133,51.9,49.4ZM51.92,51.34L51.9,51.34C51.7333,51.62,51.515,51.8217,51.245,51.945C50.975,52.0683,50.67,52.13,50.33,52.13C49.9433,52.13,49.6033,52.055,49.31,51.905C49.0167,51.755,48.775,51.5517,48.585,51.295C48.395,51.0383,48.2517,50.7433,48.155,50.41C48.0583,50.0767,48.01,49.73,48.01,49.37C48.01,49.0233,48.0583,48.6883,48.155,48.365C48.2517,48.0417,48.395,47.7567,48.585,47.51C48.775,47.2633,49.0133,47.065,49.3,46.915C49.5867,46.765,49.92,46.69,50.3,46.69C50.6067,46.69,50.8983,46.755,51.175,46.885C51.4517,47.015,51.67,47.2067,51.83,47.46L51.85,47.46L51.85,44.86L53.27,44.86L53.27,52L51.92,52L51.92,51.34ZM57.82,48.86C57.7533,48.5,57.635,48.2267,57.465,48.04C57.295,47.8533,57.0367,47.76,56.69,47.76C56.4633,47.76,56.275,47.7983,56.125,47.875C55.975,47.9517,55.855,48.0467,55.765,48.16C55.675,48.2733,55.6117,48.3933,55.575,48.52C55.5383,48.6467,55.5167,48.76,55.51,48.86L57.82,48.86ZM55.51,49.76C55.53,50.22,55.6467,50.5533,55.86,50.76C56.0733,50.9667,56.38,51.07,56.78,51.07C57.0667,51.07,57.3133,50.9983,57.52,50.855C57.7267,50.7117,57.8533,50.56,57.9,50.4L59.15,50.4C58.95,51.02,58.6433,51.4633,58.23,51.73C57.8167,51.9967,57.3167,52.13,56.73,52.13C56.3233,52.13,55.9567,52.065,55.63,51.935C55.3033,51.805,55.0267,51.62,54.8,51.38C54.5733,51.14,54.3983,50.8533,54.275,50.52C54.1517,50.1867,54.09,49.82,54.09,49.42C54.09,49.0333,54.1533,48.6733,54.28,48.34C54.4067,48.0067,54.5867,47.7183,54.82,47.475C55.0533,47.2317,55.3317,47.04,55.655,46.9C55.9783,46.76,56.3367,46.69,56.73,46.69C57.17,46.69,57.5533,46.775,57.88,46.945C58.2067,47.115,58.475,47.3433,58.685,47.63C58.895,47.9167,59.0467,48.2433,59.14,48.61C59.2333,48.9767,59.2667,49.36,59.24,49.76L55.51,49.76ZM60.12,44.86L61.54,44.86L61.54,52L60.12,52L60.12,44.86ZM63.76,50.32C63.76,50.4733,63.7917,50.605,63.855,50.715C63.9183,50.825,64,50.915,64.1,50.985C64.2,51.055,64.315,51.1067,64.445,51.14C64.575,51.1733,64.71,51.19,64.85,51.19C64.95,51.19,65.055,51.1783,65.165,51.155C65.275,51.1317,65.375,51.095,65.465,51.045C65.555,50.995,65.63,50.9283,65.69,50.845C65.75,50.7617,65.78,50.6567,65.78,50.53C65.78,50.3167,65.6383,50.1567,65.355,50.05C65.0717,49.9433,64.6767,49.8367,64.17,49.73C63.9633,49.6833,63.7617,49.6283,63.565,49.565C63.3683,49.5017,63.1933,49.4183,63.04,49.315C62.8867,49.2117,62.7633,49.0817,62.67,48.925C62.5767,48.7683,62.53,48.5767,62.53,48.35C62.53,48.0167,62.595,47.7433,62.725,47.53C62.855,47.3167,63.0267,47.1483,63.24,47.025C63.4533,46.9017,63.6933,46.815,63.96,46.765C64.2267,46.715,64.5,46.69,64.78,46.69C65.06,46.69,65.3317,46.7167,65.595,46.77C65.8583,46.8233,66.0933,46.9133,66.3,47.04C66.5067,47.1667,66.6783,47.335,66.815,47.545C66.9517,47.755,67.0333,48.02,67.06,48.34L65.71,48.34C65.69,48.0667,65.5867,47.8817,65.4,47.785C65.2133,47.6883,64.9933,47.64,64.74,47.64C64.66,47.64,64.5733,47.645,64.48,47.655C64.3867,47.665,64.3017,47.6867,64.225,47.72C64.1483,47.7533,64.0833,47.8017,64.03,47.865C63.9767,47.9283,63.95,48.0133,63.95,48.12C63.95,48.2467,63.9967,48.35,64.09,48.43C64.1833,48.51,64.305,48.575,64.455,48.625C64.605,48.675,64.7767,48.72,64.97,48.76C65.1633,48.8,65.36,48.8433,65.56,48.89C65.7667,48.9367,65.9683,48.9933,66.165,49.06C66.3617,49.1267,66.5367,49.215,66.69,49.325C66.8433,49.435,66.9667,49.5717,67.06,49.735C67.1533,49.8983,67.2,50.1,67.2,50.34C67.2,50.68,67.1317,50.965,66.995,51.195C66.8583,51.425,66.68,51.61,66.46,51.75C66.24,51.89,65.9883,51.9883,65.705,52.045C65.4217,52.1017,65.1333,52.13,64.84,52.13C64.54,52.13,64.2467,52.1,63.96,52.04C63.6733,51.98,63.4183,51.88,63.195,51.74C62.9717,51.6,62.7883,51.415,62.645,51.185C62.5017,50.955,62.4233,50.6667,62.41,50.32L63.76,50.32Z" fill="#FFFFFF" fill-rule="nonzero"/>
        </g>
    </g>
    <path id="left-arrow-tail" d="M33,52L6.11503,52C3.29008,52,1,50.2385,1,48.0656L1,7.93443C1,5.7615,3.29008,4,6.11503,4L14,4" stroke="#4C78BA" stroke-width="2" stroke-linecap="round" fill="none" fill-rule="evenodd" stroke-dasharray="80.819999999999993 8" stroke-dashoffset="-8" transform="translate(3,61)" style="animation: 16s linear infinite both left-arrow-tail_do;"/>
    <path id="Path" stroke="#4C78BA" stroke-width="2" stroke-linecap="square" d="M9,6L13,2L13,2L17,6" fill="none" fill-rule="evenodd" transform="translate(16,65) rotate(90) translate(-13,-4)"/>
    <g id="Group-12-Copy" stroke="none" stroke-width="1" fill="none" fill-rule="evenodd" transform="translate(20,98)">
        <rect id="Rectangle-5" stroke="#4C78BA" width="99" height="29" rx="4" fill="#ffffff" transform="translate(0,0) translate(0.5,0.5)"/>
        <path id="Database" d="M28.715,11.86L31.675,11.86C32.2217,11.86,32.695,11.9533,33.095,12.14C33.495,12.3267,33.8217,12.5817,34.075,12.905C34.3283,13.2283,34.5167,13.6067,34.64,14.04C34.7633,14.4733,34.825,14.9367,34.825,15.43C34.825,15.9233,34.7633,16.3867,34.64,16.82C34.5167,17.2533,34.3283,17.6317,34.075,17.955C33.8217,18.2783,33.495,18.5333,33.095,18.72C32.695,18.9067,32.2217,19,31.675,19L28.715,19L28.715,11.86ZM29.965,17.98L31.195,17.98C31.6817,17.98,32.08,17.915,32.39,17.785C32.7,17.655,32.9433,17.475,33.12,17.245C33.2967,17.015,33.4167,16.745,33.48,16.435C33.5433,16.125,33.575,15.79,33.575,15.43C33.575,15.07,33.5433,14.735,33.48,14.425C33.4167,14.115,33.2967,13.845,33.12,13.615C32.9433,13.385,32.7,13.205,32.39,13.075C32.08,12.945,31.6817,12.88,31.195,12.88L29.965,12.88L29.965,17.98ZM40.105,17.85C40.105,17.99,40.1233,18.09,40.16,18.15C40.1967,18.21,40.2683,18.24,40.375,18.24L40.495,18.24C40.5417,18.24,40.595,18.2333,40.655,18.22L40.655,19.01C40.615,19.0233,40.5633,19.0383,40.5,19.055C40.4367,19.0717,40.3717,19.0867,40.305,19.1C40.2383,19.1133,40.1717,19.1233,40.105,19.13C40.0383,19.1367,39.9817,19.14,39.935,19.14C39.7017,19.14,39.5083,19.0933,39.355,19C39.2017,18.9067,39.1017,18.7433,39.055,18.51C38.8283,18.73,38.55,18.89,38.22,18.99C37.89,19.09,37.5717,19.14,37.265,19.14C37.0317,19.14,36.8083,19.1083,36.595,19.045C36.3817,18.9817,36.1933,18.8883,36.03,18.765C35.8667,18.6417,35.7367,18.485,35.64,18.295C35.5433,18.105,35.495,17.8833,35.495,17.63C35.495,17.31,35.5533,17.05,35.67,16.85C35.7867,16.65,35.94,16.4933,36.13,16.38C36.32,16.2667,36.5333,16.185,36.77,16.135C37.0067,16.085,37.245,16.0467,37.485,16.02C37.6917,15.98,37.8883,15.9517,38.075,15.935C38.2617,15.9183,38.4267,15.89,38.57,15.85C38.7133,15.81,38.8267,15.7483,38.91,15.665C38.9933,15.5817,39.035,15.4567,39.035,15.29C39.035,15.1433,39,15.0233,38.93,14.93C38.86,14.8367,38.7733,14.765,38.67,14.715C38.5667,14.665,38.4517,14.6317,38.325,14.615C38.1983,14.5983,38.0783,14.59,37.965,14.59C37.645,14.59,37.3817,14.6567,37.175,14.79C36.9683,14.9233,36.8517,15.13,36.825,15.41L35.685,15.41C35.705,15.0767,35.785,14.8,35.925,14.58C36.065,14.36,36.2433,14.1833,36.46,14.05C36.6767,13.9167,36.9217,13.8233,37.195,13.77C37.4683,13.7167,37.7483,13.69,38.035,13.69C38.2883,13.69,38.5383,13.7167,38.785,13.77C39.0317,13.8233,39.2533,13.91,39.45,14.03C39.6467,14.15,39.805,14.305,39.925,14.495C40.045,14.685,40.105,14.9167,40.105,15.19L40.105,17.85ZM38.965,16.41C38.7917,16.5233,38.5783,16.5917,38.325,16.615C38.0717,16.6383,37.8183,16.6733,37.565,16.72C37.445,16.74,37.3283,16.7683,37.215,16.805C37.1017,16.8417,37.0017,16.8917,36.915,16.955C36.8283,17.0183,36.76,17.1017,36.71,17.205C36.66,17.3083,36.635,17.4333,36.635,17.58C36.635,17.7067,36.6717,17.8133,36.745,17.9C36.8183,17.9867,36.9067,18.055,37.01,18.105C37.1133,18.155,37.2267,18.19,37.35,18.21C37.4733,18.23,37.585,18.24,37.685,18.24C37.8117,18.24,37.9483,18.2233,38.095,18.19C38.2417,18.1567,38.38,18.1,38.51,18.02C38.64,17.94,38.7483,17.8383,38.835,17.715C38.9217,17.5917,38.965,17.44,38.965,17.26L38.965,16.41ZM40.815,13.83L41.675,13.83L41.675,12.28L42.815,12.28L42.815,13.83L43.845,13.83L43.845,14.68L42.815,14.68L42.815,17.44C42.815,17.56,42.82,17.6633,42.83,17.75C42.84,17.8367,42.8633,17.91,42.9,17.97C42.9367,18.03,42.9917,18.075,43.065,18.105C43.1383,18.135,43.2383,18.15,43.365,18.15C43.445,18.15,43.525,18.1483,43.605,18.145C43.685,18.1417,43.765,18.13,43.845,18.11L43.845,18.99C43.7183,19.0033,43.595,19.0167,43.475,19.03C43.355,19.0433,43.2317,19.05,43.105,19.05C42.805,19.05,42.5633,19.0217,42.38,18.965C42.1967,18.9083,42.0533,18.825,41.95,18.715C41.8467,18.605,41.7767,18.4667,41.74,18.3C41.7033,18.1333,41.6817,17.9433,41.675,17.73L41.675,14.68L40.815,14.68L40.815,13.83ZM48.995,17.85C48.995,17.99,49.0133,18.09,49.05,18.15C49.0867,18.21,49.1583,18.24,49.265,18.24L49.385,18.24C49.4317,18.24,49.485,18.2333,49.545,18.22L49.545,19.01C49.505,19.0233,49.4533,19.0383,49.39,19.055C49.3267,19.0717,49.2617,19.0867,49.195,19.1C49.1283,19.1133,49.0617,19.1233,48.995,19.13C48.9283,19.1367,48.8717,19.14,48.825,19.14C48.5917,19.14,48.3983,19.0933,48.245,19C48.0917,18.9067,47.9917,18.7433,47.945,18.51C47.7183,18.73,47.44,18.89,47.11,18.99C46.78,19.09,46.4617,19.14,46.155,19.14C45.9217,19.14,45.6983,19.1083,45.485,19.045C45.2717,18.9817,45.0833,18.8883,44.92,18.765C44.7567,18.6417,44.6267,18.485,44.53,18.295C44.4333,18.105,44.385,17.8833,44.385,17.63C44.385,17.31,44.4433,17.05,44.56,16.85C44.6767,16.65,44.83,16.4933,45.02,16.38C45.21,16.2667,45.4233,16.185,45.66,16.135C45.8967,16.085,46.135,16.0467,46.375,16.02C46.5817,15.98,46.7783,15.9517,46.965,15.935C47.1517,15.9183,47.3167,15.89,47.46,15.85C47.6033,15.81,47.7167,15.7483,47.8,15.665C47.8833,15.5817,47.925,15.4567,47.925,15.29C47.925,15.1433,47.89,15.0233,47.82,14.93C47.75,14.8367,47.6633,14.765,47.56,14.715C47.4567,14.665,47.3417,14.6317,47.215,14.615C47.0883,14.5983,46.9683,14.59,46.855,14.59C46.535,14.59,46.2717,14.6567,46.065,14.79C45.8583,14.9233,45.7417,15.13,45.715,15.41L44.575,15.41C44.595,15.0767,44.675,14.8,44.815,14.58C44.955,14.36,45.1333,14.1833,45.35,14.05C45.5667,13.9167,45.8117,13.8233,46.085,13.77C46.3583,13.7167,46.6383,13.69,46.925,13.69C47.1783,13.69,47.4283,13.7167,47.675,13.77C47.9217,13.8233,48.1433,13.91,48.34,14.03C48.5367,14.15,48.695,14.305,48.815,14.495C48.935,14.685,48.995,14.9167,48.995,15.19L48.995,17.85ZM47.855,16.41C47.6817,16.5233,47.4683,16.5917,47.215,16.615C46.9617,16.6383,46.7083,16.6733,46.455,16.72C46.335,16.74,46.2183,16.7683,46.105,16.805C45.9917,16.8417,45.8917,16.8917,45.805,16.955C45.7183,17.0183,45.65,17.1017,45.6,17.205C45.55,17.3083,45.525,17.4333,45.525,17.58C45.525,17.7067,45.5617,17.8133,45.635,17.9C45.7083,17.9867,45.7967,18.055,45.9,18.105C46.0033,18.155,46.1167,18.19,46.24,18.21C46.3633,18.23,46.475,18.24,46.575,18.24C46.7017,18.24,46.8383,18.2233,46.985,18.19C47.1317,18.1567,47.27,18.1,47.4,18.02C47.53,17.94,47.6383,17.8383,47.725,17.715C47.8117,17.5917,47.855,17.44,47.855,17.26L47.855,16.41ZM50.255,11.86L51.395,11.86L51.395,14.5L51.415,14.5C51.495,14.3733,51.5917,14.26,51.705,14.16C51.8183,14.06,51.9433,13.975,52.08,13.905C52.2167,13.835,52.36,13.7817,52.51,13.745C52.66,13.7083,52.8083,13.69,52.955,13.69C53.3617,13.69,53.7167,13.7617,54.02,13.905C54.3233,14.0483,54.575,14.245,54.775,14.495C54.975,14.745,55.125,15.0367,55.225,15.37C55.325,15.7033,55.375,16.06,55.375,16.44C55.375,16.7867,55.33,17.1233,55.24,17.45C55.15,17.7767,55.0133,18.065,54.83,18.315C54.6467,18.565,54.415,18.765,54.135,18.915C53.855,19.065,53.525,19.14,53.145,19.14C52.9717,19.14,52.7967,19.1283,52.62,19.105C52.4433,19.0817,52.275,19.0367,52.115,18.97C51.955,18.9033,51.81,18.8167,51.68,18.71C51.55,18.6033,51.4417,18.4633,51.355,18.29L51.335,18.29L51.335,19L50.255,19L50.255,11.86ZM54.235,16.42C54.235,16.1867,54.205,15.96,54.145,15.74C54.085,15.52,53.995,15.325,53.875,15.155C53.755,14.985,53.605,14.8483,53.425,14.745C53.245,14.6417,53.0383,14.59,52.805,14.59C52.325,14.59,51.9633,14.7567,51.72,15.09C51.4767,15.4233,51.355,15.8667,51.355,16.42C51.355,16.68,51.3867,16.9217,51.45,17.145C51.5133,17.3683,51.6083,17.56,51.735,17.72C51.8617,17.88,52.0133,18.0067,52.19,18.1C52.3667,18.1933,52.5717,18.24,52.805,18.24C53.065,18.24,53.285,18.1867,53.465,18.08C53.645,17.9733,53.7933,17.835,53.91,17.665C54.0267,17.495,54.11,17.3017,54.16,17.085C54.21,16.8683,54.235,16.6467,54.235,16.42ZM60.665,17.85C60.665,17.99,60.6833,18.09,60.72,18.15C60.7567,18.21,60.8283,18.24,60.935,18.24L61.055,18.24C61.1017,18.24,61.155,18.2333,61.215,18.22L61.215,19.01C61.175,19.0233,61.1233,19.0383,61.06,19.055C60.9967,19.0717,60.9317,19.0867,60.865,19.1C60.7983,19.1133,60.7317,19.1233,60.665,19.13C60.5983,19.1367,60.5417,19.14,60.495,19.14C60.2617,19.14,60.0683,19.0933,59.915,19C59.7617,18.9067,59.6617,18.7433,59.615,18.51C59.3883,18.73,59.11,18.89,58.78,18.99C58.45,19.09,58.1317,19.14,57.825,19.14C57.5917,19.14,57.3683,19.1083,57.155,19.045C56.9417,18.9817,56.7533,18.8883,56.59,18.765C56.4267,18.6417,56.2967,18.485,56.2,18.295C56.1033,18.105,56.055,17.8833,56.055,17.63C56.055,17.31,56.1133,17.05,56.23,16.85C56.3467,16.65,56.5,16.4933,56.69,16.38C56.88,16.2667,57.0933,16.185,57.33,16.135C57.5667,16.085,57.805,16.0467,58.045,16.02C58.2517,15.98,58.4483,15.9517,58.635,15.935C58.8217,15.9183,58.9867,15.89,59.13,15.85C59.2733,15.81,59.3867,15.7483,59.47,15.665C59.5533,15.5817,59.595,15.4567,59.595,15.29C59.595,15.1433,59.56,15.0233,59.49,14.93C59.42,14.8367,59.3333,14.765,59.23,14.715C59.1267,14.665,59.0117,14.6317,58.885,14.615C58.7583,14.5983,58.6383,14.59,58.525,14.59C58.205,14.59,57.9417,14.6567,57.735,14.79C57.5283,14.9233,57.4117,15.13,57.385,15.41L56.245,15.41C56.265,15.0767,56.345,14.8,56.485,14.58C56.625,14.36,56.8033,14.1833,57.02,14.05C57.2367,13.9167,57.4817,13.8233,57.755,13.77C58.0283,13.7167,58.3083,13.69,58.595,13.69C58.8483,13.69,59.0983,13.7167,59.345,13.77C59.5917,13.8233,59.8133,13.91,60.01,14.03C60.2067,14.15,60.365,14.305,60.485,14.495C60.605,14.685,60.665,14.9167,60.665,15.19L60.665,17.85ZM59.525,16.41C59.3517,16.5233,59.1383,16.5917,58.885,16.615C58.6317,16.6383,58.3783,16.6733,58.125,16.72C58.005,16.74,57.8883,16.7683,57.775,16.805C57.6617,16.8417,57.5617,16.8917,57.475,16.955C57.3883,17.0183,57.32,17.1017,57.27,17.205C57.22,17.3083,57.195,17.4333,57.195,17.58C57.195,17.7067,57.2317,17.8133,57.305,17.9C57.3783,17.9867,57.4667,18.055,57.57,18.105C57.6733,18.155,57.7867,18.19,57.91,18.21C58.0333,18.23,58.145,18.24,58.245,18.24C58.3717,18.24,58.5083,18.2233,58.655,18.19C58.8017,18.1567,58.94,18.1,59.07,18.02C59.2,17.94,59.3083,17.8383,59.395,17.715C59.4817,17.5917,59.525,17.44,59.525,17.26L59.525,16.41ZM62.755,17.34C62.7883,17.6733,62.915,17.9067,63.135,18.04C63.355,18.1733,63.6183,18.24,63.925,18.24C64.0317,18.24,64.1533,18.2317,64.29,18.215C64.4267,18.1983,64.555,18.1667,64.675,18.12C64.795,18.0733,64.8933,18.005,64.97,17.915C65.0467,17.825,65.0817,17.7067,65.075,17.56C65.0683,17.4133,65.015,17.2933,64.915,17.2C64.815,17.1067,64.6867,17.0317,64.53,16.975C64.3733,16.9183,64.195,16.87,63.995,16.83C63.795,16.79,63.5917,16.7467,63.385,16.7C63.1717,16.6533,62.9667,16.5967,62.77,16.53C62.5733,16.4633,62.3967,16.3733,62.24,16.26C62.0833,16.1467,61.9583,16.0017,61.865,15.825C61.7717,15.6483,61.725,15.43,61.725,15.17C61.725,14.89,61.7933,14.655,61.93,14.465C62.0667,14.275,62.24,14.1217,62.45,14.005C62.66,13.8883,62.8933,13.8067,63.15,13.76C63.4067,13.7133,63.6517,13.69,63.885,13.69C64.1517,13.69,64.4067,13.7183,64.65,13.775C64.8933,13.8317,65.1133,13.9233,65.31,14.05C65.5067,14.1767,65.67,14.3417,65.8,14.545C65.93,14.7483,66.0117,14.9933,66.045,15.28L64.855,15.28C64.8017,15.0067,64.6767,14.8233,64.48,14.73C64.2833,14.6367,64.0583,14.59,63.805,14.59C63.725,14.59,63.63,14.5967,63.52,14.61C63.41,14.6233,63.3067,14.6483,63.21,14.685C63.1133,14.7217,63.0317,14.775,62.965,14.845C62.8983,14.915,62.865,15.0067,62.865,15.12C62.865,15.26,62.9133,15.3733,63.01,15.46C63.1067,15.5467,63.2333,15.6183,63.39,15.675C63.5467,15.7317,63.725,15.78,63.925,15.82C64.125,15.86,64.3317,15.9033,64.545,15.95C64.7517,15.9967,64.955,16.0533,65.155,16.12C65.355,16.1867,65.5333,16.2767,65.69,16.39C65.8467,16.5033,65.9733,16.6467,66.07,16.82C66.1667,16.9933,66.215,17.2067,66.215,17.46C66.215,17.7667,66.145,18.0267,66.005,18.24C65.865,18.4533,65.6833,18.6267,65.46,18.76C65.2367,18.8933,64.9883,18.99,64.715,19.05C64.4417,19.11,64.1717,19.14,63.905,19.14C63.5783,19.14,63.2767,19.1033,63,19.03C62.7233,18.9567,62.4833,18.845,62.28,18.695C62.0767,18.545,61.9167,18.3583,61.8,18.135C61.6833,17.9117,61.6217,17.6467,61.615,17.34L62.755,17.34ZM70.635,15.96C70.6217,15.78,70.5833,15.6067,70.52,15.44C70.4567,15.2733,70.37,15.1283,70.26,15.005C70.15,14.8817,70.0167,14.7817,69.86,14.705C69.7033,14.6283,69.5283,14.59,69.335,14.59C69.135,14.59,68.9533,14.625,68.79,14.695C68.6267,14.765,68.4867,14.8617,68.37,14.985C68.2533,15.1083,68.16,15.2533,68.09,15.42C68.02,15.5867,67.9817,15.7667,67.975,15.96L70.635,15.96ZM67.975,16.71C67.975,16.91,68.0033,17.1033,68.06,17.29C68.1167,17.4767,68.2017,17.64,68.315,17.78C68.4283,17.92,68.5717,18.0317,68.745,18.115C68.9183,18.1983,69.125,18.24,69.365,18.24C69.6983,18.24,69.9667,18.1683,70.17,18.025C70.3733,17.8817,70.525,17.6667,70.625,17.38L71.705,17.38C71.645,17.66,71.5417,17.91,71.395,18.13C71.2483,18.35,71.0717,18.535,70.865,18.685C70.6583,18.835,70.4267,18.9483,70.17,19.025C69.9133,19.1017,69.645,19.14,69.365,19.14C68.9583,19.14,68.5983,19.0733,68.285,18.94C67.9717,18.8067,67.7067,18.62,67.49,18.38C67.2733,18.14,67.11,17.8533,67,17.52C66.89,17.1867,66.835,16.82,66.835,16.42C66.835,16.0533,66.8933,15.705,67.01,15.375C67.1267,15.045,67.2933,14.755,67.51,14.505C67.7267,14.255,67.9883,14.0567,68.295,13.91C68.6017,13.7633,68.9483,13.69,69.335,13.69C69.7417,13.69,70.1067,13.775,70.43,13.945C70.7533,14.115,71.0217,14.34,71.235,14.62C71.4483,14.9,71.6033,15.2217,71.7,15.585C71.7967,15.9483,71.8217,16.3233,71.775,16.71L67.975,16.71Z" fill="#4C78BA" fill-rule="nonzero"/>
    </g>
    <path id="Path-2" stroke="#4C78BA" stroke-width="2" stroke-linecap="square" d="M3,51L7,47L7,47L11,51" fill="none" fill-rule="evenodd" transform="translate(75,106) rotate(-90) scale(-1,1)"/>
    <path id="right-arrow-tail" d="M-18.4236,1L14,1C16.7614,1,19,2.7615,19,4.93443L19,45.0656C19,47.2385,16.7614,49,14,49L6.57645,49" stroke="#4C78BA" stroke-width="2" stroke-linecap="round" fill="none" fill-rule="nonzero" stroke-dashoffset="85.710000000000008" stroke-dasharray="85.709999999999994 8" transform="translate(117,64)" style="animation: 16s linear infinite both right-arrow-tail_do;"/>
    <rect id="Rectangle-6" fill="#4C78BA" width="3" height="2" stroke="none" stroke-width="1" fill-rule="evenodd" transform="translate(117,64)"/>
</svg>
