<?xml version="1.0" encoding="UTF-8"?>
<svg viewBox="0 0 140 130" version="1.1" xmlns="http://www.w3.org/2000/svg" xmlns:xlink="http://www.w3.org/1999/xlink">
    <!-- Generator: Sketch 53.2 (72643) - https://sketchapp.com -->
    <title>model-layer outlined</title>
    <desc>Created with Sketch.</desc>
    <g id="model-layer-outlined" stroke="none" stroke-width="1" fill="none" fill-rule="evenodd">
        <g id="Group-15" transform="translate(4.000000, 2.000000)">
            <g id="Group-5-Copy" transform="translate(6.000000, 0.000000)">
                <path d="M10,7 L110,7 C115.522847,7 120,11.4771525 120,17 L120,78 C120,83.5228475 115.522847,88 110,88 L10,88 C4.4771525,88 6.76353751e-16,83.5228475 0,78 L0,17 C-6.76353751e-16,11.4771525 4.4771525,7 10,7 Z" id="Rectangle" stroke="#4C78BA" stroke-linecap="round" stroke-dasharray="3,3"></path>
                <g id="Group-9" transform="translate(32.000000, 0.000000)">
                    <rect id="Rectangle" fill="#FFFFFF" x="0" y="6" width="55" height="2"></rect>
                    <path d="M4.05,2.86 L5.38,2.86 L8.13,10 L6.79,10 L6.12,8.11 L3.27,8.11 L2.6,10 L1.31,10 L4.05,2.86 Z M3.61,7.16 L5.79,7.16 L4.72,4.09 L4.69,4.09 L3.61,7.16 Z M8.68,4.83 L9.76,4.83 L9.76,5.53 L9.78,5.53 C9.9400008,5.2299985 10.1633319,5.01500065 10.45,4.885 C10.7366681,4.75499935 11.046665,4.69 11.38,4.69 C11.7866687,4.69 12.1416651,4.76166595 12.445,4.905 C12.7483348,5.04833405 12.999999,5.24499875 13.2,5.495 C13.400001,5.74500125 13.5499995,6.036665 13.65,6.37 C13.7500005,6.703335 13.8,7.0599981 13.8,7.44 C13.8,7.7866684 13.7550004,8.1233317 13.665,8.45 C13.5749995,8.7766683 13.4383342,9.06499875 13.255,9.315 C13.0716657,9.56500125 12.8400014,9.76499925 12.56,9.915 C12.2799986,10.0650007 11.9500019,10.14 11.57,10.14 C11.4033325,10.14 11.2366675,10.1250001 11.07,10.095 C10.9033325,10.0649998 10.7433341,10.016667 10.59,9.95 C10.4366659,9.883333 10.2950006,9.79833385 10.165,9.695 C10.0349993,9.59166615 9.9266671,9.4700007 9.84,9.33 L9.82,9.33 L9.82,11.91 L8.68,11.91 L8.68,4.83 Z M12.66,7.42 C12.66,7.1866655 12.6300003,6.9600011 12.57,6.74 C12.5099997,6.5199989 12.4200006,6.32500085 12.3,6.155 C12.1799994,5.98499915 12.0300009,5.84833385 11.85,5.745 C11.6699991,5.64166615 11.4633345,5.59 11.23,5.59 C10.7499976,5.59 10.3883345,5.756665 10.145,6.09 C9.90166545,6.423335 9.78,6.8666639 9.78,7.42 C9.78,7.6800013 9.81166635,7.92166555 9.875,8.145 C9.93833365,8.36833445 10.0333327,8.5599992 10.16,8.72 C10.2866673,8.8800008 10.4383324,9.0066662 10.615,9.1 C10.7916675,9.1933338 10.9966655,9.24 11.23,9.24 C11.4900013,9.24 11.7099991,9.1866672 11.89,9.08 C12.0700009,8.9733328 12.2183327,8.83500085 12.335,8.665 C12.4516672,8.49499915 12.5349997,8.30166775 12.585,8.085 C12.6350002,7.86833225 12.66,7.6466678 12.66,7.42 Z M14.79,4.83 L15.87,4.83 L15.87,5.53 L15.89,5.53 C16.0500008,5.2299985 16.2733319,5.01500065 16.56,4.885 C16.8466681,4.75499935 17.156665,4.69 17.49,4.69 C17.8966687,4.69 18.2516651,4.76166595 18.555,4.905 C18.8583348,5.04833405 19.109999,5.24499875 19.31,5.495 C19.510001,5.74500125 19.6599995,6.036665 19.76,6.37 C19.8600005,6.703335 19.91,7.0599981 19.91,7.44 C19.91,7.7866684 19.8650004,8.1233317 19.775,8.45 C19.6849995,8.7766683 19.5483342,9.06499875 19.365,9.315 C19.1816657,9.56500125 18.9500014,9.76499925 18.67,9.915 C18.3899986,10.0650007 18.0600019,10.14 17.68,10.14 C17.5133325,10.14 17.3466675,10.1250001 17.18,10.095 C17.0133325,10.0649998 16.8533341,10.016667 16.7,9.95 C16.5466659,9.883333 16.4050006,9.79833385 16.275,9.695 C16.1449993,9.59166615 16.0366671,9.4700007 15.95,9.33 L15.93,9.33 L15.93,11.91 L14.79,11.91 L14.79,4.83 Z M18.77,7.42 C18.77,7.1866655 18.7400003,6.9600011 18.68,6.74 C18.6199997,6.5199989 18.5300006,6.32500085 18.41,6.155 C18.2899994,5.98499915 18.1400009,5.84833385 17.96,5.745 C17.7799991,5.64166615 17.5733345,5.59 17.34,5.59 C16.8599976,5.59 16.4983345,5.756665 16.255,6.09 C16.0116654,6.423335 15.89,6.8666639 15.89,7.42 C15.89,7.6800013 15.9216663,7.92166555 15.985,8.145 C16.0483336,8.36833445 16.1433327,8.5599992 16.27,8.72 C16.3966673,8.8800008 16.5483324,9.0066662 16.725,9.1 C16.9016675,9.1933338 17.1066655,9.24 17.34,9.24 C17.6000013,9.24 17.8199991,9.1866672 18,9.08 C18.1800009,8.9733328 18.3283327,8.83500085 18.445,8.665 C18.5616672,8.49499915 18.6449997,8.30166775 18.695,8.085 C18.7450002,7.86833225 18.77,7.6466678 18.77,7.42 Z M20.9,2.86 L22.04,2.86 L22.04,10 L20.9,10 L20.9,2.86 Z M23.31,2.86 L24.45,2.86 L24.45,3.94 L23.31,3.94 L23.31,2.86 Z M23.31,4.83 L24.45,4.83 L24.45,10 L23.31,10 L23.31,4.83 Z M29.18,6.56 C29.1333331,6.2399984 29.005001,5.99833415 28.795,5.835 C28.5849989,5.67166585 28.3200016,5.59 28,5.59 C27.8533326,5.59 27.6966675,5.61499975 27.53,5.665 C27.3633325,5.71500025 27.2100007,5.80833265 27.07,5.945 C26.9299993,6.08166735 26.8133338,6.27166545 26.72,6.515 C26.6266662,6.75833455 26.58,7.0766647 26.58,7.47 C26.58,7.6833344 26.6049997,7.8966656 26.655,8.11 C26.7050002,8.3233344 26.7849994,8.5133325 26.895,8.68 C27.0050005,8.8466675 27.1466658,8.98166615 27.32,9.085 C27.4933342,9.18833385 27.7033321,9.24 27.95,9.24 C28.283335,9.24 28.5583322,9.1366677 28.775,8.93 C28.9916677,8.7233323 29.1266664,8.4333352 29.18,8.06 L30.32,8.06 C30.2133328,8.7333367 29.9583353,9.24833155 29.555,9.605 C29.1516646,9.96166845 28.61667,10.14 27.95,10.14 C27.5433313,10.14 27.1850015,10.0716674 26.875,9.935 C26.5649984,9.79833265 26.3033344,9.61166785 26.09,9.375 C25.8766656,9.13833215 25.7150005,8.8566683 25.605,8.53 C25.4949994,8.2033317 25.44,7.8500019 25.44,7.47 C25.44,7.0833314 25.4933328,6.7200017 25.6,6.38 C25.7066672,6.0399983 25.8666656,5.74500125 26.08,5.495 C26.2933344,5.24499875 26.5583317,5.04833405 26.875,4.905 C27.1916682,4.76166595 27.5633312,4.69 27.99,4.69 C28.2900015,4.69 28.5749986,4.72833295 28.845,4.805 C29.1150013,4.88166705 29.3549989,4.9966659 29.565,5.15 C29.775001,5.3033341 29.946666,5.4966655 30.08,5.73 C30.213334,5.9633345 30.2933332,6.2399984 30.32,6.56 L29.18,6.56 Z M35.58,8.85 C35.58,8.9900007 35.5983331,9.0899997 35.635,9.15 C35.6716668,9.2100003 35.7433328,9.24 35.85,9.24 L35.97,9.24 C36.0166669,9.24 36.0699997,9.2333334 36.13,9.22 L36.13,10.01 C36.0899998,10.0233334 36.0383336,10.0383333 35.975,10.055 C35.9116663,10.0716668 35.846667,10.0866666 35.78,10.1 C35.713333,10.1133334 35.646667,10.1233333 35.58,10.13 C35.513333,10.1366667 35.4566669,10.14 35.41,10.14 C35.1766655,10.14 34.9833341,10.0933338 34.83,10 C34.6766659,9.9066662 34.5766669,9.7433345 34.53,9.51 C34.3033322,9.7300011 34.0250016,9.8899995 33.695,9.99 C33.3649983,10.0900005 33.0466682,10.14 32.74,10.14 C32.5066655,10.14 32.2833344,10.1083337 32.07,10.045 C31.8566656,9.98166635 31.6683341,9.88833395 31.505,9.765 C31.3416658,9.64166605 31.2116671,9.48500095 31.115,9.295 C31.0183328,9.10499905 30.97,8.8833346 30.97,8.63 C30.97,8.3099984 31.0283327,8.050001 31.145,7.85 C31.2616672,7.649999 31.414999,7.4933339 31.605,7.38 C31.7950009,7.2666661 32.0083321,7.18500025 32.245,7.135 C32.4816678,7.08499975 32.7199988,7.0466668 32.96,7.02 C33.1666677,6.9799998 33.3633324,6.95166675 33.55,6.935 C33.7366676,6.91833325 33.9016659,6.8900002 34.045,6.85 C34.188334,6.8099998 34.3016662,6.74833375 34.385,6.665 C34.4683337,6.58166625 34.51,6.4566675 34.51,6.29 C34.51,6.1433326 34.4750003,6.0233338 34.405,5.93 C34.3349996,5.8366662 34.2483338,5.76500025 34.145,5.715 C34.0416661,5.66499975 33.9266673,5.63166675 33.8,5.615 C33.6733327,5.59833325 33.5533339,5.59 33.44,5.59 C33.1199984,5.59 32.8566677,5.656666 32.65,5.79 C32.4433323,5.923334 32.3266668,6.1299986 32.3,6.41 L31.16,6.41 C31.1800001,6.076665 31.2599993,5.8000011 31.4,5.58 C31.5400007,5.3599989 31.7183322,5.183334 31.935,5.05 C32.1516677,4.916666 32.3966653,4.8233336 32.67,4.77 C32.9433347,4.7166664 33.2233319,4.69 33.51,4.69 C33.7633346,4.69 34.0133321,4.7166664 34.26,4.77 C34.5066679,4.8233336 34.7283323,4.9099994 34.925,5.03 C35.1216676,5.1500006 35.2799994,5.30499905 35.4,5.495 C35.5200006,5.68500095 35.58,5.9166653 35.58,6.19 L35.58,8.85 Z M34.44,7.41 C34.2666658,7.5233339 34.0533346,7.59166655 33.8,7.615 C33.5466654,7.63833345 33.2933346,7.6733331 33.04,7.72 C32.9199994,7.7400001 32.8033339,7.76833315 32.69,7.805 C32.5766661,7.84166685 32.4766671,7.89166635 32.39,7.955 C32.3033329,8.01833365 32.2350002,8.10166615 32.185,8.205 C32.1349997,8.30833385 32.11,8.4333326 32.11,8.58 C32.11,8.7066673 32.1466663,8.8133329 32.22,8.9 C32.2933337,8.9866671 32.3816661,9.05499975 32.485,9.105 C32.5883338,9.15500025 32.701666,9.1899999 32.825,9.21 C32.9483339,9.2300001 33.0599995,9.24 33.16,9.24 C33.2866673,9.24 33.4233326,9.2233335 33.57,9.19 C33.7166674,9.1566665 33.8549993,9.1000004 33.985,9.02 C34.1150006,8.9399996 34.2233329,8.83833395 34.31,8.715 C34.3966671,8.59166605 34.44,8.4400009 34.44,8.26 L34.44,7.41 Z M36.29,4.83 L37.15,4.83 L37.15,3.28 L38.29,3.28 L38.29,4.83 L39.32,4.83 L39.32,5.68 L38.29,5.68 L38.29,8.44 C38.29,8.5600006 38.2949999,8.6633329 38.305,8.75 C38.315,8.8366671 38.3383331,8.9099997 38.375,8.97 C38.4116668,9.0300003 38.4666663,9.07499985 38.54,9.105 C38.6133337,9.13500015 38.7133327,9.15 38.84,9.15 C38.9200004,9.15 38.9999996,9.14833335 39.08,9.145 C39.1600004,9.14166665 39.2399996,9.1300001 39.32,9.11 L39.32,9.99 C39.1933327,10.0033334 39.0700006,10.0166666 38.95,10.03 C38.8299994,10.0433334 38.7066673,10.05 38.58,10.05 C38.2799985,10.05 38.0383342,10.021667 37.855,9.965 C37.6716657,9.90833305 37.5283338,9.82500055 37.425,9.715 C37.3216661,9.60499945 37.2516668,9.4666675 37.215,9.3 C37.1783331,9.1333325 37.1566667,8.9433344 37.15,8.73 L37.15,5.68 L36.29,5.68 L36.29,4.83 Z M40.17,2.86 L41.31,2.86 L41.31,3.94 L40.17,3.94 L40.17,2.86 Z M40.17,4.83 L41.31,4.83 L41.31,10 L40.17,10 L40.17,4.83 Z M44.92,10.14 C44.5066646,10.14 44.138335,10.0716674 43.815,9.935 C43.4916651,9.79833265 43.2183345,9.6100012 42.995,9.37 C42.7716656,9.1299988 42.6016672,8.843335 42.485,8.51 C42.3683328,8.176665 42.31,7.810002 42.31,7.41 C42.31,7.0166647 42.3683328,6.653335 42.485,6.32 C42.6016672,5.986665 42.7716656,5.7000012 42.995,5.46 C43.2183345,5.2199988 43.4916651,5.03166735 43.815,4.895 C44.138335,4.75833265 44.5066646,4.69 44.92,4.69 C45.3333354,4.69 45.7016651,4.75833265 46.025,4.895 C46.348335,5.03166735 46.6216656,5.2199988 46.845,5.46 C47.0683345,5.7000012 47.2383328,5.986665 47.355,6.32 C47.4716673,6.653335 47.53,7.0166647 47.53,7.41 C47.53,7.810002 47.4716673,8.176665 47.355,8.51 C47.2383328,8.843335 47.0683345,9.1299988 46.845,9.37 C46.6216656,9.6100012 46.348335,9.79833265 46.025,9.935 C45.7016651,10.0716674 45.3333354,10.14 44.92,10.14 Z M44.92,9.24 C45.1733346,9.24 45.3933324,9.1866672 45.58,9.08 C45.7666676,8.9733328 45.9199994,8.8333342 46.04,8.66 C46.1600006,8.4866658 46.2483331,8.29166775 46.305,8.075 C46.361667,7.85833225 46.39,7.6366678 46.39,7.41 C46.39,7.1899989 46.361667,6.9700011 46.305,6.75 C46.2483331,6.5299989 46.1600006,6.33500085 46.04,6.165 C45.9199994,5.99499915 45.7666676,5.8566672 45.58,5.75 C45.3933324,5.6433328 45.1733346,5.59 44.92,5.59 C44.6666654,5.59 44.4466676,5.6433328 44.26,5.75 C44.0733324,5.8566672 43.9200006,5.99499915 43.8,6.165 C43.6799994,6.33500085 43.591667,6.5299989 43.535,6.75 C43.4783331,6.9700011 43.45,7.1899989 43.45,7.41 C43.45,7.6366678 43.4783331,7.85833225 43.535,8.075 C43.591667,8.29166775 43.6799994,8.4866658 43.8,8.66 C43.9200006,8.8333342 44.0733324,8.9733328 44.26,9.08 C44.4466676,9.1866672 44.6666654,9.24 44.92,9.24 Z M48.48,4.83 L49.56,4.83 L49.56,5.59 L49.58,5.61 C49.7533342,5.3233319 49.9799986,5.09833415 50.26,4.935 C50.5400014,4.77166585 50.8499983,4.69 51.19,4.69 C51.7566695,4.69 52.2033317,4.8366652 52.53,5.13 C52.8566683,5.4233348 53.02,5.8633304 53.02,6.45 L53.02,10 L51.88,10 L51.88,6.75 C51.8666666,6.3433313 51.7800008,6.04833425 51.62,5.865 C51.4599992,5.68166575 51.2100017,5.59 50.87,5.59 C50.6766657,5.59 50.5033341,5.62499965 50.35,5.695 C50.1966659,5.76500035 50.0666672,5.86166605 49.96,5.985 C49.8533328,6.10833395 49.7700003,6.2533325 49.71,6.42 C49.6499997,6.5866675 49.62,6.7633324 49.62,6.95 L49.62,10 L48.48,10 L48.48,4.83 Z" id="Application" fill="#4C78BA" fill-rule="nonzero"></path>
                </g>
            </g>
            <g id="Group-4-Copy" transform="translate(16.000000, 17.000000)">
                <g id="Group-2">
                    <path d="M0.5,29.5 L99.5,29.5 L99.5,6 C99.5,2.96243388 97.0375661,0.5 94,0.5 L6,0.5 C2.96243388,0.5 0.5,2.96243388 0.5,6 L0.5,29.5 Z" id="Rectangle" stroke="#4C78BA"></path>
                    <path d="M26.355,14.13 C26.3016664,13.9233323 26.2283338,13.7333342 26.135,13.56 C26.0416662,13.3866658 25.9216674,13.2366673 25.775,13.11 C25.6283326,12.9833327 25.4566677,12.8850003 25.26,12.815 C25.0633324,12.7449997 24.8350013,12.71 24.575,12.71 C24.1949981,12.71 23.8666681,12.7866659 23.59,12.94 C23.313332,13.0933341 23.0883342,13.298332 22.915,13.555 C22.7416658,13.8116679 22.6133338,14.1033317 22.53,14.43 C22.4466663,14.7566683 22.405,15.0899983 22.405,15.43 C22.405,15.7700017 22.4466663,16.1033317 22.53,16.43 C22.6133338,16.7566683 22.7416658,17.048332 22.915,17.305 C23.0883342,17.561668 23.313332,17.7666659 23.59,17.92 C23.8666681,18.0733341 24.1949981,18.15 24.575,18.15 C24.8550014,18.15 25.1016656,18.1016672 25.315,18.005 C25.5283344,17.9083329 25.7116659,17.7750008 25.865,17.605 C26.0183341,17.4349991 26.1383329,17.2366678 26.225,17.01 C26.3116671,16.7833322 26.3683332,16.5400013 26.395,16.28 L27.615,16.28 C27.5883332,16.7066688 27.4966675,17.0966649 27.34,17.45 C27.1833326,17.8033351 26.971668,18.1083321 26.705,18.365 C26.438332,18.6216679 26.1250018,18.8199993 25.765,18.96 C25.4049982,19.1000007 25.0083355,19.17 24.575,19.17 C24.041664,19.17 23.5633355,19.0716677 23.14,18.875 C22.7166646,18.6783323 22.3583348,18.4100017 22.065,18.07 C21.7716652,17.7299983 21.5466675,17.3333356 21.39,16.88 C21.2333326,16.4266644 21.155,15.9433359 21.155,15.43 C21.155,14.9233308 21.2333326,14.4433356 21.39,13.99 C21.5466675,13.5366644 21.7716652,13.1400017 22.065,12.8 C22.3583348,12.4599983 22.7166646,12.190001 23.14,11.99 C23.5633355,11.789999 24.041664,11.69 24.575,11.69 C24.975002,11.69 25.3516649,11.7449994 25.705,11.855 C26.0583351,11.9650005 26.3699987,12.124999 26.64,12.335 C26.9100014,12.545001 27.1283325,12.7999985 27.295,13.1 C27.4616675,13.4000015 27.5649998,13.7433314 27.605,14.13 L26.355,14.13 Z M30.965,19.14 C30.5516646,19.14 30.183335,19.0716673 29.86,18.935 C29.536665,18.7983326 29.2633345,18.6100012 29.04,18.37 C28.8166655,18.1299988 28.6466673,17.843335 28.53,17.51 C28.4133328,17.176665 28.355,16.810002 28.355,16.41 C28.355,16.0166647 28.4133328,15.653335 28.53,15.32 C28.6466673,14.986665 28.8166655,14.7000012 29.04,14.46 C29.2633345,14.2199988 29.536665,14.0316673 29.86,13.895 C30.183335,13.7583326 30.5516646,13.69 30.965,13.69 C31.3783354,13.69 31.7466651,13.7583326 32.07,13.895 C32.3933349,14.0316673 32.6666656,14.2199988 32.89,14.46 C33.1133344,14.7000012 33.2833327,14.986665 33.4,15.32 C33.5166672,15.653335 33.575,16.0166647 33.575,16.41 C33.575,16.810002 33.5166672,17.176665 33.4,17.51 C33.2833327,17.843335 33.1133344,18.1299988 32.89,18.37 C32.6666656,18.6100012 32.3933349,18.7983326 32.07,18.935 C31.7466651,19.0716673 31.3783354,19.14 30.965,19.14 Z M30.965,18.24 C31.2183346,18.24 31.4383324,18.1866672 31.625,18.08 C31.8116676,17.9733328 31.9649994,17.8333342 32.085,17.66 C32.2050006,17.4866658 32.2933331,17.2916678 32.35,17.075 C32.406667,16.8583323 32.435,16.6366678 32.435,16.41 C32.435,16.1899989 32.406667,15.9700011 32.35,15.75 C32.2933331,15.5299989 32.2050006,15.3350009 32.085,15.165 C31.9649994,14.9949991 31.8116676,14.8566672 31.625,14.75 C31.4383324,14.6433328 31.2183346,14.59 30.965,14.59 C30.7116654,14.59 30.4916676,14.6433328 30.305,14.75 C30.1183324,14.8566672 29.9650006,14.9949991 29.845,15.165 C29.7249994,15.3350009 29.636667,15.5299989 29.58,15.75 C29.5233331,15.9700011 29.495,16.1899989 29.495,16.41 C29.495,16.6366678 29.5233331,16.8583323 29.58,17.075 C29.636667,17.2916678 29.7249994,17.4866658 29.845,17.66 C29.9650006,17.8333342 30.1183324,17.9733328 30.305,18.08 C30.4916676,18.1866672 30.7116654,18.24 30.965,18.24 Z M34.525,13.83 L35.605,13.83 L35.605,14.55 L35.635,14.55 C35.7216671,14.4233327 35.8149995,14.3066672 35.915,14.2 C36.0150005,14.0933328 36.126666,14.0033337 36.25,13.93 C36.3733339,13.8566663 36.5149992,13.7983335 36.675,13.755 C36.8350008,13.7116664 37.0183323,13.69 37.225,13.69 C37.5383349,13.69 37.8299986,13.7599993 38.1,13.9 C38.3700013,14.0400007 38.5616661,14.2566652 38.675,14.55 C38.8683343,14.283332 39.0916654,14.0733341 39.345,13.92 C39.5983346,13.7666659 39.9149981,13.69 40.295,13.69 C40.8416694,13.69 41.2666651,13.823332 41.57,14.09 C41.8733348,14.356668 42.025,14.8033302 42.025,15.43 L42.025,19 L40.885,19 L40.885,15.98 C40.885,15.7733323 40.8783334,15.5850009 40.865,15.415 C40.8516666,15.2449991 40.8133336,15.098334 40.75,14.975 C40.6866663,14.851666 40.5916673,14.756667 40.465,14.69 C40.3383327,14.623333 40.1650011,14.59 39.945,14.59 C39.5583314,14.59 39.2783342,14.7099988 39.105,14.95 C38.9316658,15.1900012 38.845,15.5299978 38.845,15.97 L38.845,19 L37.705,19 L37.705,15.68 C37.705,15.3199982 37.6400006,15.0483342 37.51,14.865 C37.3799993,14.6816658 37.1416684,14.59 36.795,14.59 C36.6483326,14.59 36.5066673,14.6199997 36.37,14.68 C36.2333326,14.7400003 36.1133338,14.8266661 36.01,14.94 C35.9066661,15.0533339 35.8233336,15.1933325 35.76,15.36 C35.6966664,15.5266675 35.665,15.7166656 35.665,15.93 L35.665,19 L34.525,19 L34.525,13.83 Z M43.255,13.83 L44.335,13.83 L44.335,14.53 L44.355,14.53 C44.5150008,14.2299985 44.7383319,14.0150007 45.025,13.885 C45.3116681,13.7549993 45.621665,13.69 45.955,13.69 C46.3616687,13.69 46.7166652,13.7616659 47.02,13.905 C47.3233349,14.0483341 47.574999,14.2449988 47.775,14.495 C47.975001,14.7450012 48.1249995,15.036665 48.225,15.37 C48.3250005,15.703335 48.375,16.0599981 48.375,16.44 C48.375,16.7866684 48.3300005,17.1233317 48.24,17.45 C48.1499996,17.7766683 48.0133343,18.0649988 47.83,18.315 C47.6466658,18.5650013 47.4150014,18.7649992 47.135,18.915 C46.8549986,19.0650007 46.5250019,19.14 46.145,19.14 C45.9783325,19.14 45.8116675,19.1250001 45.645,19.095 C45.4783325,19.0649998 45.3183341,19.016667 45.165,18.95 C45.0116659,18.883333 44.8700007,18.7983338 44.74,18.695 C44.6099994,18.5916662 44.5016671,18.4700007 44.415,18.33 L44.395,18.33 L44.395,20.91 L43.255,20.91 L43.255,13.83 Z M47.235,16.42 C47.235,16.1866655 47.2050003,15.9600011 47.145,15.74 C47.0849997,15.5199989 46.9950006,15.3250009 46.875,15.155 C46.7549994,14.9849992 46.6050009,14.8483338 46.425,14.745 C46.2449991,14.6416662 46.0383345,14.59 45.805,14.59 C45.3249976,14.59 44.9633346,14.756665 44.72,15.09 C44.4766655,15.423335 44.355,15.8666639 44.355,16.42 C44.355,16.6800013 44.3866664,16.9216656 44.45,17.145 C44.5133337,17.3683344 44.6083327,17.5599992 44.735,17.72 C44.8616673,17.8800008 45.0133325,18.0066662 45.19,18.1 C45.3666676,18.1933338 45.5716655,18.24 45.805,18.24 C46.0650013,18.24 46.2849991,18.1866672 46.465,18.08 C46.6450009,17.9733328 46.7933328,17.8350009 46.91,17.665 C47.0266673,17.4949991 47.1099998,17.3016678 47.16,17.085 C47.2100003,16.8683323 47.235,16.6466678 47.235,16.42 Z M51.705,19.14 C51.2916646,19.14 50.9233349,19.0716673 50.6,18.935 C50.276665,18.7983326 50.0033344,18.6100012 49.78,18.37 C49.5566656,18.1299988 49.3866673,17.843335 49.27,17.51 C49.1533327,17.176665 49.095,16.810002 49.095,16.41 C49.095,16.0166647 49.1533327,15.653335 49.27,15.32 C49.3866673,14.986665 49.5566656,14.7000012 49.78,14.46 C50.0033344,14.2199988 50.276665,14.0316673 50.6,13.895 C50.9233349,13.7583326 51.2916646,13.69 51.705,13.69 C52.1183354,13.69 52.486665,13.7583326 52.81,13.895 C53.1333349,14.0316673 53.4066655,14.2199988 53.63,14.46 C53.8533345,14.7000012 54.0233328,14.986665 54.14,15.32 C54.2566673,15.653335 54.315,16.0166647 54.315,16.41 C54.315,16.810002 54.2566673,17.176665 54.14,17.51 C54.0233328,17.843335 53.8533345,18.1299988 53.63,18.37 C53.4066655,18.6100012 53.1333349,18.7983326 52.81,18.935 C52.486665,19.0716673 52.1183354,19.14 51.705,19.14 Z M51.705,18.24 C51.9583346,18.24 52.1783324,18.1866672 52.365,18.08 C52.5516676,17.9733328 52.7049994,17.8333342 52.825,17.66 C52.9450006,17.4866658 53.033333,17.2916678 53.09,17.075 C53.1466669,16.8583323 53.175,16.6366678 53.175,16.41 C53.175,16.1899989 53.1466669,15.9700011 53.09,15.75 C53.033333,15.5299989 52.9450006,15.3350009 52.825,15.165 C52.7049994,14.9949991 52.5516676,14.8566672 52.365,14.75 C52.1783324,14.6433328 51.9583346,14.59 51.705,14.59 C51.4516654,14.59 51.2316676,14.6433328 51.045,14.75 C50.8583324,14.8566672 50.7050006,14.9949991 50.585,15.165 C50.4649994,15.3350009 50.376667,15.5299989 50.32,15.75 C50.263333,15.9700011 50.235,16.1899989 50.235,16.41 C50.235,16.6366678 50.263333,16.8583323 50.32,17.075 C50.376667,17.2916678 50.4649994,17.4866658 50.585,17.66 C50.7050006,17.8333342 50.8583324,17.9733328 51.045,18.08 C51.2316676,18.1866672 51.4516654,18.24 51.705,18.24 Z M55.265,13.83 L56.345,13.83 L56.345,14.59 L56.365,14.61 C56.5383342,14.3233319 56.7649986,14.0983341 57.045,13.935 C57.3250014,13.7716658 57.6349983,13.69 57.975,13.69 C58.5416695,13.69 58.9883317,13.8366652 59.315,14.13 C59.6416683,14.4233348 59.805,14.8633304 59.805,15.45 L59.805,19 L58.665,19 L58.665,15.75 C58.6516666,15.3433313 58.5650008,15.0483342 58.405,14.865 C58.2449992,14.6816658 57.9950017,14.59 57.655,14.59 C57.4616657,14.59 57.2883341,14.6249996 57.135,14.695 C56.9816659,14.7650004 56.8516672,14.8616661 56.745,14.985 C56.6383328,15.1083339 56.5550003,15.2533325 56.495,15.42 C56.4349997,15.5866675 56.405,15.7633324 56.405,15.95 L56.405,19 L55.265,19 L55.265,13.83 Z M64.555,15.96 C64.5416666,15.7799991 64.5033337,15.6066675 64.44,15.44 C64.3766663,15.2733325 64.2900006,15.128334 64.18,15.005 C64.0699994,14.881666 63.9366675,14.781667 63.78,14.705 C63.6233326,14.628333 63.4483343,14.59 63.255,14.59 C63.054999,14.59 62.8733342,14.6249996 62.71,14.695 C62.5466659,14.7650004 62.4066673,14.8616661 62.29,14.985 C62.1733328,15.108334 62.0800004,15.2533325 62.01,15.42 C61.9399997,15.5866675 61.9016667,15.7666657 61.895,15.96 L64.555,15.96 Z M61.895,16.71 C61.895,16.910001 61.9233331,17.1033324 61.98,17.29 C62.0366669,17.4766676 62.1216661,17.6399993 62.235,17.78 C62.3483339,17.9200007 62.4916658,18.0316663 62.665,18.115 C62.8383342,18.1983337 63.0449988,18.24 63.285,18.24 C63.618335,18.24 63.8866657,18.168334 64.09,18.025 C64.2933344,17.8816659 64.4449995,17.6666681 64.545,17.38 L65.625,17.38 C65.5649997,17.6600014 65.4616674,17.9099989 65.315,18.13 C65.1683326,18.3500011 64.9916677,18.5349992 64.785,18.685 C64.5783323,18.8350007 64.3466679,18.948333 64.09,19.025 C63.833332,19.101667 63.5650014,19.14 63.285,19.14 C62.8783313,19.14 62.5183349,19.073334 62.205,18.94 C61.8916651,18.806666 61.6266678,18.6200012 61.41,18.38 C61.1933323,18.1399988 61.0300006,17.853335 60.92,17.52 C60.8099995,17.186665 60.755,16.820002 60.755,16.42 C60.755,16.0533315 60.8133328,15.7050016 60.93,15.375 C61.0466672,15.0449984 61.2133323,14.7550012 61.43,14.505 C61.6466678,14.2549987 61.9083318,14.0566674 62.215,13.91 C62.5216682,13.7633326 62.8683314,13.69 63.255,13.69 C63.6616687,13.69 64.0266651,13.7749991 64.35,13.945 C64.6733349,14.1150009 64.9416656,14.3399986 65.155,14.62 C65.3683344,14.9000014 65.5233329,15.2216648 65.62,15.585 C65.7166672,15.9483352 65.7416669,16.3233314 65.695,16.71 L61.895,16.71 Z M66.565,13.83 L67.645,13.83 L67.645,14.59 L67.665,14.61 C67.8383342,14.3233319 68.0649986,14.0983341 68.345,13.935 C68.6250014,13.7716658 68.9349983,13.69 69.275,13.69 C69.8416695,13.69 70.2883317,13.8366652 70.615,14.13 C70.9416683,14.4233348 71.105,14.8633304 71.105,15.45 L71.105,19 L69.965,19 L69.965,15.75 C69.9516666,15.3433313 69.8650008,15.0483342 69.705,14.865 C69.5449992,14.6816658 69.2950017,14.59 68.955,14.59 C68.7616657,14.59 68.5883341,14.6249996 68.435,14.695 C68.2816659,14.7650004 68.1516672,14.8616661 68.045,14.985 C67.9383328,15.1083339 67.8550003,15.2533325 67.795,15.42 C67.7349997,15.5866675 67.705,15.7633324 67.705,15.95 L67.705,19 L66.565,19 L66.565,13.83 Z M71.785,13.83 L72.645,13.83 L72.645,12.28 L73.785,12.28 L73.785,13.83 L74.815,13.83 L74.815,14.68 L73.785,14.68 L73.785,17.44 C73.785,17.5600006 73.79,17.6633329 73.8,17.75 C73.8100001,17.8366671 73.8333332,17.9099997 73.87,17.97 C73.9066668,18.0300003 73.9616663,18.0749999 74.035,18.105 C74.1083337,18.1350001 74.2083327,18.15 74.335,18.15 C74.4150004,18.15 74.4949996,18.1483334 74.575,18.145 C74.6550004,18.1416666 74.7349996,18.1300001 74.815,18.11 L74.815,18.99 C74.6883327,19.0033334 74.5650006,19.0166666 74.445,19.03 C74.3249994,19.0433334 74.2016673,19.05 74.075,19.05 C73.7749985,19.05 73.5333343,19.021667 73.35,18.965 C73.1666658,18.908333 73.0233339,18.8250005 72.92,18.715 C72.8166662,18.6049995 72.7466669,18.4666675 72.71,18.3 C72.6733332,18.1333325 72.6516667,17.9433344 72.645,17.73 L72.645,14.68 L71.785,14.68 L71.785,13.83 Z M76.495,17.34 C76.5283335,17.673335 76.6549989,17.906666 76.875,18.04 C77.0950011,18.173334 77.3583318,18.24 77.665,18.24 C77.7716672,18.24 77.8933327,18.2316668 78.03,18.215 C78.1666674,18.1983333 78.2949994,18.1666669 78.415,18.12 C78.5350006,18.0733331 78.633333,18.0050005 78.71,17.915 C78.7866671,17.8249996 78.8216667,17.7066674 78.815,17.56 C78.8083333,17.4133326 78.7550005,17.2933338 78.655,17.2 C78.5549995,17.1066662 78.4266674,17.031667 78.27,16.975 C78.1133326,16.9183331 77.935001,16.8700002 77.735,16.83 C77.534999,16.7899998 77.3316677,16.7466669 77.125,16.7 C76.9116656,16.6533331 76.7066677,16.596667 76.51,16.53 C76.3133323,16.463333 76.1366675,16.3733339 75.98,16.26 C75.8233326,16.1466661 75.6983338,16.0016676 75.605,15.825 C75.5116662,15.6483324 75.465,15.4300013 75.465,15.17 C75.465,14.8899986 75.5333327,14.6550009 75.67,14.465 C75.8066673,14.274999 75.979999,14.1216672 76.19,14.005 C76.4000011,13.8883328 76.6333321,13.8066669 76.89,13.76 C77.1466679,13.7133331 77.3916655,13.69 77.625,13.69 C77.891668,13.69 78.1466655,13.718333 78.39,13.775 C78.6333346,13.8316669 78.8533324,13.9233327 79.05,14.05 C79.2466677,14.1766673 79.4099994,14.3416656 79.54,14.545 C79.6700007,14.7483344 79.7516665,14.9933319 79.785,15.28 L78.595,15.28 C78.5416664,15.0066653 78.4166677,14.8233338 78.22,14.73 C78.0233324,14.6366662 77.7983346,14.59 77.545,14.59 C77.4649996,14.59 77.3700006,14.5966666 77.26,14.61 C77.1499995,14.6233334 77.0466672,14.6483331 76.95,14.685 C76.8533329,14.7216669 76.771667,14.7749996 76.705,14.845 C76.638333,14.9150003 76.605,15.0066661 76.605,15.12 C76.605,15.2600007 76.6533328,15.3733329 76.75,15.46 C76.8466672,15.5466671 76.9733326,15.6183331 77.13,15.675 C77.2866674,15.731667 77.464999,15.7799998 77.665,15.82 C77.865001,15.8600002 78.0716656,15.9033331 78.285,15.95 C78.4916677,15.9966669 78.694999,16.053333 78.895,16.12 C79.095001,16.186667 79.2733326,16.2766661 79.43,16.39 C79.5866675,16.5033339 79.7133329,16.6466658 79.81,16.82 C79.9066672,16.9933342 79.955,17.2066654 79.955,17.46 C79.955,17.7666682 79.8850007,18.0266656 79.745,18.24 C79.6049993,18.4533344 79.4233344,18.626666 79.2,18.76 C78.9766656,18.893334 78.7283347,18.9899997 78.455,19.05 C78.1816653,19.1100003 77.911668,19.14 77.645,19.14 C77.3183317,19.14 77.016668,19.1033337 76.74,19.03 C76.4633319,18.9566663 76.2233344,18.8450008 76.02,18.695 C75.8166657,18.5449993 75.6566672,18.3583345 75.54,18.135 C75.4233328,17.9116655 75.3616667,17.6466682 75.355,17.34 L76.495,17.34 Z" id="Components" fill="#4C78BA" fill-rule="nonzero"></path>
                    <path d="M0.5,33.5 L0.5,57 C0.5,60.0375661 2.96243388,62.5 6,62.5 L94,62.5 C97.0375661,62.5 99.5,60.0375661 99.5,57 L99.5,33.5 L0.5,33.5 Z" id="Rectangle" stroke="#4C78BA" fill="#4C78BA"></path>
                    <path d="M33.2,44.86 L35.41,44.86 L37.08,49.77 L37.1,49.77 L38.68,44.86 L40.89,44.86 L40.89,52 L39.42,52 L39.42,46.94 L39.4,46.94 L37.65,52 L36.44,52 L34.69,46.99 L34.67,46.99 L34.67,52 L33.2,52 L33.2,44.86 Z M43.38,49.42 C43.38,49.6266677 43.3999998,49.8283323 43.44,50.025 C43.4800002,50.2216677 43.5483329,50.3983325 43.645,50.555 C43.7416671,50.7116675 43.8699992,50.8366662 44.03,50.93 C44.1900008,51.0233338 44.3899988,51.07 44.63,51.07 C44.8700012,51.07 45.0716659,51.0233338 45.235,50.93 C45.3983342,50.8366662 45.5283328,50.7116675 45.625,50.555 C45.7216672,50.3983325 45.7899998,50.2216677 45.83,50.025 C45.8700002,49.8283323 45.89,49.6266677 45.89,49.42 C45.89,49.2133323 45.8700002,49.010001 45.83,48.81 C45.7899998,48.609999 45.7216672,48.4333341 45.625,48.28 C45.5283328,48.1266659 45.3983342,48.0016672 45.235,47.905 C45.0716659,47.8083328 44.8700012,47.76 44.63,47.76 C44.3899988,47.76 44.1900008,47.8083328 44.03,47.905 C43.8699992,48.0016672 43.7416671,48.1266659 43.645,48.28 C43.5483329,48.4333341 43.4800002,48.609999 43.44,48.81 C43.3999998,49.010001 43.38,49.2133323 43.38,49.42 Z M41.96,49.42 C41.96,49.0066646 42.0233327,48.6316683 42.15,48.295 C42.2766673,47.9583316 42.4566655,47.6716678 42.69,47.435 C42.9233345,47.1983321 43.2033317,47.0150006 43.53,46.885 C43.8566683,46.7549993 44.2233313,46.69 44.63,46.69 C45.0366687,46.69 45.4049983,46.7549993 45.735,46.885 C46.0650016,47.0150006 46.3466655,47.1983321 46.58,47.435 C46.8133345,47.6716678 46.9933327,47.9583316 47.12,48.295 C47.2466673,48.6316683 47.31,49.0066646 47.31,49.42 C47.31,49.8333354 47.2466673,50.206665 47.12,50.54 C46.9933327,50.873335 46.8133345,51.1583321 46.58,51.395 C46.3466655,51.6316678 46.0650016,51.8133327 45.735,51.94 C45.4049983,52.0666673 45.0366687,52.13 44.63,52.13 C44.2233313,52.13 43.8566683,52.0666673 43.53,51.94 C43.2033317,51.8133327 42.9233345,51.6316678 42.69,51.395 C42.4566655,51.1583321 42.2766673,50.873335 42.15,50.54 C42.0233327,50.206665 41.96,49.8333354 41.96,49.42 Z M51.9,49.4 C51.9,49.1866656 51.8800002,48.9816676 51.84,48.785 C51.7999998,48.5883324 51.7316672,48.4150008 51.635,48.265 C51.5383329,48.1149992 51.4133341,47.9933338 51.26,47.9 C51.1066659,47.8066662 50.9133345,47.76 50.68,47.76 C50.4466655,47.76 50.2500008,47.8066662 50.09,47.9 C49.9299992,47.9933338 49.8016672,48.1166659 49.705,48.27 C49.6083329,48.4233341 49.5383336,48.5983323 49.495,48.795 C49.4516665,48.9916676 49.43,49.1966656 49.43,49.41 C49.43,49.610001 49.4533331,49.809999 49.5,50.01 C49.5466669,50.210001 49.6216661,50.3883326 49.725,50.545 C49.8283339,50.7016675 49.9583326,50.8283329 50.115,50.925 C50.2716675,51.0216671 50.4599989,51.07 50.68,51.07 C50.9133345,51.07 51.1083326,51.0233338 51.265,50.93 C51.4216675,50.8366662 51.5466662,50.7116675 51.64,50.555 C51.7333338,50.3983325 51.7999998,50.220001 51.84,50.02 C51.8800002,49.819999 51.9,49.6133344 51.9,49.4 Z M51.92,51.34 L51.9,51.34 C51.7333325,51.6200014 51.5150014,51.821666 51.245,51.945 C50.9749987,52.0683339 50.6700017,52.13 50.33,52.13 C49.9433314,52.13 49.6033348,52.0550007 49.31,51.905 C49.0166652,51.7549992 48.7750009,51.551668 48.585,51.295 C48.394999,51.0383321 48.2516672,50.743335 48.155,50.41 C48.0583328,50.076665 48.01,49.7300018 48.01,49.37 C48.01,49.0233316 48.0583328,48.6883349 48.155,48.365 C48.2516672,48.041665 48.394999,47.7566679 48.585,47.51 C48.7750009,47.2633321 49.0133319,47.0650007 49.3,46.915 C49.5866681,46.7649993 49.9199981,46.69 50.3,46.69 C50.6066682,46.69 50.8983319,46.7549993 51.175,46.885 C51.451668,47.0150006 51.6699992,47.2066654 51.83,47.46 L51.85,47.46 L51.85,44.86 L53.27,44.86 L53.27,52 L51.92,52 L51.92,51.34 Z M57.82,48.86 C57.753333,48.4999982 57.6350008,48.2266676 57.465,48.04 C57.2949991,47.8533324 57.0366684,47.76 56.69,47.76 C56.4633322,47.76 56.2750008,47.798333 56.125,47.875 C55.9749992,47.951667 55.8550005,48.0466661 55.765,48.16 C55.6749995,48.2733339 55.6116669,48.3933327 55.575,48.52 C55.5383331,48.6466673 55.5166667,48.7599995 55.51,48.86 L57.82,48.86 Z M55.51,49.76 C55.5300001,50.2200023 55.6466656,50.5533323 55.86,50.76 C56.0733344,50.9666677 56.379998,51.07 56.78,51.07 C57.0666681,51.07 57.3133323,50.998334 57.52,50.855 C57.7266677,50.7116659 57.8533331,50.5600008 57.9,50.4 L59.15,50.4 C58.949999,51.0200031 58.6433354,51.463332 58.23,51.73 C57.8166646,51.996668 57.3166696,52.13 56.73,52.13 C56.3233313,52.13 55.9566683,52.0650007 55.63,51.935 C55.3033317,51.8049994 55.0266678,51.6200012 54.8,51.38 C54.5733322,51.1399988 54.398334,50.853335 54.275,50.52 C54.1516661,50.186665 54.09,49.820002 54.09,49.42 C54.09,49.0333314 54.1533327,48.673335 54.28,48.34 C54.4066673,48.006665 54.5866655,47.7183346 54.82,47.475 C55.0533345,47.2316655 55.331665,47.0400007 55.655,46.9 C55.978335,46.7599993 56.3366647,46.69 56.73,46.69 C57.1700022,46.69 57.5533317,46.7749991 57.88,46.945 C58.2066683,47.1150009 58.4749989,47.3433319 58.685,47.63 C58.895001,47.9166681 59.0466662,48.2433315 59.14,48.61 C59.2333338,48.9766685 59.2666668,49.359998 59.24,49.76 L55.51,49.76 Z M60.12,44.86 L61.54,44.86 L61.54,52 L60.12,52 L60.12,44.86 Z M63.76,50.32 C63.76,50.4733341 63.7916663,50.6049995 63.855,50.715 C63.9183336,50.8250005 63.9999995,50.9149996 64.1,50.985 C64.2000005,51.0550004 64.3149993,51.1066665 64.445,51.14 C64.5750006,51.1733335 64.7099993,51.19 64.85,51.19 C64.9500005,51.19 65.0549994,51.1783334 65.165,51.155 C65.2750006,51.1316665 65.3749995,51.0950002 65.465,51.045 C65.5550004,50.9949997 65.6299997,50.9283338 65.69,50.845 C65.7500003,50.7616662 65.78,50.6566673 65.78,50.53 C65.78,50.3166656 65.6383347,50.1566672 65.355,50.05 C65.0716652,49.9433328 64.6766692,49.8366672 64.17,49.73 C63.9633323,49.6833331 63.7616676,49.6283337 63.565,49.565 C63.3683323,49.5016664 63.1933341,49.4183338 63.04,49.315 C62.8866659,49.2116661 62.7633338,49.0816674 62.67,48.925 C62.5766662,48.7683325 62.53,48.5766678 62.53,48.35 C62.53,48.016665 62.5949993,47.7433344 62.725,47.53 C62.8550006,47.3166656 63.0266656,47.148334 63.24,47.025 C63.4533344,46.9016661 63.693332,46.8150002 63.96,46.765 C64.226668,46.7149997 64.4999986,46.69 64.78,46.69 C65.0600014,46.69 65.3316653,46.7166664 65.595,46.77 C65.8583346,46.8233336 66.0933323,46.9133327 66.3,47.04 C66.5066677,47.1666673 66.6783327,47.3349989 66.815,47.545 C66.9516673,47.755001 67.0333332,48.0199984 67.06,48.34 L65.71,48.34 C65.6899999,48.0666653 65.5866676,47.8816671 65.4,47.785 C65.2133324,47.6883329 64.9933346,47.64 64.74,47.64 C64.6599996,47.64 64.5733338,47.6449999 64.48,47.655 C64.3866662,47.6650001 64.301667,47.6866665 64.225,47.72 C64.1483329,47.7533335 64.0833336,47.8016663 64.03,47.865 C63.9766664,47.9283336 63.95,48.0133328 63.95,48.12 C63.95,48.2466673 63.9966662,48.3499996 64.09,48.43 C64.1833338,48.5100004 64.3049992,48.5749998 64.455,48.625 C64.6050008,48.6750002 64.7766657,48.7199998 64.97,48.76 C65.1633343,48.8000002 65.359999,48.8433331 65.56,48.89 C65.7666677,48.9366669 65.9683323,48.993333 66.165,49.06 C66.3616676,49.126667 66.5366659,49.2149995 66.69,49.325 C66.8433341,49.4350005 66.9666662,49.5716659 67.06,49.735 C67.1533338,49.8983341 67.2,50.0999988 67.2,50.34 C67.2,50.6800017 67.1316673,50.9649989 66.995,51.195 C66.8583326,51.4250011 66.6800011,51.6099993 66.46,51.75 C66.2399989,51.8900007 65.9883347,51.9883331 65.705,52.045 C65.4216653,52.101667 65.1333348,52.13 64.84,52.13 C64.5399985,52.13 64.2466681,52.1000003 63.96,52.04 C63.6733319,51.9799997 63.4183344,51.8800007 63.195,51.74 C62.9716655,51.5999993 62.788334,51.4150012 62.645,51.185 C62.5016659,50.9549988 62.4233334,50.6666684 62.41,50.32 L63.76,50.32 Z" id="Models" fill="#FFFFFF" fill-rule="nonzero"></path>
                </g>
            </g>
            <g id="Group-13-Copy" transform="translate(0.000000, 59.000000)" stroke="#4C78BA" stroke-width="2">
                <path d="M18,52 L5.11503111,52 C2.29007743,52 4.99600361e-16,50.2384974 1.2490009e-16,48.0655738 L1.2490009e-16,7.93442623 C-1.2490009e-16,5.76150262 2.29007743,4 5.11503111,4 L13,4" id="Shape" stroke-linecap="round"></path>
                <polyline id="Path" stroke-linecap="square" transform="translate(12.000000, 4.000000) rotate(-270.000000) translate(-12.000000, -4.000000) " points="8 6 12 2 12 2 16 6"></polyline>
            </g>
            <g id="Group-12-Copy" transform="translate(16.000000, 96.000000)">
                <rect id="Rectangle" stroke="#4C78BA" fill="#FFFFFF" x="0.5" y="0.5" width="99" height="29" rx="4"></rect>
                <path d="M28.715,11.86 L31.675,11.86 C32.2216694,11.86 32.694998,11.9533324 33.095,12.14 C33.495002,12.3266676 33.8216654,12.581665 34.075,12.905 C34.3283346,13.228335 34.516666,13.6066645 34.64,14.04 C34.7633339,14.4733355 34.825,14.9366642 34.825,15.43 C34.825,15.9233358 34.7633339,16.3866645 34.64,16.82 C34.516666,17.2533355 34.3283346,17.631665 34.075,17.955 C33.8216654,18.278335 33.495002,18.5333324 33.095,18.72 C32.694998,18.9066676 32.2216694,19 31.675,19 L28.715,19 L28.715,11.86 Z M29.965,17.98 L31.195,17.98 C31.6816691,17.98 32.0799984,17.9150006 32.39,17.785 C32.7000015,17.6549994 32.9433324,17.4750012 33.12,17.245 C33.2966675,17.0149989 33.4166663,16.7450016 33.48,16.435 C33.5433337,16.1249984 33.575,15.7900018 33.575,15.43 C33.575,15.0699982 33.5433337,14.7350015 33.48,14.425 C33.4166663,14.1149984 33.2966675,13.8450011 33.12,13.615 C32.9433324,13.3849988 32.7000015,13.2050006 32.39,13.075 C32.0799984,12.9449993 31.6816691,12.88 31.195,12.88 L29.965,12.88 L29.965,17.98 Z M40.105,17.85 C40.105,17.9900007 40.1233331,18.0899997 40.16,18.15 C40.1966668,18.2100003 40.2683328,18.24 40.375,18.24 L40.495,18.24 C40.5416669,18.24 40.5949997,18.2333334 40.655,18.22 L40.655,19.01 C40.6149998,19.0233334 40.5633336,19.0383333 40.5,19.055 C40.4366663,19.0716667 40.371667,19.0866666 40.305,19.1 C40.238333,19.1133334 40.171667,19.1233333 40.105,19.13 C40.038333,19.1366667 39.9816669,19.14 39.935,19.14 C39.7016655,19.14 39.5083341,19.0933338 39.355,19 C39.2016659,18.9066662 39.1016669,18.7433345 39.055,18.51 C38.8283322,18.7300011 38.5500016,18.8899995 38.22,18.99 C37.8899983,19.0900005 37.5716682,19.14 37.265,19.14 C37.0316655,19.14 36.8083344,19.1083336 36.595,19.045 C36.3816656,18.9816664 36.1933341,18.8883339 36.03,18.765 C35.8666658,18.641666 35.7366672,18.4850009 35.64,18.295 C35.5433328,18.104999 35.495,17.8833346 35.495,17.63 C35.495,17.3099984 35.5533327,17.050001 35.67,16.85 C35.7866673,16.649999 35.939999,16.4933339 36.13,16.38 C36.320001,16.2666661 36.5333321,16.1850003 36.77,16.135 C37.0066678,16.0849998 37.2449988,16.0466668 37.485,16.02 C37.6916677,15.9799998 37.8883324,15.9516668 38.075,15.935 C38.2616676,15.9183332 38.426666,15.8900002 38.57,15.85 C38.7133341,15.8099998 38.8266663,15.7483338 38.91,15.665 C38.9933337,15.5816662 39.035,15.4566675 39.035,15.29 C39.035,15.1433326 39.0000003,15.0233338 38.93,14.93 C38.8599996,14.8366662 38.7733339,14.7650002 38.67,14.715 C38.5666661,14.6649997 38.4516673,14.6316668 38.325,14.615 C38.1983327,14.5983332 38.0783339,14.59 37.965,14.59 C37.6449984,14.59 37.3816677,14.656666 37.175,14.79 C36.9683323,14.923334 36.8516668,15.1299986 36.825,15.41 L35.685,15.41 C35.7050001,15.076665 35.7849993,14.8000011 35.925,14.58 C36.0650007,14.3599989 36.2433322,14.183334 36.46,14.05 C36.6766678,13.916666 36.9216653,13.8233336 37.195,13.77 C37.4683347,13.7166664 37.7483319,13.69 38.035,13.69 C38.2883346,13.69 38.5383321,13.7166664 38.785,13.77 C39.0316679,13.8233336 39.2533323,13.9099994 39.45,14.03 C39.6466676,14.1500006 39.8049994,14.304999 39.925,14.495 C40.0450006,14.685001 40.105,14.9166653 40.105,15.19 L40.105,17.85 Z M38.965,16.41 C38.7916658,16.5233339 38.5783346,16.5916665 38.325,16.615 C38.0716654,16.6383335 37.8183346,16.6733331 37.565,16.72 C37.4449994,16.7400001 37.3283339,16.7683332 37.215,16.805 C37.1016661,16.8416668 37.0016671,16.8916664 36.915,16.955 C36.8283329,17.0183336 36.7600002,17.1016661 36.71,17.205 C36.6599997,17.3083339 36.635,17.4333326 36.635,17.58 C36.635,17.7066673 36.6716663,17.8133329 36.745,17.9 C36.8183337,17.9866671 36.9066661,18.0549998 37.01,18.105 C37.1133338,18.1550003 37.226666,18.1899999 37.35,18.21 C37.4733339,18.2300001 37.5849995,18.24 37.685,18.24 C37.8116673,18.24 37.9483326,18.2233335 38.095,18.19 C38.2416674,18.1566665 38.3799993,18.1000004 38.51,18.02 C38.6400006,17.9399996 38.7483329,17.8383339 38.835,17.715 C38.9216671,17.5916661 38.965,17.4400009 38.965,17.26 L38.965,16.41 Z M40.815,13.83 L41.675,13.83 L41.675,12.28 L42.815,12.28 L42.815,13.83 L43.845,13.83 L43.845,14.68 L42.815,14.68 L42.815,17.44 C42.815,17.5600006 42.8199999,17.6633329 42.83,17.75 C42.8400001,17.8366671 42.8633332,17.9099997 42.9,17.97 C42.9366669,18.0300003 42.9916663,18.0749999 43.065,18.105 C43.1383337,18.1350001 43.2383327,18.15 43.365,18.15 C43.4450004,18.15 43.5249996,18.1483334 43.605,18.145 C43.6850004,18.1416666 43.7649996,18.1300001 43.845,18.11 L43.845,18.99 C43.7183327,19.0033334 43.5950006,19.0166666 43.475,19.03 C43.3549994,19.0433334 43.2316673,19.05 43.105,19.05 C42.8049985,19.05 42.5633342,19.021667 42.38,18.965 C42.1966658,18.908333 42.0533339,18.8250005 41.95,18.715 C41.8466662,18.6049995 41.7766668,18.4666675 41.74,18.3 C41.7033331,18.1333325 41.6816667,17.9433344 41.675,17.73 L41.675,14.68 L40.815,14.68 L40.815,13.83 Z M48.995,17.85 C48.995,17.9900007 49.0133331,18.0899997 49.05,18.15 C49.0866669,18.2100003 49.1583328,18.24 49.265,18.24 L49.385,18.24 C49.4316669,18.24 49.4849997,18.2333334 49.545,18.22 L49.545,19.01 C49.5049998,19.0233334 49.4533336,19.0383333 49.39,19.055 C49.3266663,19.0716667 49.261667,19.0866666 49.195,19.1 C49.128333,19.1133334 49.061667,19.1233333 48.995,19.13 C48.928333,19.1366667 48.8716669,19.14 48.825,19.14 C48.5916655,19.14 48.3983341,19.0933338 48.245,19 C48.0916659,18.9066662 47.9916669,18.7433345 47.945,18.51 C47.7183322,18.7300011 47.4400016,18.8899995 47.11,18.99 C46.7799983,19.0900005 46.4616682,19.14 46.155,19.14 C45.9216655,19.14 45.6983344,19.1083336 45.485,19.045 C45.2716656,18.9816664 45.0833341,18.8883339 44.92,18.765 C44.7566658,18.641666 44.6266672,18.4850009 44.53,18.295 C44.4333328,18.104999 44.385,17.8833346 44.385,17.63 C44.385,17.3099984 44.4433327,17.050001 44.56,16.85 C44.6766673,16.649999 44.829999,16.4933339 45.02,16.38 C45.2100009,16.2666661 45.4233321,16.1850003 45.66,16.135 C45.8966679,16.0849998 46.1349988,16.0466668 46.375,16.02 C46.5816677,15.9799998 46.7783324,15.9516668 46.965,15.935 C47.1516676,15.9183332 47.316666,15.8900002 47.46,15.85 C47.6033341,15.8099998 47.7166662,15.7483338 47.8,15.665 C47.8833337,15.5816662 47.925,15.4566675 47.925,15.29 C47.925,15.1433326 47.8900003,15.0233338 47.82,14.93 C47.7499996,14.8366662 47.6633339,14.7650002 47.56,14.715 C47.4566661,14.6649997 47.3416673,14.6316668 47.215,14.615 C47.0883327,14.5983332 46.9683339,14.59 46.855,14.59 C46.5349984,14.59 46.2716677,14.656666 46.065,14.79 C45.8583323,14.923334 45.7416668,15.1299986 45.715,15.41 L44.575,15.41 C44.5950001,15.076665 44.6749993,14.8000011 44.815,14.58 C44.9550007,14.3599989 45.1333322,14.183334 45.35,14.05 C45.5666677,13.916666 45.8116653,13.8233336 46.085,13.77 C46.3583347,13.7166664 46.6383319,13.69 46.925,13.69 C47.1783346,13.69 47.4283321,13.7166664 47.675,13.77 C47.9216679,13.8233336 48.1433323,13.9099994 48.34,14.03 C48.5366676,14.1500006 48.6949994,14.304999 48.815,14.495 C48.9350006,14.685001 48.995,14.9166653 48.995,15.19 L48.995,17.85 Z M47.855,16.41 C47.6816658,16.5233339 47.4683346,16.5916665 47.215,16.615 C46.9616654,16.6383335 46.7083346,16.6733331 46.455,16.72 C46.3349994,16.7400001 46.2183339,16.7683332 46.105,16.805 C45.9916661,16.8416668 45.8916671,16.8916664 45.805,16.955 C45.7183329,17.0183336 45.6500002,17.1016661 45.6,17.205 C45.5499997,17.3083339 45.525,17.4333326 45.525,17.58 C45.525,17.7066673 45.5616663,17.8133329 45.635,17.9 C45.7083337,17.9866671 45.7966662,18.0549998 45.9,18.105 C46.0033338,18.1550003 46.116666,18.1899999 46.24,18.21 C46.3633339,18.2300001 46.4749995,18.24 46.575,18.24 C46.7016673,18.24 46.8383326,18.2233335 46.985,18.19 C47.1316674,18.1566665 47.2699993,18.1000004 47.4,18.02 C47.5300006,17.9399996 47.6383329,17.8383339 47.725,17.715 C47.8116671,17.5916661 47.855,17.4400009 47.855,17.26 L47.855,16.41 Z M50.255,11.86 L51.395,11.86 L51.395,14.5 L51.415,14.5 C51.4950004,14.3733327 51.5916661,14.2600005 51.705,14.16 C51.8183339,14.0599995 51.9433327,13.9750004 52.08,13.905 C52.2166674,13.8349997 52.3599993,13.7816669 52.51,13.745 C52.6600008,13.7083331 52.8083326,13.69 52.955,13.69 C53.3616687,13.69 53.7166651,13.7616659 54.02,13.905 C54.3233349,14.0483341 54.574999,14.2449988 54.775,14.495 C54.975001,14.7450012 55.1249995,15.036665 55.225,15.37 C55.3250005,15.703335 55.375,16.0599981 55.375,16.44 C55.375,16.7866684 55.3300005,17.1233317 55.24,17.45 C55.1499996,17.7766683 55.0133342,18.0649988 54.83,18.315 C54.6466657,18.5650013 54.4150014,18.7649992 54.135,18.915 C53.8549986,19.0650007 53.5250019,19.14 53.145,19.14 C52.9716658,19.14 52.7966676,19.1283334 52.62,19.105 C52.4433324,19.0816666 52.2750008,19.036667 52.115,18.97 C51.9549992,18.903333 51.8100007,18.8166672 51.68,18.71 C51.5499994,18.6033328 51.4416671,18.4633342 51.355,18.29 L51.335,18.29 L51.335,19 L50.255,19 L50.255,11.86 Z M54.235,16.42 C54.235,16.1866655 54.2050003,15.9600011 54.145,15.74 C54.0849997,15.5199989 53.9950006,15.3250009 53.875,15.155 C53.7549994,14.9849992 53.6050009,14.8483338 53.425,14.745 C53.2449991,14.6416662 53.0383345,14.59 52.805,14.59 C52.3249976,14.59 51.9633345,14.756665 51.72,15.09 C51.4766654,15.423335 51.355,15.8666639 51.355,16.42 C51.355,16.6800013 51.3866663,16.9216656 51.45,17.145 C51.5133336,17.3683344 51.6083327,17.5599992 51.735,17.72 C51.8616673,17.8800008 52.0133324,18.0066662 52.19,18.1 C52.3666676,18.1933338 52.5716655,18.24 52.805,18.24 C53.0650013,18.24 53.2849991,18.1866672 53.465,18.08 C53.6450009,17.9733328 53.7933328,17.8350009 53.91,17.665 C54.0266673,17.4949991 54.1099998,17.3016678 54.16,17.085 C54.2100002,16.8683323 54.235,16.6466678 54.235,16.42 Z M60.665,17.85 C60.665,17.9900007 60.6833331,18.0899997 60.72,18.15 C60.7566669,18.2100003 60.8283328,18.24 60.935,18.24 L61.055,18.24 C61.1016669,18.24 61.1549997,18.2333334 61.215,18.22 L61.215,19.01 C61.1749998,19.0233334 61.1233337,19.0383333 61.06,19.055 C60.9966664,19.0716667 60.931667,19.0866666 60.865,19.1 C60.798333,19.1133334 60.731667,19.1233333 60.665,19.13 C60.598333,19.1366667 60.5416669,19.14 60.495,19.14 C60.2616655,19.14 60.0683341,19.0933338 59.915,19 C59.7616659,18.9066662 59.6616669,18.7433345 59.615,18.51 C59.3883322,18.7300011 59.1100017,18.8899995 58.78,18.99 C58.4499984,19.0900005 58.1316682,19.14 57.825,19.14 C57.5916655,19.14 57.3683344,19.1083336 57.155,19.045 C56.9416656,18.9816664 56.7533342,18.8883339 56.59,18.765 C56.4266659,18.641666 56.2966672,18.4850009 56.2,18.295 C56.1033329,18.104999 56.055,17.8833346 56.055,17.63 C56.055,17.3099984 56.1133327,17.050001 56.23,16.85 C56.3466672,16.649999 56.499999,16.4933339 56.69,16.38 C56.8800009,16.2666661 57.0933321,16.1850003 57.33,16.135 C57.5666679,16.0849998 57.8049988,16.0466668 58.045,16.02 C58.2516677,15.9799998 58.4483324,15.9516668 58.635,15.935 C58.8216676,15.9183332 58.986666,15.8900002 59.13,15.85 C59.2733341,15.8099998 59.3866663,15.7483338 59.47,15.665 C59.5533338,15.5816662 59.595,15.4566675 59.595,15.29 C59.595,15.1433326 59.5600003,15.0233338 59.49,14.93 C59.4199996,14.8366662 59.3333339,14.7650002 59.23,14.715 C59.1266662,14.6649997 59.0116673,14.6316668 58.885,14.615 C58.7583327,14.5983332 58.6383339,14.59 58.525,14.59 C58.2049984,14.59 57.9416677,14.656666 57.735,14.79 C57.5283323,14.923334 57.4116668,15.1299986 57.385,15.41 L56.245,15.41 C56.2650001,15.076665 56.3449993,14.8000011 56.485,14.58 C56.6250007,14.3599989 56.8033322,14.183334 57.02,14.05 C57.2366677,13.916666 57.4816653,13.8233336 57.755,13.77 C58.0283347,13.7166664 58.3083319,13.69 58.595,13.69 C58.8483346,13.69 59.0983321,13.7166664 59.345,13.77 C59.5916679,13.8233336 59.8133323,13.9099994 60.01,14.03 C60.2066676,14.1500006 60.3649994,14.304999 60.485,14.495 C60.6050006,14.685001 60.665,14.9166653 60.665,15.19 L60.665,17.85 Z M59.525,16.41 C59.3516658,16.5233339 59.1383346,16.5916665 58.885,16.615 C58.6316654,16.6383335 58.3783346,16.6733331 58.125,16.72 C58.0049994,16.7400001 57.8883339,16.7683332 57.775,16.805 C57.6616661,16.8416668 57.5616671,16.8916664 57.475,16.955 C57.3883329,17.0183336 57.3200002,17.1016661 57.27,17.205 C57.2199997,17.3083339 57.195,17.4333326 57.195,17.58 C57.195,17.7066673 57.2316663,17.8133329 57.305,17.9 C57.3783337,17.9866671 57.4666662,18.0549998 57.57,18.105 C57.6733338,18.1550003 57.786666,18.1899999 57.91,18.21 C58.0333339,18.2300001 58.1449995,18.24 58.245,18.24 C58.3716673,18.24 58.5083326,18.2233335 58.655,18.19 C58.8016674,18.1566665 58.9399994,18.1000004 59.07,18.02 C59.2000006,17.9399996 59.3083329,17.8383339 59.395,17.715 C59.4816671,17.5916661 59.525,17.4400009 59.525,17.26 L59.525,16.41 Z M62.755,17.34 C62.7883335,17.673335 62.9149989,17.906666 63.135,18.04 C63.3550011,18.173334 63.6183318,18.24 63.925,18.24 C64.0316672,18.24 64.1533327,18.2316668 64.29,18.215 C64.4266674,18.1983333 64.5549994,18.1666669 64.675,18.12 C64.7950006,18.0733331 64.893333,18.0050005 64.97,17.915 C65.046667,17.8249996 65.0816667,17.7066674 65.075,17.56 C65.0683333,17.4133326 65.0150005,17.2933338 64.915,17.2 C64.8149995,17.1066662 64.6866675,17.031667 64.53,16.975 C64.3733326,16.9183331 64.195001,16.8700002 63.995,16.83 C63.794999,16.7899998 63.5916677,16.7466669 63.385,16.7 C63.1716656,16.6533331 62.9666677,16.596667 62.77,16.53 C62.5733324,16.463333 62.3966675,16.3733339 62.24,16.26 C62.0833326,16.1466661 61.9583338,16.0016676 61.865,15.825 C61.7716662,15.6483324 61.725,15.4300013 61.725,15.17 C61.725,14.8899986 61.7933326,14.6550009 61.93,14.465 C62.0666674,14.274999 62.239999,14.1216672 62.45,14.005 C62.6600011,13.8883328 62.893332,13.8066669 63.15,13.76 C63.4066679,13.7133331 63.6516655,13.69 63.885,13.69 C64.151668,13.69 64.4066655,13.718333 64.65,13.775 C64.8933345,13.8316669 65.1133324,13.9233327 65.31,14.05 C65.5066676,14.1766673 65.6699994,14.3416656 65.8,14.545 C65.9300007,14.7483344 66.0116665,14.9933319 66.045,15.28 L64.855,15.28 C64.8016664,15.0066653 64.6766676,14.8233338 64.48,14.73 C64.2833323,14.6366662 64.0583346,14.59 63.805,14.59 C63.7249996,14.59 63.6300006,14.5966666 63.52,14.61 C63.4099995,14.6233334 63.3066672,14.6483331 63.21,14.685 C63.1133329,14.7216669 63.031667,14.7749996 62.965,14.845 C62.898333,14.9150003 62.865,15.0066661 62.865,15.12 C62.865,15.2600007 62.9133329,15.3733329 63.01,15.46 C63.1066672,15.5466671 63.2333326,15.6183331 63.39,15.675 C63.5466675,15.731667 63.724999,15.7799998 63.925,15.82 C64.125001,15.8600002 64.3316656,15.9033331 64.545,15.95 C64.7516677,15.9966669 64.954999,16.053333 65.155,16.12 C65.355001,16.186667 65.5333325,16.2766661 65.69,16.39 C65.8466675,16.5033339 65.9733329,16.6466658 66.07,16.82 C66.1666671,16.9933342 66.215,17.2066654 66.215,17.46 C66.215,17.7666682 66.1450007,18.0266656 66.005,18.24 C65.8649993,18.4533344 65.6833345,18.626666 65.46,18.76 C65.2366655,18.893334 64.9883347,18.9899997 64.715,19.05 C64.4416653,19.1100003 64.171668,19.14 63.905,19.14 C63.5783317,19.14 63.276668,19.1033337 63,19.03 C62.723332,18.9566663 62.4833344,18.8450008 62.28,18.695 C62.0766657,18.5449993 61.9166673,18.3583345 61.8,18.135 C61.6833328,17.9116655 61.6216667,17.6466682 61.615,17.34 L62.755,17.34 Z M70.635,15.96 C70.6216666,15.7799991 70.5833337,15.6066675 70.52,15.44 C70.4566664,15.2733325 70.3700006,15.128334 70.26,15.005 C70.1499994,14.881666 70.0166674,14.781667 69.86,14.705 C69.7033325,14.628333 69.5283343,14.59 69.335,14.59 C69.134999,14.59 68.9533341,14.6249996 68.79,14.695 C68.6266658,14.7650004 68.4866673,14.8616661 68.37,14.985 C68.2533327,15.108334 68.1600003,15.2533325 68.09,15.42 C68.0199996,15.5866675 67.9816667,15.7666657 67.975,15.96 L70.635,15.96 Z M67.975,16.71 C67.975,16.910001 68.003333,17.1033324 68.06,17.29 C68.1166669,17.4766676 68.2016661,17.6399993 68.315,17.78 C68.4283339,17.9200007 68.5716658,18.0316663 68.745,18.115 C68.9183342,18.1983337 69.1249988,18.24 69.365,18.24 C69.698335,18.24 69.9666656,18.168334 70.17,18.025 C70.3733343,17.8816659 70.5249995,17.6666681 70.625,17.38 L71.705,17.38 C71.6449997,17.6600014 71.5416674,17.9099989 71.395,18.13 C71.2483326,18.3500011 71.0716677,18.5349992 70.865,18.685 C70.6583323,18.8350007 70.4266679,18.948333 70.17,19.025 C69.913332,19.101667 69.6450014,19.14 69.365,19.14 C68.9583313,19.14 68.5983349,19.073334 68.285,18.94 C67.9716651,18.806666 67.7066677,18.6200012 67.49,18.38 C67.2733322,18.1399988 67.1100005,17.853335 67,17.52 C66.8899994,17.186665 66.835,16.820002 66.835,16.42 C66.835,16.0533315 66.8933327,15.7050016 67.01,15.375 C67.1266672,15.0449984 67.2933322,14.7550012 67.51,14.505 C67.7266677,14.2549987 67.9883318,14.0566674 68.295,13.91 C68.6016682,13.7633326 68.9483314,13.69 69.335,13.69 C69.7416687,13.69 70.106665,13.7749991 70.43,13.945 C70.7533349,14.1150009 71.0216656,14.3399986 71.235,14.62 C71.4483344,14.9000014 71.6033328,15.2216648 71.7,15.585 C71.7966671,15.9483352 71.8216669,16.3233314 71.775,16.71 L67.975,16.71 Z" id="Database" fill="#4C78BA" fill-rule="nonzero"></path>
            </g>
            <g id="Group-14-Copy" transform="translate(113.000000, 62.000000)">
                <polyline id="Path" stroke="#4C78BA" stroke-width="2" stroke-linecap="square" transform="translate(7.000000, 49.000000) scale(-1, 1) rotate(-270.000000) translate(-7.000000, -49.000000) " points="3 51 7 47 7 47 11 51"></polyline>
                <path d="M1.57645089,1 L14,1 C16.7614237,1 19,2.76150262 19,4.93442623 L19,45.0655738 C19,47.2384974 16.7614237,49 14,49 L6.57645089,49" id="Path" stroke="#4C78BA" stroke-width="2" stroke-linecap="round"></path>
                <rect id="Rectangle" fill="#4C78BA" x="0" y="0" width="3" height="2"></rect>
            </g>
        </g>
    </g>
</svg>
