<?xml version="1.0" encoding="UTF-8" standalone="no"?>
<!-- Created with Keyshape -->
<svg xmlns="http://www.w3.org/2000/svg" xmlns:xlink="http://www.w3.org/1999/xlink" viewBox="0 0 140 130">
    <style>
@keyframes loading1_o { 0% { opacity: 0; } 1.5038% { opacity: 1; } 9.7744% { opacity: 1; } 12.0301% { opacity: 0; } 100% { opacity: 0; } }
@keyframes a0_o { 0% { opacity: 1; } 1.5038% { opacity: 1; } 2.2556% { opacity: 0; } 100% { opacity: 0; } }
@keyframes a1_o { 0% { opacity: 0; } 1.5038% { opacity: 0; } 2.2556% { opacity: 1; } 3.0075% { opacity: 0; } 100% { opacity: 0; } }
@keyframes a2_o { 0% { opacity: 0; } 2.2556% { opacity: 0; } 3.0075% { opacity: 1; } 3.7594% { opacity: 0; } 100% { opacity: 0; } }
@keyframes a3_o { 0% { opacity: 0; } 3.0075% { opacity: 0; } 3.7594% { opacity: 1; } 4.5113% { opacity: 0; } 100% { opacity: 0; } }
@keyframes a4_o { 0% { opacity: 0; } 3.7594% { opacity: 0; } 4.5113% { opacity: 1; } 5.2632% { opacity: 0; } 100% { opacity: 0; } }
@keyframes a5_o { 0% { opacity: 0; } 4.5113% { opacity: 0; } 5.2632% { opacity: 1; } 6.015% { opacity: 0; } 100% { opacity: 0; } }
@keyframes a6_o { 0% { opacity: 0; } 5.2632% { opacity: 0; } 6.015% { opacity: 1; } 6.7669% { opacity: 0; } 100% { opacity: 0; } }
@keyframes a7_o { 0% { opacity: 0; } 6.015% { opacity: 0; } 6.7669% { opacity: 1; } 7.5188% { opacity: 0; } 100% { opacity: 0; } }
@keyframes a8_o { 0% { opacity: 0; } 6.7669% { opacity: 0; } 7.5188% { opacity: 1; } 8.2707% { opacity: 0; } 100% { opacity: 0; } }
@keyframes a9_o { 0% { opacity: 0; } 7.5188% { opacity: 0; } 8.2707% { opacity: 1; } 9.0226% { opacity: 0; } 100% { opacity: 0; } }
@keyframes a10_o { 0% { opacity: 0; } 8.2707% { opacity: 0; } 9.0226% { opacity: 1; } 100% { opacity: 1; } }
@keyframes Oval-2_do { 0% { stroke-dashoffset: 156.85px; } 1.5038% { stroke-dashoffset: 156.85px; } 9.0226% { stroke-dashoffset: 0px; } 100% { stroke-dashoffset: 0px; } }
@keyframes success_o { 0% { opacity: 0; } 10.5263% { opacity: 0; } 11.2782% { opacity: 1; } 44.3609% { opacity: 1; } 45.1128% { opacity: 0; } 100% { opacity: 0; } }
@keyframes Path_do { 0% { stroke-dashoffset: 37.62px; } 15.0376% { stroke-dashoffset: 37.62px; animation-timing-function: cubic-bezier(0.42,0,0.58,1); } 18.0451% { stroke-dashoffset: 0px; } 100% { stroke-dashoffset: 0px; } }
@keyframes Success\!_o { 0% { opacity: 0; } 14.2857% { opacity: 0; } 16.5414% { opacity: 1; } 100% { opacity: 1; } }
@keyframes Oval-5_t { 0% { transform: translate(25px,25px) scale(0,0); } 11.2781% { transform: translate(25px,25px) scale(0,0); } 13.5338% { transform: translate(25px,25px) scale(1,1); } 14.2857% { transform: translate(25px,25px) scale(1.1,1.1); } 15.0375% { transform: translate(25px,25px) scale(1,1); } 100% { transform: translate(25px,25px) scale(1,1); } }
@keyframes loading2_o { 0% { opacity: 0; } 45.1128% { opacity: 0; } 46.6165% { opacity: 1; } 54.8872% { opacity: 1; } 57.1429% { opacity: 0; } 100% { opacity: 0; } }
@keyframes a11_o { 0% { opacity: 1; } 46.6165% { opacity: 1; } 47.3684% { opacity: 0; } 100% { opacity: 0; } }
@keyframes a12_o { 0% { opacity: 0; } 46.6165% { opacity: 0; } 47.3684% { opacity: 1; } 48.1203% { opacity: 0; } 100% { opacity: 0; } }
@keyframes a13_o { 0% { opacity: 0; } 47.3684% { opacity: 0; } 48.1203% { opacity: 1; } 48.8722% { opacity: 0; } 100% { opacity: 0; } }
@keyframes a14_o { 0% { opacity: 0; } 48.1203% { opacity: 0; } 48.8722% { opacity: 1; } 49.6241% { opacity: 0; } 100% { opacity: 0; } }
@keyframes a15_o { 0% { opacity: 0; } 48.8722% { opacity: 0; } 49.6241% { opacity: 1; } 50.3759% { opacity: 0; } 100% { opacity: 0; } }
@keyframes a16_o { 0% { opacity: 0; } 49.6241% { opacity: 0; } 50.3759% { opacity: 1; } 51.1278% { opacity: 0; } 100% { opacity: 0; } }
@keyframes a17_o { 0% { opacity: 0; } 50.3759% { opacity: 0; } 51.1278% { opacity: 1; } 51.8797% { opacity: 0; } 100% { opacity: 0; } }
@keyframes a18_o { 0% { opacity: 0; } 51.1278% { opacity: 0; } 51.8797% { opacity: 1; } 52.6316% { opacity: 0; } 100% { opacity: 0; } }
@keyframes a19_o { 0% { opacity: 0; } 51.8797% { opacity: 0; } 52.6316% { opacity: 1; } 53.3835% { opacity: 0; } 100% { opacity: 0; } }
@keyframes a20_o { 0% { opacity: 0; } 52.6316% { opacity: 0; } 53.3835% { opacity: 1; } 54.1353% { opacity: 0; } 100% { opacity: 0; } }
@keyframes a21_o { 0% { opacity: 0; } 53.3835% { opacity: 0; } 54.1353% { opacity: 1; } 100% { opacity: 1; } }
@keyframes Oval-4_do { 0% { stroke-dashoffset: 156.85px; } 46.6165% { stroke-dashoffset: 156.85px; } 54.1353% { stroke-dashoffset: 0px; } 100% { stroke-dashoffset: 0px; } }
@keyframes error_o { 0% { opacity: 0; } 56.391% { opacity: 0; } 57.8947% { opacity: 1; } 97.7444% { opacity: 1; } 99.2481% { opacity: 0; } 100% { opacity: 0; } }
@keyframes Path-2_do { 0% { stroke-dashoffset: 22px; } 61.6541% { stroke-dashoffset: 22px; animation-timing-function: cubic-bezier(0.433964,0,0.659745,0.689593); } 63.9098% { stroke-dashoffset: 2.84156px; } 64.6617% { stroke-dashoffset: 2.84156px; animation-timing-function: cubic-bezier(0.296462,0.607823,0.621891,1); } 65.4135% { stroke-dashoffset: 0px; } 100% { stroke-dashoffset: 0px; } }
@keyframes Error\!_o { 0% { opacity: 0; } 60.9023% { opacity: 0; } 63.1579% { opacity: 1; } 100% { opacity: 1; } }
@keyframes Oval-6_t { 0% { transform: translate(25px,22.5px) scale(0,0) translate(-25px,-22.5px); } 57.8947% { transform: translate(25px,22.5px) scale(0,0) translate(-25px,-22.5px); } 60.1503% { transform: translate(25px,22.5px) scale(1,1) translate(-25px,-22.5px); } 60.9022% { transform: translate(25px,22.5px) scale(1.1,1.1) translate(-25px,-22.5px); } 61.6541% { transform: translate(25px,22.5px) scale(1,1) translate(-25px,-22.5px); } 100% { transform: translate(25px,22.5px) scale(1,1) translate(-25px,-22.5px); } }
    </style>
    <title>promises-1 outlined</title>
    <desc>Created with Sketch.</desc>
    <g id="loading1" stroke="none" stroke-width="1" fill="none" fill-rule="evenodd" opacity="0" transform="translate(45,34)" style="animation: 13.3s linear infinite both loading1_o;">
        <path id="Loading" d="M6.76,53.86L8.01,53.86L8.01,59.92L11.64,59.92L11.64,61L6.76,61L6.76,53.86ZM14.71,61.14C14.2967,61.14,13.9283,61.0717,13.605,60.935C13.2817,60.7983,13.0083,60.61,12.785,60.37C12.5617,60.13,12.3917,59.8433,12.275,59.51C12.1583,59.1767,12.1,58.81,12.1,58.41C12.1,58.0167,12.1583,57.6533,12.275,57.32C12.3917,56.9867,12.5617,56.7,12.785,56.46C13.0083,56.22,13.2817,56.0317,13.605,55.895C13.9283,55.7583,14.2967,55.69,14.71,55.69C15.1233,55.69,15.4917,55.7583,15.815,55.895C16.1383,56.0317,16.4117,56.22,16.635,56.46C16.8583,56.7,17.0283,56.9867,17.145,57.32C17.2617,57.6533,17.32,58.0167,17.32,58.41C17.32,58.81,17.2617,59.1767,17.145,59.51C17.0283,59.8433,16.8583,60.13,16.635,60.37C16.4117,60.61,16.1383,60.7983,15.815,60.935C15.4917,61.0717,15.1233,61.14,14.71,61.14ZM14.71,60.24C14.9633,60.24,15.1833,60.1867,15.37,60.08C15.5567,59.9733,15.71,59.8333,15.83,59.66C15.95,59.4867,16.0383,59.2917,16.095,59.075C16.1517,58.8583,16.18,58.6367,16.18,58.41C16.18,58.19,16.1517,57.97,16.095,57.75C16.0383,57.53,15.95,57.335,15.83,57.165C15.71,56.995,15.5567,56.8567,15.37,56.75C15.1833,56.6433,14.9633,56.59,14.71,56.59C14.4567,56.59,14.2367,56.6433,14.05,56.75C13.8633,56.8567,13.71,56.995,13.59,57.165C13.47,57.335,13.3817,57.53,13.325,57.75C13.2683,57.97,13.24,58.19,13.24,58.41C13.24,58.6367,13.2683,58.8583,13.325,59.075C13.3817,59.2917,13.47,59.4867,13.59,59.66C13.71,59.8333,13.8633,59.9733,14.05,60.08C14.2367,60.1867,14.4567,60.24,14.71,60.24ZM22.6,59.85C22.6,59.99,22.6183,60.09,22.655,60.15C22.6917,60.21,22.7633,60.24,22.87,60.24L22.99,60.24C23.0367,60.24,23.09,60.2333,23.15,60.22L23.15,61.01C23.11,61.0233,23.0583,61.0383,22.995,61.055C22.9317,61.0717,22.8667,61.0867,22.8,61.1C22.7333,61.1133,22.6667,61.1233,22.6,61.13C22.5333,61.1367,22.4767,61.14,22.43,61.14C22.1967,61.14,22.0033,61.0933,21.85,61C21.6967,60.9067,21.5967,60.7433,21.55,60.51C21.3233,60.73,21.045,60.89,20.715,60.99C20.385,61.09,20.0667,61.14,19.76,61.14C19.5267,61.14,19.3033,61.1083,19.09,61.045C18.8767,60.9817,18.6883,60.8883,18.525,60.765C18.3617,60.6417,18.2317,60.485,18.135,60.295C18.0383,60.105,17.99,59.8833,17.99,59.63C17.99,59.31,18.0483,59.05,18.165,58.85C18.2817,58.65,18.435,58.4933,18.625,58.38C18.815,58.2667,19.0283,58.185,19.265,58.135C19.5017,58.085,19.74,58.0467,19.98,58.02C20.1867,57.98,20.3833,57.9517,20.57,57.935C20.7567,57.9183,20.9217,57.89,21.065,57.85C21.2083,57.81,21.3217,57.7483,21.405,57.665C21.4883,57.5817,21.53,57.4567,21.53,57.29C21.53,57.1433,21.495,57.0233,21.425,56.93C21.355,56.8367,21.2683,56.765,21.165,56.715C21.0617,56.665,20.9467,56.6317,20.82,56.615C20.6933,56.5983,20.5733,56.59,20.46,56.59C20.14,56.59,19.8767,56.6567,19.67,56.79C19.4633,56.9233,19.3467,57.13,19.32,57.41L18.18,57.41C18.2,57.0767,18.28,56.8,18.42,56.58C18.56,56.36,18.7383,56.1833,18.955,56.05C19.1717,55.9167,19.4167,55.8233,19.69,55.77C19.9633,55.7167,20.2433,55.69,20.53,55.69C20.7833,55.69,21.0333,55.7167,21.28,55.77C21.5267,55.8233,21.7483,55.91,21.945,56.03C22.1417,56.15,22.3,56.305,22.42,56.495C22.54,56.685,22.6,56.9167,22.6,57.19L22.6,59.85ZM21.46,58.41C21.2867,58.5233,21.0733,58.5917,20.82,58.615C20.5667,58.6383,20.3133,58.6733,20.06,58.72C19.94,58.74,19.8233,58.7683,19.71,58.805C19.5967,58.8417,19.4967,58.8917,19.41,58.955C19.3233,59.0183,19.255,59.1017,19.205,59.205C19.155,59.3083,19.13,59.4333,19.13,59.58C19.13,59.7067,19.1667,59.8133,19.24,59.9C19.3133,59.9867,19.4017,60.055,19.505,60.105C19.6083,60.155,19.7217,60.19,19.845,60.21C19.9683,60.23,20.08,60.24,20.18,60.24C20.3067,60.24,20.4433,60.2233,20.59,60.19C20.7367,60.1567,20.875,60.1,21.005,60.02C21.135,59.94,21.2433,59.8383,21.33,59.715C21.4167,59.5917,21.46,59.44,21.46,59.26L21.46,58.41ZM28.7,61L27.62,61L27.62,60.3L27.6,60.3C27.4467,60.6,27.2233,60.815,26.93,60.945C26.6367,61.075,26.3267,61.14,26,61.14C25.5933,61.14,25.2383,61.0683,24.935,60.925C24.6317,60.7817,24.38,60.5867,24.18,60.34C23.98,60.0933,23.83,59.8017,23.73,59.465C23.63,59.1283,23.58,58.7667,23.58,58.38C23.58,57.9133,23.6433,57.51,23.77,57.17C23.8967,56.83,24.065,56.55,24.275,56.33C24.485,56.11,24.725,55.9483,24.995,55.845C25.265,55.7417,25.54,55.69,25.82,55.69C25.98,55.69,26.1433,55.705,26.31,55.735C26.4767,55.765,26.6367,55.8133,26.79,55.88C26.9433,55.9467,27.085,56.0317,27.215,56.135C27.345,56.2383,27.4533,56.36,27.54,56.5L27.56,56.5L27.56,53.86L28.7,53.86L28.7,61ZM24.72,58.47C24.72,58.69,24.7483,58.9067,24.805,59.12C24.8617,59.3333,24.9483,59.5233,25.065,59.69C25.1817,59.8567,25.33,59.99,25.51,60.09C25.69,60.19,25.9033,60.24,26.15,60.24C26.4033,60.24,26.6217,60.1867,26.805,60.08C26.9883,59.9733,27.1383,59.8333,27.255,59.66C27.3717,59.4867,27.4583,59.2917,27.515,59.075C27.5717,58.8583,27.6,58.6367,27.6,58.41C27.6,57.8367,27.4717,57.39,27.215,57.07C26.9583,56.75,26.61,56.59,26.17,56.59C25.9033,56.59,25.6783,56.645,25.495,56.755C25.3117,56.865,25.1617,57.0083,25.045,57.185C24.9283,57.3617,24.845,57.5617,24.795,57.785C24.745,58.0083,24.72,58.2367,24.72,58.47ZM29.97,53.86L31.11,53.86L31.11,54.94L29.97,54.94L29.97,53.86ZM29.97,55.83L31.11,55.83L31.11,61L29.97,61L29.97,55.83ZM32.35,55.83L33.43,55.83L33.43,56.59L33.45,56.61C33.6233,56.3233,33.85,56.0983,34.13,55.935C34.41,55.7717,34.72,55.69,35.06,55.69C35.6267,55.69,36.0733,55.8367,36.4,56.13C36.7267,56.4233,36.89,56.8633,36.89,57.45L36.89,61L35.75,61L35.75,57.75C35.7367,57.3433,35.65,57.0483,35.49,56.865C35.33,56.6817,35.08,56.59,34.74,56.59C34.5467,56.59,34.3733,56.625,34.22,56.695C34.0667,56.765,33.9367,56.8617,33.83,56.985C33.7233,57.1083,33.64,57.2533,33.58,57.42C33.52,57.5867,33.49,57.7633,33.49,57.95L33.49,61L32.35,61L32.35,55.83ZM42.87,60.73C42.87,61.51,42.6517,62.0917,42.215,62.475C41.7783,62.8583,41.15,63.05,40.33,63.05C40.07,63.05,39.8083,63.0233,39.545,62.97C39.2817,62.9167,39.0417,62.8267,38.825,62.7C38.6083,62.5733,38.4267,62.4067,38.28,62.2C38.1333,61.9933,38.0467,61.74,38.02,61.44L39.16,61.44C39.1933,61.6,39.25,61.73,39.33,61.83C39.41,61.93,39.505,62.0083,39.615,62.065C39.725,62.1217,39.8467,62.1583,39.98,62.175C40.1133,62.1917,40.2533,62.2,40.4,62.2C40.86,62.2,41.1967,62.0867,41.41,61.86C41.6233,61.6333,41.73,61.3067,41.73,60.88L41.73,60.09L41.71,60.09C41.55,60.3767,41.3317,60.6,41.055,60.76C40.7783,60.92,40.48,61,40.16,61C39.7467,61,39.395,60.9283,39.105,60.785C38.815,60.6417,38.575,60.445,38.385,60.195C38.195,59.945,38.0567,59.6567,37.97,59.33C37.8833,59.0033,37.84,58.6533,37.84,58.28C37.84,57.9333,37.8933,57.6033,38,57.29C38.1067,56.9767,38.26,56.7017,38.46,56.465C38.66,56.2283,38.905,56.04,39.195,55.9C39.485,55.76,39.8133,55.69,40.18,55.69C40.5067,55.69,40.8067,55.7583,41.08,55.895C41.3533,56.0317,41.5633,56.2467,41.71,56.54L41.73,56.54L41.73,55.83L42.87,55.83L42.87,60.73ZM40.34,60.1C40.5933,60.1,40.8083,60.0483,40.985,59.945C41.1617,59.8417,41.305,59.705,41.415,59.535C41.525,59.365,41.605,59.1717,41.655,58.955C41.705,58.7383,41.73,58.52,41.73,58.3C41.73,58.08,41.7033,57.8667,41.65,57.66C41.5967,57.4533,41.515,57.27,41.405,57.11C41.295,56.95,41.1517,56.8233,40.975,56.73C40.7983,56.6367,40.5867,56.59,40.34,56.59C40.0867,56.59,39.8733,56.6433,39.7,56.75C39.5267,56.8567,39.3867,56.995,39.28,57.165C39.1733,57.335,39.0967,57.5283,39.05,57.745C39.0033,57.9617,38.98,58.1767,38.98,58.39C38.98,58.6033,39.0067,58.8117,39.06,59.015C39.1133,59.2183,39.195,59.4,39.305,59.56C39.415,59.72,39.555,59.85,39.725,59.95C39.895,60.05,40.1,60.1,40.34,60.1Z" fill="#4C78BA" fill-rule="nonzero"/>
        <g id="numbers" transform="translate(25,26) translate(-13.3359,-8.00001)">
            <text fill="#4c78ba" font-size="16" font-family="sans-serif" letter-spacing="0em" word-spacing="0em" stroke="none" text-anchor="middle" opacity="1" transform="translate(13.3359,12.3203)" style="line-height: 16px; animation: 13.3s linear infinite both a0_o;">0</text>
            <text fill="#4c78ba" font-size="16" font-family="sans-serif" letter-spacing="0em" word-spacing="0em" stroke="none" text-anchor="middle" opacity="0" transform="translate(13.3359,12.3203)" style="line-height: 16px; white-space: pre; animation: 13.3s linear infinite both a1_o;">10</text>
            <text fill="#4c78ba" font-size="16" font-family="sans-serif" letter-spacing="0em" word-spacing="0em" stroke="none" text-anchor="middle" opacity="0" transform="translate(13.3359,12.3203)" style="line-height: 16px; white-space: pre; animation: 13.3s linear infinite both a2_o;">20</text>
            <text fill="#4c78ba" font-size="16" font-family="sans-serif" letter-spacing="0em" word-spacing="0em" stroke="none" text-anchor="middle" opacity="0" transform="translate(13.3359,12.3203)" style="line-height: 16px; white-space: pre; animation: 13.3s linear infinite both a3_o;">30</text>
            <text fill="#4c78ba" font-size="16" font-family="sans-serif" letter-spacing="0em" word-spacing="0em" stroke="none" text-anchor="middle" opacity="0" transform="translate(13.3359,12.3203)" style="line-height: 16px; white-space: pre; animation: 13.3s linear infinite both a4_o;">40</text>
            <text fill="#4c78ba" font-size="16" font-family="sans-serif" letter-spacing="0em" word-spacing="0em" stroke="none" text-anchor="middle" opacity="0" transform="translate(13.3359,12.3203)" style="line-height: 16px; white-space: pre; animation: 13.3s linear infinite both a5_o;">50</text>
            <text fill="#4c78ba" font-size="16" font-family="sans-serif" letter-spacing="0em" word-spacing="0em" stroke="none" text-anchor="middle" opacity="0" transform="translate(13.3359,12.3203)" style="line-height: 16px; white-space: pre; animation: 13.3s linear infinite both a6_o;">60</text>
            <text fill="#4c78ba" font-size="16" font-family="sans-serif" letter-spacing="0em" word-spacing="0em" stroke="none" text-anchor="middle" opacity="0" transform="translate(13.3359,12.3203)" style="line-height: 16px; white-space: pre; animation: 13.3s linear infinite both a7_o;">70</text>
            <text fill="#4c78ba" font-size="16" font-family="sans-serif" letter-spacing="0em" word-spacing="0em" stroke="none" text-anchor="middle" opacity="0" transform="translate(13.3359,12.3203)" style="line-height: 16px; white-space: pre; animation: 13.3s linear infinite both a8_o;">80</text>
            <text fill="#4c78ba" font-size="16" font-family="sans-serif" letter-spacing="0em" word-spacing="0em" stroke="none" text-anchor="middle" opacity="0" transform="translate(13.3359,12.3203)" style="line-height: 16px; white-space: pre; animation: 13.3s linear infinite both a9_o;">90</text>
            <text fill="#4c78ba" font-size="16" font-family="sans-serif" letter-spacing="0em" word-spacing="0em" stroke="none" text-anchor="middle" opacity="0" transform="translate(13.3359,12.3203)" style="line-height: 16px; white-space: pre; animation: 13.3s linear infinite both a10_o;">100</text>
        </g>
        <ellipse id="Oval" rx="25" ry="25" stroke="#4c78ba" transform="translate(0,0) translate(25,25)"/>
        <ellipse id="Oval-2" rx="25" ry="25" stroke="#4c78ba" stroke-width="4" stroke-dasharray="156.84999999999999" stroke-dashoffset="156.85000000000002" stroke-linecap="square" transform="translate(25,25) rotate(-90)" style="animation: 13.3s linear infinite both Oval-2_do;"/>
    </g>
    <g id="success" stroke="none" stroke-width="1" fill="none" fill-rule="evenodd" opacity="0" transform="translate(45,34)" style="animation: 13.3s linear infinite both success_o;">
        <path id="Path" stroke-width="2" d="M12.975,27.2195L22.0879,34.5455L37.065,13.3333" stroke="#4C78BA" stroke-dasharray="37.619999999999997" stroke-dashoffset="37.620000000000005" style="animation: 13.3s linear infinite both Path_do;"/>
        <path id="Success!" d="M6.05,58.62C6.05,58.8933,6.09667,59.1267,6.19,59.32C6.28333,59.5133,6.41333,59.6717,6.58,59.795C6.74667,59.9183,6.93833,60.0083,7.155,60.065C7.37167,60.1217,7.60667,60.15,7.86,60.15C8.13333,60.15,8.36667,60.1183,8.56,60.055C8.75333,59.9917,8.91,59.91,9.03,59.81C9.15,59.71,9.23667,59.595,9.29,59.465C9.34333,59.335,9.37,59.2033,9.37,59.07C9.37,58.7967,9.30833,58.595,9.185,58.465C9.06167,58.335,8.92667,58.2433,8.78,58.19C8.52667,58.0967,8.23167,58.0083,7.895,57.925C7.55833,57.8417,7.14334,57.7333,6.65,57.6C6.34333,57.52,6.08833,57.415,5.885,57.285C5.68167,57.155,5.52,57.01,5.4,56.85C5.28,56.69,5.195,56.52,5.145,56.34C5.095,56.16,5.07,55.9767,5.07,55.79C5.07,55.43,5.145,55.1183,5.295,54.855C5.445,54.5917,5.64333,54.3733,5.89,54.2C6.13667,54.0267,6.41667,53.8983,6.73,53.815C7.04333,53.7317,7.36,53.69,7.68,53.69C8.05334,53.69,8.405,53.7383,8.735,53.835C9.065,53.9317,9.355,54.0767,9.605,54.27C9.855,54.4633,10.0533,54.7017,10.2,54.985C10.3467,55.2683,10.42,55.5967,10.42,55.97L9.17,55.97C9.13667,55.51,8.98,55.185,8.7,54.995C8.42,54.805,8.06334,54.71,7.63,54.71C7.48333,54.71,7.33333,54.725,7.18,54.755C7.02667,54.785,6.88667,54.835,6.76,54.905C6.63333,54.975,6.52833,55.07,6.445,55.19C6.36167,55.31,6.32,55.46,6.32,55.64C6.32,55.8933,6.39833,56.0917,6.555,56.235C6.71167,56.3783,6.91667,56.4867,7.17,56.56C7.19667,56.5667,7.30167,56.595,7.485,56.645C7.66833,56.695,7.87333,56.75,8.1,56.81C8.32667,56.87,8.54833,56.9283,8.765,56.985C8.98167,57.0417,9.13667,57.0833,9.23,57.11C9.46333,57.1833,9.66667,57.2833,9.84,57.41C10.0133,57.5367,10.1583,57.6817,10.275,57.845C10.3917,58.0083,10.4783,58.1833,10.535,58.37C10.5917,58.5567,10.62,58.7433,10.62,58.93C10.62,59.33,10.5383,59.6717,10.375,59.955C10.2117,60.2383,9.99667,60.47,9.73,60.65C9.46333,60.83,9.16,60.9617,8.82,61.045C8.48,61.1283,8.13334,61.17,7.78,61.17C7.37333,61.17,6.99,61.12,6.63,61.02C6.27,60.92,5.95667,60.7667,5.69,60.56C5.42333,60.3533,5.21,60.0883,5.05,59.765C4.89,59.4417,4.80667,59.06,4.8,58.62L6.05,58.62ZM16.09,61L14.97,61L14.97,60.28L14.95,60.28C14.81,60.54,14.6017,60.7483,14.325,60.905C14.0483,61.0617,13.7667,61.14,13.48,61.14C12.8,61.14,12.3083,60.9717,12.005,60.635C11.7017,60.2983,11.55,59.79,11.55,59.11L11.55,55.83L12.69,55.83L12.69,59C12.69,59.4533,12.7767,59.7733,12.95,59.96C13.1233,60.1467,13.3667,60.24,13.68,60.24C13.92,60.24,14.12,60.2033,14.28,60.13C14.44,60.0567,14.57,59.9583,14.67,59.835C14.77,59.7117,14.8417,59.5633,14.885,59.39C14.9283,59.2167,14.95,59.03,14.95,58.83L14.95,55.83L16.09,55.83L16.09,61ZM20.78,57.56C20.7333,57.24,20.605,56.9983,20.395,56.835C20.185,56.6717,19.92,56.59,19.6,56.59C19.4533,56.59,19.2967,56.615,19.13,56.665C18.9633,56.715,18.81,56.8083,18.67,56.945C18.53,57.0817,18.4133,57.2717,18.32,57.515C18.2267,57.7583,18.18,58.0767,18.18,58.47C18.18,58.6833,18.205,58.8967,18.255,59.11C18.305,59.3233,18.385,59.5133,18.495,59.68C18.605,59.8467,18.7467,59.9817,18.92,60.085C19.0933,60.1883,19.3033,60.24,19.55,60.24C19.8833,60.24,20.1583,60.1367,20.375,59.93C20.5917,59.7233,20.7267,59.4333,20.78,59.06L21.92,59.06C21.8133,59.7333,21.5583,60.2483,21.155,60.605C20.7517,60.9617,20.2167,61.14,19.55,61.14C19.1433,61.14,18.785,61.0717,18.475,60.935C18.165,60.7983,17.9033,60.6117,17.69,60.375C17.4767,60.1383,17.315,59.8567,17.205,59.53C17.095,59.2033,17.04,58.85,17.04,58.47C17.04,58.0833,17.0933,57.72,17.2,57.38C17.3067,57.04,17.4667,56.745,17.68,56.495C17.8933,56.245,18.1583,56.0483,18.475,55.905C18.7917,55.7617,19.1633,55.69,19.59,55.69C19.89,55.69,20.175,55.7283,20.445,55.805C20.715,55.8817,20.955,55.9967,21.165,56.15C21.375,56.3033,21.5467,56.4967,21.68,56.73C21.8133,56.9633,21.8933,57.24,21.92,57.56L20.78,57.56ZM26.34,57.56C26.2933,57.24,26.165,56.9983,25.955,56.835C25.745,56.6717,25.48,56.59,25.16,56.59C25.0133,56.59,24.8567,56.615,24.69,56.665C24.5233,56.715,24.37,56.8083,24.23,56.945C24.09,57.0817,23.9733,57.2717,23.88,57.515C23.7867,57.7583,23.74,58.0767,23.74,58.47C23.74,58.6833,23.765,58.8967,23.815,59.11C23.865,59.3233,23.945,59.5133,24.055,59.68C24.165,59.8467,24.3067,59.9817,24.48,60.085C24.6533,60.1883,24.8633,60.24,25.11,60.24C25.4433,60.24,25.7183,60.1367,25.935,59.93C26.1517,59.7233,26.2867,59.4333,26.34,59.06L27.48,59.06C27.3733,59.7333,27.1183,60.2483,26.715,60.605C26.3117,60.9617,25.7767,61.14,25.11,61.14C24.7033,61.14,24.345,61.0717,24.035,60.935C23.725,60.7983,23.4633,60.6117,23.25,60.375C23.0367,60.1383,22.875,59.8567,22.765,59.53C22.655,59.2033,22.6,58.85,22.6,58.47C22.6,58.0833,22.6533,57.72,22.76,57.38C22.8667,57.04,23.0267,56.745,23.24,56.495C23.4533,56.245,23.7183,56.0483,24.035,55.905C24.3517,55.7617,24.7233,55.69,25.15,55.69C25.45,55.69,25.735,55.7283,26.005,55.805C26.275,55.8817,26.515,55.9967,26.725,56.15C26.935,56.3033,27.1067,56.4967,27.24,56.73C27.3733,56.9633,27.4533,57.24,27.48,57.56L26.34,57.56ZM31.96,57.96C31.9467,57.78,31.9083,57.6067,31.845,57.44C31.7817,57.2733,31.695,57.1283,31.585,57.005C31.475,56.8817,31.3417,56.7817,31.185,56.705C31.0283,56.6283,30.8533,56.59,30.66,56.59C30.46,56.59,30.2783,56.625,30.115,56.695C29.9517,56.765,29.8117,56.8617,29.695,56.985C29.5783,57.1083,29.485,57.2533,29.415,57.42C29.345,57.5867,29.3067,57.7667,29.3,57.96L31.96,57.96ZM29.3,58.71C29.3,58.91,29.3283,59.1033,29.385,59.29C29.4417,59.4767,29.5267,59.64,29.64,59.78C29.7533,59.92,29.8967,60.0317,30.07,60.115C30.2433,60.1983,30.45,60.24,30.69,60.24C31.0233,60.24,31.2917,60.1683,31.495,60.025C31.6983,59.8817,31.85,59.6667,31.95,59.38L33.03,59.38C32.97,59.66,32.8667,59.91,32.72,60.13C32.5733,60.35,32.3967,60.535,32.19,60.685C31.9833,60.835,31.7517,60.9483,31.495,61.025C31.2383,61.1017,30.97,61.14,30.69,61.14C30.2833,61.14,29.9233,61.0733,29.61,60.94C29.2967,60.8067,29.0317,60.62,28.815,60.38C28.5983,60.14,28.435,59.8533,28.325,59.52C28.215,59.1867,28.16,58.82,28.16,58.42C28.16,58.0533,28.2183,57.705,28.335,57.375C28.4517,57.045,28.6183,56.755,28.835,56.505C29.0517,56.255,29.3133,56.0567,29.62,55.91C29.9267,55.7633,30.2733,55.69,30.66,55.69C31.0667,55.69,31.4317,55.775,31.755,55.945C32.0783,56.115,32.3467,56.34,32.56,56.62C32.7733,56.9,32.9283,57.2217,33.025,57.585C33.1217,57.9483,33.1467,58.3233,33.1,58.71L29.3,58.71ZM34.83,59.34C34.8633,59.6733,34.99,59.9067,35.21,60.04C35.43,60.1733,35.6933,60.24,36,60.24C36.1067,60.24,36.2283,60.2317,36.365,60.215C36.5017,60.1983,36.63,60.1667,36.75,60.12C36.87,60.0733,36.9683,60.005,37.045,59.915C37.1217,59.825,37.1567,59.7067,37.15,59.56C37.1433,59.4133,37.09,59.2933,36.99,59.2C36.89,59.1067,36.7617,59.0317,36.605,58.975C36.4483,58.9183,36.27,58.87,36.07,58.83C35.87,58.79,35.6667,58.7467,35.46,58.7C35.2467,58.6533,35.0417,58.5967,34.845,58.53C34.6483,58.4633,34.4717,58.3733,34.315,58.26C34.1583,58.1467,34.0333,58.0017,33.94,57.825C33.8467,57.6483,33.8,57.43,33.8,57.17C33.8,56.89,33.8683,56.655,34.005,56.465C34.1417,56.275,34.315,56.1217,34.525,56.005C34.735,55.8883,34.9683,55.8067,35.225,55.76C35.4817,55.7133,35.7267,55.69,35.96,55.69C36.2267,55.69,36.4817,55.7183,36.725,55.775C36.9683,55.8317,37.1883,55.9233,37.385,56.05C37.5817,56.1767,37.745,56.3417,37.875,56.545C38.005,56.7483,38.0867,56.9933,38.12,57.28L36.93,57.28C36.8767,57.0067,36.7517,56.8233,36.555,56.73C36.3583,56.6367,36.1333,56.59,35.88,56.59C35.8,56.59,35.705,56.5967,35.595,56.61C35.485,56.6233,35.3817,56.6483,35.285,56.685C35.1883,56.7217,35.1067,56.775,35.04,56.845C34.9733,56.915,34.94,57.0067,34.94,57.12C34.94,57.26,34.9883,57.3733,35.085,57.46C35.1817,57.5467,35.3083,57.6183,35.465,57.675C35.6217,57.7317,35.8,57.78,36,57.82C36.2,57.86,36.4067,57.9033,36.62,57.95C36.8267,57.9967,37.03,58.0533,37.23,58.12C37.43,58.1867,37.6083,58.2767,37.765,58.39C37.9217,58.5033,38.0483,58.6467,38.145,58.82C38.2417,58.9933,38.29,59.2067,38.29,59.46C38.29,59.7667,38.22,60.0267,38.08,60.24C37.94,60.4533,37.7583,60.6267,37.535,60.76C37.3117,60.8933,37.0633,60.99,36.79,61.05C36.5167,61.11,36.2467,61.14,35.98,61.14C35.6533,61.14,35.3517,61.1033,35.075,61.03C34.7983,60.9567,34.5583,60.845,34.355,60.695C34.1517,60.545,33.9917,60.3583,33.875,60.135C33.7583,59.9117,33.6967,59.6467,33.69,59.34L34.83,59.34ZM40.02,59.34C40.0533,59.6733,40.18,59.9067,40.4,60.04C40.62,60.1733,40.8833,60.24,41.19,60.24C41.2967,60.24,41.4183,60.2317,41.555,60.215C41.6917,60.1983,41.82,60.1667,41.94,60.12C42.06,60.0733,42.1583,60.005,42.235,59.915C42.3117,59.825,42.3467,59.7067,42.34,59.56C42.3333,59.4133,42.28,59.2933,42.18,59.2C42.08,59.1067,41.9517,59.0317,41.795,58.975C41.6383,58.9183,41.46,58.87,41.26,58.83C41.06,58.79,40.8567,58.7467,40.65,58.7C40.4367,58.6533,40.2317,58.5967,40.035,58.53C39.8383,58.4633,39.6617,58.3733,39.505,58.26C39.3483,58.1467,39.2233,58.0017,39.13,57.825C39.0367,57.6483,38.99,57.43,38.99,57.17C38.99,56.89,39.0583,56.655,39.195,56.465C39.3317,56.275,39.505,56.1217,39.715,56.005C39.925,55.8883,40.1583,55.8067,40.415,55.76C40.6717,55.7133,40.9167,55.69,41.15,55.69C41.4167,55.69,41.6717,55.7183,41.915,55.775C42.1583,55.8317,42.3783,55.9233,42.575,56.05C42.7717,56.1767,42.935,56.3417,43.065,56.545C43.195,56.7483,43.2767,56.9933,43.31,57.28L42.12,57.28C42.0667,57.0067,41.9417,56.8233,41.745,56.73C41.5483,56.6367,41.3233,56.59,41.07,56.59C40.99,56.59,40.895,56.5967,40.785,56.61C40.675,56.6233,40.5717,56.6483,40.475,56.685C40.3783,56.7217,40.2967,56.775,40.23,56.845C40.1633,56.915,40.13,57.0067,40.13,57.12C40.13,57.26,40.1783,57.3733,40.275,57.46C40.3717,57.5467,40.4983,57.6183,40.655,57.675C40.8117,57.7317,40.99,57.78,41.19,57.82C41.39,57.86,41.5967,57.9033,41.81,57.95C42.0167,57.9967,42.22,58.0533,42.42,58.12C42.62,58.1867,42.7983,58.2767,42.955,58.39C43.1117,58.5033,43.2383,58.6467,43.335,58.82C43.4317,58.9933,43.48,59.2067,43.48,59.46C43.48,59.7667,43.41,60.0267,43.27,60.24C43.13,60.4533,42.9483,60.6267,42.725,60.76C42.5017,60.8933,42.2533,60.99,41.98,61.05C41.7067,61.11,41.4367,61.14,41.17,61.14C40.8433,61.14,40.5417,61.1033,40.265,61.03C39.9883,60.9567,39.7483,60.845,39.545,60.695C39.3417,60.545,39.1817,60.3583,39.065,60.135C38.9483,59.9117,38.8867,59.6467,38.88,59.34L40.02,59.34ZM44.47,59.75L45.81,59.75L45.81,61L44.47,61L44.47,59.75ZM44.52,53.86L45.77,53.86L45.77,55.92L45.44,59.01L44.85,59.01L44.52,55.92L44.52,53.86Z" fill="#4C78BA" fill-rule="nonzero" opacity="0" style="animation: 13.3s linear infinite both Success\!_o;"/>
        <ellipse id="Oval-5" stroke-width="4" rx="25" ry="25" stroke="#4C78BA" transform="translate(25,25) scale(0,0)" style="animation: 13.3s linear infinite both Oval-5_t;"/>
    </g>
    <g id="loading2" stroke="none" stroke-width="1" fill="none" fill-rule="evenodd" opacity="0" transform="translate(45,34)" style="animation: 13.3s linear infinite both loading2_o;">
        <path id="Loading-2" d="M6.76,53.86L8.01,53.86L8.01,59.92L11.64,59.92L11.64,61L6.76,61L6.76,53.86ZM14.71,61.14C14.2967,61.14,13.9283,61.0717,13.605,60.935C13.2817,60.7983,13.0083,60.61,12.785,60.37C12.5617,60.13,12.3917,59.8433,12.275,59.51C12.1583,59.1767,12.1,58.81,12.1,58.41C12.1,58.0167,12.1583,57.6533,12.275,57.32C12.3917,56.9867,12.5617,56.7,12.785,56.46C13.0083,56.22,13.2817,56.0317,13.605,55.895C13.9283,55.7583,14.2967,55.69,14.71,55.69C15.1233,55.69,15.4917,55.7583,15.815,55.895C16.1383,56.0317,16.4117,56.22,16.635,56.46C16.8583,56.7,17.0283,56.9867,17.145,57.32C17.2617,57.6533,17.32,58.0167,17.32,58.41C17.32,58.81,17.2617,59.1767,17.145,59.51C17.0283,59.8433,16.8583,60.13,16.635,60.37C16.4117,60.61,16.1383,60.7983,15.815,60.935C15.4917,61.0717,15.1233,61.14,14.71,61.14ZM14.71,60.24C14.9633,60.24,15.1833,60.1867,15.37,60.08C15.5567,59.9733,15.71,59.8333,15.83,59.66C15.95,59.4867,16.0383,59.2917,16.095,59.075C16.1517,58.8583,16.18,58.6367,16.18,58.41C16.18,58.19,16.1517,57.97,16.095,57.75C16.0383,57.53,15.95,57.335,15.83,57.165C15.71,56.995,15.5567,56.8567,15.37,56.75C15.1833,56.6433,14.9633,56.59,14.71,56.59C14.4567,56.59,14.2367,56.6433,14.05,56.75C13.8633,56.8567,13.71,56.995,13.59,57.165C13.47,57.335,13.3817,57.53,13.325,57.75C13.2683,57.97,13.24,58.19,13.24,58.41C13.24,58.6367,13.2683,58.8583,13.325,59.075C13.3817,59.2917,13.47,59.4867,13.59,59.66C13.71,59.8333,13.8633,59.9733,14.05,60.08C14.2367,60.1867,14.4567,60.24,14.71,60.24ZM22.6,59.85C22.6,59.99,22.6183,60.09,22.655,60.15C22.6917,60.21,22.7633,60.24,22.87,60.24L22.99,60.24C23.0367,60.24,23.09,60.2333,23.15,60.22L23.15,61.01C23.11,61.0233,23.0583,61.0383,22.995,61.055C22.9317,61.0717,22.8667,61.0867,22.8,61.1C22.7333,61.1133,22.6667,61.1233,22.6,61.13C22.5333,61.1367,22.4767,61.14,22.43,61.14C22.1967,61.14,22.0033,61.0933,21.85,61C21.6967,60.9067,21.5967,60.7433,21.55,60.51C21.3233,60.73,21.045,60.89,20.715,60.99C20.385,61.09,20.0667,61.14,19.76,61.14C19.5267,61.14,19.3033,61.1083,19.09,61.045C18.8767,60.9817,18.6883,60.8883,18.525,60.765C18.3617,60.6417,18.2317,60.485,18.135,60.295C18.0383,60.105,17.99,59.8833,17.99,59.63C17.99,59.31,18.0483,59.05,18.165,58.85C18.2817,58.65,18.435,58.4933,18.625,58.38C18.815,58.2667,19.0283,58.185,19.265,58.135C19.5017,58.085,19.74,58.0467,19.98,58.02C20.1867,57.98,20.3833,57.9517,20.57,57.935C20.7567,57.9183,20.9217,57.89,21.065,57.85C21.2083,57.81,21.3217,57.7483,21.405,57.665C21.4883,57.5817,21.53,57.4567,21.53,57.29C21.53,57.1433,21.495,57.0233,21.425,56.93C21.355,56.8367,21.2683,56.765,21.165,56.715C21.0617,56.665,20.9467,56.6317,20.82,56.615C20.6933,56.5983,20.5733,56.59,20.46,56.59C20.14,56.59,19.8767,56.6567,19.67,56.79C19.4633,56.9233,19.3467,57.13,19.32,57.41L18.18,57.41C18.2,57.0767,18.28,56.8,18.42,56.58C18.56,56.36,18.7383,56.1833,18.955,56.05C19.1717,55.9167,19.4167,55.8233,19.69,55.77C19.9633,55.7167,20.2433,55.69,20.53,55.69C20.7833,55.69,21.0333,55.7167,21.28,55.77C21.5267,55.8233,21.7483,55.91,21.945,56.03C22.1417,56.15,22.3,56.305,22.42,56.495C22.54,56.685,22.6,56.9167,22.6,57.19L22.6,59.85ZM21.46,58.41C21.2867,58.5233,21.0733,58.5917,20.82,58.615C20.5667,58.6383,20.3133,58.6733,20.06,58.72C19.94,58.74,19.8233,58.7683,19.71,58.805C19.5967,58.8417,19.4967,58.8917,19.41,58.955C19.3233,59.0183,19.255,59.1017,19.205,59.205C19.155,59.3083,19.13,59.4333,19.13,59.58C19.13,59.7067,19.1667,59.8133,19.24,59.9C19.3133,59.9867,19.4017,60.055,19.505,60.105C19.6083,60.155,19.7217,60.19,19.845,60.21C19.9683,60.23,20.08,60.24,20.18,60.24C20.3067,60.24,20.4433,60.2233,20.59,60.19C20.7367,60.1567,20.875,60.1,21.005,60.02C21.135,59.94,21.2433,59.8383,21.33,59.715C21.4167,59.5917,21.46,59.44,21.46,59.26L21.46,58.41ZM28.7,61L27.62,61L27.62,60.3L27.6,60.3C27.4467,60.6,27.2233,60.815,26.93,60.945C26.6367,61.075,26.3267,61.14,26,61.14C25.5933,61.14,25.2383,61.0683,24.935,60.925C24.6317,60.7817,24.38,60.5867,24.18,60.34C23.98,60.0933,23.83,59.8017,23.73,59.465C23.63,59.1283,23.58,58.7667,23.58,58.38C23.58,57.9133,23.6433,57.51,23.77,57.17C23.8967,56.83,24.065,56.55,24.275,56.33C24.485,56.11,24.725,55.9483,24.995,55.845C25.265,55.7417,25.54,55.69,25.82,55.69C25.98,55.69,26.1433,55.705,26.31,55.735C26.4767,55.765,26.6367,55.8133,26.79,55.88C26.9433,55.9467,27.085,56.0317,27.215,56.135C27.345,56.2383,27.4533,56.36,27.54,56.5L27.56,56.5L27.56,53.86L28.7,53.86L28.7,61ZM24.72,58.47C24.72,58.69,24.7483,58.9067,24.805,59.12C24.8617,59.3333,24.9483,59.5233,25.065,59.69C25.1817,59.8567,25.33,59.99,25.51,60.09C25.69,60.19,25.9033,60.24,26.15,60.24C26.4033,60.24,26.6217,60.1867,26.805,60.08C26.9883,59.9733,27.1383,59.8333,27.255,59.66C27.3717,59.4867,27.4583,59.2917,27.515,59.075C27.5717,58.8583,27.6,58.6367,27.6,58.41C27.6,57.8367,27.4717,57.39,27.215,57.07C26.9583,56.75,26.61,56.59,26.17,56.59C25.9033,56.59,25.6783,56.645,25.495,56.755C25.3117,56.865,25.1617,57.0083,25.045,57.185C24.9283,57.3617,24.845,57.5617,24.795,57.785C24.745,58.0083,24.72,58.2367,24.72,58.47ZM29.97,53.86L31.11,53.86L31.11,54.94L29.97,54.94L29.97,53.86ZM29.97,55.83L31.11,55.83L31.11,61L29.97,61L29.97,55.83ZM32.35,55.83L33.43,55.83L33.43,56.59L33.45,56.61C33.6233,56.3233,33.85,56.0983,34.13,55.935C34.41,55.7717,34.72,55.69,35.06,55.69C35.6267,55.69,36.0733,55.8367,36.4,56.13C36.7267,56.4233,36.89,56.8633,36.89,57.45L36.89,61L35.75,61L35.75,57.75C35.7367,57.3433,35.65,57.0483,35.49,56.865C35.33,56.6817,35.08,56.59,34.74,56.59C34.5467,56.59,34.3733,56.625,34.22,56.695C34.0667,56.765,33.9367,56.8617,33.83,56.985C33.7233,57.1083,33.64,57.2533,33.58,57.42C33.52,57.5867,33.49,57.7633,33.49,57.95L33.49,61L32.35,61L32.35,55.83ZM42.87,60.73C42.87,61.51,42.6517,62.0917,42.215,62.475C41.7783,62.8583,41.15,63.05,40.33,63.05C40.07,63.05,39.8083,63.0233,39.545,62.97C39.2817,62.9167,39.0417,62.8267,38.825,62.7C38.6083,62.5733,38.4267,62.4067,38.28,62.2C38.1333,61.9933,38.0467,61.74,38.02,61.44L39.16,61.44C39.1933,61.6,39.25,61.73,39.33,61.83C39.41,61.93,39.505,62.0083,39.615,62.065C39.725,62.1217,39.8467,62.1583,39.98,62.175C40.1133,62.1917,40.2533,62.2,40.4,62.2C40.86,62.2,41.1967,62.0867,41.41,61.86C41.6233,61.6333,41.73,61.3067,41.73,60.88L41.73,60.09L41.71,60.09C41.55,60.3767,41.3317,60.6,41.055,60.76C40.7783,60.92,40.48,61,40.16,61C39.7467,61,39.395,60.9283,39.105,60.785C38.815,60.6417,38.575,60.445,38.385,60.195C38.195,59.945,38.0567,59.6567,37.97,59.33C37.8833,59.0033,37.84,58.6533,37.84,58.28C37.84,57.9333,37.8933,57.6033,38,57.29C38.1067,56.9767,38.26,56.7017,38.46,56.465C38.66,56.2283,38.905,56.04,39.195,55.9C39.485,55.76,39.8133,55.69,40.18,55.69C40.5067,55.69,40.8067,55.7583,41.08,55.895C41.3533,56.0317,41.5633,56.2467,41.71,56.54L41.73,56.54L41.73,55.83L42.87,55.83L42.87,60.73ZM40.34,60.1C40.5933,60.1,40.8083,60.0483,40.985,59.945C41.1617,59.8417,41.305,59.705,41.415,59.535C41.525,59.365,41.605,59.1717,41.655,58.955C41.705,58.7383,41.73,58.52,41.73,58.3C41.73,58.08,41.7033,57.8667,41.65,57.66C41.5967,57.4533,41.515,57.27,41.405,57.11C41.295,56.95,41.1517,56.8233,40.975,56.73C40.7983,56.6367,40.5867,56.59,40.34,56.59C40.0867,56.59,39.8733,56.6433,39.7,56.75C39.5267,56.8567,39.3867,56.995,39.28,57.165C39.1733,57.335,39.0967,57.5283,39.05,57.745C39.0033,57.9617,38.98,58.1767,38.98,58.39C38.98,58.6033,39.0067,58.8117,39.06,59.015C39.1133,59.2183,39.195,59.4,39.305,59.56C39.415,59.72,39.555,59.85,39.725,59.95C39.895,60.05,40.1,60.1,40.34,60.1Z" fill="#4C78BA" fill-rule="nonzero"/>
        <g id="numbers-2" transform="translate(25,26) translate(-13.3359,-8.00001)">
            <text fill="#4c78ba" font-size="16" font-family="sans-serif" letter-spacing="0em" word-spacing="0em" stroke="none" text-anchor="middle" opacity="1" transform="translate(13.3359,12.3203)" style="line-height: 16px; animation: 13.3s linear infinite both a11_o;">0</text>
            <text fill="#4c78ba" font-size="16" font-family="sans-serif" letter-spacing="0em" word-spacing="0em" stroke="none" text-anchor="middle" opacity="0" transform="translate(13.3359,12.3203)" style="line-height: 16px; white-space: pre; animation: 13.3s linear infinite both a12_o;">10</text>
            <text fill="#4c78ba" font-size="16" font-family="sans-serif" letter-spacing="0em" word-spacing="0em" stroke="none" text-anchor="middle" opacity="0" transform="translate(13.3359,12.3203)" style="line-height: 16px; white-space: pre; animation: 13.3s linear infinite both a13_o;">20</text>
            <text fill="#4c78ba" font-size="16" font-family="sans-serif" letter-spacing="0em" word-spacing="0em" stroke="none" text-anchor="middle" opacity="0" transform="translate(13.3359,12.3203)" style="line-height: 16px; white-space: pre; animation: 13.3s linear infinite both a14_o;">30</text>
            <text fill="#4c78ba" font-size="16" font-family="sans-serif" letter-spacing="0em" word-spacing="0em" stroke="none" text-anchor="middle" opacity="0" transform="translate(13.3359,12.3203)" style="line-height: 16px; white-space: pre; animation: 13.3s linear infinite both a15_o;">40</text>
            <text fill="#4c78ba" font-size="16" font-family="sans-serif" letter-spacing="0em" word-spacing="0em" stroke="none" text-anchor="middle" opacity="0" transform="translate(13.3359,12.3203)" style="line-height: 16px; white-space: pre; animation: 13.3s linear infinite both a16_o;">50</text>
            <text fill="#4c78ba" font-size="16" font-family="sans-serif" letter-spacing="0em" word-spacing="0em" stroke="none" text-anchor="middle" opacity="0" transform="translate(13.3359,12.3203)" style="line-height: 16px; white-space: pre; animation: 13.3s linear infinite both a17_o;">60</text>
            <text fill="#4c78ba" font-size="16" font-family="sans-serif" letter-spacing="0em" word-spacing="0em" stroke="none" text-anchor="middle" opacity="0" transform="translate(13.3359,12.3203)" style="line-height: 16px; white-space: pre; animation: 13.3s linear infinite both a18_o;">70</text>
            <text fill="#4c78ba" font-size="16" font-family="sans-serif" letter-spacing="0em" word-spacing="0em" stroke="none" text-anchor="middle" opacity="0" transform="translate(13.3359,12.3203)" style="line-height: 16px; white-space: pre; animation: 13.3s linear infinite both a19_o;">80</text>
            <text fill="#4c78ba" font-size="16" font-family="sans-serif" letter-spacing="0em" word-spacing="0em" stroke="none" text-anchor="middle" opacity="0" transform="translate(13.3359,12.3203)" style="line-height: 16px; white-space: pre; animation: 13.3s linear infinite both a20_o;">90</text>
            <text fill="#4c78ba" font-size="16" font-family="sans-serif" letter-spacing="0em" word-spacing="0em" stroke="none" text-anchor="middle" opacity="0" transform="translate(13.3359,12.3203)" style="line-height: 16px; white-space: pre; animation: 13.3s linear infinite both a21_o;">100</text>
        </g>
        <ellipse id="Oval-3" rx="25" ry="25" stroke="#4c78ba" transform="translate(0,0) translate(25,25)"/>
        <ellipse id="Oval-4" rx="25" ry="25" stroke="#4c78ba" stroke-width="4" stroke-dasharray="156.84999999999999" stroke-dashoffset="156.85000000000002" stroke-linecap="square" transform="translate(25,25) rotate(-90)" style="animation: 13.3s linear infinite both Oval-4_do;"/>
    </g>
    <g id="error" stroke="none" stroke-width="1" fill="none" fill-rule="evenodd" opacity="0" transform="translate(45,36)" style="animation: 13.3s linear infinite both error_o;">
        <path id="Path-2" stroke="#4C78BA" stroke-width="2" d="M25.5,16L25.5,34.1978L25.5,38" stroke-dasharray="22" stroke-dashoffset="22" style="animation: 13.3s linear infinite both Path-2_do;"/>
        <path id="Path-3" stroke="#FFFFFF" stroke-width="2" d="M25.5,33L25.5,35.4815L25.5,36"/>
        <path id="Error!" d="M12.975,51.86L18.115,51.86L18.115,52.94L14.225,52.94L14.225,54.81L17.825,54.81L17.825,55.83L14.225,55.83L14.225,57.92L18.185,57.92L18.185,59L12.975,59L12.975,51.86ZM19.115,53.83L20.185,53.83L20.185,54.83L20.205,54.83C20.2383,54.69,20.3033,54.5533,20.4,54.42C20.4967,54.2867,20.6133,54.165,20.75,54.055C20.8867,53.945,21.0383,53.8567,21.205,53.79C21.3717,53.7233,21.5417,53.69,21.715,53.69C21.8483,53.69,21.94,53.6933,21.99,53.7C22.04,53.7067,22.0917,53.7133,22.145,53.72L22.145,54.82C22.065,54.8067,21.9833,54.795,21.9,54.785C21.8167,54.775,21.735,54.77,21.655,54.77C21.4617,54.77,21.28,54.8083,21.11,54.885C20.94,54.9617,20.7917,55.075,20.665,55.225C20.5383,55.375,20.4383,55.56,20.365,55.78C20.2917,56,20.255,56.2533,20.255,56.54L20.255,59L19.115,59L19.115,53.83ZM22.635,53.83L23.705,53.83L23.705,54.83L23.725,54.83C23.7583,54.69,23.8233,54.5533,23.92,54.42C24.0167,54.2867,24.1333,54.165,24.27,54.055C24.4067,53.945,24.5583,53.8567,24.725,53.79C24.8917,53.7233,25.0617,53.69,25.235,53.69C25.3683,53.69,25.46,53.6933,25.51,53.7C25.56,53.7067,25.6117,53.7133,25.665,53.72L25.665,54.82C25.585,54.8067,25.5033,54.795,25.42,54.785C25.3367,54.775,25.255,54.77,25.175,54.77C24.9817,54.77,24.8,54.8083,24.63,54.885C24.46,54.9617,24.3117,55.075,24.185,55.225C24.0583,55.375,23.9583,55.56,23.885,55.78C23.8117,56,23.775,56.2533,23.775,56.54L23.775,59L22.635,59L22.635,53.83ZM28.525,59.14C28.1117,59.14,27.7433,59.0717,27.42,58.935C27.0967,58.7983,26.8233,58.61,26.6,58.37C26.3767,58.13,26.2067,57.8433,26.09,57.51C25.9733,57.1767,25.915,56.81,25.915,56.41C25.915,56.0167,25.9733,55.6533,26.09,55.32C26.2067,54.9867,26.3767,54.7,26.6,54.46C26.8233,54.22,27.0967,54.0317,27.42,53.895C27.7433,53.7583,28.1117,53.69,28.525,53.69C28.9383,53.69,29.3067,53.7583,29.63,53.895C29.9533,54.0317,30.2267,54.22,30.45,54.46C30.6733,54.7,30.8433,54.9867,30.96,55.32C31.0767,55.6533,31.135,56.0167,31.135,56.41C31.135,56.81,31.0767,57.1767,30.96,57.51C30.8433,57.8433,30.6733,58.13,30.45,58.37C30.2267,58.61,29.9533,58.7983,29.63,58.935C29.3067,59.0717,28.9383,59.14,28.525,59.14ZM28.525,58.24C28.7783,58.24,28.9983,58.1867,29.185,58.08C29.3717,57.9733,29.525,57.8333,29.645,57.66C29.765,57.4867,29.8533,57.2917,29.91,57.075C29.9667,56.8583,29.995,56.6367,29.995,56.41C29.995,56.19,29.9667,55.97,29.91,55.75C29.8533,55.53,29.765,55.335,29.645,55.165C29.525,54.995,29.3717,54.8567,29.185,54.75C28.9983,54.6433,28.7783,54.59,28.525,54.59C28.2717,54.59,28.0517,54.6433,27.865,54.75C27.6783,54.8567,27.525,54.995,27.405,55.165C27.285,55.335,27.1967,55.53,27.14,55.75C27.0833,55.97,27.055,56.19,27.055,56.41C27.055,56.6367,27.0833,56.8583,27.14,57.075C27.1967,57.2917,27.285,57.4867,27.405,57.66C27.525,57.8333,27.6783,57.9733,27.865,58.08C28.0517,58.1867,28.2717,58.24,28.525,58.24ZM32.085,53.83L33.155,53.83L33.155,54.83L33.175,54.83C33.2083,54.69,33.2733,54.5533,33.37,54.42C33.4667,54.2867,33.5833,54.165,33.72,54.055C33.8567,53.945,34.0083,53.8567,34.175,53.79C34.3417,53.7233,34.5117,53.69,34.685,53.69C34.8183,53.69,34.91,53.6933,34.96,53.7C35.01,53.7067,35.0617,53.7133,35.115,53.72L35.115,54.82C35.035,54.8067,34.9533,54.795,34.87,54.785C34.7867,54.775,34.705,54.77,34.625,54.77C34.4317,54.77,34.25,54.8083,34.08,54.885C33.91,54.9617,33.7617,55.075,33.635,55.225C33.5083,55.375,33.4083,55.56,33.335,55.78C33.2617,56,33.225,56.2533,33.225,56.54L33.225,59L32.085,59L32.085,53.83ZM35.725,57.75L37.065,57.75L37.065,59L35.725,59L35.725,57.75ZM35.775,51.86L37.025,51.86L37.025,53.92L36.695,57.01L36.105,57.01L35.775,53.92L35.775,51.86Z" fill="#4C78BA" fill-rule="nonzero" opacity="0" style="animation: 13.3s linear infinite both Error\!_o;"/>
        <path id="Oval-6" stroke="#4C78BA" stroke-width="4" d="M25,45L50,45L25,0L0,45Z" stroke-linejoin="round" transform="translate(25,22.5) scale(0,0) translate(-25,-22.5)" style="animation: 13.3s linear infinite both Oval-6_t;"/>
    </g>
    <path id="border" d="M21,10L121,10C126.523,10,131,14.4772,131,20L131,110C131,115.523,126.523,120,121,120L21,120C15.4772,120,11,115.523,11,110L11,20C11,14.4772,15.4772,10,21,10Z" stroke="#4C78BA" stroke-linecap="round" stroke-width="1" fill="none" fill-rule="evenodd"/>
</svg>
