<?xml version="1.0" encoding="UTF-8" standalone="no"?>
<!-- Created with Keyshape -->
<svg xmlns="http://www.w3.org/2000/svg" xmlns:xlink="http://www.w3.org/1999/xlink" viewBox="0 0 140 130">
    <defs>
        <mask id="Mask-1">
            <rect id="type-mask" width="32.03" height="11.4583" fill="#ffffff" rx="0" stroke="none" fill-opacity="1" transform="translate(3.015,24.7708) translate(-16.015,-5.72917)" style="animation: 6.2s linear infinite both type-mask_t;"/>
        </mask>
    </defs>
    <style>
@keyframes Rectangle-2_f { 0% { fill: #ffffff; } 50% { fill: #ffffff; } 53.2258% { fill: #4c78ba; } 56.4516% { fill: #ffffff; } 100% { fill: #ffffff; } }
@keyframes Path_s { 0% { stroke: #4C78BA; } 50% { stroke: #4C78BA; } 53.2258% { stroke: #ffffff; } 56.4516% { stroke: #4C78BA; } 100% { stroke: #4C78BA; } }
@keyframes Path-2_s { 0% { stroke: #4C78BA; } 50% { stroke: #4C78BA; } 53.2258% { stroke: #ffffff; } 56.4516% { stroke: #4C78BA; } 100% { stroke: #4C78BA; } }
@keyframes task2-list_t { 0% { transform: translate(71.9926px,66.5552px) scale(1,0) translate(-51.9926px,-9.22183px); } 58.0645% { transform: translate(71.9926px,66.5552px) scale(1,0) translate(-51.9926px,-9.22183px); animation-timing-function: cubic-bezier(0.42,0,0.58,1); } 62.9032% { transform: translate(71.9926px,66.5552px) scale(1,1) translate(-51.9926px,-9.22183px); } 91.9354% { transform: translate(71.9926px,66.5552px) scale(1,1) translate(-51.9926px,-9.22183px); } 96.7741% { transform: translate(71.9926px,66.5552px) scale(1,0) translate(-51.9926px,-9.22183px); } 100% { transform: translate(71.9926px,66.5552px) scale(1,0) translate(-51.9926px,-9.22183px); } }
@keyframes Group-2_o { 0% { opacity: 0.25; } 87.0968% { opacity: 0.25; } 90.3226% { opacity: 1; } 93.5484% { opacity: 0.25; } 100% { opacity: 0.25; } }
@keyframes task3-list_t { 0% { transform: translate(20px,57.6667px); } 54.8387% { transform: translate(20px,57.6667px); animation-timing-function: cubic-bezier(0.42,0,0.58,1); } 61.2903% { transform: translate(20px,77.6667px); } 95.1612% { transform: translate(20px,77.6667px); } 100% { transform: translate(20px,57.6667px); } }
@keyframes task4-list_t { 0% { transform: translate(20px,78px); } 54.8387% { transform: translate(20px,78px); animation-timing-function: cubic-bezier(0.42,0,0.58,1); } 61.2903% { transform: translate(20px,98px); } 95.1612% { transform: translate(20px,98px); } 100% { transform: translate(20px,78px); } }
@keyframes Task2-typed_o { 0% { opacity: 1; } 54.8387% { opacity: 1; } 56.4516% { opacity: 0; } 100% { opacity: 0; } }
@keyframes type-mask_t { 0% { transform: translate(-13px,19.04163px); } 29.0322% { transform: translate(-13px,19.04163px); animation-timing-function: steps(1); } 30.6451% { transform: translate(-6px,19.04163px); animation-timing-function: steps(1); } 32.258% { transform: translate(-0.6px,19.04163px); animation-timing-function: steps(1); } 33.8709% { transform: translate(5.2px,19.04163px); animation-timing-function: steps(1); } 35.4838% { transform: translate(10px,19.04163px); animation-timing-function: steps(1); } 37.0967% { transform: translate(13.1px,19.04163px); animation-timing-function: steps(1); } 38.7096% { transform: translate(19px,19.04163px); } 100% { transform: translate(19px,19.04163px); } }
@keyframes cursor_t { 0% { transform: translate(-33px,0px); } 29.0322% { transform: translate(-33px,0px); animation-timing-function: steps(1); } 30.6451% { transform: translate(-25.5px,0px); animation-timing-function: steps(1); } 32.258% { transform: translate(-20.4px,0px); animation-timing-function: steps(1); } 33.8709% { transform: translate(-15.3px,0px); animation-timing-function: steps(1); } 35.4838% { transform: translate(-9.5px,0px); animation-timing-function: steps(1); } 37.0967% { transform: translate(-6.5px,0px); animation-timing-function: steps(1); } 38.7096% { transform: translate(0px,0px); } 100% { transform: translate(0px,0px); } }
@keyframes cursor_o { 0% { opacity: 0; } 24.1935% { opacity: 0; } 25.8065% { opacity: 1; } 54.8387% { opacity: 1; } 56.4516% { opacity: 0; } 100% { opacity: 0; } }
@keyframes touch1_o { 0% { opacity: 0; } 16.129% { opacity: 0; } 19.3548% { opacity: 1; } 25.8065% { opacity: 1; } 29.0323% { opacity: 0; } 100% { opacity: 0; } }
@keyframes touch1_mo { 0% { offset-distance: 0%; } 16.129% { offset-distance: 0%; animation-timing-function: cubic-bezier(0.42,0,0.58,1); } 24.1935% { offset-distance: 100%; } 100% { offset-distance: 100%; } }
@keyframes touch1-2_o { 0% { opacity: 0; } 40.3226% { opacity: 0; } 43.5484% { opacity: 1; } 50% { opacity: 1; } 53.2258% { opacity: 0; } 100% { opacity: 0; } }
@keyframes touch1-2_mo { 0% { offset-distance: 0%; } 40.3226% { offset-distance: 0%; animation-timing-function: cubic-bezier(0.42,0,0.58,1); } 46.7742% { offset-distance: 100%; } 100% { offset-distance: 100%; } }
@keyframes touch1-3_o { 0% { opacity: 0; } 80.6452% { opacity: 0; } 83.871% { opacity: 1; } 88.7097% { opacity: 1; } 91.9355% { opacity: 0; } 100% { opacity: 0; } }
@keyframes touch1-3_mo { 0% { offset-distance: 0%; } 80.6452% { offset-distance: 0%; animation-timing-function: cubic-bezier(0.42,0,0.58,1); } 87.0968% { offset-distance: 100%; } 100% { offset-distance: 100%; } }
    </style>
    <title>realtime-4 outlined</title>
    <desc>Created with Sketch.</desc>
    <g id="input" stroke="#4C78BA" stroke-width="1" fill="none" fill-rule="evenodd" transform="translate(15,15)">
        <path id="Rectangle" d="M2,0L89.6667,0C90.7712,0,91.6667,0.89543,91.6667,2L91.6667,16.3333C91.6667,17.4379,90.7712,18.3333,89.6667,18.3333L2,18.3333C0.89543,18.3333,0,17.4379,0,16.3333L0,2C0,0.89543,0.89543,0,2,0Z" stroke-linecap="round"/>
        <rect id="Rectangle-2" width="13.75" height="13.75" rx="6.875" fill="#ffffff" transform="translate(96.25,2.75)" style="animation: 6.2s linear infinite both Rectangle-2_f;"/>
        <path id="Path" d="M6.875,2.29167L6.875,11.4583" stroke="#4C78BA" transform="translate(96.25,2.75)" style="animation: 6.2s linear infinite both Path_s;"/>
        <path id="Path-2" d="M6.875,2.29167L6.875,11.4583" stroke="#4C78BA" transform="translate(103.125,9.625) rotate(-90) translate(-6.875,-6.875)" style="animation: 6.2s linear infinite both Path-2_s;"/>
    </g>
    <g id="task1-list" stroke="none" stroke-width="1" fill="none" fill-rule="evenodd" transform="translate(20,37)">
        <g id="Group-6" transform="translate(0,3)">
            <path id="Rectangle-3" d="M1,1L9,1C9.55228,1,10,1.44772,10,2L10,10C10,10.5523,9.55228,11,9,11L1,11C0.447715,11,0,10.5523,0,10L0,2C0,1.44772,0.447715,1,1,1Z" stroke="#4C78BA" stroke-linecap="round"/>
            <path id="Task1" d="M16.08,2.86L21.86,2.86L21.86,3.94L19.59,3.94L19.59,10L18.34,10L18.34,3.94L16.08,3.94L16.08,2.86ZM26.86,8.85C26.86,8.99,26.8783,9.09,26.915,9.15C26.9517,9.21,27.0233,9.24,27.13,9.24L27.25,9.24C27.2967,9.24,27.35,9.23333,27.41,9.22L27.41,10.01C27.37,10.0233,27.3183,10.0383,27.255,10.055C27.1917,10.0717,27.1267,10.0867,27.06,10.1C26.9933,10.1133,26.9267,10.1233,26.86,10.13C26.7933,10.1367,26.7367,10.14,26.69,10.14C26.4567,10.14,26.2633,10.0933,26.11,10C25.9567,9.90667,25.8567,9.74333,25.81,9.51C25.5833,9.73,25.305,9.89,24.975,9.99C24.645,10.09,24.3267,10.14,24.02,10.14C23.7867,10.14,23.5633,10.1083,23.35,10.045C23.1367,9.98167,22.9483,9.88833,22.785,9.765C22.6217,9.64167,22.4917,9.485,22.395,9.295C22.2983,9.105,22.25,8.88333,22.25,8.63C22.25,8.31,22.3083,8.05,22.425,7.85C22.5417,7.65,22.695,7.49333,22.885,7.38C23.075,7.26667,23.2883,7.185,23.525,7.135C23.7617,7.085,24,7.04667,24.24,7.02C24.4467,6.98,24.6433,6.95167,24.83,6.935C25.0167,6.91833,25.1817,6.89,25.325,6.85C25.4683,6.81,25.5817,6.74833,25.665,6.665C25.7483,6.58167,25.79,6.45667,25.79,6.29C25.79,6.14333,25.755,6.02333,25.685,5.93C25.615,5.83667,25.5283,5.765,25.425,5.715C25.3217,5.665,25.2067,5.63167,25.08,5.615C24.9533,5.59833,24.8333,5.59,24.72,5.59C24.4,5.59,24.1367,5.65667,23.93,5.79C23.7233,5.92333,23.6067,6.13,23.58,6.41L22.44,6.41C22.46,6.07667,22.54,5.8,22.68,5.58C22.82,5.36,22.9983,5.18333,23.215,5.05C23.4317,4.91667,23.6767,4.82333,23.95,4.77C24.2233,4.71667,24.5033,4.69,24.79,4.69C25.0433,4.69,25.2933,4.71667,25.54,4.77C25.7867,4.82333,26.0083,4.91,26.205,5.03C26.4017,5.15,26.56,5.305,26.68,5.495C26.8,5.685,26.86,5.91667,26.86,6.19L26.86,8.85ZM25.72,7.41C25.5467,7.52333,25.3333,7.59167,25.08,7.615C24.8267,7.63833,24.5733,7.67333,24.32,7.72C24.2,7.74,24.0833,7.76833,23.97,7.805C23.8567,7.84167,23.7567,7.89167,23.67,7.955C23.5833,8.01833,23.515,8.10167,23.465,8.205C23.415,8.30833,23.39,8.43333,23.39,8.58C23.39,8.70667,23.4267,8.81333,23.5,8.9C23.5733,8.98667,23.6617,9.055,23.765,9.105C23.8683,9.155,23.9817,9.19,24.105,9.21C24.2283,9.23,24.34,9.24,24.44,9.24C24.5667,9.24,24.7033,9.22333,24.85,9.19C24.9967,9.15667,25.135,9.1,25.265,9.02C25.395,8.94,25.5033,8.83833,25.59,8.715C25.6767,8.59167,25.72,8.44,25.72,8.26L25.72,7.41ZM28.95,8.34C28.9833,8.67333,29.11,8.90667,29.33,9.04C29.55,9.17333,29.8133,9.24,30.12,9.24C30.2267,9.24,30.3483,9.23167,30.485,9.215C30.6217,9.19833,30.75,9.16667,30.87,9.12C30.99,9.07333,31.0883,9.005,31.165,8.915C31.2417,8.825,31.2767,8.70667,31.27,8.56C31.2633,8.41333,31.21,8.29333,31.11,8.2C31.01,8.10667,30.8817,8.03167,30.725,7.975C30.5683,7.91833,30.39,7.87,30.19,7.83C29.99,7.79,29.7867,7.74667,29.58,7.7C29.3667,7.65333,29.1617,7.59667,28.965,7.53C28.7683,7.46333,28.5917,7.37333,28.435,7.26C28.2783,7.14667,28.1533,7.00167,28.06,6.825C27.9667,6.64833,27.92,6.43,27.92,6.17C27.92,5.89,27.9883,5.655,28.125,5.465C28.2617,5.275,28.435,5.12167,28.645,5.005C28.855,4.88833,29.0883,4.80667,29.345,4.76C29.6017,4.71333,29.8467,4.69,30.08,4.69C30.3467,4.69,30.6017,4.71833,30.845,4.775C31.0883,4.83167,31.3083,4.92333,31.505,5.05C31.7017,5.17667,31.865,5.34167,31.995,5.545C32.125,5.74833,32.2067,5.99333,32.24,6.28L31.05,6.28C30.9967,6.00667,30.8717,5.82333,30.675,5.73C30.4783,5.63667,30.2533,5.59,30,5.59C29.92,5.59,29.825,5.59667,29.715,5.61C29.605,5.62333,29.5017,5.64833,29.405,5.685C29.3083,5.72167,29.2267,5.775,29.16,5.845C29.0933,5.915,29.06,6.00667,29.06,6.12C29.06,6.26,29.1083,6.37333,29.205,6.46C29.3017,6.54667,29.4283,6.61833,29.585,6.675C29.7417,6.73167,29.92,6.78,30.12,6.82C30.32,6.86,30.5267,6.90333,30.74,6.95C30.9467,6.99667,31.15,7.05333,31.35,7.12C31.55,7.18667,31.7283,7.27667,31.885,7.39C32.0417,7.50333,32.1683,7.64667,32.265,7.82C32.3617,7.99333,32.41,8.20667,32.41,8.46C32.41,8.76667,32.34,9.02667,32.2,9.24C32.06,9.45333,31.8783,9.62667,31.655,9.76C31.4317,9.89333,31.1833,9.99,30.91,10.05C30.6367,10.11,30.3667,10.14,30.1,10.14C29.7733,10.14,29.4717,10.1033,29.195,10.03C28.9183,9.95667,28.6783,9.845,28.475,9.695C28.2717,9.545,28.1117,9.35833,27.995,9.135C27.8783,8.91167,27.8167,8.64667,27.81,8.34L28.95,8.34ZM33.31,2.86L34.45,2.86L34.45,6.92L36.51,4.83L37.91,4.83L35.93,6.73L38.1,10L36.71,10L35.13,7.49L34.45,8.15L34.45,10L33.31,10L33.31,2.86ZM41.36,4.16C41.6,4.16,41.8333,4.14,42.06,4.1C42.2867,4.06,42.4917,3.99333,42.675,3.9C42.8583,3.80667,43.015,3.68667,43.145,3.54C43.275,3.39333,43.36,3.21333,43.4,3L44.33,3L44.33,10L43.08,10L43.08,5.06L41.36,5.06L41.36,4.16Z" fill="#4C78BA" fill-rule="nonzero"/>
        </g>
        <g id="Group" stroke="#4C78BA" stroke-width="0.5" opacity="0.25" transform="translate(98.4853,0.514719) rotate(45)">
            <rect id="Rectangle-4" width="11" height="11" rx="5.5" transform="translate(0,0) translate(0.656854,0.656854)"/>
            <path id="Path-3" d="M6.15685,2.49019L6.15685,9.82352"/>
            <path id="Path-4" d="M6.15685,2.49019L6.15685,9.82352" transform="translate(6.15685,6.15685) rotate(-90) translate(-6.15685,-6.15685)"/>
        </g>
    </g>
    <g id="task2-list" stroke="none" stroke-width="1" fill="none" fill-rule="evenodd" transform="translate(71.9926,66.5552) scale(1,0) translate(-51.9926,-9.22183)" style="animation: 6.2s linear infinite both task2-list_t;">
        <g id="Group-5" transform="translate(0,3)">
            <path id="Rectangle-5" d="M1,1L9,1C9.55228,1,10,1.44772,10,2L10,10C10,10.5523,9.55228,11,9,11L1,11C0.447715,11,0,10.5523,0,10L0,2C0,1.44772,0.447715,1,1,1Z" stroke="#4C78BA" stroke-linecap="round"/>
            <path id="Task2" d="M16.08,2.86L21.86,2.86L21.86,3.94L19.59,3.94L19.59,10L18.34,10L18.34,3.94L16.08,3.94L16.08,2.86ZM26.86,8.85C26.86,8.99,26.8783,9.09,26.915,9.15C26.9517,9.21,27.0233,9.24,27.13,9.24L27.25,9.24C27.2967,9.24,27.35,9.23333,27.41,9.22L27.41,10.01C27.37,10.0233,27.3183,10.0383,27.255,10.055C27.1917,10.0717,27.1267,10.0867,27.06,10.1C26.9933,10.1133,26.9267,10.1233,26.86,10.13C26.7933,10.1367,26.7367,10.14,26.69,10.14C26.4567,10.14,26.2633,10.0933,26.11,10C25.9567,9.90667,25.8567,9.74333,25.81,9.51C25.5833,9.73,25.305,9.89,24.975,9.99C24.645,10.09,24.3267,10.14,24.02,10.14C23.7867,10.14,23.5633,10.1083,23.35,10.045C23.1367,9.98167,22.9483,9.88833,22.785,9.765C22.6217,9.64167,22.4917,9.485,22.395,9.295C22.2983,9.105,22.25,8.88333,22.25,8.63C22.25,8.31,22.3083,8.05,22.425,7.85C22.5417,7.65,22.695,7.49333,22.885,7.38C23.075,7.26667,23.2883,7.185,23.525,7.135C23.7617,7.085,24,7.04667,24.24,7.02C24.4467,6.98,24.6433,6.95167,24.83,6.935C25.0167,6.91833,25.1817,6.89,25.325,6.85C25.4683,6.81,25.5817,6.74833,25.665,6.665C25.7483,6.58167,25.79,6.45667,25.79,6.29C25.79,6.14333,25.755,6.02333,25.685,5.93C25.615,5.83667,25.5283,5.765,25.425,5.715C25.3217,5.665,25.2067,5.63167,25.08,5.615C24.9533,5.59833,24.8333,5.59,24.72,5.59C24.4,5.59,24.1367,5.65667,23.93,5.79C23.7233,5.92333,23.6067,6.13,23.58,6.41L22.44,6.41C22.46,6.07667,22.54,5.8,22.68,5.58C22.82,5.36,22.9983,5.18333,23.215,5.05C23.4317,4.91667,23.6767,4.82333,23.95,4.77C24.2233,4.71667,24.5033,4.69,24.79,4.69C25.0433,4.69,25.2933,4.71667,25.54,4.77C25.7867,4.82333,26.0083,4.91,26.205,5.03C26.4017,5.15,26.56,5.305,26.68,5.495C26.8,5.685,26.86,5.91667,26.86,6.19L26.86,8.85ZM25.72,7.41C25.5467,7.52333,25.3333,7.59167,25.08,7.615C24.8267,7.63833,24.5733,7.67333,24.32,7.72C24.2,7.74,24.0833,7.76833,23.97,7.805C23.8567,7.84167,23.7567,7.89167,23.67,7.955C23.5833,8.01833,23.515,8.10167,23.465,8.205C23.415,8.30833,23.39,8.43333,23.39,8.58C23.39,8.70667,23.4267,8.81333,23.5,8.9C23.5733,8.98667,23.6617,9.055,23.765,9.105C23.8683,9.155,23.9817,9.19,24.105,9.21C24.2283,9.23,24.34,9.24,24.44,9.24C24.5667,9.24,24.7033,9.22333,24.85,9.19C24.9967,9.15667,25.135,9.1,25.265,9.02C25.395,8.94,25.5033,8.83833,25.59,8.715C25.6767,8.59167,25.72,8.44,25.72,8.26L25.72,7.41ZM28.95,8.34C28.9833,8.67333,29.11,8.90667,29.33,9.04C29.55,9.17333,29.8133,9.24,30.12,9.24C30.2267,9.24,30.3483,9.23167,30.485,9.215C30.6217,9.19833,30.75,9.16667,30.87,9.12C30.99,9.07333,31.0883,9.005,31.165,8.915C31.2417,8.825,31.2767,8.70667,31.27,8.56C31.2633,8.41333,31.21,8.29333,31.11,8.2C31.01,8.10667,30.8817,8.03167,30.725,7.975C30.5683,7.91833,30.39,7.87,30.19,7.83C29.99,7.79,29.7867,7.74667,29.58,7.7C29.3667,7.65333,29.1617,7.59667,28.965,7.53C28.7683,7.46333,28.5917,7.37333,28.435,7.26C28.2783,7.14667,28.1533,7.00167,28.06,6.825C27.9667,6.64833,27.92,6.43,27.92,6.17C27.92,5.89,27.9883,5.655,28.125,5.465C28.2617,5.275,28.435,5.12167,28.645,5.005C28.855,4.88833,29.0883,4.80667,29.345,4.76C29.6017,4.71333,29.8467,4.69,30.08,4.69C30.3467,4.69,30.6017,4.71833,30.845,4.775C31.0883,4.83167,31.3083,4.92333,31.505,5.05C31.7017,5.17667,31.865,5.34167,31.995,5.545C32.125,5.74833,32.2067,5.99333,32.24,6.28L31.05,6.28C30.9967,6.00667,30.8717,5.82333,30.675,5.73C30.4783,5.63667,30.2533,5.59,30,5.59C29.92,5.59,29.825,5.59667,29.715,5.61C29.605,5.62333,29.5017,5.64833,29.405,5.685C29.3083,5.72167,29.2267,5.775,29.16,5.845C29.0933,5.915,29.06,6.00667,29.06,6.12C29.06,6.26,29.1083,6.37333,29.205,6.46C29.3017,6.54667,29.4283,6.61833,29.585,6.675C29.7417,6.73167,29.92,6.78,30.12,6.82C30.32,6.86,30.5267,6.90333,30.74,6.95C30.9467,6.99667,31.15,7.05333,31.35,7.12C31.55,7.18667,31.7283,7.27667,31.885,7.39C32.0417,7.50333,32.1683,7.64667,32.265,7.82C32.3617,7.99333,32.41,8.20667,32.41,8.46C32.41,8.76667,32.34,9.02667,32.2,9.24C32.06,9.45333,31.8783,9.62667,31.655,9.76C31.4317,9.89333,31.1833,9.99,30.91,10.05C30.6367,10.11,30.3667,10.14,30.1,10.14C29.7733,10.14,29.4717,10.1033,29.195,10.03C28.9183,9.95667,28.6783,9.845,28.475,9.695C28.2717,9.545,28.1117,9.35833,27.995,9.135C27.8783,8.91167,27.8167,8.64667,27.81,8.34L28.95,8.34ZM33.31,2.86L34.45,2.86L34.45,6.92L36.51,4.83L37.91,4.83L35.93,6.73L38.1,10L36.71,10L35.13,7.49L34.45,8.15L34.45,10L33.31,10L33.31,2.86ZM46,10L41.22,10C41.2267,9.42,41.3667,8.91334,41.64,8.48C41.9133,8.04666,42.2867,7.67,42.76,7.35C42.9867,7.18333,43.2233,7.02167,43.47,6.865C43.7167,6.70833,43.9433,6.54,44.15,6.36C44.3567,6.18,44.5267,5.985,44.66,5.775C44.7933,5.565,44.8633,5.32333,44.87,5.05C44.87,4.92333,44.855,4.78833,44.825,4.645C44.795,4.50167,44.7367,4.36833,44.65,4.245C44.5633,4.12167,44.4433,4.01833,44.29,3.935C44.1367,3.85167,43.9367,3.81,43.69,3.81C43.4633,3.81,43.275,3.855,43.125,3.945C42.975,4.035,42.855,4.15833,42.765,4.315C42.675,4.47167,42.6083,4.65667,42.565,4.87C42.5217,5.08333,42.4967,5.31333,42.49,5.56L41.35,5.56C41.35,5.17333,41.4017,4.815,41.505,4.485C41.6083,4.155,41.7633,3.87,41.97,3.63C42.1767,3.39,42.4283,3.20167,42.725,3.065C43.0217,2.92833,43.3667,2.86,43.76,2.86C44.1867,2.86,44.5433,2.93,44.83,3.07C45.1167,3.21,45.3483,3.38667,45.525,3.6C45.7017,3.81333,45.8267,4.045,45.9,4.295C45.9733,4.545,46.01,4.78333,46.01,5.01C46.01,5.29,45.9667,5.54333,45.88,5.77C45.7933,5.99667,45.6767,6.205,45.53,6.395C45.3833,6.585,45.2167,6.76,45.03,6.92C44.8433,7.08,44.65,7.23,44.45,7.37C44.25,7.51,44.05,7.64333,43.85,7.77C43.65,7.89667,43.465,8.02333,43.295,8.15C43.125,8.27667,42.9767,8.40833,42.85,8.545C42.7233,8.68167,42.6367,8.82667,42.59,8.98L46,8.98L46,10Z" fill="#4C78BA" fill-rule="nonzero"/>
        </g>
        <g id="Group-2" stroke="#4C78BA" stroke-width="0.5" opacity="0.25" transform="translate(98.4853,0.514719) rotate(45)" style="animation: 6.2s linear infinite both Group-2_o;">
            <rect id="Rectangle-6" width="11" height="11" rx="5.5" transform="translate(0,0) translate(0.656854,0.656854)"/>
            <path id="Path-5" d="M6.15685,2.49019L6.15685,9.82352"/>
            <path id="Path-6" d="M6.15685,2.49019L6.15685,9.82352" transform="translate(6.15685,6.15685) rotate(-90) translate(-6.15685,-6.15685)"/>
        </g>
    </g>
    <g id="task3-list" stroke="none" stroke-width="1" fill="none" fill-rule="evenodd" transform="translate(20,57.6667)" style="animation: 6.2s linear infinite both task3-list_t;">
        <g id="Group-4" transform="translate(0,3)">
            <path id="Rectangle-7" d="M1,1L9,1C9.55228,1,10,1.44772,10,2L10,10C10,10.5523,9.55228,11,9,11L1,11C0.447715,11,0,10.5523,0,10L0,2C0,1.44772,0.447715,1,1,1Z" stroke="#4C78BA" stroke-linecap="round"/>
            <path id="Task3" d="M16.08,2.86L21.86,2.86L21.86,3.94L19.59,3.94L19.59,10L18.34,10L18.34,3.94L16.08,3.94L16.08,2.86ZM26.86,8.85C26.86,8.99,26.8783,9.09,26.915,9.15C26.9517,9.21,27.0233,9.24,27.13,9.24L27.25,9.24C27.2967,9.24,27.35,9.23333,27.41,9.22L27.41,10.01C27.37,10.0233,27.3183,10.0383,27.255,10.055C27.1917,10.0717,27.1267,10.0867,27.06,10.1C26.9933,10.1133,26.9267,10.1233,26.86,10.13C26.7933,10.1367,26.7367,10.14,26.69,10.14C26.4567,10.14,26.2633,10.0933,26.11,10C25.9567,9.90667,25.8567,9.74333,25.81,9.51C25.5833,9.73,25.305,9.89,24.975,9.99C24.645,10.09,24.3267,10.14,24.02,10.14C23.7867,10.14,23.5633,10.1083,23.35,10.045C23.1367,9.98167,22.9483,9.88833,22.785,9.765C22.6217,9.64167,22.4917,9.485,22.395,9.295C22.2983,9.105,22.25,8.88333,22.25,8.63C22.25,8.31,22.3083,8.05,22.425,7.85C22.5417,7.65,22.695,7.49333,22.885,7.38C23.075,7.26667,23.2883,7.185,23.525,7.135C23.7617,7.085,24,7.04667,24.24,7.02C24.4467,6.98,24.6433,6.95167,24.83,6.935C25.0167,6.91833,25.1817,6.89,25.325,6.85C25.4683,6.81,25.5817,6.74833,25.665,6.665C25.7483,6.58167,25.79,6.45667,25.79,6.29C25.79,6.14333,25.755,6.02333,25.685,5.93C25.615,5.83667,25.5283,5.765,25.425,5.715C25.3217,5.665,25.2067,5.63167,25.08,5.615C24.9533,5.59833,24.8333,5.59,24.72,5.59C24.4,5.59,24.1367,5.65667,23.93,5.79C23.7233,5.92333,23.6067,6.13,23.58,6.41L22.44,6.41C22.46,6.07667,22.54,5.8,22.68,5.58C22.82,5.36,22.9983,5.18333,23.215,5.05C23.4317,4.91667,23.6767,4.82333,23.95,4.77C24.2233,4.71667,24.5033,4.69,24.79,4.69C25.0433,4.69,25.2933,4.71667,25.54,4.77C25.7867,4.82333,26.0083,4.91,26.205,5.03C26.4017,5.15,26.56,5.305,26.68,5.495C26.8,5.685,26.86,5.91667,26.86,6.19L26.86,8.85ZM25.72,7.41C25.5467,7.52333,25.3333,7.59167,25.08,7.615C24.8267,7.63833,24.5733,7.67333,24.32,7.72C24.2,7.74,24.0833,7.76833,23.97,7.805C23.8567,7.84167,23.7567,7.89167,23.67,7.955C23.5833,8.01833,23.515,8.10167,23.465,8.205C23.415,8.30833,23.39,8.43333,23.39,8.58C23.39,8.70667,23.4267,8.81333,23.5,8.9C23.5733,8.98667,23.6617,9.055,23.765,9.105C23.8683,9.155,23.9817,9.19,24.105,9.21C24.2283,9.23,24.34,9.24,24.44,9.24C24.5667,9.24,24.7033,9.22333,24.85,9.19C24.9967,9.15667,25.135,9.1,25.265,9.02C25.395,8.94,25.5033,8.83833,25.59,8.715C25.6767,8.59167,25.72,8.44,25.72,8.26L25.72,7.41ZM28.95,8.34C28.9833,8.67333,29.11,8.90667,29.33,9.04C29.55,9.17333,29.8133,9.24,30.12,9.24C30.2267,9.24,30.3483,9.23167,30.485,9.215C30.6217,9.19833,30.75,9.16667,30.87,9.12C30.99,9.07333,31.0883,9.005,31.165,8.915C31.2417,8.825,31.2767,8.70667,31.27,8.56C31.2633,8.41333,31.21,8.29333,31.11,8.2C31.01,8.10667,30.8817,8.03167,30.725,7.975C30.5683,7.91833,30.39,7.87,30.19,7.83C29.99,7.79,29.7867,7.74667,29.58,7.7C29.3667,7.65333,29.1617,7.59667,28.965,7.53C28.7683,7.46333,28.5917,7.37333,28.435,7.26C28.2783,7.14667,28.1533,7.00167,28.06,6.825C27.9667,6.64833,27.92,6.43,27.92,6.17C27.92,5.89,27.9883,5.655,28.125,5.465C28.2617,5.275,28.435,5.12167,28.645,5.005C28.855,4.88833,29.0883,4.80667,29.345,4.76C29.6017,4.71333,29.8467,4.69,30.08,4.69C30.3467,4.69,30.6017,4.71833,30.845,4.775C31.0883,4.83167,31.3083,4.92333,31.505,5.05C31.7017,5.17667,31.865,5.34167,31.995,5.545C32.125,5.74833,32.2067,5.99333,32.24,6.28L31.05,6.28C30.9967,6.00667,30.8717,5.82333,30.675,5.73C30.4783,5.63667,30.2533,5.59,30,5.59C29.92,5.59,29.825,5.59667,29.715,5.61C29.605,5.62333,29.5017,5.64833,29.405,5.685C29.3083,5.72167,29.2267,5.775,29.16,5.845C29.0933,5.915,29.06,6.00667,29.06,6.12C29.06,6.26,29.1083,6.37333,29.205,6.46C29.3017,6.54667,29.4283,6.61833,29.585,6.675C29.7417,6.73167,29.92,6.78,30.12,6.82C30.32,6.86,30.5267,6.90333,30.74,6.95C30.9467,6.99667,31.15,7.05333,31.35,7.12C31.55,7.18667,31.7283,7.27667,31.885,7.39C32.0417,7.50333,32.1683,7.64667,32.265,7.82C32.3617,7.99333,32.41,8.20667,32.41,8.46C32.41,8.76667,32.34,9.02667,32.2,9.24C32.06,9.45333,31.8783,9.62667,31.655,9.76C31.4317,9.89333,31.1833,9.99,30.91,10.05C30.6367,10.11,30.3667,10.14,30.1,10.14C29.7733,10.14,29.4717,10.1033,29.195,10.03C28.9183,9.95667,28.6783,9.845,28.475,9.695C28.2717,9.545,28.1117,9.35833,27.995,9.135C27.8783,8.91167,27.8167,8.64667,27.81,8.34L28.95,8.34ZM33.31,2.86L34.45,2.86L34.45,6.92L36.51,4.83L37.91,4.83L35.93,6.73L38.1,10L36.71,10L35.13,7.49L34.45,8.15L34.45,10L33.31,10L33.31,2.86ZM43.11,5.9C43.2967,5.90667,43.4833,5.89333,43.67,5.86C43.8567,5.82667,44.0233,5.76833,44.17,5.685C44.3167,5.60167,44.435,5.48667,44.525,5.34C44.615,5.19333,44.66,5.01333,44.66,4.8C44.66,4.5,44.5583,4.26,44.355,4.08C44.1517,3.9,43.89,3.81,43.57,3.81C43.37,3.81,43.1967,3.85,43.05,3.93C42.9033,4.01,42.7817,4.11833,42.685,4.255C42.5883,4.39167,42.5167,4.545,42.47,4.715C42.4233,4.885,42.4033,5.06,42.41,5.24L41.27,5.24C41.2833,4.9,41.3467,4.585,41.46,4.295C41.5733,4.005,41.7283,3.75333,41.925,3.54C42.1217,3.32667,42.36,3.16,42.64,3.04C42.92,2.92,43.2367,2.86,43.59,2.86C43.8633,2.86,44.1317,2.9,44.395,2.98C44.6583,3.06,44.895,3.17667,45.105,3.33C45.315,3.48333,45.4833,3.67833,45.61,3.915C45.7367,4.15167,45.8,4.42333,45.8,4.73C45.8,5.08334,45.72,5.39167,45.56,5.655C45.4,5.91833,45.15,6.11,44.81,6.23L44.81,6.25C45.21,6.33,45.5217,6.52833,45.745,6.845C45.9683,7.16167,46.08,7.54666,46.08,8C46.08,8.33333,46.0133,8.63167,45.88,8.895C45.7467,9.15833,45.5667,9.38167,45.34,9.565C45.1133,9.74833,44.85,9.89,44.55,9.99C44.25,10.09,43.9333,10.14,43.6,10.14C43.1933,10.14,42.8383,10.0817,42.535,9.965C42.2317,9.84833,41.9783,9.68333,41.775,9.47C41.5717,9.25667,41.4167,9,41.31,8.7C41.2033,8.4,41.1467,8.06667,41.14,7.7L42.28,7.7C42.2667,8.12667,42.3717,8.48167,42.595,8.765C42.8183,9.04833,43.1533,9.19,43.6,9.19C43.98,9.19,44.2983,9.08167,44.555,8.865C44.8117,8.64833,44.94,8.34,44.94,7.94C44.94,7.66667,44.8867,7.45,44.78,7.29C44.6733,7.13,44.5333,7.00833,44.36,6.925C44.1867,6.84167,43.9917,6.79,43.775,6.77C43.5583,6.75,43.3367,6.74333,43.11,6.75L43.11,5.9Z" fill="#4C78BA" fill-rule="nonzero"/>
        </g>
        <g id="Group-7" stroke="#4C78BA" stroke-width="0.5" opacity="0.25" transform="translate(98.4853,0.514719) rotate(45)">
            <rect id="Rectangle-8" width="11" height="11" rx="5.5" transform="translate(0,0) translate(0.656854,0.656854)"/>
            <path id="Path-7" d="M6.15685,2.49019L6.15685,9.82352"/>
            <path id="Path-8" d="M6.15685,2.49019L6.15685,9.82352" transform="translate(6.15685,6.15685) rotate(-90) translate(-6.15685,-6.15685)"/>
        </g>
    </g>
    <g id="task4-list" stroke="none" stroke-width="1" fill="none" fill-rule="evenodd" transform="translate(20,78)" style="animation: 6.2s linear infinite both task4-list_t;">
        <g id="Group-3" transform="translate(0,3)">
            <path id="Rectangle-9" d="M1,1L9,1C9.55228,1,10,1.44772,10,2L10,10C10,10.5523,9.55228,11,9,11L1,11C0.447715,11,0,10.5523,0,10L0,2C0,1.44772,0.447715,1,1,1Z" stroke="#4C78BA" fill="#4C78BA" stroke-linecap="round"/>
            <path id="Path-9" stroke="#FFFFFF" stroke-width="2" d="M9,2L3.90152,9L1,6.58245"/>
            <path id="Task4" d="M16.08,2.86L21.86,2.86L21.86,3.94L19.59,3.94L19.59,10L18.34,10L18.34,3.94L16.08,3.94L16.08,2.86ZM26.86,8.85C26.86,8.99,26.8783,9.09,26.915,9.15C26.9517,9.21,27.0233,9.24,27.13,9.24L27.25,9.24C27.2967,9.24,27.35,9.23333,27.41,9.22L27.41,10.01C27.37,10.0233,27.3183,10.0383,27.255,10.055C27.1917,10.0717,27.1267,10.0867,27.06,10.1C26.9933,10.1133,26.9267,10.1233,26.86,10.13C26.7933,10.1367,26.7367,10.14,26.69,10.14C26.4567,10.14,26.2633,10.0933,26.11,10C25.9567,9.90667,25.8567,9.74333,25.81,9.51C25.5833,9.73,25.305,9.89,24.975,9.99C24.645,10.09,24.3267,10.14,24.02,10.14C23.7867,10.14,23.5633,10.1083,23.35,10.045C23.1367,9.98167,22.9483,9.88833,22.785,9.765C22.6217,9.64167,22.4917,9.485,22.395,9.295C22.2983,9.105,22.25,8.88333,22.25,8.63C22.25,8.31,22.3083,8.05,22.425,7.85C22.5417,7.65,22.695,7.49333,22.885,7.38C23.075,7.26667,23.2883,7.185,23.525,7.135C23.7617,7.085,24,7.04667,24.24,7.02C24.4467,6.98,24.6433,6.95167,24.83,6.935C25.0167,6.91833,25.1817,6.89,25.325,6.85C25.4683,6.81,25.5817,6.74833,25.665,6.665C25.7483,6.58167,25.79,6.45667,25.79,6.29C25.79,6.14333,25.755,6.02333,25.685,5.93C25.615,5.83667,25.5283,5.765,25.425,5.715C25.3217,5.665,25.2067,5.63167,25.08,5.615C24.9533,5.59833,24.8333,5.59,24.72,5.59C24.4,5.59,24.1367,5.65667,23.93,5.79C23.7233,5.92333,23.6067,6.13,23.58,6.41L22.44,6.41C22.46,6.07667,22.54,5.8,22.68,5.58C22.82,5.36,22.9983,5.18333,23.215,5.05C23.4317,4.91667,23.6767,4.82333,23.95,4.77C24.2233,4.71667,24.5033,4.69,24.79,4.69C25.0433,4.69,25.2933,4.71667,25.54,4.77C25.7867,4.82333,26.0083,4.91,26.205,5.03C26.4017,5.15,26.56,5.305,26.68,5.495C26.8,5.685,26.86,5.91667,26.86,6.19L26.86,8.85ZM25.72,7.41C25.5467,7.52333,25.3333,7.59167,25.08,7.615C24.8267,7.63833,24.5733,7.67333,24.32,7.72C24.2,7.74,24.0833,7.76833,23.97,7.805C23.8567,7.84167,23.7567,7.89167,23.67,7.955C23.5833,8.01833,23.515,8.10167,23.465,8.205C23.415,8.30833,23.39,8.43333,23.39,8.58C23.39,8.70667,23.4267,8.81333,23.5,8.9C23.5733,8.98667,23.6617,9.055,23.765,9.105C23.8683,9.155,23.9817,9.19,24.105,9.21C24.2283,9.23,24.34,9.24,24.44,9.24C24.5667,9.24,24.7033,9.22333,24.85,9.19C24.9967,9.15667,25.135,9.1,25.265,9.02C25.395,8.94,25.5033,8.83833,25.59,8.715C25.6767,8.59167,25.72,8.44,25.72,8.26L25.72,7.41ZM28.95,8.34C28.9833,8.67333,29.11,8.90667,29.33,9.04C29.55,9.17333,29.8133,9.24,30.12,9.24C30.2267,9.24,30.3483,9.23167,30.485,9.215C30.6217,9.19833,30.75,9.16667,30.87,9.12C30.99,9.07333,31.0883,9.005,31.165,8.915C31.2417,8.825,31.2767,8.70667,31.27,8.56C31.2633,8.41333,31.21,8.29333,31.11,8.2C31.01,8.10667,30.8817,8.03167,30.725,7.975C30.5683,7.91833,30.39,7.87,30.19,7.83C29.99,7.79,29.7867,7.74667,29.58,7.7C29.3667,7.65333,29.1617,7.59667,28.965,7.53C28.7683,7.46333,28.5917,7.37333,28.435,7.26C28.2783,7.14667,28.1533,7.00167,28.06,6.825C27.9667,6.64833,27.92,6.43,27.92,6.17C27.92,5.89,27.9883,5.655,28.125,5.465C28.2617,5.275,28.435,5.12167,28.645,5.005C28.855,4.88833,29.0883,4.80667,29.345,4.76C29.6017,4.71333,29.8467,4.69,30.08,4.69C30.3467,4.69,30.6017,4.71833,30.845,4.775C31.0883,4.83167,31.3083,4.92333,31.505,5.05C31.7017,5.17667,31.865,5.34167,31.995,5.545C32.125,5.74833,32.2067,5.99333,32.24,6.28L31.05,6.28C30.9967,6.00667,30.8717,5.82333,30.675,5.73C30.4783,5.63667,30.2533,5.59,30,5.59C29.92,5.59,29.825,5.59667,29.715,5.61C29.605,5.62333,29.5017,5.64833,29.405,5.685C29.3083,5.72167,29.2267,5.775,29.16,5.845C29.0933,5.915,29.06,6.00667,29.06,6.12C29.06,6.26,29.1083,6.37333,29.205,6.46C29.3017,6.54667,29.4283,6.61833,29.585,6.675C29.7417,6.73167,29.92,6.78,30.12,6.82C30.32,6.86,30.5267,6.90333,30.74,6.95C30.9467,6.99667,31.15,7.05333,31.35,7.12C31.55,7.18667,31.7283,7.27667,31.885,7.39C32.0417,7.50333,32.1683,7.64667,32.265,7.82C32.3617,7.99333,32.41,8.20667,32.41,8.46C32.41,8.76667,32.34,9.02667,32.2,9.24C32.06,9.45333,31.8783,9.62667,31.655,9.76C31.4317,9.89333,31.1833,9.99,30.91,10.05C30.6367,10.11,30.3667,10.14,30.1,10.14C29.7733,10.14,29.4717,10.1033,29.195,10.03C28.9183,9.95667,28.6783,9.845,28.475,9.695C28.2717,9.545,28.1117,9.35833,27.995,9.135C27.8783,8.91167,27.8167,8.64667,27.81,8.34L28.95,8.34ZM33.31,2.86L34.45,2.86L34.45,6.92L36.51,4.83L37.91,4.83L35.93,6.73L38.1,10L36.71,10L35.13,7.49L34.45,8.15L34.45,10L33.31,10L33.31,2.86ZM41.95,7.44L44.07,7.44L44.07,4.36L44.05,4.36L41.95,7.44ZM46.05,8.34L45.15,8.34L45.15,10L44.07,10L44.07,8.34L41.07,8.34L41.07,7.21L44.07,3L45.15,3L45.15,7.44L46.05,7.44L46.05,8.34Z" fill="#4C78BA" fill-rule="nonzero"/>
        </g>
        <g id="Group-8" stroke="#4C78BA" stroke-width="0.5" opacity="0.25" transform="translate(98.4853,0.514719) rotate(45)">
            <rect id="Rectangle-10" width="11" height="11" rx="5.5" transform="translate(0,0) translate(0.656854,0.656854)"/>
            <path id="Path-10" d="M6.15685,2.49019L6.15685,9.82352"/>
            <path id="Path-11" d="M6.15685,2.49019L6.15685,9.82352" transform="translate(6.15685,6.15685) rotate(-90) translate(-6.15685,-6.15685)"/>
        </g>
    </g>
    <path id="Task2-typed" d="M20.08,20.86L25.86,20.86L25.86,21.94L23.59,21.94L23.59,28L22.34,28L22.34,21.94L20.08,21.94L20.08,20.86ZM30.86,26.85C30.86,26.99,30.8783,27.09,30.915,27.15C30.9517,27.21,31.0233,27.24,31.13,27.24L31.25,27.24C31.2967,27.24,31.35,27.2333,31.41,27.22L31.41,28.01C31.37,28.0233,31.3183,28.0383,31.255,28.055C31.1917,28.0717,31.1267,28.0867,31.06,28.1C30.9933,28.1133,30.9267,28.1233,30.86,28.13C30.7933,28.1367,30.7367,28.14,30.69,28.14C30.4567,28.14,30.2633,28.0933,30.11,28C29.9567,27.9067,29.8567,27.7433,29.81,27.51C29.5833,27.73,29.305,27.89,28.975,27.99C28.645,28.09,28.3267,28.14,28.02,28.14C27.7867,28.14,27.5633,28.1083,27.35,28.045C27.1367,27.9817,26.9483,27.8883,26.785,27.765C26.6217,27.6417,26.4917,27.485,26.395,27.295C26.2983,27.105,26.25,26.8833,26.25,26.63C26.25,26.31,26.3083,26.05,26.425,25.85C26.5417,25.65,26.695,25.4933,26.885,25.38C27.075,25.2667,27.2883,25.185,27.525,25.135C27.7617,25.085,28,25.0467,28.24,25.02C28.4467,24.98,28.6433,24.9517,28.83,24.935C29.0167,24.9183,29.1817,24.89,29.325,24.85C29.4683,24.81,29.5817,24.7483,29.665,24.665C29.7483,24.5817,29.79,24.4567,29.79,24.29C29.79,24.1433,29.755,24.0233,29.685,23.93C29.615,23.8367,29.5283,23.765,29.425,23.715C29.3217,23.665,29.2067,23.6317,29.08,23.615C28.9533,23.5983,28.8333,23.59,28.72,23.59C28.4,23.59,28.1367,23.6567,27.93,23.79C27.7233,23.9233,27.6067,24.13,27.58,24.41L26.44,24.41C26.46,24.0767,26.54,23.8,26.68,23.58C26.82,23.36,26.9983,23.1833,27.215,23.05C27.4317,22.9167,27.6767,22.8233,27.95,22.77C28.2233,22.7167,28.5033,22.69,28.79,22.69C29.0433,22.69,29.2933,22.7167,29.54,22.77C29.7867,22.8233,30.0083,22.91,30.205,23.03C30.4017,23.15,30.56,23.305,30.68,23.495C30.8,23.685,30.86,23.9167,30.86,24.19L30.86,26.85ZM29.72,25.41C29.5467,25.5233,29.3333,25.5917,29.08,25.615C28.8267,25.6383,28.5733,25.6733,28.32,25.72C28.2,25.74,28.0833,25.7683,27.97,25.805C27.8567,25.8417,27.7567,25.8917,27.67,25.955C27.5833,26.0183,27.515,26.1017,27.465,26.205C27.415,26.3083,27.39,26.4333,27.39,26.58C27.39,26.7067,27.4267,26.8133,27.5,26.9C27.5733,26.9867,27.6617,27.055,27.765,27.105C27.8683,27.155,27.9817,27.19,28.105,27.21C28.2283,27.23,28.34,27.24,28.44,27.24C28.5667,27.24,28.7033,27.2233,28.85,27.19C28.9967,27.1567,29.135,27.1,29.265,27.02C29.395,26.94,29.5033,26.8383,29.59,26.715C29.6767,26.5917,29.72,26.44,29.72,26.26L29.72,25.41ZM32.95,26.34C32.9833,26.6733,33.11,26.9067,33.33,27.04C33.55,27.1733,33.8133,27.24,34.12,27.24C34.2267,27.24,34.3483,27.2317,34.485,27.215C34.6217,27.1983,34.75,27.1667,34.87,27.12C34.99,27.0733,35.0883,27.005,35.165,26.915C35.2417,26.825,35.2767,26.7067,35.27,26.56C35.2633,26.4133,35.21,26.2933,35.11,26.2C35.01,26.1067,34.8817,26.0317,34.725,25.975C34.5683,25.9183,34.39,25.87,34.19,25.83C33.99,25.79,33.7867,25.7467,33.58,25.7C33.3667,25.6533,33.1617,25.5967,32.965,25.53C32.7683,25.4633,32.5917,25.3733,32.435,25.26C32.2783,25.1467,32.1533,25.0017,32.06,24.825C31.9667,24.6483,31.92,24.43,31.92,24.17C31.92,23.89,31.9883,23.655,32.125,23.465C32.2617,23.275,32.435,23.1217,32.645,23.005C32.855,22.8883,33.0883,22.8067,33.345,22.76C33.6017,22.7133,33.8467,22.69,34.08,22.69C34.3467,22.69,34.6017,22.7183,34.845,22.775C35.0883,22.8317,35.3083,22.9233,35.505,23.05C35.7017,23.1767,35.865,23.3417,35.995,23.545C36.125,23.7483,36.2067,23.9933,36.24,24.28L35.05,24.28C34.9967,24.0067,34.8717,23.8233,34.675,23.73C34.4783,23.6367,34.2533,23.59,34,23.59C33.92,23.59,33.825,23.5967,33.715,23.61C33.605,23.6233,33.5017,23.6483,33.405,23.685C33.3083,23.7217,33.2267,23.775,33.16,23.845C33.0933,23.915,33.06,24.0067,33.06,24.12C33.06,24.26,33.1083,24.3733,33.205,24.46C33.3017,24.5467,33.4283,24.6183,33.585,24.675C33.7417,24.7317,33.92,24.78,34.12,24.82C34.32,24.86,34.5267,24.9033,34.74,24.95C34.9467,24.9967,35.15,25.0533,35.35,25.12C35.55,25.1867,35.7283,25.2767,35.885,25.39C36.0417,25.5033,36.1683,25.6467,36.265,25.82C36.3617,25.9933,36.41,26.2067,36.41,26.46C36.41,26.7667,36.34,27.0267,36.2,27.24C36.06,27.4533,35.8783,27.6267,35.655,27.76C35.4317,27.8933,35.1833,27.99,34.91,28.05C34.6367,28.11,34.3667,28.14,34.1,28.14C33.7733,28.14,33.4717,28.1033,33.195,28.03C32.9183,27.9567,32.6783,27.845,32.475,27.695C32.2717,27.545,32.1117,27.3583,31.995,27.135C31.8783,26.9117,31.8167,26.6467,31.81,26.34L32.95,26.34ZM37.31,20.86L38.45,20.86L38.45,24.92L40.51,22.83L41.91,22.83L39.93,24.73L42.1,28L40.71,28L39.13,25.49L38.45,26.15L38.45,28L37.31,28L37.31,20.86ZM50,28L45.22,28C45.2267,27.42,45.3667,26.9133,45.64,26.48C45.9133,26.0467,46.2867,25.67,46.76,25.35C46.9867,25.1833,47.2233,25.0217,47.47,24.865C47.7167,24.7083,47.9433,24.54,48.15,24.36C48.3567,24.18,48.5267,23.985,48.66,23.775C48.7933,23.565,48.8633,23.3233,48.87,23.05C48.87,22.9233,48.855,22.7883,48.825,22.645C48.795,22.5017,48.7367,22.3683,48.65,22.245C48.5633,22.1217,48.4433,22.0183,48.29,21.935C48.1367,21.8517,47.9367,21.81,47.69,21.81C47.4633,21.81,47.275,21.855,47.125,21.945C46.975,22.035,46.855,22.1583,46.765,22.315C46.675,22.4717,46.6083,22.6567,46.565,22.87C46.5217,23.0833,46.4967,23.3133,46.49,23.56L45.35,23.56C45.35,23.1733,45.4017,22.815,45.505,22.485C45.6083,22.155,45.7633,21.87,45.97,21.63C46.1767,21.39,46.4283,21.2017,46.725,21.065C47.0217,20.9283,47.3667,20.86,47.76,20.86C48.1867,20.86,48.5433,20.93,48.83,21.07C49.1167,21.21,49.3483,21.3867,49.525,21.6C49.7017,21.8133,49.8267,22.045,49.9,22.295C49.9733,22.545,50.01,22.7833,50.01,23.01C50.01,23.29,49.9667,23.5433,49.88,23.77C49.7933,23.9967,49.6767,24.205,49.53,24.395C49.3833,24.585,49.2167,24.76,49.03,24.92C48.8433,25.08,48.65,25.23,48.45,25.37C48.25,25.51,48.05,25.6433,47.85,25.77C47.65,25.8967,47.465,26.0233,47.295,26.15C47.125,26.2767,46.9767,26.4083,46.85,26.545C46.7233,26.6817,46.6367,26.8267,46.59,26.98L50,26.98L50,28Z" fill="#4C78BA" fill-rule="nonzero" stroke="none" stroke-width="1" opacity="1" mask="url(#Mask-1)" style="animation: 6.2s linear infinite both Task2-typed_o;"/>
    <path id="cursor" stroke="#4C78BA" stroke-width="2" d="M53.5,18L53.5,28.7532L53.5,31" fill="none" fill-rule="evenodd" opacity="0" transform="translate(-33,0)" style="animation: 6.2s linear infinite both cursor_t, 6.2s linear infinite both cursor_o;"/>
    <path id="outline" d="M14,10L126,10C128.209,10,130,11.7909,130,14L130,116C130,118.209,128.209,120,126,120L14,120C11.7909,120,10,118.209,10,116L10,14C10,11.7909,11.7909,10,14,10Z" stroke="#4C78BA" stroke-linecap="round" stroke-width="1" fill="none" fill-rule="evenodd"/>
    <rect id="touch1" fill-opacity="0.45" fill="#000000" width="20" height="20" rx="10" stroke="none" stroke-width="1" fill-rule="evenodd" opacity="0" transform=" translate(-10,-10)" style="animation: 6.2s linear infinite both touch1_o, 6.2s linear infinite both touch1_mo; offset-path: path('M4,42.86L4,42.86C12,39,17.7239,43.5758,25.505,24.73L25.505,24.73'); offset-rotate: 0deg;"/>
    <rect id="touch1-2" fill-opacity="0.45" fill="#000000" width="20" height="20" rx="10" stroke="none" stroke-width="1" fill-rule="evenodd" opacity="0" transform=" translate(-10,-10)" style="animation: 6.2s linear infinite both touch1-2_o, 6.2s linear infinite both touch1-2_mo; offset-path: path('M135.485,53.7067L135.485,53.7067C123,46.5,118.5,38.5,120,24.73L120,24.73'); offset-rotate: 0deg;"/>
    <rect id="touch1-3" fill-opacity="0.45" fill="#000000" width="20" height="20" rx="10" stroke="none" stroke-width="1" fill-rule="evenodd" opacity="0" transform=" translate(-10,-10)" style="animation: 6.2s linear infinite both touch1-3_o, 6.2s linear infinite both touch1-3_mo; offset-path: path('M136,99.7067L136,99.7067C115.5,95.5,112.5,78.5,118.125,66.7284L118.125,66.7284'); offset-rotate: 0deg;"/>
</svg>
