<svg width="515" height="355" xmlns="http://www.w3.org/2000/svg">
    <style type="text/css">
        @import url(https://fonts.googleapis.com/css?family=Open+Sans:400,700);
        .text-reg {
            font-family: 'Open Sans', sans-serif;
            font-size: 21px;
            font-weight: 400;
            fill: #000000;
        }
        .text-bold {
            font-family: 'Open Sans', sans-serif;
            font-size: 21px;
            font-weight: 700;
            fill: #000000;
        }
        .text-small {
            font-size: 18px;
        }
        .color-three {
            fill: #4078C0;
        }
    </style>
    <g fill="none" fill-rule="evenodd"><text class="text-reg color-three"
            transform="translate(321.803 273.336)">
            <tspan x="11" y="67">view</tspan>
        </text><text class="text-bold" transform="translate(321.803 273.336)">
            <tspan x=".856" y="22.074">&lt;percent-slider&gt;</tspan>
        </text><text class="text-reg color-three"
            transform="translate(321.803 273.336)">
            <tspan x="11" y="48">properties</tspan>
        </text>
        <path
            d="M257.947 65.462a1.498 1.498 0 0 0 .76-1.98 1.498 1.498 0 0 0-1.983-.76L97.031 132.277l-2.435-5.461-8.785 12.105 14.876 1.558-2.434-5.461 159.694-69.555zM401.363 133.655l-2.69-14.713-4.555 3.872-39.76-46.511a1.495 1.495 0 0 0-2.115-.171 1.5 1.5 0 0 0-.172 2.114l39.761 46.512-4.557 3.872 14.088 5.025zM286.196 89.253a1.501 1.501 0 0 0-2.09.358l-23.518 39.427-4.88-3.454-1.378 14.894 13.588-6.252-4.88-3.454 23.516-39.427a1.5 1.5 0 0 0-.358-2.092M396.767 257.555l-.437-39.548a1.503 1.503 0 0 0-1.506-1.492 1.501 1.501 0 0 0-1.494 1.507l.437 39.548-5.98.029 7.543 12.916 7.416-12.99-5.98.03z"
            fill="#CCC" /><text class="text-bold"
            letter-spacing=".017" fill="#000">
            <tspan x="261.316" y="31">&lt;my-app&gt;</tspan>
        </text><text class="text-reg color-three">
            <tspan x="268" y="57">properties</tspan>
        </text><text class="text-reg color-three">
            <tspan x="268" y="78">view</tspan>
        </text>
        <g><text class="text-bold" transform="translate(360 136)">
                <tspan x=".247" y="22">&lt;task-editor&gt;</tspan>
            </text><text class="text-reg color-three"
                transform="translate(360 136)">
                <tspan x="13" y="48">properties</tspan>
            </text><text class="text-reg color-three"
                transform="translate(360 136)">
                <tspan x="13" y="69">view</tspan>
            </text></g>
        <g><text class="text-bold" fill="#000" transform="translate(10 136)">
                <tspan x=".174" y="22">&lt;page-home&gt;</tspan>
            </text><text class="text-reg color-three"
                transform="translate(10 136)">
                <tspan x="11" y="48">properties</tspan>
            </text><text class="text-reg color-three"
                transform="translate(10 136)">
                <tspan x="11" y="69">view</tspan>
            </text></g>
        <g><text class="text-bold"
                letter-spacing=".039" fill="#000" transform="translate(190 136)">
                <tspan x=".414" y="22">&lt;page-login&gt;</tspan>
            </text><text class="text-reg color-three"
                transform="translate(190 136)">
                <tspan x="11.5" y="48">properties</tspan>
            </text><text class="text-reg color-three"
                transform="translate(190 136)">
                <tspan x="11.5" y="69">view</tspan>
            </text></g>
    </g>
</svg>
