<svg xmlns="http://www.w3.org/2000/svg" xmlns:xlink="http://www.w3.org/1999/xlink" viewBox="0 0 710 710"><defs><style>.cls-2{fill:#509444}.cls-9{font-weight:700}.cls-6,.cls-7{letter-spacing:-.03em}.cls-9{fill:#2e4e85}.cls-12{letter-spacing:-.03em}.cls-13{font-family:OpenSans-Light,Open Sans;letter-spacing:-.02em}.cls-14{letter-spacing:-.03em}.cls-15{letter-spacing:-.02em}.cls-16{letter-spacing:-.03em}.cls-17{letter-spacing:-.01em}.cls-18{letter-spacing:-.02em}.cls-19,.cls-20{letter-spacing:-.03em}.cls-21{letter-spacing:-.02em}.cls-22{letter-spacing:-.01em}.cls-23{letter-spacing:-.05em}.cls-24,.cls-26{letter-spacing:-.03em}.cls-28{letter-spacing:-.04em}.cls-30{letter-spacing:-.01em}.cls-31{letter-spacing:-.02em}.cls-41,.cls-44,.cls-66,.cls-67{letter-spacing:-.03em}.cls-68{letter-spacing:-.05em}.cls-69{letter-spacing:-.03em}.cls-70{letter-spacing:-.02em}.cls-88,.cls-89{letter-spacing:-.03em}</style><linearGradient id="linear-gradient" x1="351.08" y1="134.6" x2="351.08" y2="8.6" gradientUnits="userSpaceOnUse"><stop offset="0" stop-color="#fff"/><stop offset="1" stop-color="gray"/></linearGradient><radialGradient id="radial-gradient" cx="351.08" cy="71.6" r="55" gradientUnits="userSpaceOnUse"><stop offset="0" stop-color="#fff"/><stop offset=".96" stop-color="#f0f0f0"/><stop offset="1" stop-color="#fff"/></radialGradient><linearGradient id="linear-gradient-2" x1="93.08" y1="703.4" x2="93.08" y2="577.4" xlink:href="#linear-gradient"/><radialGradient id="radial-gradient-2" cx="93.08" cy="640.4" r="55" xlink:href="#radial-gradient"/><linearGradient id="linear-gradient-3" x1="606.08" y1="703.4" x2="606.08" y2="577.4" xlink:href="#linear-gradient"/><radialGradient id="radial-gradient-3" cx="606.08" cy="640.4" r="55" xlink:href="#radial-gradient"/></defs><g style="isolation:isolate"><g id="Layer_1" data-name="Layer 1"><g id="DOM-group"><circle class="cls-2" cx="351.08" cy="71.6" r="63"/><circle cx="351.08" cy="71.6" r="63" style="mix-blend-mode:multiply" fill="url(#linear-gradient)"/><circle cx="351.08" cy="71.6" r="55" fill="url(#radial-gradient)"/><text transform="translate(322.8 78.49)" letter-spacing="-.03em" font-weight="700" font-family="OpenSans-Semibold,Open Sans" font-size="24">D<tspan class="cls-6" x="16.89" y="0">O</tspan><tspan class="cls-7" x="35.01" y="0">M</tspan></text></g><text transform="translate(372.35 195.77)" letter-spacing="-.01em" font-family="OpenSans-Bold,Open Sans" font-size="21"><tspan class="cls-9">V<tspan x="13.38" y="0" letter-spacing="-.03em">i</tspan><tspan x="19.13" y="0" letter-spacing="-.03em">e</tspan><tspan class="cls-12" x="30.87" y="0">w</tspan></tspan><tspan class="cls-13"><tspan x="0" y="24">c</tspan><tspan class="cls-14" x="9.58" y="24">a</tspan><tspan class="cls-15" x="19.98" y="24">n</tspan><tspan class="cls-16" x="32.01" y="24">-</tspan><tspan class="cls-17" x="38.21" y="24">s</tspan><tspan class="cls-18" x="47.89" y="24">t</tspan><tspan class="cls-19" x="54.58" y="24">a</tspan><tspan class="cls-20" x="65.04" y="24">c</tspan><tspan class="cls-19" x="74.34" y="24">h</tspan><tspan class="cls-21" x="86.06" y="24">e</tspan><tspan x="0" y="48">c</tspan><tspan class="cls-14" x="9.58" y="48">a</tspan><tspan class="cls-15" x="19.98" y="48">n</tspan><tspan class="cls-22" x="32.01" y="48">-</tspan><tspan class="cls-23" x="38.6" y="48">c</tspan><tspan class="cls-24" x="47.63" y="48">o</tspan><tspan x="59.24" y="48" letter-spacing="-.03em">m</tspan><tspan class="cls-26" x="77.06" y="48">p</tspan><tspan class="cls-24" x="88.97" y="48">o</tspan><tspan x="100.58" y="48" letter-spacing="-.03em">n</tspan><tspan class="cls-28" x="112.3" y="48">e</tspan><tspan x="123.08" y="48" letter-spacing="-.03em">n</tspan><tspan class="cls-21" x="134.8" y="48">t</tspan><tspan x="0" y="72">c</tspan><tspan class="cls-14" x="9.58" y="72">a</tspan><tspan class="cls-15" x="19.98" y="72">n</tspan><tspan class="cls-16" x="32.01" y="72">-</tspan><tspan class="cls-17" x="38.21" y="72">s</tspan><tspan class="cls-18" x="47.89" y="72">t</tspan><tspan class="cls-19" x="54.58" y="72">a</tspan><tspan class="cls-20" x="65.04" y="72">c</tspan><tspan class="cls-19" x="74.34" y="72">h</tspan><tspan class="cls-30" x="86.06" y="72">e</tspan><tspan class="cls-31" x="97.31" y="72">-</tspan><tspan x="103.64" y="72" letter-spacing="-.03em">b</tspan><tspan x="115.45" y="72" letter-spacing="-.04em">i</tspan><tspan x="119.43" y="72" letter-spacing="-.03em">n</tspan><tspan x="131.18" y="72" letter-spacing="-.04em">di</tspan><tspan x="146.89" y="72" letter-spacing="-.04em">n</tspan><tspan x="158.5" y="72">g</tspan><tspan class="cls-21" x="169.18" y="72">s</tspan></tspan></text><g id="service-layer-group"><circle class="cls-2" cx="93.08" cy="640.4" r="63"/><circle cx="93.08" cy="640.4" r="63" style="mix-blend-mode:multiply" fill="url(#linear-gradient-2)"/><circle cx="93.08" cy="640.4" r="55" fill="url(#radial-gradient-2)"/><text transform="translate(53.65 636.8)" letter-spacing="-.02em" font-weight="700" font-family="OpenSans-Semibold,Open Sans" font-size="24">S<tspan class="cls-41" x="12.65" y="0">e</tspan><tspan x="25.79" y="0" letter-spacing=".01em">r</tspan><tspan x="36.42" y="0">v</tspan><tspan class="cls-44" x="48.77" y="0">i</tspan><tspan x="54.66" y="0" letter-spacing="-.04em">c</tspan><tspan class="cls-7" x="65.63" y="0">e</tspan><tspan letter-spacing="-.01em"><tspan x="9.18" y="21">L</tspan><tspan x="21.9" y="21" letter-spacing="-.04em">a</tspan><tspan x="34.85" y="21" letter-spacing="-.04em">y</tspan><tspan class="cls-41" x="46.79" y="21">e</tspan><tspan class="cls-7" x="59.93" y="21">r</tspan></tspan></text></g><g id="window.location-group"><circle class="cls-2" cx="606.08" cy="640.4" r="63"/><circle cx="606.08" cy="640.4" r="63" style="mix-blend-mode:multiply" fill="url(#linear-gradient-3)"/><circle cx="606.08" cy="640.4" r="55" fill="url(#radial-gradient-3)"/><text transform="translate(560.3 636.8)" letter-spacing="-.03em" font-weight="700" font-family="OpenSans-Semibold,Open Sans" font-size="24">w<tspan x="18.98" y="0" letter-spacing="-.04em">i</tspan><tspan x="24.81" y="0">n</tspan><tspan x="39.34" y="0">d</tspan><tspan x="53.53" y="0">o</tspan><tspan x="67.37" y="0" letter-spacing="-.06em">w</tspan><tspan x="85.56" y="0" letter-spacing="-.02em">.</tspan><tspan><tspan x="2.08" y="21">l</tspan><tspan x="8.02" y="21">o</tspan><tspan x="22.04" y="21" letter-spacing="-.02em">c</tspan><tspan x="33.34" y="21">at</tspan><tspan class="cls-44" x="55.07" y="21">i</tspan><tspan class="cls-6" x="60.96" y="21">o</tspan><tspan class="cls-7" x="74.85" y="21">n</tspan></tspan></text></g><text transform="translate(525.02 477.67)" letter-spacing="-.04em" font-family="OpenSans-Bold,Open Sans" font-size="21"><tspan class="cls-9">R<tspan x="13.03" y="0" letter-spacing="-.03em">o</tspan><tspan x="25.37" y="0" letter-spacing="-.03em">u</tspan><tspan x="38.46" y="0" letter-spacing="-.03em">t</tspan><tspan class="cls-66" x="46.88" y="0">i</tspan><tspan class="cls-67" x="52.56" y="0">n</tspan><tspan class="cls-21" x="65.74" y="0">g</tspan></tspan><tspan class="cls-13"><tspan x="0" y="24">c</tspan><tspan class="cls-14" x="9.58" y="24">a</tspan><tspan class="cls-15" x="19.98" y="24">n</tspan><tspan class="cls-31" x="32.01" y="24">-</tspan><tspan class="cls-68" x="38.34" y="24">r</tspan><tspan class="cls-69" x="45.56" y="24">o</tspan><tspan class="cls-70" x="57.2" y="24">u</tspan><tspan class="cls-23" x="69.15" y="24">t</tspan><tspan class="cls-21" x="75.23" y="24">e</tspan><tspan x="0" y="48">c</tspan><tspan class="cls-14" x="9.58" y="48">a</tspan><tspan class="cls-15" x="19.98" y="48">n</tspan><tspan class="cls-31" x="32.01" y="48">-</tspan><tspan class="cls-68" x="38.34" y="48">r</tspan><tspan class="cls-69" x="45.56" y="48">o</tspan><tspan class="cls-70" x="57.2" y="48">u</tspan><tspan class="cls-23" x="69.15" y="48">t</tspan><tspan class="cls-30" x="75.23" y="48">e</tspan><tspan x="86.47" y="48" letter-spacing="-.02em">-</tspan><tspan x="92.8" y="48" letter-spacing="-.03em">p</tspan><tspan x="104.64" y="48">u</tspan><tspan x="116.28" y="48">s</tspan><tspan x="125.25" y="48" letter-spacing="-.03em">h</tspan><tspan x="136.96" y="48" letter-spacing="-.01em">s</tspan><tspan class="cls-18" x="146.63" y="48">t</tspan><tspan x="153.33" y="48" letter-spacing="-.03em">a</tspan><tspan class="cls-23" x="163.81" y="48">t</tspan><tspan class="cls-12" x="169.89" y="48">e</tspan></tspan></text><text transform="translate(67.14 477.67)" letter-spacing="-.04em" font-family="OpenSans-Bold,Open Sans" font-size="21"><tspan class="cls-9">D<tspan x="14.75" y="0">a</tspan><tspan x="26.7" y="0" letter-spacing="-.02em">t</tspan><tspan class="cls-21" x="35.38" y="0">a </tspan><tspan x="52.46" y="0" letter-spacing="-.03em">M</tspan><tspan x="71.66" y="0" letter-spacing="-.03em">o</tspan><tspan x="84.12" y="0" letter-spacing="-.03em">d</tspan><tspan x="96.76" y="0" letter-spacing="-.03em">e</tspan><tspan class="cls-66" x="108.61" y="0">li</tspan><tspan class="cls-67" x="119.97" y="0">n</tspan><tspan class="cls-21" x="133.15" y="0">g</tspan></tspan><tspan class="cls-13"><tspan x="0" y="24">c</tspan><tspan class="cls-14" x="9.58" y="24">a</tspan><tspan class="cls-15" x="19.98" y="24">n</tspan><tspan class="cls-22" x="32.01" y="24">-</tspan><tspan class="cls-23" x="38.6" y="24">c</tspan><tspan class="cls-24" x="47.63" y="24">o</tspan><tspan x="59.24" y="24" letter-spacing="-.03em">n</tspan><tspan class="cls-19" x="70.9" y="24">n</tspan><tspan x="82.62" y="24" letter-spacing="-.03em">e</tspan><tspan x="93.56" y="24" letter-spacing=".01em">c</tspan><tspan class="cls-21" x="103.67" y="24">t</tspan><tspan x="0" y="48">c</tspan><tspan class="cls-14" x="9.58" y="48">a</tspan><tspan class="cls-15" x="19.98" y="48">n</tspan><tspan class="cls-16" x="32.01" y="48">-</tspan><tspan class="cls-88" x="38.21" y="48">s</tspan><tspan class="cls-89" x="47.42" y="48">e</tspan><tspan class="cls-12" x="58.31" y="48">t</tspan></tspan></text><g id="observables-group"><path d="M350.08 482.1c-28.33 0-55.07-7.8-75.29-22-21.09-14.76-32.71-34.67-32.71-56s11.62-41.29 32.71-56.05c20.22-14.16 47-21.95 75.29-21.95s55.08 7.79 75.3 21.95c21.09 14.76 32.7 34.66 32.7 56.05s-11.61 41.29-32.7 56c-20.22 14.2-46.96 22-75.3 22z" fill="#666"/><ellipse cx="350.08" cy="404.1" rx="100" ry="70" fill="#fff"/><text transform="translate(290.08 386.27)" letter-spacing="-.03em" font-size="21" font-family="OpenSans-Semibold,Open Sans"><tspan font-weight="700">O<tspan x="15.96" y="0">b</tspan><tspan class="cls-26" x="28.5" y="0">s</tspan><tspan x="38.13" y="0">e</tspan><tspan x="49.65" y="0" letter-spacing=".01em">r</tspan><tspan x="58.98" y="0">v</tspan><tspan x="69.53" y="0">a</tspan><tspan class="cls-26" x="81.01" y="0">b</tspan><tspan class="cls-89" x="93.5" y="0">l</tspan><tspan x="98.73" y="0" letter-spacing="-.02em">e</tspan><tspan class="cls-21" x="110.31" y="0">s</tspan></tspan><tspan class="cls-13"><tspan x="12.82" y="24">c</tspan><tspan class="cls-14" x="22.4" y="24">a</tspan><tspan class="cls-15" x="32.81" y="24">n</tspan><tspan class="cls-22" x="44.83" y="24">-</tspan><tspan x="51.42" y="24">d</tspan><tspan x="63.22" y="24">e</tspan><tspan x="74.14" y="24">fi</tspan><tspan class="cls-19" x="84.46" y="24">n</tspan><tspan class="cls-12" x="96.19" y="24">e</tspan><tspan x="4.71" y="48">c</tspan><tspan class="cls-14" x="14.29" y="48">a</tspan><tspan class="cls-15" x="24.69" y="48">n</tspan><tspan class="cls-22" x="36.71" y="48">-</tspan><tspan class="cls-24" x="43.31" y="48">o</tspan><tspan x="54.92" y="48">b</tspan><tspan class="cls-88" x="66.75" y="48">s</tspan><tspan class="cls-28" x="75.95" y="48">e</tspan><tspan x="86.73" y="48" letter-spacing=".02em">r</tspan><tspan x="95.35" y="48">v</tspan><tspan class="cls-21" x="104.3" y="48">e</tspan></tspan></text></g><path id="arrow01" d="M352.58 162.47h9.97l-12.47-21.59-12.46 21.59h9.96v131.25h-9.96l12.46 21.59 12.47-21.59h-9.97V162.47z"/><path id="arrow03" d="M462.45 471.93l7.04-7.05-24.07-6.45 6.45 24.08 7.04-7.05 92.81 92.81-7.05 7.05 24.08 6.45-6.45-24.08-7.05 7.05-92.8-92.81z"/><path id="arrow03-2" data-name="arrow03" d="M237.72 471.93l-7.05-7.05 24.08-6.45-6.45 24.08-7.05-7.05-92.8 92.81 7.04 7.05-24.08 6.45 6.46-24.08 7.04 7.05 92.81-92.81z"/></g></g></svg>