<svg viewBox="0 0 700 700" version="1.1" xmlns="http://www.w3.org/2000/svg" xmlns:xlink="http://www.w3.org/1999/xlink">
    <style type="text/css">
        @import url(https://fonts.googleapis.com/css?family=Open+Sans:400,700);
        .text-reg {
            font-family: 'Open Sans', sans-serif;
            font-size: 21px;
            font-weight: 400;
            fill: #000000;
        }
        .text-bold {
            font-family: 'Open Sans', sans-serif;
            font-size: 21px;
            font-weight: 700;
            fill: #000000;
        }
        .text-small {
            font-size: 18px;
        }
        .color-two {
            fill: #2E4E85;
        }
    </style>
    <title>CanJS Observables Overview</title>
    <desc>CanJS Observables Overview</desc>
    <defs>
        <linearGradient x1="50%" y1="100%" x2="50%" y2="0%" id="linearGradient-1">
            <stop stop-color="#FFFFFF" offset="0%"></stop>
            <stop stop-color="#808080" offset="100%"></stop>
        </linearGradient>
        <radialGradient cx="50%" cy="50%" fx="50%" fy="50%" r="50%" id="radialGradient-2">
            <stop stop-color="#FFFFFF" offset="0%"></stop>
            <stop stop-color="#F0F0F0" offset="96%"></stop>
            <stop stop-color="#FFFFFF" offset="100%"></stop>
        </radialGradient>
    </defs>
    <g id="oveview" stroke="none" stroke-width="1" fill="none" fill-rule="evenodd">
        <g id="SL-group" transform="translate(31.000000, 571.000000)">
            <circle id="Oval" fill="#509444" fill-rule="nonzero" cx="63" cy="63" r="63"></circle>
            <circle id="Oval" fill="url(#linearGradient-1)" fill-rule="nonzero" style="mix-blend-mode: multiply;" cx="63" cy="63" r="63"></circle>
            <circle id="Oval" fill="url(#radialGradient-2)" fill-rule="nonzero" cx="63" cy="63" r="55"></circle>
            <text id="Service-Layer" fill="#000000" class="text-bold">
                <tspan x="24" y="63">Service</tspan>
                <tspan x="32.315918" y="84">Layer</tspan>
            </text>
        </g>
        <g id="modeling-group" transform="translate(68.000000, 453.000000)">
            <text id="Data-Modeling" class="text-bold color-two text-small">
                <tspan x="0" y="19">Data Modeling</tspan>
            </text>
            <text id="can-connect" class="text-reg text-small">
                <tspan x="0" y="43">can-connect</tspan>
            </text>
            <text id="can-set" class="text-reg text-small">
                <tspan x="0" y="67">can-set</tspan>
            </text>
        </g>
        <g id="WL-group" transform="translate(544.000000, 571.000000)">
            <circle id="Oval" fill="#509444" fill-rule="nonzero" cx="63" cy="63" r="63"></circle>
            <circle id="Oval" fill="url(#linearGradient-1)" fill-rule="nonzero" style="mix-blend-mode: multiply;" cx="63" cy="63" r="63"></circle>
            <circle id="Oval" fill="url(#radialGradient-2)" fill-rule="nonzero" cx="63" cy="63" r="55"></circle>
            <text id="window.-location" fill="#000000" class="text-bold">
                <tspan x="18" y="63">window.</tspan>
                <tspan x="19.6098633" y="84">location</tspan>
            </text>
        </g>
        <g id="routing-group" transform="translate(526.000000, 453.000000)">
            <text id="Routing" class="text-bold text-small color-two">
                <tspan x="0" y="19">Routing</tspan>
            </text>
            <text id="can-route" class="text-reg text-small">
                <tspan x="0" y="43">can-route</tspan>
            </text>
            <text id="can-route-pushstate" class="text-reg text-small">
                <tspan x="0" y="67">can-route-pushstate</tspan>
            </text>
        </g>
        <g id="observables-group" transform="translate(243.000000, 320.000000)">
            <path d="M108,156 C79.67,156 52.93,148.2 32.71,134 C11.62,119.24 0,99.33 0,78 C0,56.67 11.62,36.71 32.71,21.95 C52.93,7.79 79.71,0 108,0 C136.29,0 163.08,7.79 183.3,21.95 C204.39,36.71 216,56.61 216,78 C216,99.39 204.39,119.29 183.3,134 C163.08,148.2 136.34,156 108,156 Z" id="Path" fill="#666666" fill-rule="nonzero"></path>
            <ellipse id="Oval" fill="#FFFFFF" fill-rule="nonzero" cx="108" cy="78" rx="100" ry="70"></ellipse>
            <text id="Observables" fill="#000000" class="text-bold">
                <tspan x="43.2209473" y="60">Observables</tspan>
            </text>
            <text id="can-define" class="text-reg">
                <tspan x="56.4638672" y="84">can-define</tspan>
            </text>
            <text id="can-observe" class="text-reg">
                <tspan x="48.2248535" y="108">can-observe</tspan>
            </text>
        </g>
        <g id="view-group" transform="translate(373.000000, 171.000000)" font-size="18">
            <text id="View" class="text-bold text-small color-two">
                <tspan x="0" y="19">View</tspan>
            </text>
            <text id="can-stache" class="text-reg text-small">
                <tspan x="0" y="43">can-stache</tspan>
            </text>
            <text id="can-component" class="text-reg text-small">
                <tspan x="0" y="67">can-component</tspan>
            </text>
            <text id="can-stache-bindings" class="text-reg text-small">
                <tspan x="0" y="91">can-stache-bindings</tspan>
            </text>
        </g>
        <g id="DOM-group" transform="translate(289.000000, 2.000000)">
            <circle id="Oval" fill="#509444" fill-rule="nonzero" cx="63.08" cy="63.6" r="63"></circle>
            <circle id="Oval" fill="url(#linearGradient-1)" fill-rule="nonzero" style="mix-blend-mode: multiply;" cx="63.08" cy="63.6" r="63"></circle>
            <circle id="Oval" fill="url(#radialGradient-2)" fill-rule="nonzero" cx="63.08" cy="63.6" r="55"></circle>
            <text id="DOM" fill="#000000" class="text-bold">
                <tspan x="37" y="70.49">DOM</tspan>
            </text>
        </g>
        <polygon id="arrow-left" fill="#000000" fill-rule="nonzero" points="239.016945 466.462786 231.986379 459.43222 256 453 249.56778 477.013621 242.537214 469.983055 149.993027 562.537214 157.013621 569.56778 133 576 139.442192 551.986379 146.462786 559.016945"></polygon>
        <polygon id="arrow-right" fill="#000000" fill-rule="nonzero" points="463.984432 466.462786 471.005595 459.43222 447 453 453.432741 477.013621 460.453904 469.983055 553.015568 562.537214 545.984432 569.56778 570 576 563.567259 551.986379 556.536123 559.016945"></polygon>
        <polygon id="arrow-top" fill="#000000" fill-rule="nonzero" points="354.002006 156.536777 364 156.536777 351.494986 135 339 156.536777 348.987966 156.536777 348.987966 287.463223 339 287.463223 351.494986 309 364 287.463223 354.002006 287.463223"></polygon>
    </g>
</svg>
