<?xml version="1.0" encoding="utf-8"?>
<!-- Generator: Adobe Illustrator 22.1.0, SVG Export Plug-In . SVG Version: 6.00 Build 0)  -->
<svg version="1.1" id="Layer_1" xmlns="http://www.w3.org/2000/svg" xmlns:xlink="http://www.w3.org/1999/xlink" x="0px" y="0px"
	 viewBox="0 0 17.1 17.1" style="enable-background:new 0 0 17.1 17.1;" xml:space="preserve">
<style type="text/css">
	.st0{fill:#ED7571;}
</style>
<title>close</title>
<path class="st0" d="M17.1,14.9c0,0.4-0.2,0.8-0.4,1.1L16,16.7c-0.3,0.3-0.7,0.4-1.1,0.4s-0.8-0.2-1.1-0.4l-5.3-4.9l-5.3,4.9
	c-0.2,0.3-0.6,0.4-1,0.4S1.4,17,1.1,16.7L0.4,16C0.2,15.7,0,15.3,0,14.9c0-0.4,0.2-0.8,0.4-1.1l4.9-5.3L0.4,3.3C0.2,3,0,2.6,0,2.2
	s0.2-0.8,0.4-1.1l0.7-0.7C1.4,0.2,1.8,0,2.2,0S3,0.2,3.3,0.4l5.3,4.9l5.3-4.9c0.3-0.2,0.6-0.4,1-0.4s0.8,0.2,1.1,0.4l0.7,0.7
	c0.3,0.3,0.4,0.7,0.4,1.1S17,3,16.7,3.3l-4.9,5.3l4.9,5.3C17,14.2,17.1,14.5,17.1,14.9z"/>
</svg>
