<svg id="Ebene_1" data-name="Ebene 1" xmlns="http://www.w3.org/2000/svg" viewBox="0 0 964.5 215"><defs><style>.cls-1{fill:#ff6b6b;}.cls-2{fill:none;}</style></defs><title>evil-tinder-logo</title><path class="cls-1" d="M188.12,211.62c53.25,0,56.25-130.37,56.25-130.37H214.25s-5.38,97.62-26,97.62S163,81.25,163,81.25H131.88C131.75,81.25,134.87,211.62,188.12,211.62Z"/><path class="cls-1" d="M333.25,176.5c-4.12-3.75-6.25-10.13-6.25-19.25V22.88H293.75V157a73.69,73.69,0,0,0,3.75,24.25,49,49,0,0,0,11,18.13A42.33,42.33,0,0,0,326.75,210c7.25,2.25,15,2.75,25.25,1.75v-30.5C342.87,181.75,337.25,180.25,333.25,176.5Z"/><path class="cls-1" d="M125.75,109.5a62,62,0,0,0-14.37-17.12,59.21,59.21,0,0,0-19-10.63,65.24,65.24,0,0,0-22.13-3.63,61.9,61.9,0,0,0-25.87,5.51A67.86,67.86,0,0,0,9.12,120,71.34,71.34,0,0,0,4,146.75a69.82,69.82,0,0,0,5.12,26.63A67,67,0,0,0,23.25,195a69.66,69.66,0,0,0,21.12,14.63A64.14,64.14,0,0,0,70.25,215c16.25,0,29.75-4.12,40.63-12.25a59.82,59.82,0,0,0,22-32.37H97.5a23.85,23.85,0,0,1-11.75,11.5,35.53,35.53,0,0,1-31.25,0,35.1,35.1,0,0,1-12-10.25l91.38-38.75A71.23,71.23,0,0,0,125.75,109.5ZM34.88,145A42.54,42.54,0,0,1,38,129.75,36.65,36.65,0,0,1,45.5,118a35.39,35.39,0,0,1,10.88-7.75A32.84,32.84,0,0,1,70,107.5a34.72,34.72,0,0,1,14.62,3,29.69,29.69,0,0,1,11,8.63Z"/><rect class="cls-1" x="250.17" y="81.2" width="33.16" height="130.37"/><path class="cls-1" d="M264.44.36a1.35,1.35,0,0,1,2.14,1.56c-.05.12-5.4,12.19,3.71,22a33.43,33.43,0,0,0,3,2.88l0,0a.66.66,0,0,0,.45.17.71.71,0,0,0,.6-.34l0,0A13.75,13.75,0,0,0,276.14,19a1.31,1.31,0,0,1,.75-1.3,1.16,1.16,0,0,1,1.36.3c.6.62,15.06,15.37,13.92,30.32v.16c0,10.77-11.42,19.2-25.19,19.2h-.65c-11.64-.33-21.47-6.74-24-15.6C241.77,50.63,233.61,28.89,264.44.36Z"/><path class="cls-2" d="M715.44,120.44a33.63,33.63,0,0,0-10.58-8A29.35,29.35,0,0,0,692,109.54a30.33,30.33,0,0,0-12.86,2.79,32.3,32.3,0,0,0-10.6,7.85,38.65,38.65,0,0,0-7.18,11.92,41,41,0,0,0-2.65,15,39.32,39.32,0,0,0,2.65,14.58,37.25,37.25,0,0,0,7.18,11.66,33.1,33.1,0,0,0,10.6,7.73A30.33,30.33,0,0,0,692,183.82a29.35,29.35,0,0,0,12.86-2.91A34.69,34.69,0,0,0,715.44,173a37,37,0,0,0,7.19-11.66,38.56,38.56,0,0,0,2.65-14.32,40.36,40.36,0,0,0-2.65-14.71A38.44,38.44,0,0,0,715.44,120.44Z"/><path class="cls-2" d="M842.59,110.55a34.23,34.23,0,0,0-14.57-3A33.15,33.15,0,0,0,803.53,118,39.14,39.14,0,0,0,796,129.82,42.24,42.24,0,0,0,792.85,145l60.79-25.85A30.79,30.79,0,0,0,842.59,110.55Z"/><path class="cls-1" d="M605.28,94.46a51.16,51.16,0,0,0-18.08-12A64.21,64.21,0,0,0,563,78.11a62.12,62.12,0,0,0-24,4.43,53.56,53.56,0,0,0-30.1,30.8,63.11,63.11,0,0,0-4.09,23.07v75.16h33.16V135.65c0-7.43,2.29-13.43,7-18s10.69-6.84,18.06-6.84c5.53,0,9.87.93,13,2.78a20.59,20.59,0,0,1,7.28,6.85,23.25,23.25,0,0,1,3.15,8.24,38.42,38.42,0,0,1,.65,7v75.92h33.16V136.41a68.15,68.15,0,0,0-3.79-23.58A51.85,51.85,0,0,0,605.28,94.46Z"/><rect class="cls-1" x="460.17" y="81.2" width="33.16" height="130.37"/><path class="cls-1" d="M478.75.36A1.35,1.35,0,0,0,477,.26a1.37,1.37,0,0,0-.44,1.66c.06.12,5.4,12.19-3.7,22a32.3,32.3,0,0,1-3,2.88l0,0a.66.66,0,0,1-.45.17.7.7,0,0,1-.6-.34l0,0A13.84,13.84,0,0,1,467,19a1.3,1.3,0,0,0-.75-1.3,1.14,1.14,0,0,0-1.35.3c-.61.62-15.07,15.37-13.92,30.32v.16c0,10.77,11.41,19.2,25.18,19.2h.65c11.64-.33,21.47-6.74,24-15.6C501.42,50.63,509.57,28.89,478.75.36Z"/><path class="cls-1" d="M432.16,176.46c-4.11-3.71-6.3-10.13-6.3-19.26V110.93h22.87V81.2H425.86V48H392.69V157a73.09,73.09,0,0,0,3.77,24.21,47.59,47.59,0,0,0,11.05,18.12,42.82,42.82,0,0,0,18.24,10.65c7.2,2.2,15,2.79,25.27,1.78V181.28C441.87,181.79,436.26,180.19,432.16,176.46Z"/><polygon class="cls-1" points="940.48 202.42 940.48 202.42 943.91 202.42 943.91 211.57 946.2 211.57 946.2 202.42 949.63 202.42 949.63 200.13 940.48 200.13 940.48 202.42"/><polygon class="cls-1" points="957.78 207.85 954.87 200.13 950.78 200.13 950.78 211.57 954.21 211.57 954.21 204.66 953.8 203.56 954.21 203.56 954.21 204.66 956.79 211.57 958.74 211.57 961.73 203.56 962.21 203.56 962.21 211.57 964.5 211.57 964.5 200.13 960.69 200.13 957.78 207.85"/><path class="cls-1" d="M725.48,93.57h0c-10.29-10.14-22.62-15.21-38-15.21a55.29,55.29,0,0,0-24,5.33,62,62,0,0,0-19.62,14.74,73.69,73.69,0,0,0-13.34,74.92,66.83,66.83,0,0,0,13.69,21.71,63.94,63.94,0,0,0,21,14.61,70.42,70.42,0,0,0,53.75,0,63.74,63.74,0,0,0,21-14.57,67,67,0,0,0,13.8-21.68,72.05,72.05,0,0,0,5-26.62V22.87H725.48Zm-2.85,67.81A37,37,0,0,1,715.44,173a34.69,34.69,0,0,1-10.58,7.87A29.35,29.35,0,0,1,692,183.82,30.33,30.33,0,0,1,679.14,181a33.1,33.1,0,0,1-10.6-7.73,37.25,37.25,0,0,1-7.18-11.66,39.32,39.32,0,0,1-2.65-14.58,41,41,0,0,1,2.65-15,38.65,38.65,0,0,1,7.18-11.92,32.3,32.3,0,0,1,10.6-7.85A30.33,30.33,0,0,1,692,109.54a29.35,29.35,0,0,1,12.86,2.92,33.63,33.63,0,0,1,10.58,8,38.44,38.44,0,0,1,7.19,11.91,40.36,40.36,0,0,1,2.65,14.71A38.56,38.56,0,0,1,722.63,161.38Z"/><path class="cls-1" d="M935.74,80.38a53.43,53.43,0,0,0-21.48,11.41,51.68,51.68,0,0,0-13.58,19.27,66.44,66.44,0,0,0-4.8,25.35v75.16h33.17V136.41c0-9.29,3.37-16.43,9.81-21.42s15.09-6.55,25.64-4.69V78.87Q948.42,76.83,935.74,80.38Z"/><polygon class="cls-1" points="953.8 203.56 954.21 204.66 954.21 203.56 953.8 203.56"/><path class="cls-1" d="M883.66,109.54a63.47,63.47,0,0,0-14.32-17.12,61,61,0,0,0-19-10.64,66.7,66.7,0,0,0-22.11-3.67,62,62,0,0,0-25.87,5.45,69,69,0,0,0-21.11,14.7,67.5,67.5,0,0,0-14.18,21.8A69.63,69.63,0,0,0,762,146.8a68.67,68.67,0,0,0,5.15,26.62,67.94,67.94,0,0,0,14.18,21.68,67.23,67.23,0,0,0,21.11,14.57A63.32,63.32,0,0,0,828.27,215q24.36,0,40.57-12.29a59.16,59.16,0,0,0,22-32.31H855.4a24.17,24.17,0,0,1-11.8,11.52A35,35,0,0,1,828,185.6a33.12,33.12,0,0,1-15.57-3.68,36,36,0,0,1-12.06-10.27l91.43-38.79A68.91,68.91,0,0,0,883.66,109.54ZM792.85,145A42.24,42.24,0,0,1,796,129.82,39.14,39.14,0,0,1,803.53,118,33.15,33.15,0,0,1,828,107.51a34.23,34.23,0,0,1,14.57,3,30.79,30.79,0,0,1,11,8.63Z"/></svg>