<svg xmlns="http://www.w3.org/2000/svg" viewBox="0 0 365.7 144.4"><path d="M265.5 142.6l-7-13.8-1-2 2-1 5.8-3.6c1.6-1 3-2.2 4-3.2s2-2 2.6-3.2c.6-1 1.2-2.3 1.5-3.5l.3-1c0-.6.2-1 .3-1.3.5-2.2.7-4.8.7-7.8V37H298.6v68.2c0 3-.4 5.8-.8 8.6l-.3 1.6c0 .5-.2 1-.4 1.7-.6 3-1.7 5.6-3.2 8.2-1 2-2.4 3.7-4 5.4-1.4 1.6-3.2 3.2-5.3 4.7-.6.5-1.2 1-1.8 1.3l-2 1.2c-3.5 2-7.6 3.8-12.5 5.4l-2 .6-.7-1.6zm64.7-19.8c-2.3 0-4.4 0-6.3-.2-2 0-3.8-.3-5.6-.6l-4.8-1-4.3-1-3.7-1.6c-1.2-.5-2.3-1-3.3-1.6l-1.8-1 .7-2 5.4-13.7.8-2 2 .8c.4 0 .7.2 1 .3l1 .4c1.5.5 3 1 4.5 1.3l3 .7 3.2.4 3.6.3c1.3.2 2.6.2 4 .2 2.2 0 4.2-.2 5.8-.5.4 0 .6 0 .7-.2l3-1c0-.2.3-.4.5-.5.2 0 .3-.3.5-.5.7-.7 1-1.7 1-2.8 0-.7 0-1.3-.4-2l-1.6-1.6-2.8-1.7c-1-.6-2.3-1.2-3.6-1.7l-4.5-1.8c-1.2-.5-2.8-1-4.7-2l-5-2.3-4.5-2.8c-1.6-1-3-2.3-4.3-3.6-1.3-1.3-2.4-2.8-3.4-4.4l-.8-1.5-.7-1.5c-1-2.7-1.5-6-1.6-9.3 0-2.2.3-4 .7-6 .6-2 1.3-3.6 2.2-5.2 1-1.5 2-3 3.2-4.2 1.2-1.3 2.6-2.4 4-3.4 1.6-1 3.2-1.8 4.8-2.5 1.7-.8 3.4-1.4 5.2-1.8 1.8-.5 3.6-.8 5.4-1 1.8-.2 3.7-.3 5.6-.3h6l1 .2c1.3 0 2.7.3 4 .6l1.4.2 1.2.3c2 .4 4 1 5.7 1.6 1.2.3 2.4.8 3.4 1.2 1.2.4 2.3 1 3.3 1.4l2 1-.8 2L356 58l-.8 1.8-2-.6-5.6-1.6-2.8-.7-3-.6-3-.3H335c-1.7 0-3.2.2-4.4.5-1 .2-1.8.6-2.3 1-.2 0-.3.2-.4.3-.2 0-.3.2-.4.4-.4.6-.6 1.2-.6 2v.7c.3.6 1 1.3 2 2 .8.6 1.8 1.2 3 1.8 1 .6 2.3 1.2 3.7 1.8l1.2.5 1.2.6 6.8 3 5 2.5 4.7 3c1.5 1.2 3 2.5 4.3 3.8 1.3 1.4 2.5 3 3.4 4.5 1 1.7 2 3.5 2.4 5.5.5 2 .8 4 .8 6.4v2l-.3 2c-.4 3-1.4 6-3 8.4-1 1.7-2 3.3-3.5 4.7-1.4 1.4-3 2.6-4.7 3.7-1.6 1-3.4 2-5.3 2.7-2 .7-3.8 1.3-6 1.8-2 .5-4 .8-6.2 1-2 .2-4.2.3-6.3.3zM77.7 114c-14.2 3.8-30.2 6.4-45 3.5-5.8-1-11-3.5-16-7-5-3.7-8.8-9-12-16.2-3-7.2-4.7-17-4.7-29 0-12.3 2-22 5.6-29.5 3.4-7.4 7.7-13 13-16.7 5.4-3.6 10.8-6 16.6-7.3C41 10.5 46 10 50.7 10c7 0 22 2 29.2 6.7v23.8c-7.5-3.8-18-5.7-26-6-2.6 0-5 .4-7.4 1-2.4.6-4.6 2-6.6 4-1.8 2.2-3.3 5.4-4.4 9.4-1.4 4-2 9.4-2 16.2 0 6 .5 10.8 1.6 14.5.8 3.8 1.8 7 3.6 9 6.5 7.6 20.8 5 30.5 2.4.8 8 2.8 16.4 8.4 23z"/><path d="M132.3 67.3l-6 .2c-6.4 0-11 1-13.8 3.4-3 2.2-4.3 6.3-4.2 12.4 0 5 1 8.4 2.8 10.3 2 2 4.4 2.7 7.2 2.6 3.5 0 6-1 8.7-2.3v10.3c0 3.4.5 6 1.6 8-4 1.7-6.3 3-10.5 4.2-5 1.5-10 2.5-13.6 2.6-23.8.8-29.8-17-29.8-33.8 0-7.2 1.4-13 4.2-17.7 2.6-4.6 5.8-8 9.7-10.3 4.2-2.5 8.4-4.2 13-5.2 4.4-.7 8.5-1 12.4-1H132v-6.2c0-4-1-6.8-3.2-8-2-1.3-5.6-2-10.3-2-5.8.2-28.2 2.5-33.3 5.8V16c11.6-4.4 31.8-6 38.7-6 12-.2 21.8 2 29.7 6.3 4 2.6 6.8 6.2 9 10.7 2 4.8 3 10.8 3 18l.2 72h-.2v.5h-9.6c-11 0-24 1.2-24-14.3V67.3zM171.6 12h28.6l4.4 10.7c0-.3 3.4-2.5 10-6.4 3-1.8 6.8-3 11-4.4 4-1.3 8.2-2 12.8-2 9-.2 16.2 2 21.7 6.5 5.7 4.7 8.6 13 8.6 24.8v61.5c0 15.5-13 14.3-24 14.3H235V45.4c0-3.5-.5-6-1.8-7-1.2-1.3-3.8-1.8-7.3-1.8-5.2 0-9.7 1-14 3l-7 3.5v74.2H172L171.6 12zM286 0c8.6 0 15.7 7 15.7 15.7 0 8.6-7 15.7-15.7 15.7-8.6 0-15.7-7-15.7-15.7S277.3 0 286 0z"/></svg>