<svg width="821" height="473" xmlns="http://www.w3.org/2000/svg" xmlns:xlink="http://www.w3.org/1999/xlink"><defs><path id="b" d="M0 0h625v465H0z"/><filter x="-7.8%" y="-7.5%" width="115.7%" height="121.1%" filterUnits="objectBoundingBox" id="a"><feOffset dy="14" in="SourceAlpha" result="shadowOffsetOuter1"/><feGaussianBlur stdDeviation="14" in="shadowOffsetOuter1" result="shadowBlurOuter1"/><feColorMatrix values="0 0 0 0 0 0 0 0 0 0 0 0 0 0 0 0 0 0 0.25 0" in="shadowBlurOuter1" result="shadowMatrixOuter1"/><feOffset dy="10" in="SourceAlpha" result="shadowOffsetOuter2"/><feGaussianBlur stdDeviation="5" in="shadowOffsetOuter2" result="shadowBlurOuter2"/><feColorMatrix values="0 0 0 0 0 0 0 0 0 0 0 0 0 0 0 0 0 0 0.26 0" in="shadowBlurOuter2" result="shadowMatrixOuter2"/><feMerge><feMergeNode in="shadowMatrixOuter1"/><feMergeNode in="shadowMatrixOuter2"/></feMerge></filter></defs><g fill="none" fill-rule="evenodd"><g transform="translate(94 8)"><use fill="#000" filter="url(#a)" xlink:href="#b"/><use fill="#FAFAFA" xlink:href="#b"/></g><path d="M94 409.5h625M94 292.5h625" stroke="#BBB" stroke-width="1.5" stroke-dasharray="1.5,1.5"/><g transform="rotate(45 76.264935 897.54834)" stroke="#DDD"><rect fill="#FFF" x=".5" y=".5" width="32.055556" height="33" rx="16.027778"/><path d="M16.5 8v18M7.5 17h18"/></g><g transform="rotate(45 -66.173665 956.54834)" stroke="#DDD"><rect fill="#FFF" x=".5" y=".5" width="32.055556" height="33" rx="16.027778"/><path d="M16.5 8v18M7.5 17h18"/></g><g transform="translate(135 444)"><g transform="rotate(45 259.843146 630.588924)" stroke="#DDD"><rect fill="#FFF" x=".5" y=".5" width="32.055556" height="33" rx="16.027778"/><path d="M16.5 8v18M7.5 17h18"/></g><rect stroke="#7D7D7D" stroke-width="4" fill="#FFF" x="2" y="5" width="36" height="36" rx="8"/><path stroke="#000" stroke-width="4" d="M33.513542 13.904948L15.071094 32.445573l-6.840625-6.860156"/><text font-family="HelveticaNeue-Italic, Helvetica Neue" font-size="30" font-style="italic" letter-spacing="-.7" fill="#D3D3D3"><tspan x="67" y="35">Cancel streaming service</tspan></text><path d="M62.5 26.5h329.298177" stroke="#D3D3D3" stroke-width="3" stroke-linecap="square"/></g><path stroke="#BFBFBF" fill="#FFF" d="M129.5 110.5h400v63h-400z"/><path fill="#6395EC" d="M552 112h124v60H552z"/><text font-family="HelveticaNeue-Bold, Helvetica Neue" font-size="30" font-weight="bold" letter-spacing="-.090909" fill="#FFF" transform="translate(129 110)"><tspan x="456" y="42">Add</tspan></text><text font-family="HelveticaNeue, Helvetica Neue" font-size="30" letter-spacing="-.7" fill="#757575" transform="translate(129 110)"><tspan x="15" y="42">What needs to be done</tspan> <tspan x="313.74" y="42">?</tspan></text><text font-family="HelveticaNeue-Bold, Helvetica Neue" font-size="33" font-weight="bold" letter-spacing="-.1" fill="#000"><tspan x="140" y="80">Today’s to-do</tspan> <tspan x="350.758" y="80">s</tspan></text><text font-family="HelveticaNeue, Helvetica Neue" font-size="30" letter-spacing="-.7" fill="#000"><tspan x="202" y="243">Apply for Bitovi Developer role</tspan></text><text font-family="HelveticaNeue, Helvetica Neue" font-size="30" letter-spacing="-.7" fill="#000"><tspan x="202" y="361">Buy new hoodie</tspan></text><rect stroke="#7D7D7D" stroke-width="4" fill="#FFF" x="137" y="213" width="36" height="36" rx="8"/><rect stroke="#7D7D7D" stroke-width="4" fill="#FFF" x="137" y="331" width="36" height="36" rx="8"/></g></svg>