<svg id="Layer_1" data-name="Layer 1" xmlns="http://www.w3.org/2000/svg" viewBox="0 0 82 82"><defs><style>.cls-1{fill:#4d7fc0;}</style></defs><title>Artboard 2 copy 3CanJS</title><polygon class="cls-1" points="63.57 70.85 63.57 70.85 63.57 70.85 63.57 70.85"/><path class="cls-1" d="M74.11,74.88a15.68,15.68,0,0,1-7.17-8.6,2.19,2.19,0,0,1,.78-2.57C76.16,57.18,81,47.84,81,38.08c0-19-17.94-34.43-40-34.43S1,19.1,1,38.08,18.94,72.53,41,72.53a46.57,46.57,0,0,0,8.44-.77,3.19,3.19,0,0,1,.59-.06,3,3,0,0,1,1.59.46,42.9,42.9,0,0,0,20.77,6.19c1.87,0,2.54-1.1,2.54-2.14A1.52,1.52,0,0,0,74.11,74.88ZM63.26,72.43c-2.35,0-8.8-3.57-12.08-6.35-.11-.09-.45-.38-1.38-.18a41.23,41.23,0,0,1-8.79.94C21.93,66.84,6.41,54,6.41,38.14S21.93,9.45,41,9.45,75.59,22.32,75.59,38.14c0,9.08-5.26,17.72-14.07,23.11a1.53,1.53,0,0,0-.81,1.18c0,1.39,1.44,5.35,3.43,8h0a1.49,1.49,0,0,1,.34.9A1.15,1.15,0,0,1,63.26,72.43Z"/></svg>