<svg id="Layer_1" data-name="Layer 1" xmlns="http://www.w3.org/2000/svg" viewBox="0 0 82 82"><defs><style>.cls-1{fill:#4d7fc0;}</style></defs><title>Artboard 2 copyCanJS</title><path class="cls-1" d="M73.56,14.73H8.44A7.45,7.45,0,0,0,1,22.17V59.83a7.45,7.45,0,0,0,7.44,7.44H73.56A7.45,7.45,0,0,0,81,59.83V22.17A7.45,7.45,0,0,0,73.56,14.73Zm-67.48,20H75.93V59.83a2.37,2.37,0,0,1-2.37,2.37H8.44a2.37,2.37,0,0,1-2.37-2.37Zm0-12.6A2.37,2.37,0,0,1,8.44,19.8H73.56a2.37,2.37,0,0,1,2.37,2.37V29.7H6.07Z"/></svg>