<svg id="Layer_1" data-name="Layer 1" xmlns="http://www.w3.org/2000/svg" viewBox="0 0 82 82"><defs><style>.cls-1{fill:#4d7fc0;}</style></defs><title>chart-opt8</title><polygon id="arrow01" class="cls-1" points="42.07 25.77 43 25.77 41 22.31 39 25.77 39.93 25.77 39.93 28.23 39 28.23 41 31.69 43 28.23 42.07 28.23 42.07 25.77"/><polygon id="arrow01-2" data-name="arrow01" class="cls-1" points="60.89 57.38 61.55 56.72 57.68 55.68 58.72 59.55 59.38 58.89 61.11 60.62 60.45 61.28 64.32 62.32 63.28 58.45 62.62 59.11 60.89 57.38"/><polygon id="arrow01-3" data-name="arrow01" class="cls-1" points="21.11 57.38 20.45 56.72 24.32 55.68 23.28 59.55 22.62 58.89 20.89 60.62 21.55 61.28 17.68 62.32 18.72 58.45 19.38 59.11 21.11 57.38"/><path class="cls-1" d="M41,32.5c-11,0-20,6.27-20,14s9,14,20,14,20-6.25,20-14S52.05,32.51,41,32.5Zm0,23c-7.73,0-15-4-15-9s7.27-9,15-9,15,4,15,9v0C56,51.48,48.72,55.5,41,55.5Z"/><path class="cls-1" d="M41,1.5a10,10,0,1,0,10,10A10,10,0,0,0,41,1.5Zm0,15a5,5,0,1,1,5-5h0A5,5,0,0,1,41,16.5Z"/><path class="cls-1" d="M71,60.5a10,10,0,1,0,10,10A10,10,0,0,0,71,60.5Zm0,15a5,5,0,1,1,5-5h0A5,5,0,0,1,71,75.5Z"/><path class="cls-1" d="M11,60.5a10,10,0,1,0,10,10A10,10,0,0,0,11,60.5Zm0,15a5,5,0,1,1,5-5h0A5,5,0,0,1,11,75.5Z"/></svg>