<svg height="58" viewBox="0 0 191 58" width="191" xmlns="http://www.w3.org/2000/svg"><path d="m12.8416411 40.5005603h6.6324959c1.4111693 0 2.5048256.2822338 3.2104103.7761431.6792542.4726736 1.0766127 1.2541453 1.058377 2.0814748v.1058377c.0092366.8424363-.4177848 1.6297571-1.1289355 2.0814748-.7055847.5291885-1.7639617.7761431-3.2104103.7761431h-6.5619374zm99.0993669-12.7710826c1.182112-.0156847 2.352312.2376576 3.422086.7408639.986457.4723689 1.863584 1.1452333 2.575384 1.9756371.721183.851498 1.272111 1.8335862 1.622845 2.8928971.418265 1.0556668.633705 2.1807408.635026 3.316248v.1058377c.004238 1.1296752-.186726 2.2515905-.564468 3.316248-.361122 1.0333332-.911444 1.990415-1.622844 2.8223387-.726447.7964156-1.601236 1.4435193-2.575384 1.9050786-1.046297.4986211-2.192547.7520029-3.351528.7408639-2.30974.0486496-4.521095-.9341749-6.032749-2.6812218-.709135-.8396763-1.269881-1.7941377-1.658124-2.8223387-.3737-1.0778908-.564488-2.2106938-.564467-3.3515272v-.1058377c-.004238-1.1296752.186726-2.2515904.564467-3.3162479.353251-1.0157383.904889-1.9511243 1.622845-2.7517803.7118-.8304037 1.588927-1.5032682 2.575384-1.975637 1.046297-.4986212 2.192547-.752003 3.351527-.740864zm.105838-11.6421471c-2.913821-.0298678-5.804324.5218466-8.502295 1.6228447-2.557811 1.0091888-4.8944941 2.5070624-6.8794507 4.4099042-1.9266753 1.8591774-3.4725035 4.0760628-4.5510211 6.5266583-1.0961167 2.5262606-1.6490166 5.2547013-1.6228448 8.008386v.1058377c-.0345691 5.4717093 2.1857136 10.71617 6.1385867 14.499765 1.9786465 1.8590691 4.2881289 3.3309153 6.8088919 4.3393458 5.470673 2.1162255 11.533918 2.1162255 17.004591 0 2.524301-1.017507 4.834241-2.5016132 6.808892-4.374625 1.933692-1.8531834 3.480554-4.0715504 4.551021-6.5266582 1.131391-2.5298568 1.708766-5.2723867 1.693403-8.0436653v-.1058377c.020407-5.4831122-2.226755-10.730746-6.209145-14.499765-1.948608-1.8977244-4.249708-3.3958365-6.773613-4.4099043-2.692554-1.0736966-5.56839-1.6129159-8.467016-1.5875655zm-99.2052049 10.7954455h5.6799566c2.8223387 0 4.233508.8937406 4.233508 2.6812217v.1058377c0 1.799241-1.4111693 2.716501-4.1629495 2.716501h-5.7505151zm163.1311769-9.9487439v39.3716248h13.159154v-39.3716248zm-46.639147 0 15.981493 39.6538586h12.594686l15.981493-39.6538586h-14.499765l-7.655594 22.0848003-7.655594-22.0848003zm-74.4391834 0v11.1129586h11.6068679v28.2233869h13.1591542v-28.2233869h11.5715886v-11.1129586zm-15.6639797 0v39.3716248h13.1591541v-39.3716248zm-39.2305079 0v39.3716248h21.8378457c2.2006143.0370966 4.3961168-.2239902 6.5266582-.7761432 1.7289584-.4743427 3.3555255-1.2637062 4.7979758-2.3284294 1.2089095-.8995589 2.1880691-2.0721327 2.8576179-3.4220857.6388353-1.369244.9642476-2.8637303.9525393-4.3746249v-.1058377c0-2.7047413-.7526236-4.7862161-2.257871-6.2444244-1.5052473-1.4582083-3.5279233-2.5636243-6.0680281-3.316248 1.9578536-.6378409 3.7192171-1.767543 5.1154888-3.2809687 1.2700525-1.4582083 1.9050787-3.3750467 1.9050787-5.7505151v-.1058377c.0299241-1.2216803-.198495-2.435908-.6703055-3.5632026-.4240085-.9599675-1.0220735-1.8331423-1.7639617-2.5753841-1.2537704-1.2183163-2.7764899-2.1246969-4.4451834-2.6459425-1.7639617-.5879872-4.0100729-.8819808-6.7383336-.8819808zm45.7924453-14.99367435c3.0590167 0 5.5388397 2.479823 5.5388397 5.53883969 0 3.05901666-2.479823 5.53883966-5.5388397 5.53883966s-5.5388397-2.479823-5.5388397-5.53883966c-.0094657-1.47187303.5710488-2.88620503 1.6118418-3.92699796 1.0407929-1.04079292 2.4551249-1.62130744 3.9269979-1.61184173zm136.7423097-1.94035785c-4.130647 0-7.479197 3.3485508-7.479197 7.47919754 0 4.13064676 3.34855 7.47919756 7.479197 7.47919756s7.479198-3.3485508 7.479198-7.47919756c0-4.13064674-3.348551-7.47919754-7.479198-7.47919754zm-136.7423097 0c-4.1306467 0-7.4791975 3.3485508-7.4791975 7.47919754 0 4.13064676 3.3485508 7.47919756 7.4791975 7.47919756 4.1306468 0 7.4791976-3.3485508 7.4791976-7.47919756 0-4.13064674-3.3485508-7.47919754-7.4791976-7.47919754z" fill="#ca3137" transform="translate(.469546 .763962)"/></svg>