<svg height="57" viewBox="0 0 298 57" width="298" xmlns="http://www.w3.org/2000/svg"><g fill="none"><g fill="#117aca" transform="translate(241.789899 .967833)"><path d="m20.13893.307005c-1.0725 0-1.94124.868758-1.94124 1.940002v13.606263h35.94124l-16.3675-15.545007z"/><path d="m55.45393 19.969518c0-1.073761-.8625-1.938762-1.94124-1.938762h-13.60251v35.942494l15.53749-16.374985z"/><path d="m35.78894 55.2745c1.07 0 1.93874-.87 1.93874-1.94374v-13.601243h-35.9425l16.36999 15.542483z"/><path d="m.47144 35.614507c0 1.072503.86874 1.946259 1.94374 1.946259h13.6v-35.944996l-15.54124 16.369991z"/></g><g fill="#211e1e" transform="translate(.789899 6.967833)"><path d="m76.73019.868265v16.59874h-23.125v-16.59874l-8.42251-.007495v41.85249h8.42251v-17.98h23.125v17.98h8.43624v-41.844995z"/><path d="m188.77643.868265v41.835005h36.95126l-4.68001-7.365h-23.82499v-10.60501h23.06999v-7.093755h-23.06999v-9.578743h23.785l4.58499-7.192497z"/><path d="m13.87517.858251c-8.76123 0-13.18624 5.326252-13.18624 13.076267v15.622502c0 8.96873 5.70249 13.15624 13.14251 13.15624l26.425-.0025-4.89876-7.64999h-19.89374c-4.22627 0-6.06751-1.5275-6.06751-6.257515v-14.173737c0-4.572506 1.55001-6.356258 6.18-6.356258h19.98875l4.70375-7.415009z"/><path d="m151.81644.848257c-5.06001 0-10.24626 3.041248-10.24626 10.863761v2.009984c0 8.155003 4.99001 11.26625 9.98251 11.287518h17.52375c1.81999 0 3.29874.302486 3.29874 3.378735l-.0025 3.553752c-.04625 2.763748-1.425 3.396263-3.35875 3.396263h-23.05376l-4.7225 7.365h28.31877c6.82875 0 11.465-3.39751 11.465-11.245005v-2.883758c0-7.58749-4.3075-11.172505-10.98625-11.172505h-16.73251c-1.85501 0-3.1475-.506249-3.1475-3.253746v-2.893753c0-2.339992.88625-3.193741 3.0475-3.193741l21.955-.008755 4.58875-7.213745z"/><path d="m109.63644.868265-19.84375 41.842495h9.37873l3.86502-8.641258h21.56374l3.8525 8.641258h9.42001l-19.89-41.842495zm4.16124 8.687496 7.62501 17.391244h-15.20127z"/></g></g></svg>