<svg height="154" viewBox="0 0 1000 154" width="1000" xmlns="http://www.w3.org/2000/svg"><g fill="none"><path d="m185.7 137.6-89.3-43v-94.6zm7.1 16.4-96.4-40.7v40.7z" fill="#98002e"/><path d="m7.1 137.6 89.3-137.6v94.6z" fill="#e31837"/><path d="m0 154h96.4v-40.7z" fill="#e31837"/><path d="m200.6 125.8c3.5 0 6.4 2.8 6.4 6.3s-2.8 6.4-6.3 6.4-6.4-2.8-6.4-6.3c0-3.6 2.8-6.4 6.3-6.4zm0 11.7c3 0 5.4-2.4 5.4-5.4s-2.4-5.4-5.4-5.4-5.4 2.4-5.4 5.4 2.4 5.4 5.4 5.4zm-1.4-1.7h-.9v-7.3h2.8c1.7 0 2.3.7 2.3 2 .1 1.1-.8 2-1.8 2.1l2.2 3.2h-1l-2.2-3.2h-1.3zm0-4.1h1.2c1 0 2.1-.1 2.1-1.3 0-.9-.9-1.2-1.6-1.2h-1.6v2.5z" fill="#98002e"/><g fill="#003d79" transform="translate(268 14)"><path d="m.1 123.6h43.3c44.6 0 71.1-23.1 71.1-61.4s-26.5-61.3-71.1-61.3h-43.3zm27.4-101.4h15.9c28.9 0 43.4 14.3 43.4 40s-14.5 40-43.4 40h-15.9z"/><path d="m207.7 70.4h52.1v-21.3h-52.1v-26.9h58.9v-21.3h-86.4v122.7h88.3v-21.3h-60.8z"/><path d="m424.7 102.3h-52.9v-101.4h-27.5v122.7h80.4z"/><path d="m572.7.9h-110.1v21.3h41.2v101.4h27.6v-101.4h41.3z"/><path d="m732 123.6h-28.7l-12-30.7h-49.9l-12 30.7h-26.8l51.3-123.2h27.7zm-48.5-51.3-17.1-43.6-17.2 43.6z"/></g></g></svg>