<svg height="320" viewBox="0 0 1150 320" width="1150" xmlns="http://www.w3.org/2000/svg"><g fill="none"><path d="m1142.914 277.938c0-17.718-12.564-30.689-29.871-30.689-17.277 0-29.855 12.973-29.855 30.689 0 17.688 12.578 30.64 29.855 30.64 17.307-.002 29.871-12.974 29.871-30.64zm-37.721 1.573v20.046h-6.475v-44.201h16.092c9.43 0 13.756 4.117 13.756 12.146 0 4.945-3.342 8.861-7.646 9.43v.188c3.738.597 5.111 3.932 5.879 10.034.59 3.953 1.373 10.81 2.783 12.419h-7.662c-1.783-4.154-1.604-10.033-2.977-14.956-1.137-3.745-3.135-5.11-7.424-5.11h-6.289v.021zm8.03-5.714c6.289 0 8.086-3.349 8.086-6.303 0-3.493-1.797-6.254-8.086-6.254h-8.027v12.57h8.027zm-37.159 4.141c0-21.827 17.328-36.584 36.949-36.584 19.68 0 36.986 14.757 36.986 36.584 0 21.784-17.301 36.556-36.986 36.556-19.62-.002-36.949-14.772-36.949-36.556z" fill="#ff5a00"/><path d="m948.008 308.116-42.6-47.774-42.227 47.774h-88.85l86.838-97.562-86.838-97.589h91.625l43.029 47.408 41.406-47.408h88.418l-86.404 97.181 87.604 97.97zm-344.287 0v-307.423h170.613v68.522h-98.344v43.75h98.344v65.937h-98.344v60.518h98.344v68.696z" fill="#ff5a00"/><path d="m531.718.693v125.813h-.797c-15.935-18.313-35.851-24.695-58.944-24.695-47.32 0-82.97 32.191-95.482 74.719-14.274-46.868-51.08-75.596-105.646-75.596-44.324 0-79.312 19.887-97.589 52.302v-40.277h-91.603v-43.734h99.975v-68.518h-181.632v307.409h81.655v-129.214h81.389c-2.507 9.937-3.76 20.147-3.729 30.396 0 64.097 48.98 109.14 111.519 109.14 52.567 0 87.239-24.702 105.56-69.674h-69.982c-9.458 13.533-16.646 17.529-35.57 17.529-21.936 0-40.867-19.146-40.867-41.815h142.496c6.182 50.923 45.855 94.829 100.307 94.829 23.487 0 44.992-11.55 58.139-31.063h.791v19.916h71.996v-307.452h-71.984v-.015zm-299.473 179.129c4.55-19.535 19.693-32.3 38.596-32.3 20.814 0 35.189 12.37 38.962 32.3zm255.782 81.512c-26.528 0-43.018-24.717-43.018-50.534 0-27.599 14.347-54.112 43.018-54.112 29.748 0 41.6 26.527 41.6 54.112-.001 26.147-12.549 50.534-41.6 50.534z" fill="#29007c"/></g></svg>