<svg id="Layer_1" xmlns="http://www.w3.org/2000/svg" width="496.4" height="125.6" viewBox="0 0 496.4 125.6"><style>.st0{fill:#e01e5a}.st1{fill:#36c5f0}.st2{fill:#2eb67d}.st3{fill:#ecb22e}</style><path d="M158.8 98.9l6.2-14.4c6.7 5 15.6 7.6 24.4 7.6 6.5 0 10.6-2.5 10.6-6.3-.1-10.6-38.9-2.3-39.2-28.9-.1-13.5 11.9-23.9 28.9-23.9 10.1 0 20.2 2.5 27.4 8.2l-5.8 14.7c-6.6-4.2-14.8-7.2-22.6-7.2-5.3 0-8.8 2.5-8.8 5.7.1 10.4 39.2 4.7 39.6 30.1 0 13.8-11.7 23.5-28.5 23.5-12.3 0-23.6-2.9-32.2-9.1M396.7 79.3c-3.1 5.4-8.9 9.1-15.6 9.1-9.9 0-17.9-8-17.9-17.9s8-17.9 17.9-17.9c6.7 0 12.5 3.7 15.6 9.1l17.1-9.5C407.4 40.8 395.1 33 381.1 33c-20.7 0-37.5 16.8-37.5 37.5s16.8 37.5 37.5 37.5c14.1 0 26.3-7.7 32.7-19.2l-17.1-9.5zM228.1 1.9h21.4v104.7h-21.4zM422.2 1.9v104.7h21.4V75.2l25.4 31.4h27.4l-32.3-37.3L494 34.5h-26.2l-24.2 28.9V1.9zM313.1 79.5c-3.1 5.1-9.5 8.9-16.7 8.9-9.9 0-17.9-8-17.9-17.9s8-17.9 17.9-17.9c7.2 0 13.6 4 16.7 9.2v17.7zm0-45V43c-3.5-5.9-12.2-10-21.3-10-18.8 0-33.6 16.6-33.6 37.4S273 108 291.8 108c9.1 0 17.8-4.1 21.3-10v8.5h21.4v-72h-21.4z"/><g><path class="st0" d="M26.5 79.4c0 7.3-5.9 13.2-13.2 13.2S.1 86.7.1 79.4 6 66.2 13.3 66.2h13.2v13.2zM33.1 79.4c0-7.3 5.9-13.2 13.2-13.2s13.2 5.9 13.2 13.2v33c0 7.3-5.9 13.2-13.2 13.2s-13.2-5.9-13.2-13.2v-33z"/><path class="st1" d="M46.3 26.4c-7.3 0-13.2-5.9-13.2-13.2C33.1 5.9 39 0 46.3 0s13.2 5.9 13.2 13.2v13.2H46.3zM46.3 33.1c7.3 0 13.2 5.9 13.2 13.2 0 7.3-5.9 13.2-13.2 13.2H13.2C5.9 59.5 0 53.6 0 46.3 0 39 5.9 33.1 13.2 33.1h33.1z"/><g><path class="st2" d="M99.2 46.3c0-7.3 5.9-13.2 13.2-13.2s13.2 5.9 13.2 13.2c0 7.3-5.9 13.2-13.2 13.2H99.2V46.3zM92.6 46.3c0 7.3-5.9 13.2-13.2 13.2s-13.2-5.9-13.2-13.2V13.2C66.2 5.9 72.1 0 79.4 0s13.2 5.9 13.2 13.2v33.1z"/></g><g><path class="st3" d="M79.4 99.2c7.3 0 13.2 5.9 13.2 13.2s-5.9 13.2-13.2 13.2-13.2-5.9-13.2-13.2V99.2h13.2zM79.4 92.6c-7.3 0-13.2-5.9-13.2-13.2s5.9-13.2 13.2-13.2h33.1c7.3 0 13.2 5.9 13.2 13.2s-5.9 13.2-13.2 13.2H79.4z"/></g></g></svg>
