<?xml version="1.0" encoding="utf-8"?>
<!-- Generator: Adobe Illustrator 23.0.2, SVG Export Plug-In . SVG Version: 6.00 Build 0)  -->
<svg version="1.1" id="Layer_1" xmlns="http://www.w3.org/2000/svg" xmlns:xlink="http://www.w3.org/1999/xlink" x="0px" y="0px"
	 viewBox="0 0 496.4 125.6" style="enable-background:new 0 0 496.4 125.6;" xml:space="preserve">
<style type="text/css">
	.st0{fill:#E01E5A;}
	.st1{fill:#36C5F0;}
	.st2{fill:#2EB67D;}
	.st3{fill:#ECB22E;}
</style>
<g>
	<g>
		<path d="M158.8,98.9l6.2-14.4c6.7,5,15.6,7.6,24.4,7.6c6.5,0,10.6-2.5,10.6-6.3c-0.1-10.6-38.9-2.3-39.2-28.9
			C160.7,43.4,172.7,33,189.7,33c10.1,0,20.2,2.5,27.4,8.2l-5.8,14.7c-6.6-4.2-14.8-7.2-22.6-7.2c-5.3,0-8.8,2.5-8.8,5.7
			c0.1,10.4,39.2,4.7,39.6,30.1c0,13.8-11.7,23.5-28.5,23.5C178.7,108,167.4,105.1,158.8,98.9"/>
		<path d="M396.7,79.3c-3.1,5.4-8.9,9.1-15.6,9.1c-9.9,0-17.9-8-17.9-17.9s8-17.9,17.9-17.9c6.7,0,12.5,3.7,15.6,9.1l17.1-9.5
			C407.4,40.8,395.1,33,381.1,33c-20.7,0-37.5,16.8-37.5,37.5s16.8,37.5,37.5,37.5c14.1,0,26.3-7.7,32.7-19.2L396.7,79.3z"/>
		<rect x="228.1" y="1.9" width="21.4" height="104.7"/>
		<polygon points="422.2,1.9 422.2,106.6 443.6,106.6 443.6,75.2 469,106.6 496.4,106.6 464.1,69.3 494,34.5 467.8,34.5 443.6,63.4 
			443.6,1.9 		"/>
		<path d="M313.1,79.5c-3.1,5.1-9.5,8.9-16.7,8.9c-9.9,0-17.9-8-17.9-17.9s8-17.9,17.9-17.9c7.2,0,13.6,4,16.7,9.2V79.5z
			 M313.1,34.5V43c-3.5-5.9-12.2-10-21.3-10c-18.8,0-33.6,16.6-33.6,37.4S273,108,291.8,108c9.1,0,17.8-4.1,21.3-10v8.5h21.4v-72
			C334.5,34.5,313.1,34.5,313.1,34.5z"/>
	</g>
	<g>
		<g>
			<path class="st0" d="M26.5,79.4c0,7.3-5.9,13.2-13.2,13.2S0.1,86.7,0.1,79.4S6,66.2,13.3,66.2h13.2V79.4z"/>
			<path class="st0" d="M33.1,79.4c0-7.3,5.9-13.2,13.2-13.2s13.2,5.9,13.2,13.2v33c0,7.3-5.9,13.2-13.2,13.2s-13.2-5.9-13.2-13.2
				V79.4z"/>
		</g>
		<g>
			<path class="st1" d="M46.3,26.4c-7.3,0-13.2-5.9-13.2-13.2C33.1,5.9,39,0,46.3,0s13.2,5.9,13.2,13.2v13.2H46.3z"/>
			<path class="st1" d="M46.3,33.1c7.3,0,13.2,5.9,13.2,13.2c0,7.3-5.9,13.2-13.2,13.2H13.2C5.9,59.5,0,53.6,0,46.3
				C0,39,5.9,33.1,13.2,33.1H46.3z"/>
		</g>
		<g>
			<path class="st2" d="M99.2,46.3c0-7.3,5.9-13.2,13.2-13.2s13.2,5.9,13.2,13.2c0,7.3-5.9,13.2-13.2,13.2H99.2V46.3z"/>
			<path class="st2" d="M92.6,46.3c0,7.3-5.9,13.2-13.2,13.2s-13.2-5.9-13.2-13.2V13.2C66.2,5.9,72.1,0,79.4,0s13.2,5.9,13.2,13.2
				V46.3z"/>
		</g>
		<g>
			<path class="st3" d="M79.4,99.2c7.3,0,13.2,5.9,13.2,13.2s-5.9,13.2-13.2,13.2s-13.2-5.9-13.2-13.2V99.2H79.4z"/>
			<path class="st3" d="M79.4,92.6c-7.3,0-13.2-5.9-13.2-13.2s5.9-13.2,13.2-13.2h33.1c7.3,0,13.2,5.9,13.2,13.2
				s-5.9,13.2-13.2,13.2H79.4z"/>
		</g>
	</g>
</g>
</svg>
