<svg height="31" viewBox="0 0 154 31" width="154" xmlns="http://www.w3.org/2000/svg"><g fill="none"><path d="m14.2 1.5c.7-.4 1.5-.3 2.2-.6l.1.1c.1.1.2.2.2.3-.2.2-.3.3-.4.4.1.1.4.2.5.3-.3.1-.6.2-.9.3-.3.3-.4.6-.6.9-.2-.2-.3-.2-.5-.3.4-.3.9-.7.9-1.3-.2.2-.4.4-.6.6-.1-.2-.2-.3-.4-.5 0 .1-.1.3-.2.4 0-.3-.2-.5-.3-.6" fill="#454545"/><path d="m16.5 1h1.1c-.2.4.1.6.4.8-.1-.3-.3-.6-.4-.9.8.2 1.8.3 2.4.9.4.4 1.1.8 1.5 1.3.1.4.2.6.2 1-.4.4-.7-.3-.9-.5h.4c-.2-.2-.4-.3-.6-.4-.4 0-.7 0-1.1 0 .2.1.4.2.6.3-.1.1-.3.2-.4.3-.1-.1-.3-.2-.4-.3s-.2-.2-.2-.2c.4-.5-.5-.6-.9-.6.1.3.2.5.3.8-.3-.2-.5-.3-.7-.4-.1-.2-.2-.4-.3-.5.1-.1.2-.3.3-.4-.2 0-.4-.1-.5-.1-.2 0-.4-.2-.6-.2.2-.1.4-.4.4-.4-.2 0-.4-.1-.5-.1 0-.2-.1-.4-.1-.4" fill="#000"/><path d="m15.9 1.3c.3-.1.4 0 .3.3-.4 0-.5-.1-.3-.3" fill="#a2a2a2"/><path d="m16.2 1.6c.2-.1.3-.3.4-.4.2 0 .4.1.5.1-.1.2-.3.4-.4.5.3 0 .6.2.8.2-.3 0-.5-.1-.7-.1-.2-.1-.5-.2-.6-.3" fill="#d5d5d5"/><path d="m18.2 1.4c.1.1.1.1 0 0" fill="#afafaf"/><path d="m12.8 2.2c.4-.3 1-.5 1.3-.8.2.2.3.4.4.5 0-.1.1-.3.2-.4.1.2.2.3.4.4.2-.2.4-.4.6-.6 0 .6-.4 1-.9 1.3-.4.4-1 .4-1.5.4-.1 0-.3-.1-.4-.3v.9c-.2.1-.4.2-.5.3-.9.7-1.6 1.7-1.6 2.8l.2.2c0 .1.1.2.2.3-.1.1-.3.2-.4.2 0-.4 0-.7-.1-1.1-.1 0-.2 0-.3 0 .1-.5.1-1.1.5-1.5s.9-.8 1.1-1.3.4-.9.8-1.3" fill="#000"/><path d="m18.5 1.6c.3-.1.4 0 .3.3-.2 0-.4-.1-.3-.3" fill="#848484"/><path d="m18.9 1.5c.7 0 1.1.6 1.6 1.1-.7-.1-1.5-.4-1.6-1.1" fill="#868686"/><path d="m31.7 2c1-.3 1.9 0 2.8.2.5 0 1.1.2 1.5.7l-.1-.1c.1.2.1.6.2.9v.2c-.1 0-.2 0-.3 0 0-.1 0-.3 0-.4-.1 0-.4 0-.4 0 .3-.4-.4-.6-.4-.1 0-.2 0-.4-.1-.5-.1 0-.2.1-.3.1-.1-.2-.2-.4-.3-.6-.2.3-.4.5-.5.8-.1.1-.2.2-.2.3-.1-.3-.2-.5-.3-.8-.3-.1-.5-.2-.8-.2-.3.2-.3.5-.4.7.2 0 .5.1.6.1-.2.2-.4.4-.5.5-.1-.1-.3-.3-.4-.4 0-.1.1-.2.1-.3-.1-.2-.2-.3-.2-.4-.3.1-.6.1-.9.2 0-.6.5-.7.9-.9" fill="#e4e4e4"/><path d="m15.8 2.2c.2-.1.6-.2.9-.3.2.1.5.1.7.1s.4.1.5.1c-.1.1-.2.3-.3.4.1.2.2.4.3.5-.2.2-.3.4-.4.5-.3-.3-.5-.4-.8-.6-.1.1-.2.3-.3.4 0-.1-.2-.3-.2-.4-.1 0-.3-.1-.4-.1 0 .1-.1.4-.2.4-.1-.2-.3-.2-.4-.2.1-.2.3-.6.6-.8" fill="#000"/><path d="m32 3c.1-.3.1-.6.4-.7.3.1.5.2.8.2.1.3.2.5.3.8.1.5.7-.1.2-.3.2-.3.4-.5.5-.8.1.2.2.4.3.6.1 0 .2 0 .3-.1.1.2.2.4.2.5v.2h.3.4v.4h.3c0 .3-.1.5-.1.8 0 0 .1.2.1.2.1.4-.2.6-.5.7 0-.3-.1-.6-.1-.9v.8c-.4.1-.6.2-1 .4 0 .1-.1.2-.1.3-.2.4-.4.7-.6 1 0-.3.1-.4.1-.7-.1-.1-.3-.3-.4-.4.3-.2.5-.4.8-.6 0 0-.1 0-.2-.1.1-.2.2-.4.3-.5.2-.1.3-.2.4-.4 0-.1-.1-.2-.1-.2-.3-.4-.6.1-.5.4-.1-.1-.3-.3-.4-.4v.1c-.2-.1-.5-.2-.7-.3 0-.1 0-.3 0-.4-.3-.1-.5 0-.7.1-.1 0-.2 0-.2 0 0-.1 0-.3.1-.3-.1 0-.2-.1-.2-.2.2-.2.4-.4.5-.5 0 .3-.4.3-.5.3" fill="#c5c5c5"/><path d="m18.3 2.6c.4 0 1.3.2.8.6-.1 0-.3-.1-.4-.1 0-.1-.2-.3-.4-.5" fill="#000"/><path d="m20.5 2.6c.3-.1.4 0 .3.3-.2.1-.3 0-.3-.3" fill="#909090"/><path d="m30.8 2.8c.3-.1.6-.1.9-.2.1.2.1.3.2.4 0 .1-.1.2-.1.3.1.1.3.3.4.4s.2.2.2.2c0 .1 0 .3-.1.3h.2c.1.1.4.2.4.3-.1.2-.1.4-.2.5.1 0 .4 0 .4-.1 0 .1-.1.3-.2.4h.5c-.1.1-.2.3-.3.4 0 .1-.1.2-.1.3-.7-.5-1.6-.8-2.4-.9.1-.2.3-.4.4-.5 0 .1-.2.2-.4.4-.4 0-.8 0-1.1.1-.1-.1-.2-.4-.2-.4.4 0 .6-.2.9-.4-.1-.1-.3-.4-.4-.5.3-.5.6-.8 1-1" fill="#fcfcfc"/><path d="m12.8 2.7c.2.2.2.3.4.5.5 0 1.1-.1 1.5-.4.1.1.3.2.5.2s.4.1.5.2c0-.1.1-.4.2-.4s.3.1.4.1c0 .1.2.3.2.4 0-.1.1-.3.2-.3.3.1.5.3.8.5.1-.2.3-.4.4-.5.3.2.5.3.7.4-.1-.3-.2-.5-.3-.8.2.2.3.4.4.5.1 0 .3.1.4.1.1.1.2.2.2.2l-.4-.1c.1.2.3.4.4.5-.2 0-.5-.1-.7-.2v.9c.4 0 .7.1 1 .3-.1 0-.4 0-.5 0-.4-.4-1 .2-1.5.4-.3-.1-.5-.2-.8-.4.1.1.2.3.2.4-.2.1-.4.2-.5.3-.2-.1-.4-.2-.5-.4.1.2.1.4.2.5-.1 0-.3.1-.4.1 0-.1-.1-.4-.1-.4-.3.2-.4.4-.7.4.1-.5.1-1 .2-1.4-.2.5-.5 1-.9 1.4 0-.4 0-.8 0-1.1.2-.4.4-.6.7-.8 0-.3 0-.6 0-1-.6.4-1.3.5-2 .6-.2-.1-.2-.4-.2-.7" fill="#c8c8c8"/><path d="m29.5 3.3c.4-.1.8-.5 1.3-.5-.4.3-.7.6-1.1.9-.3.3-.4.5-.7.8-.4.3.1.6.4.4.4 0 .8 0 1.1-.1.2-.1.4-.3.5-.4-.1.2-.3.4-.4.5-.7-.1-1.4 0-2.1 0 .3-.4.6-1 1-1.6z" fill="#b7b7b7"/><path d="m35.9 2.8c.9.5 1.1 1.5 1.6 2.2-.1.5-.2 1.1-.2 1.6h.4c.2.4.5.9.8 1.2.1.5.4 1.1-.1 1.7-.1-.4-.1-.8-.2-1.2-.1.2-.2.5-.2.7-.1-.2-.3-.4-.4-.5 0 .5-.2 1-.4 1.5-.1 0-.4.1-.4.1.3.4.4.9.4 1.3.1.1.2.2.4.3.1.4 0 1 .4 1.3.3.3.6 0 .9 0h.5c-.4.2-.7.4-1.1.5 0 .2.1.4.1.4-.2.1-.4.3-.6.4-.2 0-.4-.1-.5-.1-.1.7-.2 1.4-.5 2-.2-1 .1-2-.4-3 0 .4-.1.7-.1 1.1-.2-.5-.3-1.1-.6-1.6-.3-.4-.8-.9-.4-1.4h-.3c0-.1.1-.4.1-.4s0-.3-.1-.3c.1 0 .2-.1.3-.1-.3-.2-.5-.4-.7-.5.1 0 .3 0 .4-.1.6 0 1.1.2 1.7.4-.4-.3-.9-.4-1.3-.4-.4-.3-.9-.3-1.3-.3.1 0 .3-.1.4-.1-.1-.3-.3-.4-.4-.7.5.1 1 .3 1.5.4-.1-.1-.2-.3-.2-.3l.1-.1c.2-.1.4-.3.6-.4.2 0 .4.2.5.4-.2-.4-.4-.7-.5-1.1 0 0-.1 0-.1-.1-.1-.3-.4-.7-.7-.6-.1.4.4.5.7.6 0 0 .1 0 .1.1-.2.3-.5.1-.8 0-.3 0-.4-.1-.6-.2.1-.1.2-.2.3-.2 0-.2 0-.3-.1-.4.1-.1.2-.2.2-.2-.2-.2-.4-.4-.6-.6 0-.1.1-.2.1-.3.4-.1.6-.2 1-.4v.1c.1 0 .3 0 .4.1v.4c.2.2.4.4.6.6-.3-.5-.5-1.1-.4-1.7.3.1.6.2.9.2-.2-.4-.6-.8-1.1-1.1 0-.2-.1-.4-.1-.5.1-.1 0-.5 0-.7" fill="#cacaca"/><path d="m12.8 3.6c.7 0 1.4-.3 2-.6v1c-.3.2-.5.4-.7.7 0 .4.1.8 0 1.1.4-.4.7-.9.9-1.4-.1.4-.2 1-.2 1.4.3-.2.4-.3.7-.4 0 .1.1.4.1.4.1 0 .3-.1.4-.1-.1-.2-.1-.4-.2-.5.2.1.4.2.5.4.2-.1.4-.2.5-.3 0-.1-.2-.3-.2-.4.3.3.5.4.8.4.5.1 1 .1 1.5.1-.2.2-.4.4-.5.6-.1 0-.2 0-.3 0 0-.1.1-.4.1-.4-.4.1-.9.1-1.2.4-.5.4-1.2.5-1.6 1.1.1.1.2.3.3.4-.3.6-.6 1.1-.8 1.7h.5c-.5.4-.8 1.1-1.2 1.6l.3.3c-.3.2-.6.4-1 .6-.3.2-.3.3 0 .4-.1.2-.2.4-.3.6l.4.4v-.1c-.1.2-.3.4-.4.5v-.3c0-.3-.1-.6-.1-.9-.4.3-.9.5-1.3.8l.2-.1c-.1.1-.4.2-.4.2-.3-.4-.5-1-.4-1.6-.1-.3-.2-.4-.3-.7 0-.4 0-.7.1-1.1.3.2.5.3.9.4 0-.1 0-.3 0-.4.2-.2.4-.4.6-.5 0-.1-.2-.2-.2-.3-.1-.1-.2-.2-.3-.4.3-.1.6-.3.9-.4-.1-.2-.2-.3-.4-.4.2-.3.4-.6.6-.9-.2-.2-.4-.3-.5-.4-.4.1-.9.4-1.3.5 0-.1-.1-.2-.2-.3.5-.5 1-1.1 1.8-1.2-.3.3-.4.5-.5.7.3.1.6.3.9.4-.1-.4-.2-.6-.2-1-.2-.2-.4-.3-.6-.4.1-.3.3-.5.3-.8-.1-.1-.2-.3-.4-.4.1 0 .2-.1.3-.2-.1 0-.3-.1-.4-.2.2.1.4.1.5 0" fill="#d5d5d5"/><path d="m19.6 3.1h1.1c.2.2.4.3.6.4-.1 0-.3 0-.4 0-.3 0-.4-.1-.7-.2-.3 0-.4-.1-.6-.2" fill="#919191"/><path d="m33.6 3c.5.2-.1.8-.2.3.1 0 .1-.2.2-.3" fill="#a3a3a3"/><path d="m34.9 3.4c-.1-.6.6-.3.4.2-.1 0-.3 0-.3 0z" fill="#a9a9a9"/><path d="m19 3.3.4.1c.1.1.3.2.4.3.1-.1.3-.2.4-.3.3.1.4.1.7.2.2.3.4.9.9.5l.2-.2c0 .2.1.4.1.5-.1.2-.2.4-.2.6-.4.1-.7.1-1.1.2.1 0 .4.1.4.1v.3c.5-.1 1.1-.1 1.6.2 0 .4-.1.8.1 1.1-.1 0-.3 0-.4 0 .3.2.4.3.7.5 0 .1-.1.4-.1.4-.1-.2-.2-.3-.3-.4-.5-.2-1.1-.5-1.6-.9.5-.6-.6-1.2-1.1-1-.4.2-.6.4-.9.7.1 0 .3.1.4.2 0 .1-.1.2-.2.3.2 0 .4 0 .7-.1-.2.1-.4.2-.6.4.2.1.4.1.6.2-.2 0-.5.1-.6.1-.2.2-.4.4-.6.6.1 0 .3.1.4.1-.8.5-1.9 1-2.2 1.9-.1.3-.3.4-.4.7-.1-.1-.2-.3-.3-.4-.8.7-1.5 1.5-1.9 2.5-.4.8-.9 1.5-1.5 2.1-.3-.1-.4-.1-.7-.2h-.1c.4-.4.9-.7 1.1-1.3v.3c.1-.2.3-.4.4-.5v-.2c0-.1 0-.4 0-.5.2-.1.4-.2.5-.3 0-.1 0-.3-.1-.4.4-.4.7-.9 1.1-1.3.5-.7 1.2-1.2 1.9-1.9.1.1.3.3.4.4-.1-.2-.2-.4-.3-.4.4-.5.8-.9 1.1-1.4-.3-.1-.5-.1-.8 0 .1-.1.2-.2.2-.2.3 0 .5-.1.8-.1.1-.3.3-.4.4-.7-.1 0-.3 0-.4 0 .2-.2.4-.4.5-.6.4.1.6 0 .8 0-.1-.1-.3-.3-.4-.4h.5c-.3-.2-.6-.3-1-.3 0-.3 0-.6 0-.9.2 0 .5.1.7.2-.3-.4-.5-.7-.6-.8" fill="#000"/><path d="m28.2 4.9c.4-.5.6-1.2 1.1-1.6-.3.6-.7 1.1-.9 1.8.7 0 1.4-.1 2.1 0 .9.1 1.7.4 2.4.9.2.4.5.8.4 1.3-.4.4-.7.9-1 1.3-.5.7-1.3 1.2-2 1.7.1-.8.7-1.3 1.1-1.9.2-.3.5-.2.8-.2 0-.2-.1-.4-.1-.5.2-.1.3-.2.4-.2-.4-.4-.4-.9-.4-1.4-1.3-.6-2.8-.6-4.2-.8.3-.1.3-.3.3-.4" fill="#000"/><path d="m29 4.5c.2-.3.4-.6.7-.8.1 0 .3.3.4.5-.3.2-.5.4-.9.4z" fill="#eaeaea"/><path d="m35 3.8c.3-.1.4 0 .3.3-.3.1-.4 0-.3-.3" fill="#9c9c9c"/><path d="m36 3.7c0 .2.1.4.1.5.1.3.1.6.1.9-.2.6 0 1.1.4 1.7-.2-.2-.4-.4-.6-.6 0-.1 0-.3 0-.4-.2 0-.3 0-.4-.1 0-.3 0-.5 0-.8 0 .3.1.6.1.9.4-.2.6-.4.5-.7-.2-.1-.3-.3-.3-.3 0-.3.1-.5.1-.8z" fill="#232323"/><path d="m10.7 6.8c0-1.1.7-2.1 1.6-2.8.1 0 .3.1.4.2-.1 0-.2.1-.3.2.1.1.2.3.4.4-.1.3-.2.5-.3.8.2.2.4.3.6.4.1.4.1.6.2 1-.3-.2-.5-.3-.9-.4.1-.3.2-.5.3-.7-.8.1-1.3.7-1.8 1.2z" fill="#fefefe"/><path d="m32.4 4.1c.3 0 .5-.2.7-.1v.4c.2.1.4.2.6.3v.2c.4.1.5.4 0 .6-.1 0-.2.2-.3.2-.2 0-.4.1-.5.1 0-.1.1-.2.1-.3.1-.1.2-.2.3-.4-.1 0-.4 0-.5 0 0-.1.1-.3.2-.4-.1 0-.4 0-.4.1.3-.2.4-.4.4-.5-.3 0-.4-.1-.6-.2" fill="#dcdcdc"/><path d="m33.9 4c.5-.3 0 .5 0 0" fill="#9f9f9f"/><path d="m41.5 4.4c1.1-.2 2.4-.1 3.4.3-.4 0-.8.1-1.2.1-.1 0-.2 0-.3 0-.4-.2-1-.2-1.4 0-.2-.2-.3-.3-.5-.4" fill="#2b2b2b"/><path d="m34.2 4.9c-.1-.3.3-.7.5-.4-.1.2-.2.5-.5.4" fill="#e1e1e1"/><path d="m36.1 4.3c.4.3.8.6 1.1 1.1-.3-.1-.6-.2-.9-.2-.1-.3-.1-.7-.2-.9" fill="#dedede"/><path d="m22.1 4.5c.2.2.3.4.4.6.7.3 1 1.1 1.8 1.3-.2.3-.3.6-.4.9-.1-.1-.2-.1-.3-.2.1-.2.1-.4.2-.5-.2-.1-.3-.2-.4-.3v.7c-.1 0-.3 0-.4 0-.2-.4-.2-.7-.1-1.1-.5-.3-1.1-.3-1.6-.2 0-.1 0-.2 0-.3-.1 0-.4-.1-.4-.1.4-.1.7-.1 1.1-.2-.1-.3 0-.5.1-.6" fill="#323232"/><path d="m29.5 5c-.3.1-.7-.2-.4-.4h.2s.1.2.2.4" fill="#000"/><path d="m33.8 4.7c.1 0 .3.2.4.3.3.1.4-.3.5-.4 0 .1.1.2.1.2-.2.1-.3.2-.4.4s-.2.4-.3.5c-.1 0-.2-.1-.3-.1h-.1c.5-.2.3-.5 0-.6.1-.2.1-.3.1-.3" fill="#000"/><path d="m40.7 4.9c.3-.2.5-.4.8-.4.2.2.4.3.5.4-.2.1-.4.2-.6.3 0 .1 0 .2.1.4-1 .2-1.9.6-2.8 1-.1-.1-.3-.4-.3-.5.4-.4 1-.4 1.6-.3.2-.5.4-.7.7-.9" fill="#000"/><path d="m44.9 4.6c.7.3 1.4.7 1.7 1.4-.2.1-.4.2-.5.4-.2-.4-.4-1-.8-1.1-.5-.2-1.1-.3-1.6-.5.4-.1.9-.2 1.2-.2" fill="#000"/><path d="m17.5 5.2c.5-.4 1.1-.9 1.7-.4.2.2.4.3.4.4-.2.1-.4.1-.6.2-.6 0-1-.1-1.5-.2" fill="#fff"/><path d="m42 4.8c.4-.3 1-.2 1.4 0-.7.8-1.8 1.1-2.7 1.3-.7.2-1.3.5-1.9.9-.3-.4-.5-.7-.7-1.1l.1-.2c.1 0 .2.1.3.2s.2.4.3.5c.9-.4 1.8-.8 2.8-1 0-.1 0-.3-.1-.4.2 0 .3-.1.5-.2" fill="#000"/><path d="m43.4 4.8h.3c.5.2 1.1.3 1.6.5.4.2.6.7.8 1.1.2-.1.4-.3.5-.4-.1.7-.6 1.3-1.1 1.9-.9 1.1-2 2-3.4 2.5-.4.1-.8.2-1.2.1-.1-.7-.5-1.3-1.1-1.9-.4-.5-.8-1.1-1.1-1.7.6-.4 1.2-.7 1.9-.9 1.1-.1 2.1-.4 2.8-1.2" fill="#000"/><path d="m38 5.6c.9-.3 1.8-.5 2.7-.8-.3.3-.5.5-.7.7-.5-.2-1.1-.2-1.6.3-.2-.1-.3-.2-.4-.2v.2l-.1.2c.1 0 .1-.3.1-.4" fill="#151515"/><path d="m37.5 5c.1.7.7 1.2.5 1.9h.3c.2.3.3.5.4.7 0 .1.1.2.1.2.4.4.5 1 .5 1.5.1 0 .2-.1.3-.2.4.4.6 1.3 1.3 1.3-.2.4-.3.7 0 1.1-.1.1-.2.3-.3.4-.3.1-.5.1-.8.2-.3-.6-.8-1.1-.8-1.8-.1 0-.2 0-.3 0-.2.6-.4 1.2-.4 1.9.1.1.2.3.3.4-.2 0-.4.1-.6.1.3.1.4.3.7.4-.3 0-.6.3-.9 0-.3-.4-.3-.9-.4-1.3-.1-.1-.3-.2-.4-.3-.1-.4-.2-.9-.4-1.3.1 0 .4 0 .4-.1.2-.4.4-1 .4-1.5.1.2.3.4.4.5.3-.2.4-.4.5-.7 0 .4.1.8.2 1.2.4-.5.2-1.1.1-1.7-.4-.4-.6-.8-.8-1.2-.1 0-.3 0-.4 0-.1-.7 0-1.2.1-1.7" fill="#d0d0d0"/><path d="m25.3 6.1c.9-.3 1.8-.6 2.7-1 1.4.1 2.9.2 4.2.8 0 .5 0 1 .4 1.4-.2.1-.3.2-.4.2 0 .2.1.4.1.5-.3 0-.6-.1-.8.2-.4.6-1 1.1-1.1 1.9-.3.2-.5.4-.8.5-1-.3-2 .4-3 0 .1.1.3.2.4.4-.3 0-.6-.1-.9.1-.7.6-.7 1.8-.8 2.7-.2 1.1.4 2.3.2 3.4-.1.4-.2.7-.3 1.1-.1.3-.2.6-.4.9-.4 1.5-1.6 2.6-2.7 3.5-1.3 1.2-2.5 2.7-4 3.8-.7.4-1.6.7-2.2 1.2s-1.2 1-1.9 1.4c-.5.5-1.3.9-2 1.1l-.2-.1c.1-.1.3-.3.4-.4-.3-.1-.6-.3-.9-.4 0-.1.1-.4.2-.4.1-.2.1-.4.2-.6-.4.1-.7.2-1.1.3-.3-.1-.5-.4-.7-.6.1-.1.3-.4.4-.4.2-.3.2-.6.2-1-.2.1-.4.2-.5.4 0-.1-.1-.3-.1-.4-.1.1-.2.2-.3.3-.2.3-.1 1-.5.6h-.1c0-.1.1-.2.2-.3 0-.2 0-.3 0-.4.1-.3.3-.5.4-.7.1-.1.2-.2.3-.2.1-.1.2-.2.3-.3l.2-.2c.1-.1.2-.2.3-.3-.1-.1-.2-.3-.3-.4.2-.2.3-.4.4-.7 0-.1-.1-.3-.2-.3l-.1-.1c0-.1.1-.3.1-.4-.5-.5-1.1-1-1.1-1.8.1-.7.3-1.3.3-2 .1-.3.3-.5.4-.8.1-.2.2-.4.3-.5.2.1.4.3.5.4 0 .1 0 .4-.1.4.2-.2.9-.5.4-.7h-.1c-.1 0-.2-.1-.3-.1-.1-.3-.1-.5-.2-.8-.4-.1-.5.4-.7.6-.2.4-.4.9-.6 1.3-.1-.1-.2-.2-.3-.3.4-.4.4-1.1.3-1.6-.1.3-.3.5-.4.8-.1 0-.2-.1-.3-.1 0-1-.4-1.8-.4-2.7 0-1.1 0-2.4-.8-3.3 0-.3 0-.4-.1-.7 0-.2-.1-.4 0-.7.4-.2.5-.4.6-.5.1 0 .4-.1.5-.1.1-.1.3-.2.4-.3 0 .1.1.2.1.3.1.3.1.5.2.8h.4c0 .1.1.3.1.4-.1 0-.3 0-.4 0 0 .4 0 .7.1 1.1.2-.3.3-.5.4-.8.3 1 .5 1.9 1.3 2.7-.1.4-.1.6-.2 1l.4.4c.1-.1.2-.3.3-.4s.2-.4.3-.5c.1 0 .2-.1.2-.2l.1.1v-.1c.3.1.4.1.7.2.6-.6 1.1-1.3 1.5-2.1.4-1 1.1-1.8 1.9-2.5.1.1.2.3.3.4.2-.2.3-.4.4-.7.6-.7 1.4-1.4 2.4-1.5-.5.3-1.1.5-1.4.9.3 0 .5-.1.8-.1-.1.3-.2.4-.3.5.2 0 .4.1.6.1-.1.2-.1.4-.2.6h1.2c0-.1-.1-.4-.1-.5h.3l.1.2v.1h.1v-.1c0-.5 0-1.1-.2-1.6-.1-.1-.3-.2-.3-.3.1-.1.3-.2.3-.3-.2-.1-.3-.2-.4-.3.9-.3.6-1.4.3-2 .6-.3 1.7.4 1.2 1 .4.4 1 .6 1.6.9.1.2.2.3.3.4 0-.1 0-.4.1-.4.1.1.2.2.3.2 0 .1.1.3.2.4s.3.2.4.3c-.3.1-.3.4-.4.7h.4c.2-.4.4-.6.7-1-.1 0-.3 0-.4 0 0-.2-.1-.4-.2-.5l.2-.1c-.1-.1-.2-.2-.4-.3.4-.3.8-.7 1.1-1" fill="#000"/><path d="m33.6 5.7c.1-.1.2-.2.3-.2h.1c.1 0 .2.1.3.1 0 0 .1 0 .2.1-.3.2-.5.4-.8.6.1.1.3.3.4.4 0 .3-.1.4-.1.7.2-.4.4-.7.6-1 .2.2.4.4.6.6-.1.1-.2.2-.2.2 0 .1 0 .3.1.4-.1 0-.2.1-.3.2-.1 0 .1.1.4.1-.1 0-.2 0-.3 0 .4.2.8.4 1.1.5-.2.1-.4.3-.6.4 0-.4-.4-.4-.6-.5 0 .1.1.3.1.4-.3 0-.5.1-.8.1 0-.2 0-.4 0-.5-.3 0-.6-.1-.9-.1.4-.3.9-.3 1.3-.3-.4-.2-.7-.4-1-.6.1-.5-.2-.9-.4-1.3v-.3c.2.1.4 0 .5 0" fill="#f3f3f3"/><path d="m2.5 5.6c1.2-.1 2.7-.4 3.8.3.6.4 1.2.4 1.9.6-.2.4-.5.4-.8.3 0 .1.1.3.1.4-.4-.1-.7-.3-1.1-.4.1 0 .3-.1.4-.2-1.3-.5-2.9-.9-4.3-.3-.1-.3-.1-.4 0-.7" fill="#000"/><path d="m17 6c.4-.3.8-.4 1.2-.4 0 .1-.1.4-.1.4h.3.4c-.1.3-.3.4-.4.7-.3 0-.5 0-.8.1-.1.1-.2.2-.2.2.3-.1.5-.1.8 0-.4.4-.8.9-1.1 1.4.1.2.2.3.3.4-.1-.1-.3-.3-.4-.4-.6.7-1.3 1.2-1.9 1.9-.4.4-.6.9-1.1 1.3 0 .1.1.3.1.4-.2.1-.4.2-.5.3v.5c-.2-.1-.3-.3-.4-.4.1-.2.2-.4.3-.6 0-.1 0-.3 0-.4.4-.2.6-.4 1-.6-.1-.1-.2-.2-.3-.3.4-.5.7-1.1 1.2-1.6.1-.1.3-.2.4-.3.1.4.2.4.3.4 0-.1.1-.3.2-.4-.3-.1-.6-.2-.9-.3.3-.4.6-.6 1.1-.8 0-.1-.1-.3-.1-.4.2 0 .4 0 .5.1 0-.1-.1-.3-.1-.4.2-.1.4-.1.5-.2-.1-.1-.2-.3-.3-.4.2-.2.3-.4.4-.5-.1.3-.3.3-.4.3" fill="#eee"/><path d="m.1 7c.5-.8 1.5-1.2 2.4-1.4-.1.3-.1.4-.1.6-.4.3-.6.5-1 .8h.3c-.2.2-.4.4-.5.5v.7c-.1 0-.4 0-.5 0-.3-.3-.6-.7-.6-1.2" fill="#000"/><path d="m2.4 6.2c1.4-.6 3-.3 4.3.3-.1.2-.3.3-.4.3.4.1.8.3 1.1.4.4.4.7.7 1.1 1-.1.4-.1.7-.2 1.1-.4.5-.5 1.1-.7 1.8-.1.3 0 .4 0 .7-.8.2-1.7.6-2.6.3-1.9-.5-3.5-1.9-4.6-3.6h.5c0-.3-.1-.4 0-.7.2-.2.4-.4.5-.5-.1 0-.2 0-.3 0 .6-.5.9-.8 1.3-1.1" fill="#000"/><path d="m19.3 6.2c.3-.3.5-.5.9-.7.4.6.6 1.8-.3 2 .1.1.3.2.4.3-.1.1-.3.2-.3.3-.4-.2-.5-.4-.5-.8.2 0 .4-.1.6-.1-.3-.1-.4-.2-.6-.3.2-.1.4-.2.6-.4-.2 0-.4 0-.7.1 0-.1.1-.2.2-.3 0 .1-.2 0-.3-.1" fill="#454545"/><path d="m15.4 7c.4-.6 1.1-.7 1.6-1.1h.4c-.1.2-.3.4-.4.5.1.1.2.3.3.4-.2.1-.4.1-.5.2 0 .2.1.3.1.4-.2 0-.4 0-.5-.1 0 .1.1.3.1.4-.4.2-.7.4-1.1.8l.9.3c0 .1-.1.3-.2.4-.1 0-.3-.1-.4-.2-.1.1-.3.2-.4.3-.2 0-.4 0-.5 0 .2-.6.5-1.1.8-1.7.1-.3-.1-.5-.2-.6" fill="#e6e6e6"/><path d="m22.1 6c.3-.2.5.2.4.4-.1.1-.4-.2-.4-.4" fill="#383838"/><path d="m10.3 6.3h.3c0 .4 0 .7.1 1.1 0 .4-.2 1 .2 1.3.1.2.3.3.4.4 0-.1.1-.2.1-.3.3.1.5.3.7.4l-.2-.2c.1.1.2.2.2.3-.2.2-.4.4-.6.5v.4c-.3-.1-.6-.2-.9-.4 0 .4 0 .7-.1 1.1-.1-.4-.1-.7-.2-1-.1-.1-.2-.3-.3-.4-.1-.7.2-1.3.2-2-.3.2-.4.4-.4.8-.2 0-.4.1-.5.1 0 .4.1.8.1 1.1-.1-.4-.3-.7-.5-1 0 .4-.1.9-.1 1.3 0-.2-.1-.4-.1-.5-.1.3-.3.6-.5 1-.1.2-.2.3-.4.4.1-.6.3-1.2.7-1.8.4-.4.7-.8 1.1-1.2.4-.2 1.1-.7.7-1.4l-.2-.1c.1.1.2.1.2.1" fill="#e4e4e4"/><path d="m19.1 6.2c0 .1 0 .1 0 0" fill="#3d3d3d"/><path d="m24.3 6.3c.4 0 .8-.1 1.1-.2-.4.3-.8.6-1.1 1.1.1.1.2.2.4.3l-.2.1c-.4.1-.2.7.2.5h.4c-.3.3-.5.6-.7 1-.1 0-.4 0-.4 0 .1-.3.1-.5.2-.9-.1-.1-.3-.2-.4-.3s-.2-.3-.2-.4c-.1-.1-.2-.2-.3-.2-.2-.2-.4-.4-.7-.5h.4.4c.1 0 .2.1.2.1.1 0 .2.1.3.2.1-.2.2-.5.4-.8" fill="#000"/><path d="m23.4 6.2c.2.1.3.2.4.3-.1.2-.1.4-.2.5-.1 0-.2-.1-.2-.1 0-.1 0-.5 0-.7" fill="#e4e4e4"/><path d="m7.4 6.8c.4.1.6.1.8-.3.2.1.4.1.5.1 0 .1 0 .2-.1.3.4.3.7.6 1 1-.4.4-.8.8-1.1 1.2.1-.3.1-.6.2-1-.4-.4-.8-.6-1.1-1-.1-.1-.2-.3-.2-.3" fill="#000"/><path d="m8.7 6.7c.5.2 1.1.1 1.6-.2l.1.1c.4.5-.4 1.1-.8 1.3-.3-.4-.6-.7-1-1 0-.1.1-.2.1-.2" fill="#000"/><path d="m35.7 6.5c.3-.2.6.2.4.4s-.5-.1-.4-.4" fill="#a3a3a3"/><path d="m11 7.2c.4-.2.9-.4 1.3-.5.2.1.4.3.5.4-.2.3-.4.6-.6.9.1.2.2.3.4.4-.3.1-.6.3-.9.4.1.1.2.2.3.4l.1.2c-.3-.1-.4-.3-.7-.4 0 .1-.1.2-.1.3-.1-.2-.3-.3-.4-.4-.4-.4-.2-.9-.2-1.3 0-.3.2-.4.3-.4" fill="#fcfcfc"/><path d="m18.9 7.9c.2-.2.4-.4.6-.6 0 .4.2.7.5.8l.1.1c-.3 0-.6 0-.9 0 .4.2.8.4 1.1.3.2.5.2 1.1.2 1.6h-.1l-.1-.2c.1-.2-.4-.7-.4-.3 0 .1.1.2.2.3 0 .1.1.4.1.5-.4 0-.8 0-1.2 0 .1-.2.1-.4.2-.6-.2 0-.4-.1-.6-.1.1-.2.2-.3.3-.4-.3.1-.5.1-.8.1.4-.4.9-.6 1.4-.9-1 .1-1.8.8-2.4 1.5.4-1 1.4-1.4 2.2-1.9-.2-.1-.3-.2-.4-.2" fill="#0f0f0f"/><path d="m33.5 7.2c.4.2.7.4 1 .6-.4 0-1-.1-1.3.3.3 0 .6.1.9.1v.5c.3 0 .5 0 .8-.1.1.1.4.2.4.3s.2.3.2.3c-.5-.2-1-.3-1.5-.4.1.3.3.4.4.7-.1 0-.3.1-.4.1.4 0 .8 0 1.1.3h-.4c-.1 0-.3.1-.4.1.3.2.5.4.7.5-.1 0-.2.1-.3.1 0 .1 0 .2.1.3 0 .1-.1.3-.1.4-.2-.2-.4-.3-.6-.4.1.3.3.5.4.8-.1 0-.3 0-.4 0-.2-.2-.4-.3-.5-.4-.2-.1-.4-.2-.6-.3-.3-.4-.4-.8-.6-1.1-.3-.2-.5-.4-.8-.5-1.5 1.1-3.1 2.4-5 2 1 .1 2-.2 2.8-.7.3-.2.5-.3.8-.5.7-.5 1.5-1 2-1.7.6-.4 1-.9 1.3-1.3" fill="#fff"/><path d="m35.2 7.2c.4-.1.6.4.7.6-.3-.1-.8-.2-.7-.6" fill="#777"/><path d="m13.7 7.4c.2.4.2.9.1 1.4.1.1.2.3.3.3h.4c-.4.6-.5 1.3-.5 2-.1 0-.3-.1-.4-.1 0-.6.3-1.4-.3-1.9.5-.4.3-1.1.4-1.7" fill="#dedede"/><path d="m24.6 8.1c-.4.1-.6-.4-.2-.5.1.1.2.3.2.5" fill="#383838"/><path d="m10 8.3c0-.4.2-.6.4-.8 0 .7-.3 1.3-.2 2-.1.3-.4.4-.5.6-.2-.2-.3-.4-.4-.6-.1.3-.2.5-.2.8 0-.1-.1-.2-.1-.3-.1.1-.3.2-.4.3-.2 0-.4 0-.5.1.2-.4.4-.7.8-1 0 .1.1.4.1.5 0-.4 0-.9.1-1.3.3.3.4.6.5 1 0-.4-.1-.8-.1-1.1.1-.2.4-.2.5-.2" fill="#000"/><path d="m35.8 7.8s.1 0 0 0c.1.1.1.1 0 0" fill="#777"/><path d="m35 8h.3c.3 0 .6.3.8 0 .3.4.4.7.6 1.1-.3-.3-.4-.4-.6-.6-.4-.2-.8-.3-1.1-.5" fill="#777"/><path d="m19.2 8.2h.9c.1.1.3.2.3.3-.4 0-.8-.2-1.2-.3" fill="#7d7d7d"/><path d="m36.6 8.1c.3-.1.4.3.3.4-.3.2-.4-.2-.3-.4" fill="#959595"/><path d="m34.8 8.3c.3.1.6.3.6.5l-.1.1c-.1-.1-.4-.2-.4-.3s-.1-.3-.1-.3" fill="#232323"/><path d="m35.7 9.1c.3-.1.8.3.7.5-.3.1-.7-.2-.7-.5" fill="#afafaf"/><path d="m19.9 9.5c0-.4.5.1.4.3-.1 0-.2 0-.3 0 .1 0 0-.2-.1-.3" fill="#969696"/><path d="m9.8 10.2c.2-.2.4-.4.5-.6.1.1.2.3.3.4 0 .4.1.7.2 1s.2.4.3.7c-.1.5.1 1.1.4 1.6.1 0 .4-.1.4-.2l-.1.2c-.1.5-.4 1.1-.1 1.5v.6c-.1.1-.2.3-.3.4-.1-.1-.4-.3-.4-.4.1-.4.1-.6.2-1-.8-.6-1.1-1.7-1.3-2.7-.2.3-.3.5-.4.8 0-.4-.1-.7-.1-1.1h.4c0-.1-.1-.3-.1-.4-.1 0-.3 0-.4 0-.1-.3-.1-.5-.2-.8.1-.3.2-.5.2-.8.1.4.3.5.5.8" fill="#000"/><path d="m26.7 11.4c1.9.4 3.6-1.1 5-2 0 .2-.1.4-.2.6.4.5 1 .9 1.6 1.1.2.1.4.2.6.3.2.2.4.3.5.4.4.5.3 1.1.4 1.8.4.4 1 1 1.1 1.7.3.3.4.7.4 1.1-.1.4 0 .8.3 1.1.1.6.6 1.1 1 1.5-.4.4-.6 1-.5 1.5-.5.1-.6.6-.9 1-.4.1-.8 0-1.2-.1-.5.2-1.1.5-1.7.2-.1.1-.2.2-.2.3 0-.1 0-.4 0-.4-.3.1-.6.3-.9.4-.2-.1-.3-.3-.4-.4-.1.1-.3.2-.4.3-.1-.2-.3-.4-.4-.6-.4 0-1.1.5-1.4.1-.2-.2-.4-.4-.6-.5 0-.4-.2-.8-.4-1.1-.3.2-.5 0-.7-.3-.4-.5-.8-1.1-.7-1.9-.1-.4-.4-.7-.4-1.1s.1-1-.3-1.3c0-.4.1-.9.3-1.2-.2-.2-.5-.3-.6-.5-.1-.4-.1-.9-.3-1.3.2-.2.4-.4.5-.5.2-.3.4-.2.5-.2" fill="#000"/><path d="m31.9 9.4c.3.2.5.4.8.5.2.4.4.8.6 1.1-.6-.3-1.1-.6-1.6-1.1.1-.1.2-.3.2-.5" fill="#000"/><path d="m20.5 10h.1v.1h-.1z" fill="#5b5b5b"/><path d="m34.9 9.9h.4c.4.1.9.3 1.3.4-.6-.2-1.1-.4-1.7-.4" fill="#fff"/><path d="m38.8 10.2h.3c-.1.7.4 1.2.9 1.8.3-.1.5-.1.8-.2-.3.6-.4 1.2-.4 1.9-.3.9-.6 1.9-.3 2.8.1.4.4.6.6.7 0 .1.1.3.1.4.1.7.4 1.2.6 1.9.5.9.7 1.9 1.1 2.8-.5-.4-.8-1-1-1.6-.2-.1-.4-.2-.5-.3.1-1.1-.1-2.3-.8-3.3-.1.1-.2.2-.4.3-.2-.5-.2-1.2-.7-1.6-.3-.1-.5-.1-.8-.1 0-.1-.1-.3-.1-.4-.3.4-.7.5-1.1.4 0 .4.1.9 0 1.3-.4-.3-.7-.5-1.1-.9 0-.4-.1-.8-.4-1.1-.2-.7-.6-1.2-1.1-1.7 0-.6 0-1.2-.4-1.8h.4c-.1-.3-.3-.5-.4-.8.2.1.4.3.6.4l.1.1c-.4.5.2 1 .4 1.4.4.4.5 1.1.6 1.6 0-.4 0-.7.1-1.1.5.9.3 1.9.4 3 .4-.6.4-1.3.5-2 .2 0 .4 0 .5.1.4.1.7.2 1.1.2 0-.5.3-1.1.5-1.6-.2 0-.4-.1-.5-.1-.3-.1-.4-.2-.7-.4.2-.1.4-.1.6-.1-.1-.1-.2-.3-.3-.4.5-.4.7-1 .8-1.6" fill="#d8d8d8"/><path d="m41 10.6c.4.1.8.1 1.2-.1-.3.3-.7.2-1.1.3.3.9.3 1.9 0 2.8.1-.6.1-1.1 0-1.8l-.1-.3c-.3-.2-.2-.7 0-.9" fill="#898989"/><path d="m12.3 10.7c.3 0 .4.2.6.4-.1.3-1-.1-.6-.4" fill="#f4f4f4"/><path d="m19 11c.6-.4 1.5-.4 1.9.2-.3 0-.4 0-.7 0-.4-.1-.7-.1-1.1-.1 0-.1 0-.1-.1-.1" fill="#484848"/><path d="m26.6 10.8c1.1.3 2-.3 3 0-.9.5-1.9.8-2.8.7-.2-.1-.4-.1-.6-.2 0 0-.1 0-.2 0 .3-.2.6-.1.9-.1-.1-.2-.2-.3-.3-.4" fill="#000"/><path d="m11.6 11c.1 0 .2-.1.3-.2.3.4.8.7 1.1 1.1-.5.4-1.1.6-1.8.7.1-.2.3-.4.4-.5-.1 0-.4 0-.5 0 .2-.3.3-.6.5-.8.1-.1 0-.2 0-.3" fill="#ebebeb"/><path d="m18.9 10.9c.1.1.2.2.3.2.4 0 .7 0 1.1.1-.2.2-.4.1-.6.2-.2.2-.3.4-.5.6-.1.2-.2.3-.2.4-.2-.3-.4-.5-.6-.8 0-.3.3-.5.5-.7" fill="#000"/><path d="m25.1 13.8c.1-.9.1-1.9.8-2.7h.2c-.2.2-.4.4-.5.5.2.4.2.9.3 1.3.1.3.4.4.6.5-.1.4-.2.8-.3 1.2.4.4.3.8.3 1.3 0 .4.2.7.4 1.1 0 .7.3 1.3.7 1.9-.3.1-.4.3-.7.4 0-.2.1-.4.1-.5-.2.1-.4.1-.5.2.1-.2.2-.3.3-.4-.1-.2-.2-.4-.2-.7-.1.1-.3.2-.4.3-.2-.2-.3-.4-.4-.5-.1.2-.3.3-.4.4 0-.3 0-.6.1-1 0-1-.5-2-.4-3.3" fill="#fff"/><path d="m13.6 11.9c-.3-.1-.3-.2 0-.4z" fill="#a4a4a4"/><path d="m40.7 11.9c.1-.1.2-.3.3-.4l.2.3c.1.6.1 1.1 0 1.8-.2 1.3-.4 2.6-.4 3.9v.3c0-.1-.1-.3-.1-.4-.3-.6-.4-1.3-.4-2 .4-.4.5-1.1.1-1.5-.1-.8 0-1.4.3-2" fill="#000"/><path d="m36.7 12v.5c.2 0 .4.1.6.1-.1.2-.3.3-.4.4.6-.1.8.6 1.1 1-.3-.1-.4-.1-.7-.2 0-.1.2-.3.2-.4-.5-.1-.9-.4-1-.9-.1 0-.2-.1-.3-.1.2-.2.3-.3.5-.4" fill="#919191"/><path d="m11.8 13.2c.4-.3.9-.5 1.3-.8 0 .3.1.6.1.9-.2.5-.6 1-1.1 1.3 0 0-.1.1-.2.2s-.2.4-.3.5c0-.2 0-.4 0-.6-.3-.4 0-1 .2-1.5" fill="#e5e5e5"/><path d="m19 13.3c.6-.4 1.4-.4 2-.2-.1 0-.4 0-.4 0 .1.5-.1.9-.4 1.3.1-.4.3-.7.2-1.1-.2.3-.4.4-.6.7-.2-.1-.3-.2-.3-.3.2-.3.5-.4.7-.6-.7-.4-2.1.4-1.5 1.3.2.4.5.4.9.4-.4 0-1 .3-1.2-.1-.2-.5 0-1.1.6-1.4" fill="#fdfdfd"/><path d="m30.3 13.1c.8-.4 1.9-.4 2.5.4-.1.2-.2.4-.3.5-.1 0-.2-.1-.3-.2 0-.1 0-.4 0-.4v-.2c-.4-.1-.6-.2-1-.2-.1.4-.4.9-.1 1.2.2.4.7.3 1.1.3-.1.1-.3.2-.4.3v.2c-.4-.3-1.1-.5-1.2-1.1 0-.2.1-.5.1-.6-.2-.2-.3-.2-.4-.2" fill="#2b2b2b"/><path d="m31.2 13c.4.1.6.1 1 .2v.2c-.1 0-.4 0-.4 0v.4h.4c.1.1.2.2.3.2-.1.1-.3.4-.4.4-.4 0-.9.2-1.1-.3-.2-.2.1-.7.2-1.1" fill="#000"/><path d="m38.2 13.6c.4-.2.7-.4 1.1-.5-.3.5-.5 1-.5 1.6-.4 0-.7-.1-1.1-.2.2-.1.4-.3.6-.4 0-.3 0-.4-.1-.5" fill="#919191"/><path d="m31.8 13.5h.4v.4c-.2 0-.3 0-.4 0 0-.2 0-.3 0-.4" fill="#fdfdfd"/><path d="m32.5 14.1c.1-.2.2-.4.3-.5.3.4.5.9.2 1.3-.4.2-.7 0-1.1 0 .1-.1.3-.2.4-.3-.1-.2.1-.4.2-.5" fill="#fff"/><path d="m40 16.6c-.4-.9 0-1.9.3-2.8.5.4.3 1.1-.1 1.5.1.7.2 1.4.4 2-.3-.1-.5-.4-.6-.7" fill="#bebebe"/><path d="m12.2 14.6c0 .1 0 .1 0 0" fill="#aeaeae"/><path d="m17.5 14.7c.5 0 .4.7.5 1.1-.2 0-.5 0-.7 0 0-.4 0-.8.2-1.1" fill="#000"/><path d="m37.2 15.9c.4.2.9 0 1.1-.4 0 .1.1.3.1.4.3 0 .5-.1.8.1.5.4.6 1 .7 1.6.1-.1.2-.2.4-.3.7.9.9 2.1.8 3.3.2.1.4.2.5.3.2.6.4 1.1 1 1.6.5.6 1.1 1.3 1.6 2 0 .1-.1.3-.2.3-.2-.1-.4-.3-.6-.4h.2c-.6-.5-1.3-.8-2-1.1-1.1-1.2-1.8-2.8-2.4-4.2-.2-.8-.2-1.7-.4-2.5-.5.5-.9 1.2-.9 1.9.1 0 .3-.1.4-.2-.3.5-.3 1.1-.2 1.8-.2.2-.4.4-.5.6 0 .2.1.4.1.5-.2 0-.4 0-.5 0-.4.4-1 1.1-.5 1.7.8.7 1.6 1.3 2.4 2 .4.4.4.9.7 1.3.3-.4.5-.8.6-1.2.4-.1.7-.1 1.1-.2 0 .1-.1.4-.1.5.2 0 .4 0 .5.1-.4.1-.9.1-1.2.2-.3.5-.5 1.1-1 1.4-.4-.8-.9-1.5-1.5-2.1-.3-.5-.7-1-1.3-1.2-.2.1-.4.2-.5.3.1.3.2.4.3.7-.1 0-.2-.1-.3-.1-.4-.4-.8-.9-1.1-1.3.3.9.9 1.6.9 2.6-.2-.2-.4-.3-.5-.4-.6-.8-1.2-1.6-1.8-2.4-.2-.2-.1-.4-.2-.7-.3-.2-.4-.3-.7-.4v-.1c.1-.1.2-.2.2-.3.5.4 1.1 0 1.7-.2.4.2.8.3 1.2.1.4-.3.4-.9.9-1-.2-.6 0-1.1.5-1.5-.4-.4-.9-.9-1-1.5-.3-.3-.4-.7-.3-1.1.4.4.7.6 1.1.9-.1-.6-.1-1-.1-1.4" fill="#ebebeb"/><path d="m17.5 15.9c.4 0 .9.2 1.2.4-.3.5-1.1.1-1.2-.4" fill="#000"/><path d="m19.2 16.3c.3-.2.4-.1.4.2-.2.1-.3.1-.4-.2" fill="#000"/><path d="m38.7 16.4c.3.8.2 1.7.4 2.5-.2 0-.4-.1-.5-.1 0 .7.3 1.4.4 2.1-.3.3-.4.5-.7.8h.4v.5c.2.3.4.6.6.9.3.1.5.1.8.2-.2.1-.4.2-.5.3.7.2 1.5.3 1.9.9v.3c-.4.1-.7.2-1.1.2-.2.4-.4.8-.6 1.2-.2-.4-.4-.9-.7-1.3-.7-.7-1.6-1.3-2.4-2-.4-.6.1-1.3.5-1.7h.5c0-.2-.1-.4-.1-.5.2-.2.4-.4.5-.6-.1-.6-.1-1.2.2-1.8-.1.1-.3.2-.4.2 0-.9.3-1.5.8-2.1" fill="#f5f5f5"/><path d="m18.4 16.7c.3.1.6.1.9.4-.2.5-1 .2-.9-.4" fill="#000"/><path d="m16.1 16.9c.3.1.7 0 .5.4-.2.2-.4.4-.7.5.1-.3.1-.5.2-.9" fill="#000"/><path d="m25.1 18.4c.1-.4.2-.7.3-1.1 0 .3-.1.6-.1 1l.1.1c.4.2.6.4.6.9.1.1.3.2.3.2.2.4.5.8 1 1 .2-.1.4-.3.6-.4.3.1.4.3.7.4l.2.2c.2.2.4.4.6.5.4.4 1-.1 1.4-.1.1.2.3.4.4.6.1-.1.3-.2.4-.3.1.1.3.2.4.4.3-.2.6-.3.9-.4v.4.1c.3.2.4.3.7.4.1.3 0 .5.2.7.6.8 1.1 1.6 1.8 2.4-.6-.1-1.2-.1-1.7-.5-.5-.7-1.1-1.6-2-1.8.4.5 1 .9 1.3 1.5-1.3-.4-2.3-1.3-3.3-2.1-.8-.7-1.7-1.1-2.7-1.5 0-.1 0-.2 0-.3-.8-.4-1.2-1.3-2-1.8-.1-.1-.1-.4-.1-.5" fill="#dfdfdf"/><path d="m10.2 18.1c.2-.3.3-.6.7-.6.1.3.1.5.2.8.1 0 .2 0 .3.1h.1c.5.2-.3.5-.4.7 0-.1 0-.4.1-.4-.2-.1-.4-.3-.5-.4-.1.2-.2.4-.3.5-.2.3-.3.5-.4.8-.1 0-.2-.2-.2-.2 0-.5.2-.9.4-1.3" fill="#000"/><path d="m40.8 17.4c.5.4.6 1.1.9 1.7.4.8.8 1.6 1.1 2.5.3 1.1 1.1 1.8 1.8 2.7 0 .2-.1.4-.1.5-.1.1-.3.2-.4.3h-.2c0-.1.1-.3.2-.4 0-.1.1-.3.2-.3-.5-.6-1.1-1.3-1.6-2-.4-.9-.6-1.9-1.1-2.8-.2-.7-.4-1.2-.6-1.9-.2-.1-.2-.2-.2-.3" fill="#c5c5c5"/><path d="m9.3 18.3c.1-.3.2-.5.4-.8.2.5.1 1.1-.3 1.6l.3.3s.2.2.2.2c0 .7-.2 1.4-.3 2 0 .8.6 1.3 1.1 1.8 0 .1-.1.3-.1.4-.2 0-.4-.1-.6-.2-.1-.2-.2-.4-.3-.6-.2.2-.4.3-.5.4 0-.4 0-.8 0-1.1-.2.1-.4.2-.6.2.7-.8.3-1.9.4-2.7.1-.5.1-1 0-1.4.2-.2.2-.1.3-.1" fill="#000"/><path d="m25.3 18.2c.1-.2.3-.3.4-.4.2.2.3.4.4.5.1-.1.3-.2.4-.3 0 .3.1.4.2.7-.1.1-.2.3-.3.4.2-.1.4-.1.5-.2 0 .2-.1.4-.1.5.3-.1.4-.2.7-.4.2.3.4.4.7.3.3.4.4.7.4 1.1l-.2-.2c-.2-.2-.4-.3-.7-.4-.2 0-.4.2-.6.4-.4-.2-.7-.5-1-1-.1-.1-.3-.2-.3-.2 0-.4-.3-.7-.6-.9z" fill="#f5f5f5"/><path d="m11.3 18.3c.1 0 .1 0 0 0" fill="#434343"/><path d="m24.8 19.3c.1-.3.3-.6.4-.9v.5c.7.5 1.1 1.4 2 1.8v.3c.3.5.8.7 1.1 1.1-1.1-.5-1.9-1.5-2.9-2.2v.3c-.3-.2-.4-.6-.6-.9" fill="#afafaf"/><path d="m17.4 20.3c.1-.6.2-1.1.6-1.6 0 .4.3 1 0 1.3-.4-.3-.5.1-.6.3" fill="#000"/><path d="m38.6 18.8c.2 0 .4.1.5.1.7 1.5 1.3 3.1 2.4 4.2.7.4 1.5.6 2 1.1h-.2c-.4.1-1 .2-1.4.4v.6c-.1 0-.2 0-.2.1-.2 0-.4 0-.5-.1 0-.1.1-.4.1-.5s0-.2 0-.3c-.4-.6-1.2-.7-1.9-.9.2-.1.4-.2.5-.3-.3-.1-.5-.1-.8-.2-.2-.3-.4-.6-.6-.9 0-.2 0-.4 0-.5-.1 0-.3 0-.4 0 .2-.3.4-.5.7-.8 0-.6-.2-1.2-.2-2" fill="#fcfcfc"/><path d="m25.4 19.9c1 .7 1.8 1.8 2.9 2.2.5.4 1.1.8 1.7 1.1.6.4 1 1.1 1.5 1.5 1.3.9 2.7 1.9 4.2 2-.4-.6-1.1-.8-1.6-1.4.7.4 1.4.7 1.9 1.3.1.3.2.5.3.8-1.2-.1-2.5-.5-3.4-1.2-.5-.4-1.2-.6-1.7-1.1-1.2-1.4-3-2.1-4.3-3.4-.4-.5-1.3-.7-1.4-1.4-.1-.2-.1-.3-.1-.4" fill="#484848"/><path d="m27.2 20.9c.9.4 1.9.8 2.7 1.5 1.1.8 2 1.8 3.3 2.1-.4-.6-1-1-1.3-1.5.9.2 1.5 1 2 1.8.1.2.2.4.3.7.4.6 1.1.9 1.6 1.4-1.7-.1-2.9-1.2-4.2-2-.5-.4-.9-1.1-1.5-1.5-.5-.4-1.1-.7-1.7-1.1-.4-.6-1-.9-1.2-1.4" fill="#c3c3c3"/><path d="m8.5 22.5c.2-.1.4-.2.6-.2v1.1c-.4.3-.9.6-1.4.9l.1-.3c.2-.6.5-1.1.7-1.5" fill="#000"/><path d="m9.2 23.4c.2-.1.4-.3.5-.4l.3.6c.2.1.4.1.6.2l.1.1c-.4 0-.8 0-1.2.1s-.5.4-.5.7c.4 0 .6.1 1 .1 0 .1-.1.2-.2.3-.4-.1-.7-.2-1.1-.3-.5.3-1 .7-1.6.7.3-.4.5-.7.9-1 .3-.5.7-.8 1.2-1.1" fill="#fbfbfb"/><path d="m35.9 25.7c0-.9-.6-1.7-.9-2.6.4.4.8.9 1.1 1.3.3.7.4 1.5.4 2.2.1 0 .2.1.3.2.1-.1.2-.3.3-.3.1.3.2.4.4.7-.1.1-.2.3-.2.3-.1 0-.3 0-.4 0-.2-.2-.4-.4-.6-.7-.1 0-.3-.1-.4-.2-.5-.6-1.2-.9-1.9-1.3-.1-.2-.2-.4-.3-.7.4.4 1.1.4 1.7.5.3.3.4.5.5.6" fill="#d0d0d0"/><path d="m36.2 23.9c.2-.1.4-.2.5-.3.5.3 1 .7 1.3 1.2-.2 0-.4 0-.5 0-.1.1-.2.3-.2.4h.3c-.5.7.2 1.5.4 2.2-.2 0-.4.1-.5.1h-.2c.1-.1.2-.3.2-.3-.1-.3-.2-.4-.4-.7-.1.1-.2.3-.3.3s-.2-.1-.3-.2c-.1-.8-.2-1.5-.4-2.2.1 0 .2.1.3.1.1-.2 0-.4-.2-.6" fill="#dedede"/><path d="m8.8 24.5c0-.4.3-.6.5-.7.4.4.7.6 1.1 1 .1.1.2.3.3.4-.1.1-.2.2-.3.3-.1-.2-.3-.5-.4-.5-1.1.1-2 .4-3 .6 0-.1-.1-.3-.1-.4.6 0 1.1-.4 1.6-.7.4.2.7.3 1.1.3.1-.1.2-.2.2-.3-.4.1-.6 0-1 0" fill="#dbdbdb"/><path d="m9.3 23.8c.4-.1.8-.1 1.2-.1.1.1.2.3.2.3-.1.3-.2.5-.4.7-.3-.2-.6-.5-1-.9" fill="#bebebe"/><path d="m6.5 26.4c-.2-1.1.8-1.7 1.3-2.4l-.1.3c-.3.4-.6.7-.9 1v.4c.1.2.3.4.4.5-.1 0-.4 0-.4 0 .1.6.2 1.3.7 1.8-.1-.4-.2-.9-.3-1.3.2-.2.4-.4.6-.4.2.2.3.4.4.5.3.2.6.1 1 .1v.4c-.1.1-.2.2-.2.3.1.4.6.4 1 .5.2.3.4.5.7.6l.9.3c0 .1-.1.4-.2.4.3.2.6.3.9.4-.1.1-.3.3-.4.4l.2.1h.1c-.9.4-1.7-.2-2.6-.1-.6.1-1.1-.3-1.5-.6s-.8-.1-1.1-.4c-.1-1-.5-1.9-.5-2.8" fill="#000"/><path d="m42 24.7c.4-.2.9-.3 1.4-.4.2.1.4.3.6.4 0 .1-.1.3-.2.4-.6-.2-1.2-.1-1.8.2 0-.2 0-.4 0-.6" fill="#ddd"/><path d="m44.4 24.9c0-.2 0-.4.1-.5.4.5.4 1.2.4 1.9l-.2-.3c-.3-.2-.5-.2-.9-.3 0-.1 0-.3 0-.4.1-.1.2-.2.3-.3 0 0 .2 0 .3-.1" fill="#919191"/><path d="m37.5 24.9h.5c.6.6 1.1 1.3 1.5 2.1.1.2.3.3.4.4-.4.2-.6.3-1 .4.1.2.2.4.2.5-.1 0-.3 0-.4 0-.6-.3-1.2-.5-1.8-.8h.4.2c.2 0 .4-.1.5-.1-.3-.7-1-1.5-.4-2.2-.1 0-.2 0-.3 0 .1-.1.1-.2.2-.3" fill="#c7c7c7"/><path d="m7 25.6c1-.3 2-.6 3-.6.1.1.3.4.4.4 0 .1-.2.2-.2.2-.4 0-.8-.1-1.1 0-.4.2-.8.4-1.2.5-.2.1-.4.3-.6.4 0 .4.2.9.3 1.3-.5-.4-.5-1.1-.7-1.8h.4c-.1-.2-.3-.4-.4-.5h.1" fill="#bdbdbd"/><path d="m42 25.3c.5-.3 1.2-.4 1.8-.2h.2c-.1.1-.2.2-.3.3-.3.3-.6.5-1 .7-.1-.1-.2-.3-.2-.4-.3-.1-.6-.1-.9-.1s-.5 0-.7 0c-.2.3-.3.5-.4.8 0-.3.1-.6.1-.9.4-.2.8-.2 1.2-.2z" fill="#b9b9b9"/><path d="m6.9 25.7c0-.1 0-.3 0-.4z" fill="#fff"/><path d="m9.1 25.6h1.1c-.1.1-.2.2-.3.3-.2-.4-.7 0-.3.2-.3.2-.4.4-.4.7-.4 0-.7.1-1-.1-.2-.2-.3-.4-.4-.5.4-.3.8-.4 1.3-.6" fill="#969696"/><path d="m42.8 26.1c.4-.3.6-.4 1-.7v.4.5c-.1 0-.3 0-.4 0 .2.2.4.3.6.4-.2.2-.4.3-.5.4.4.1.4.4.4.7-.4.6-1.1.8-1.8 1.1.1.1.4.3.4.3-.2 0-.4 0-.6.1.1-.2.2-.4.3-.6-.1 0-.4.1-.5.1 0-.1 0-.4.1-.4.3-.1.6-.2 1-.3.1 0 .4-.1.4-.1-.2-.5-.7-.7-1.1-1-.2-.3-.3-.5-.4-.8 0-.1.1-.4.1-.5.3 0 .6.1.9.1-.1 0 0 .2.1.3" fill="#a3a3a3"/><path d="m9.7 26.1c-.4-.2.1-.6.3-.2-.1 0-.2.1-.3.2" fill="#fbfbfb"/><path d="m39.5 27c.4-.4.7-.9 1-1.4 0 .3-.1.6-.1.9-.2.5-.2 1-.4 1.5-.3.3-.6.4-1 .4-.1-.2-.2-.4-.2-.5.4-.2.6-.3 1-.4 0-.3-.1-.4-.3-.5" fill="#bcbcbc"/><path d="m41 25.7h.7c0 .2-.1.4-.1.5-.2-.1-.4-.2-.5 0 0 .5.1 1.1.2 1.6v.8c-.2-.1-.4-.1-.5-.2v.4c-.9 0-1.7-.3-2.6-.3.3-.1.5-.1.7-.2h.4c.4-.1.7-.1 1-.4.2-.5.2-1 .4-1.5-.1-.2.1-.5.3-.7" fill="#747474"/><path d="m42 25.9v.2c.3 0 .5.1.5.4-.2-.1-.4-.3-.6-.4 0 0 .1-.2.1-.2" fill="#000"/><path d="m43.8 25.7.9.3c.1.2.2.4.3.6-.3.3-.5.4-.8.7.4-.1.7-.1 1-.2 0 .1-.1.2-.1.3-.2 0-.4 0-.7 0-.1 0-.3-.1-.3-.2 0 .1-.1.4-.2.4 0-.3-.1-.6-.4-.7.2-.2.4-.3.5-.4-.2-.1-.4-.3-.6-.4h.4s0-.3 0-.4" fill="#676767"/><path d="m41 26.2c.2-.2.4-.1.5 0 .2.3.3.5.4.8-.3.3-.5.5-.8.8 0-.6-.1-1.1-.1-1.6" fill="#000"/><path d="m12.4 26.2c.1.4.1.9-.3 1.1.1-.4.1-.8.3-1.1" fill="#000"/><path d="m44.8 26.6c-.1-.2-.2-.4-.3-.6l.2.2c.3.3.3.7.3 1.1-.4.1-.7.1-1 .2.3-.3.6-.6.8-.9" fill="#000"/><path d="m9.7 27c.1-.1.2-.2.3-.3 0 .1.1.3.1.4.2-.1.4-.2.5-.4-.1.4-.1.6-.2 1-.4-.3-.5-.5-.7-.7" fill="#313131"/><path d="m36 26.7c.1 0 .3.1.4.2.2.3.4.4.6.7.5.4 1.1.5 1.8.8-.3 0-.5.1-.7.2-.1 0-.3.1-.4.2-.6-.2-1.2-.5-1.4-1.1-.1-.5-.2-.7-.3-1" fill="#777"/><path d="m9.7 27c.2.3.4.4.6.7-.1.1-.3.3-.3.4-.4-.1-.9 0-1-.5h.1.1c.3.4.3-.4.5-.6" fill="#ccc"/><path d="m41.1 27.8c.3-.3.6-.5.8-.8.4.3.9.4 1.1 1 0 0-.3 0-.4 0-.5 0-.9-.1-1.5-.2" fill="#000"/><path d="m44 27.3c.1 0 .3.1.3.2h.7c-.3.4-.5.9-1.1 1.2-.8.4-1.6 1.1-2.6 1.1-.7 0-1.4-.1-2.1-.4.7.1 1.5.2 2.2-.1 0-.1.1-.3.1-.4v-.3c.1 0 .4-.1.5-.1-.1.2-.2.4-.3.6.2 0 .4 0 .6-.1-.1-.1-.4-.2-.4-.3.7-.3 1.4-.4 1.8-1.1.2.1.3-.2.3-.3" fill="#000"/><path d="m41.1 28.6c0-.3 0-.5 0-.8.4.2 1 .3 1.5.3-.4.1-.6.2-1 .3 0 .1 0 .4-.1.4v.2c-.4 0-.7-.1-1-.1 0-.1 0-.4 0-.4.3 0 .5 0 .6.1" fill="#535353"/><path d="m7.3 28.2c.2-.2.5.1.4.3s-.5-.1-.4-.3" fill="#2b2b2b"/><path d="m10.7 28.7c.4-.1.7-.2 1.1-.3-.1.2-.1.4-.2.6-.3-.1-.7-.2-.9-.3" fill="#777"/><path d="m37.7 28.7c.1 0 .3-.1.4-.2.9 0 1.7.3 2.6.3.4 0 .6.1 1 .1 0 .1-.1.3-.1.4-.7.3-1.5.1-2.2.1-.6-.1-1.2-.4-1.7-.7" fill="#232323"/><path d="m9 29.1c.3-.1.4 0 .3.3-.3.1-.4 0-.3-.3" fill="#000"/><g fill="#231f20"><path d="m62.8 14.6h-4.2v5.1c0 1.7.2 2.8 2.2 2.8.5 0 1.5-.1 1.9-.4v4c-1.1.4-2.2.4-3.4.4-3.2 0-5.6-1.3-5.6-4.7v-7.3h-3v-3.8h3v-4.6h4.8v4.6h4.2z"/><path d="m80 26.2h-4.6v-2.1h-.1c-.6 1.2-2.2 2.5-4.5 2.5-4.8 0-5.7-3.2-5.7-7.2v-8.5h4.8v7.5c0 1.8 0 4.1 2.5 4.1s2.8-1.9 2.8-3.9v-7.7h4.8z"/><path d="m92.8 15.9c-.4-.7-1.3-1.1-2.4-1.1-2.4 0-3.8 1.6-3.8 3.9s1.4 3.9 3.8 3.9c1.1 0 1.8-.5 2.3-1.1l3.1 3.3c-1.5 1.5-3.7 2-5.5 2-4.8 0-8.6-3.2-8.6-8s3.8-8 8.6-8c1.8 0 4 .5 5.5 2z"/><path d="m105.3 10.5c4.8 0 8.6 3.2 8.6 8 0 4.9-3.8 8-8.6 8s-8.6-3.2-8.6-8 3.8-8 8.6-8zm0 11.9c2.4 0 3.8-1.6 3.8-3.9s-1.4-3.9-3.8-3.9-3.8 1.6-3.8 3.9c0 2.4 1.4 3.9 3.8 3.9z"/><path d="m113.5 10.8h5l3.2 9.6h.1l2.7-9.6h5.2l2.8 9.6h.1l2.9-9.6h4.8l-5.5 15.4h-4.7l-3.2-10.2h-.1l-2.8 10.2h-4.8z"/><path d="m149.6 15.3c-.7-.9-1.6-1.3-2.7-1.3-.8 0-1.8.4-1.8 1.2 0 2.3 8 .4 8 6.2 0 3.9-3.8 5-7.1 5-2.1 0-4.5-.5-6-2.1l2.9-3.2c.9 1.1 1.9 1.7 3.4 1.7 1.1 0 2.1-.3 2.1-1.1 0-2.5-8-.4-8-6.3 0-3.6 3.3-5.2 6.4-5.2 2 0 4.2.5 5.7 2z"/></g><path d="m14.2 1.5c.7-.4 1.5-.3 2.2-.6l.1.1c.1.1.2.2.2.3-.2.2-.3.3-.4.4.1.1.4.2.5.3-.3.1-.6.2-.9.3-.3.3-.4.6-.6.9-.2-.2-.3-.2-.5-.3.4-.3.9-.7.9-1.3-.2.2-.4.4-.6.6-.1-.2-.2-.3-.4-.5 0 .1-.1.3-.2.4 0-.3-.2-.5-.3-.6" fill="#454545"/><path d="m16.5 1h1.1c-.2.4.1.6.4.8-.1-.3-.3-.6-.4-.9.8.2 1.8.3 2.4.9.4.4 1.1.8 1.5 1.3.1.4.2.6.2 1-.4.4-.7-.3-.9-.5h.4c-.2-.2-.4-.3-.6-.4-.4 0-.7 0-1.1 0 .2.1.4.2.6.3-.1.1-.3.2-.4.3-.1-.1-.3-.2-.4-.3s-.2-.2-.2-.2c.4-.5-.5-.6-.9-.6.1.3.2.5.3.8-.3-.2-.5-.3-.7-.4-.1-.2-.2-.4-.3-.5.1-.1.2-.3.3-.4-.2 0-.4-.1-.5-.1-.2 0-.4-.2-.6-.2.2-.1.4-.4.4-.4-.2 0-.4-.1-.5-.1 0-.2-.1-.4-.1-.4" fill="#000"/><path d="m15.9 1.3c.3-.1.4 0 .3.3-.4 0-.5-.1-.3-.3" fill="#a2a2a2"/><path d="m16.2 1.6c.2-.1.3-.3.4-.4.2 0 .4.1.5.1-.1.2-.3.4-.4.5.3 0 .6.2.8.2-.3 0-.5-.1-.7-.1-.2-.1-.5-.2-.6-.3" fill="#d5d5d5"/><path d="m18.2 1.4c.1.1.1.1 0 0" fill="#afafaf"/><path d="m12.8 2.2c.4-.3 1-.5 1.3-.8.2.2.3.4.4.5 0-.1.1-.3.2-.4.1.2.2.3.4.4.2-.2.4-.4.6-.6 0 .6-.4 1-.9 1.3-.4.4-1 .4-1.5.4-.1 0-.3-.1-.4-.3v.9c-.2.1-.4.2-.5.3-.9.7-1.6 1.7-1.6 2.8l.2.2c0 .1.1.2.2.3-.1.1-.3.2-.4.2 0-.4 0-.7-.1-1.1-.1 0-.2 0-.3 0 .1-.5.1-1.1.5-1.5s.9-.8 1.1-1.3.4-.9.8-1.3" fill="#000"/><path d="m18.5 1.6c.3-.1.4 0 .3.3-.2 0-.4-.1-.3-.3" fill="#848484"/><path d="m18.9 1.5c.7 0 1.1.6 1.6 1.1-.7-.1-1.5-.4-1.6-1.1" fill="#868686"/><path d="m31.7 2c1-.3 1.9 0 2.8.2.5 0 1.1.2 1.5.7l-.1-.1c.1.2.1.6.2.9v.2c-.1 0-.2 0-.3 0 0-.1 0-.3 0-.4-.1 0-.4 0-.4 0 .3-.4-.4-.6-.4-.1 0-.2 0-.4-.1-.5-.1 0-.2.1-.3.1-.1-.2-.2-.4-.3-.6-.2.3-.4.5-.5.8-.1.1-.2.2-.2.3-.1-.3-.2-.5-.3-.8-.3-.1-.5-.2-.8-.2-.3.2-.3.5-.4.7.2 0 .5.1.6.1-.2.2-.4.4-.5.5-.1-.1-.3-.3-.4-.4 0-.1.1-.2.1-.3-.1-.2-.2-.3-.2-.4-.3.1-.6.1-.9.2 0-.6.5-.7.9-.9" fill="#e4e4e4"/><path d="m15.8 2.2c.2-.1.6-.2.9-.3.2.1.5.1.7.1s.4.1.5.1c-.1.1-.2.3-.3.4.1.2.2.4.3.5-.2.2-.3.4-.4.5-.3-.3-.5-.4-.8-.6-.1.1-.2.3-.3.4 0-.1-.2-.3-.2-.4-.1 0-.3-.1-.4-.1 0 .1-.1.4-.2.4-.1-.2-.3-.2-.4-.2.1-.2.3-.6.6-.8" fill="#000"/><path d="m32 3c.1-.3.1-.6.4-.7.3.1.5.2.8.2.1.3.2.5.3.8.1.5.7-.1.2-.3.2-.3.4-.5.5-.8.1.2.2.4.3.6.1 0 .2 0 .3-.1.1.2.2.4.2.5v.2h.3.4v.4h.3c0 .3-.1.5-.1.8 0 0 .1.2.1.2.1.4-.2.6-.5.7 0-.3-.1-.6-.1-.9v.8c-.4.1-.6.2-1 .4 0 .1-.1.2-.1.3-.2.4-.4.7-.6 1 0-.3.1-.4.1-.7-.1-.1-.3-.3-.4-.4.3-.2.5-.4.8-.6 0 0-.1 0-.2-.1.1-.2.2-.4.3-.5.2-.1.3-.2.4-.4 0-.1-.1-.2-.1-.2-.3-.4-.6.1-.5.4-.1-.1-.3-.3-.4-.4v.1c-.2-.1-.5-.2-.7-.3 0-.1 0-.3 0-.4-.3-.1-.5 0-.7.1-.1 0-.2 0-.2 0 0-.1 0-.3.1-.3-.1 0-.2-.1-.2-.2.2-.2.4-.4.5-.5 0 .3-.4.3-.5.3" fill="#c5c5c5"/><path d="m18.3 2.6c.4 0 1.3.2.8.6-.1 0-.3-.1-.4-.1 0-.1-.2-.3-.4-.5" fill="#000"/><path d="m20.5 2.6c.3-.1.4 0 .3.3-.2.1-.3 0-.3-.3" fill="#909090"/><path d="m30.8 2.8c.3-.1.6-.1.9-.2.1.2.1.3.2.4 0 .1-.1.2-.1.3.1.1.3.3.4.4s.2.2.2.2c0 .1 0 .3-.1.3h.2c.1.1.4.2.4.3-.1.2-.1.4-.2.5.1 0 .4 0 .4-.1 0 .1-.1.3-.2.4h.5c-.1.1-.2.3-.3.4 0 .1-.1.2-.1.3-.7-.5-1.6-.8-2.4-.9.1-.2.3-.4.4-.5 0 .1-.2.2-.4.4-.4 0-.8 0-1.1.1-.1-.1-.2-.4-.2-.4.4 0 .6-.2.9-.4-.1-.1-.3-.4-.4-.5.3-.5.6-.8 1-1" fill="#fcfcfc"/><path d="m12.8 2.7c.2.2.2.3.4.5.5 0 1.1-.1 1.5-.4.1.1.3.2.5.2s.4.1.5.2c0-.1.1-.4.2-.4s.3.1.4.1c0 .1.2.3.2.4 0-.1.1-.3.2-.3.3.1.5.3.8.5.1-.2.3-.4.4-.5.3.2.5.3.7.4-.1-.3-.2-.5-.3-.8.2.2.3.4.4.5.1 0 .3.1.4.1.1.1.2.2.2.2l-.4-.1c.1.2.3.4.4.5-.2 0-.5-.1-.7-.2v.9c.4 0 .7.1 1 .3-.1 0-.4 0-.5 0-.4-.4-1 .2-1.5.4-.3-.1-.5-.2-.8-.4.1.1.2.3.2.4-.2.1-.4.2-.5.3-.2-.1-.4-.2-.5-.4.1.2.1.4.2.5-.1 0-.3.1-.4.1 0-.1-.1-.4-.1-.4-.3.2-.4.4-.7.4.1-.5.1-1 .2-1.4-.2.5-.5 1-.9 1.4 0-.4 0-.8 0-1.1.2-.4.4-.6.7-.8 0-.3 0-.6 0-1-.6.4-1.3.5-2 .6-.2-.1-.2-.4-.2-.7" fill="#c8c8c8"/><path d="m29.5 3.3c.4-.1.8-.5 1.3-.5-.4.3-.7.6-1.1.9-.3.3-.4.5-.7.8-.4.3.1.6.4.4.4 0 .8 0 1.1-.1.2-.1.4-.3.5-.4-.1.2-.3.4-.4.5-.7-.1-1.4 0-2.1 0 .3-.4.6-1 1-1.6z" fill="#b7b7b7"/><path d="m35.9 2.8c.9.5 1.1 1.5 1.6 2.2-.1.5-.2 1.1-.2 1.6h.4c.2.4.5.9.8 1.2.1.5.4 1.1-.1 1.7-.1-.4-.1-.8-.2-1.2-.1.2-.2.5-.2.7-.1-.2-.3-.4-.4-.5 0 .5-.2 1-.4 1.5-.1 0-.4.1-.4.1.3.4.4.9.4 1.3.1.1.2.2.4.3.1.4 0 1 .4 1.3.3.3.6 0 .9 0h.5c-.4.2-.7.4-1.1.5 0 .2.1.4.1.4-.2.1-.4.3-.6.4-.2 0-.4-.1-.5-.1-.1.7-.2 1.4-.5 2-.2-1 .1-2-.4-3 0 .4-.1.7-.1 1.1-.2-.5-.3-1.1-.6-1.6-.3-.4-.8-.9-.4-1.4h-.3c0-.1.1-.4.1-.4s0-.3-.1-.3c.1 0 .2-.1.3-.1-.3-.2-.5-.4-.7-.5.1 0 .3 0 .4-.1.6 0 1.1.2 1.7.4-.4-.3-.9-.4-1.3-.4-.4-.3-.9-.3-1.3-.3.1 0 .3-.1.4-.1-.1-.3-.3-.4-.4-.7.5.1 1 .3 1.5.4-.1-.1-.2-.3-.2-.3l.1-.1c.2-.1.4-.3.6-.4.2 0 .4.2.5.4-.2-.4-.4-.7-.5-1.1 0 0-.1 0-.1-.1-.1-.3-.4-.7-.7-.6-.1.4.4.5.7.6 0 0 .1 0 .1.1-.2.3-.5.1-.8 0-.3 0-.4-.1-.6-.2.1-.1.2-.2.3-.2 0-.2 0-.3-.1-.4.1-.1.2-.2.2-.2-.2-.2-.4-.4-.6-.6 0-.1.1-.2.1-.3.4-.1.6-.2 1-.4v.1c.1 0 .3 0 .4.1v.4c.2.2.4.4.6.6-.3-.5-.5-1.1-.4-1.7.3.1.6.2.9.2-.2-.4-.6-.8-1.1-1.1 0-.2-.1-.4-.1-.5.1-.1 0-.5 0-.7" fill="#cacaca"/><path d="m12.8 3.6c.7 0 1.4-.3 2-.6v1c-.3.2-.5.4-.7.7 0 .4.1.8 0 1.1.4-.4.7-.9.9-1.4-.1.4-.2 1-.2 1.4.3-.2.4-.3.7-.4 0 .1.1.4.1.4.1 0 .3-.1.4-.1-.1-.2-.1-.4-.2-.5.2.1.4.2.5.4.2-.1.4-.2.5-.3 0-.1-.2-.3-.2-.4.3.3.5.4.8.4.5.1 1 .1 1.5.1-.2.2-.4.4-.5.6-.1 0-.2 0-.3 0 0-.1.1-.4.1-.4-.4.1-.9.1-1.2.4-.5.4-1.2.5-1.6 1.1.1.1.2.3.3.4-.3.6-.6 1.1-.8 1.7h.5c-.5.4-.8 1.1-1.2 1.6l.3.3c-.3.2-.6.4-1 .6-.3.2-.3.3 0 .4-.1.2-.2.4-.3.6l.4.4v-.1c-.1.2-.3.4-.4.5v-.3c0-.3-.1-.6-.1-.9-.4.3-.9.5-1.3.8l.2-.1c-.1.1-.4.2-.4.2-.3-.4-.5-1-.4-1.6-.1-.3-.2-.4-.3-.7 0-.4 0-.7.1-1.1.3.2.5.3.9.4 0-.1 0-.3 0-.4.2-.2.4-.4.6-.5 0-.1-.2-.2-.2-.3-.1-.1-.2-.2-.3-.4.3-.1.6-.3.9-.4-.1-.2-.2-.3-.4-.4.2-.3.4-.6.6-.9-.2-.2-.4-.3-.5-.4-.4.1-.9.4-1.3.5 0-.1-.1-.2-.2-.3.5-.5 1-1.1 1.8-1.2-.3.3-.4.5-.5.7.3.1.6.3.9.4-.1-.4-.2-.6-.2-1-.2-.2-.4-.3-.6-.4.1-.3.3-.5.3-.8-.1-.1-.2-.3-.4-.4.1 0 .2-.1.3-.2-.1 0-.3-.1-.4-.2.2.1.4.1.5 0" fill="#d5d5d5"/><path d="m19.6 3.1h1.1c.2.2.4.3.6.4-.1 0-.3 0-.4 0-.3 0-.4-.1-.7-.2-.3 0-.4-.1-.6-.2" fill="#919191"/><path d="m33.6 3c.5.2-.1.8-.2.3.1 0 .1-.2.2-.3" fill="#a3a3a3"/><path d="m34.9 3.4c-.1-.6.6-.3.4.2-.1 0-.3 0-.3 0z" fill="#a9a9a9"/><path d="m19 3.3.4.1c.1.1.3.2.4.3.1-.1.3-.2.4-.3.3.1.4.1.7.2.2.3.4.9.9.5l.2-.2c0 .2.1.4.1.5-.1.2-.2.4-.2.6-.4.1-.7.1-1.1.2.1 0 .4.1.4.1v.3c.5-.1 1.1-.1 1.6.2 0 .4-.1.8.1 1.1-.1 0-.3 0-.4 0 .3.2.4.3.7.5 0 .1-.1.4-.1.4-.1-.2-.2-.3-.3-.4-.5-.2-1.1-.5-1.6-.9.5-.6-.6-1.2-1.1-1-.4.2-.6.4-.9.7.1 0 .3.1.4.2 0 .1-.1.2-.2.3.2 0 .4 0 .7-.1-.2.1-.4.2-.6.4.2.1.4.1.6.2-.2 0-.5.1-.6.1-.2.2-.4.4-.6.6.1 0 .3.1.4.1-.8.5-1.9 1-2.2 1.9-.1.3-.3.4-.4.7-.1-.1-.2-.3-.3-.4-.8.7-1.5 1.5-1.9 2.5-.4.8-.9 1.5-1.5 2.1-.3-.1-.4-.1-.7-.2h-.1c.4-.4.9-.7 1.1-1.3v.3c.1-.2.3-.4.4-.5v-.2c0-.1 0-.4 0-.5.2-.1.4-.2.5-.3 0-.1 0-.3-.1-.4.4-.4.7-.9 1.1-1.3.5-.7 1.2-1.2 1.9-1.9.1.1.3.3.4.4-.1-.2-.2-.4-.3-.4.4-.5.8-.9 1.1-1.4-.3-.1-.5-.1-.8 0 .1-.1.2-.2.2-.2.3 0 .5-.1.8-.1.1-.3.3-.4.4-.7-.1 0-.3 0-.4 0 .2-.2.4-.4.5-.6.4.1.6 0 .8 0-.1-.1-.3-.3-.4-.4h.5c-.3-.2-.6-.3-1-.3 0-.3 0-.6 0-.9.2 0 .5.1.7.2-.3-.4-.5-.7-.6-.8" fill="#000"/><path d="m28.2 4.9c.4-.5.6-1.2 1.1-1.6-.3.6-.7 1.1-.9 1.8.7 0 1.4-.1 2.1 0 .9.1 1.7.4 2.4.9.2.4.5.8.4 1.3-.4.4-.7.9-1 1.3-.5.7-1.3 1.2-2 1.7.1-.8.7-1.3 1.1-1.9.2-.3.5-.2.8-.2 0-.2-.1-.4-.1-.5.2-.1.3-.2.4-.2-.4-.4-.4-.9-.4-1.4-1.3-.6-2.8-.6-4.2-.8.3-.1.3-.3.3-.4" fill="#000"/><path d="m29 4.5c.2-.3.4-.6.7-.8.1 0 .3.3.4.5-.3.2-.5.4-.9.4z" fill="#eaeaea"/><path d="m35 3.8c.3-.1.4 0 .3.3-.3.1-.4 0-.3-.3" fill="#9c9c9c"/><path d="m36 3.7c0 .2.1.4.1.5.1.3.1.6.1.9-.2.6 0 1.1.4 1.7-.2-.2-.4-.4-.6-.6 0-.1 0-.3 0-.4-.2 0-.3 0-.4-.1 0-.3 0-.5 0-.8 0 .3.1.6.1.9.4-.2.6-.4.5-.7-.2-.1-.3-.3-.3-.3 0-.3.1-.5.1-.8z" fill="#232323"/><path d="m10.7 6.8c0-1.1.7-2.1 1.6-2.8.1 0 .3.1.4.2-.1 0-.2.1-.3.2.1.1.2.3.4.4-.1.3-.2.5-.3.8.2.2.4.3.6.4.1.4.1.6.2 1-.3-.2-.5-.3-.9-.4.1-.3.2-.5.3-.7-.8.1-1.3.7-1.8 1.2z" fill="#fefefe"/><path d="m32.4 4.1c.3 0 .5-.2.7-.1v.4c.2.1.4.2.6.3v.2c.4.1.5.4 0 .6-.1 0-.2.2-.3.2-.2 0-.4.1-.5.1 0-.1.1-.2.1-.3.1-.1.2-.2.3-.4-.1 0-.4 0-.5 0 0-.1.1-.3.2-.4-.1 0-.4 0-.4.1.3-.2.4-.4.4-.5-.3 0-.4-.1-.6-.2" fill="#dcdcdc"/><path d="m33.9 4c.5-.3 0 .5 0 0" fill="#9f9f9f"/><path d="m41.5 4.4c1.1-.2 2.4-.1 3.4.3-.4 0-.8.1-1.2.1-.1 0-.2 0-.3 0-.4-.2-1-.2-1.4 0-.2-.2-.3-.3-.5-.4" fill="#2b2b2b"/><path d="m34.2 4.9c-.1-.3.3-.7.5-.4-.1.2-.2.5-.5.4" fill="#e1e1e1"/><path d="m36.1 4.3c.4.3.8.6 1.1 1.1-.3-.1-.6-.2-.9-.2-.1-.3-.1-.7-.2-.9" fill="#dedede"/><path d="m22.1 4.5c.2.2.3.4.4.6.7.3 1 1.1 1.8 1.3-.2.3-.3.6-.4.9-.1-.1-.2-.1-.3-.2.1-.2.1-.4.2-.5-.2-.1-.3-.2-.4-.3v.7c-.1 0-.3 0-.4 0-.2-.4-.2-.7-.1-1.1-.5-.3-1.1-.3-1.6-.2 0-.1 0-.2 0-.3-.1 0-.4-.1-.4-.1.4-.1.7-.1 1.1-.2-.1-.3 0-.5.1-.6" fill="#323232"/><path d="m29.5 5c-.3.1-.7-.2-.4-.4h.2s.1.2.2.4" fill="#000"/><path d="m33.8 4.7c.1 0 .3.2.4.3.3.1.4-.3.5-.4 0 .1.1.2.1.2-.2.1-.3.2-.4.4s-.2.4-.3.5c-.1 0-.2-.1-.3-.1h-.1c.5-.2.3-.5 0-.6.1-.2.1-.3.1-.3" fill="#000"/><path d="m40.7 4.9c.3-.2.5-.4.8-.4.2.2.4.3.5.4-.2.1-.4.2-.6.3 0 .1 0 .2.1.4-1 .2-1.9.6-2.8 1-.1-.1-.3-.4-.3-.5.4-.4 1-.4 1.6-.3.2-.5.4-.7.7-.9" fill="#000"/><path d="m44.9 4.6c.7.3 1.4.7 1.7 1.4-.2.1-.4.2-.5.4-.2-.4-.4-1-.8-1.1-.5-.2-1.1-.3-1.6-.5.4-.1.9-.2 1.2-.2" fill="#000"/><path d="m17.5 5.2c.5-.4 1.1-.9 1.7-.4.2.2.4.3.4.4-.2.1-.4.1-.6.2-.6 0-1-.1-1.5-.2" fill="#fff"/><path d="m42 4.8c.4-.3 1-.2 1.4 0-.7.8-1.8 1.1-2.7 1.3-.7.2-1.3.5-1.9.9-.3-.4-.5-.7-.7-1.1l.1-.2c.1 0 .2.1.3.2s.2.4.3.5c.9-.4 1.8-.8 2.8-1 0-.1 0-.3-.1-.4.2 0 .3-.1.5-.2" fill="#000"/><path d="m43.4 4.8h.3c.5.2 1.1.3 1.6.5.4.2.6.7.8 1.1.2-.1.4-.3.5-.4-.1.7-.6 1.3-1.1 1.9-.9 1.1-2 2-3.4 2.5-.4.1-.8.2-1.2.1-.1-.7-.5-1.3-1.1-1.9-.4-.5-.8-1.1-1.1-1.7.6-.4 1.2-.7 1.9-.9 1.1-.1 2.1-.4 2.8-1.2" fill="#000"/><path d="m38 5.6c.9-.3 1.8-.5 2.7-.8-.3.3-.5.5-.7.7-.5-.2-1.1-.2-1.6.3-.2-.1-.3-.2-.4-.2v.2l-.1.2c.1 0 .1-.3.1-.4" fill="#151515"/><path d="m37.5 5c.1.7.7 1.2.5 1.9h.3c.2.3.3.5.4.7 0 .1.1.2.1.2.4.4.5 1 .5 1.5.1 0 .2-.1.3-.2.4.4.6 1.3 1.3 1.3-.2.4-.3.7 0 1.1-.1.1-.2.3-.3.4-.3.1-.5.1-.8.2-.3-.6-.8-1.1-.8-1.8-.1 0-.2 0-.3 0-.2.6-.4 1.2-.4 1.9.1.1.2.3.3.4-.2 0-.4.1-.6.1.3.1.4.3.7.4-.3 0-.6.3-.9 0-.3-.4-.3-.9-.4-1.3-.1-.1-.3-.2-.4-.3-.1-.4-.2-.9-.4-1.3.1 0 .4 0 .4-.1.2-.4.4-1 .4-1.5.1.2.3.4.4.5.3-.2.4-.4.5-.7 0 .4.1.8.2 1.2.4-.5.2-1.1.1-1.7-.4-.4-.6-.8-.8-1.2-.1 0-.3 0-.4 0-.1-.7 0-1.2.1-1.7" fill="#d0d0d0"/><path d="m25.3 6.1c.9-.3 1.8-.6 2.7-1 1.4.1 2.9.2 4.2.8 0 .5 0 1 .4 1.4-.2.1-.3.2-.4.2 0 .2.1.4.1.5-.3 0-.6-.1-.8.2-.4.6-1 1.1-1.1 1.9-.3.2-.5.4-.8.5-1-.3-2 .4-3 0 .1.1.3.2.4.4-.3 0-.6-.1-.9.1-.7.6-.7 1.8-.8 2.7-.2 1.1.4 2.3.2 3.4-.1.4-.2.7-.3 1.1-.1.3-.2.6-.4.9-.4 1.5-1.6 2.6-2.7 3.5-1.3 1.2-2.5 2.7-4 3.8-.7.4-1.6.7-2.2 1.2s-1.2 1-1.9 1.4c-.5.5-1.3.9-2 1.1l-.2-.1c.1-.1.3-.3.4-.4-.3-.1-.6-.3-.9-.4 0-.1.1-.4.2-.4.1-.2.1-.4.2-.6-.4.1-.7.2-1.1.3-.3-.1-.5-.4-.7-.6.1-.1.3-.4.4-.4.2-.3.2-.6.2-1-.2.1-.4.2-.5.4 0-.1-.1-.3-.1-.4-.1.1-.2.2-.3.3-.2.3-.1 1-.5.6h-.1c0-.1.1-.2.2-.3 0-.2 0-.3 0-.4.1-.3.3-.5.4-.7.1-.1.2-.2.3-.2.1-.1.2-.2.3-.3l.2-.2c.1-.1.2-.2.3-.3-.1-.1-.2-.3-.3-.4.2-.2.3-.4.4-.7 0-.1-.1-.3-.2-.3l-.1-.1c0-.1.1-.3.1-.4-.5-.5-1.1-1-1.1-1.8.1-.7.3-1.3.3-2 .1-.3.3-.5.4-.8.1-.2.2-.4.3-.5.2.1.4.3.5.4 0 .1 0 .4-.1.4.2-.2.9-.5.4-.7h-.1c-.1 0-.2-.1-.3-.1-.1-.3-.1-.5-.2-.8-.4-.1-.5.4-.7.6-.2.4-.4.9-.6 1.3-.1-.1-.2-.2-.3-.3.4-.4.4-1.1.3-1.6-.1.3-.3.5-.4.8-.1 0-.2-.1-.3-.1 0-1-.4-1.8-.4-2.7 0-1.1 0-2.4-.8-3.3 0-.3 0-.4-.1-.7 0-.2-.1-.4 0-.7.4-.2.5-.4.6-.5.1 0 .4-.1.5-.1.1-.1.3-.2.4-.3 0 .1.1.2.1.3.1.3.1.5.2.8h.4c0 .1.1.3.1.4-.1 0-.3 0-.4 0 0 .4 0 .7.1 1.1.2-.3.3-.5.4-.8.3 1 .5 1.9 1.3 2.7-.1.4-.1.6-.2 1l.4.4c.1-.1.2-.3.3-.4s.2-.4.3-.5c.1 0 .2-.1.2-.2l.1.1v-.1c.3.1.4.1.7.2.6-.6 1.1-1.3 1.5-2.1.4-1 1.1-1.8 1.9-2.5.1.1.2.3.3.4.2-.2.3-.4.4-.7.6-.7 1.4-1.4 2.4-1.5-.5.3-1.1.5-1.4.9.3 0 .5-.1.8-.1-.1.3-.2.4-.3.5.2 0 .4.1.6.1-.1.2-.1.4-.2.6h1.2c0-.1-.1-.4-.1-.5h.3l.1.2v.1h.1v-.1c0-.5 0-1.1-.2-1.6-.1-.1-.3-.2-.3-.3.1-.1.3-.2.3-.3-.2-.1-.3-.2-.4-.3.9-.3.6-1.4.3-2 .6-.3 1.7.4 1.2 1 .4.4 1 .6 1.6.9.1.2.2.3.3.4 0-.1 0-.4.1-.4.1.1.2.2.3.2 0 .1.1.3.2.4s.3.2.4.3c-.3.1-.3.4-.4.7h.4c.2-.4.4-.6.7-1-.1 0-.3 0-.4 0 0-.2-.1-.4-.2-.5l.2-.1c-.1-.1-.2-.2-.4-.3.4-.3.8-.7 1.1-1" fill="#000"/><path d="m33.6 5.7c.1-.1.2-.2.3-.2h.1c.1 0 .2.1.3.1 0 0 .1 0 .2.1-.3.2-.5.4-.8.6.1.1.3.3.4.4 0 .3-.1.4-.1.7.2-.4.4-.7.6-1 .2.2.4.4.6.6-.1.1-.2.2-.2.2 0 .1 0 .3.1.4-.1 0-.2.1-.3.2-.1 0 .1.1.4.1-.1 0-.2 0-.3 0 .4.2.8.4 1.1.5-.2.1-.4.3-.6.4 0-.4-.4-.4-.6-.5 0 .1.1.3.1.4-.3 0-.5.1-.8.1 0-.2 0-.4 0-.5-.3 0-.6-.1-.9-.1.4-.3.9-.3 1.3-.3-.4-.2-.7-.4-1-.6.1-.5-.2-.9-.4-1.3v-.3c.2.1.4 0 .5 0" fill="#f3f3f3"/><path d="m2.5 5.6c1.2-.1 2.7-.4 3.8.3.6.4 1.2.4 1.9.6-.2.4-.5.4-.8.3 0 .1.1.3.1.4-.4-.1-.7-.3-1.1-.4.1 0 .3-.1.4-.2-1.3-.5-2.9-.9-4.3-.3-.1-.3-.1-.4 0-.7" fill="#000"/><path d="m17 6c.4-.3.8-.4 1.2-.4 0 .1-.1.4-.1.4h.3.4c-.1.3-.3.4-.4.7-.3 0-.5 0-.8.1-.1.1-.2.2-.2.2.3-.1.5-.1.8 0-.4.4-.8.9-1.1 1.4.1.2.2.3.3.4-.1-.1-.3-.3-.4-.4-.6.7-1.3 1.2-1.9 1.9-.4.4-.6.9-1.1 1.3 0 .1.1.3.1.4-.2.1-.4.2-.5.3v.5c-.2-.1-.3-.3-.4-.4.1-.2.2-.4.3-.6 0-.1 0-.3 0-.4.4-.2.6-.4 1-.6-.1-.1-.2-.2-.3-.3.4-.5.7-1.1 1.2-1.6.1-.1.3-.2.4-.3.1.4.2.4.3.4 0-.1.1-.3.2-.4-.3-.1-.6-.2-.9-.3.3-.4.6-.6 1.1-.8 0-.1-.1-.3-.1-.4.2 0 .4 0 .5.1 0-.1-.1-.3-.1-.4.2-.1.4-.1.5-.2-.1-.1-.2-.3-.3-.4.2-.2.3-.4.4-.5-.1.3-.3.3-.4.3" fill="#eee"/><path d="m.1 7c.5-.8 1.5-1.2 2.4-1.4-.1.3-.1.4-.1.6-.4.3-.6.5-1 .8h.3c-.2.2-.4.4-.5.5v.7c-.1 0-.4 0-.5 0-.3-.3-.6-.7-.6-1.2" fill="#000"/><path d="m2.4 6.2c1.4-.6 3-.3 4.3.3-.1.2-.3.3-.4.3.4.1.8.3 1.1.4.4.4.7.7 1.1 1-.1.4-.1.7-.2 1.1-.4.5-.5 1.1-.7 1.8-.1.3 0 .4 0 .7-.8.2-1.7.6-2.6.3-1.9-.5-3.5-1.9-4.6-3.6h.5c0-.3-.1-.4 0-.7.2-.2.4-.4.5-.5-.1 0-.2 0-.3 0 .6-.5.9-.8 1.3-1.1" fill="#000"/><path d="m19.3 6.2c.3-.3.5-.5.9-.7.4.6.6 1.8-.3 2 .1.1.3.2.4.3-.1.1-.3.2-.3.3-.4-.2-.5-.4-.5-.8.2 0 .4-.1.6-.1-.3-.1-.4-.2-.6-.3.2-.1.4-.2.6-.4-.2 0-.4 0-.7.1 0-.1.1-.2.2-.3 0 .1-.2 0-.3-.1" fill="#454545"/><path d="m15.4 7c.4-.6 1.1-.7 1.6-1.1h.4c-.1.2-.3.4-.4.5.1.1.2.3.3.4-.2.1-.4.1-.5.2 0 .2.1.3.1.4-.2 0-.4 0-.5-.1 0 .1.1.3.1.4-.4.2-.7.4-1.1.8l.9.3c0 .1-.1.3-.2.4-.1 0-.3-.1-.4-.2-.1.1-.3.2-.4.3-.2 0-.4 0-.5 0 .2-.6.5-1.1.8-1.7.1-.3-.1-.5-.2-.6" fill="#e6e6e6"/><path d="m22.1 6c.3-.2.5.2.4.4-.1.1-.4-.2-.4-.4" fill="#383838"/><path d="m10.3 6.3h.3c0 .4 0 .7.1 1.1 0 .4-.2 1 .2 1.3.1.2.3.3.4.4 0-.1.1-.2.1-.3.3.1.5.3.7.4l-.2-.2c.1.1.2.2.2.3-.2.2-.4.4-.6.5v.4c-.3-.1-.6-.2-.9-.4 0 .4 0 .7-.1 1.1-.1-.4-.1-.7-.2-1-.1-.1-.2-.3-.3-.4-.1-.7.2-1.3.2-2-.3.2-.4.4-.4.8-.2 0-.4.1-.5.1 0 .4.1.8.1 1.1-.1-.4-.3-.7-.5-1 0 .4-.1.9-.1 1.3 0-.2-.1-.4-.1-.5-.1.3-.3.6-.5 1-.1.2-.2.3-.4.4.1-.6.3-1.2.7-1.8.4-.4.7-.8 1.1-1.2.4-.2 1.1-.7.7-1.4l-.2-.1c.1.1.2.1.2.1" fill="#e4e4e4"/><path d="m19.1 6.2c0 .1 0 .1 0 0" fill="#3d3d3d"/><path d="m24.3 6.3c.4 0 .8-.1 1.1-.2-.4.3-.8.6-1.1 1.1.1.1.2.2.4.3l-.2.1c-.4.1-.2.7.2.5h.4c-.3.3-.5.6-.7 1-.1 0-.4 0-.4 0 .1-.3.1-.5.2-.9-.1-.1-.3-.2-.4-.3s-.2-.3-.2-.4c-.1-.1-.2-.2-.3-.2-.2-.2-.4-.4-.7-.5h.4.4c.1 0 .2.1.2.1.1 0 .2.1.3.2.1-.2.2-.5.4-.8" fill="#000"/><path d="m23.4 6.2c.2.1.3.2.4.3-.1.2-.1.4-.2.5-.1 0-.2-.1-.2-.1 0-.1 0-.5 0-.7" fill="#e4e4e4"/><path d="m7.4 6.8c.4.1.6.1.8-.3.2.1.4.1.5.1 0 .1 0 .2-.1.3.4.3.7.6 1 1-.4.4-.8.8-1.1 1.2.1-.3.1-.6.2-1-.4-.4-.8-.6-1.1-1-.1-.1-.2-.3-.2-.3" fill="#000"/><path d="m8.7 6.7c.5.2 1.1.1 1.6-.2l.1.1c.4.5-.4 1.1-.8 1.3-.3-.4-.6-.7-1-1 0-.1.1-.2.1-.2" fill="#000"/><path d="m35.7 6.5c.3-.2.6.2.4.4s-.5-.1-.4-.4" fill="#a3a3a3"/><path d="m11 7.2c.4-.2.9-.4 1.3-.5.2.1.4.3.5.4-.2.3-.4.6-.6.9.1.2.2.3.4.4-.3.1-.6.3-.9.4.1.1.2.2.3.4l.1.2c-.3-.1-.4-.3-.7-.4 0 .1-.1.2-.1.3-.1-.2-.3-.3-.4-.4-.4-.4-.2-.9-.2-1.3 0-.3.2-.4.3-.4" fill="#fcfcfc"/><path d="m18.9 7.9c.2-.2.4-.4.6-.6 0 .4.2.7.5.8l.1.1c-.3 0-.6 0-.9 0 .4.2.8.4 1.1.3.2.5.2 1.1.2 1.6h-.1l-.1-.2c.1-.2-.4-.7-.4-.3 0 .1.1.2.2.3 0 .1.1.4.1.5-.4 0-.8 0-1.2 0 .1-.2.1-.4.2-.6-.2 0-.4-.1-.6-.1.1-.2.2-.3.3-.4-.3.1-.5.1-.8.1.4-.4.9-.6 1.4-.9-1 .1-1.8.8-2.4 1.5.4-1 1.4-1.4 2.2-1.9-.2-.1-.3-.2-.4-.2" fill="#0f0f0f"/><path d="m33.5 7.2c.4.2.7.4 1 .6-.4 0-1-.1-1.3.3.3 0 .6.1.9.1v.5c.3 0 .5 0 .8-.1.1.1.4.2.4.3s.2.3.2.3c-.5-.2-1-.3-1.5-.4.1.3.3.4.4.7-.1 0-.3.1-.4.1.4 0 .8 0 1.1.3h-.4c-.1 0-.3.1-.4.1.3.2.5.4.7.5-.1 0-.2.1-.3.1 0 .1 0 .2.1.3 0 .1-.1.3-.1.4-.2-.2-.4-.3-.6-.4.1.3.3.5.4.8-.1 0-.3 0-.4 0-.2-.2-.4-.3-.5-.4-.2-.1-.4-.2-.6-.3-.3-.4-.4-.8-.6-1.1-.3-.2-.5-.4-.8-.5-1.5 1.1-3.1 2.4-5 2 1 .1 2-.2 2.8-.7.3-.2.5-.3.8-.5.7-.5 1.5-1 2-1.7.6-.4 1-.9 1.3-1.3" fill="#fff"/><path d="m35.2 7.2c.4-.1.6.4.7.6-.3-.1-.8-.2-.7-.6" fill="#777"/><path d="m13.7 7.4c.2.4.2.9.1 1.4.1.1.2.3.3.3h.4c-.4.6-.5 1.3-.5 2-.1 0-.3-.1-.4-.1 0-.6.3-1.4-.3-1.9.5-.4.3-1.1.4-1.7" fill="#dedede"/><path d="m24.6 8.1c-.4.1-.6-.4-.2-.5.1.1.2.3.2.5" fill="#383838"/><path d="m10 8.3c0-.4.2-.6.4-.8 0 .7-.3 1.3-.2 2-.1.3-.4.4-.5.6-.2-.2-.3-.4-.4-.6-.1.3-.2.5-.2.8 0-.1-.1-.2-.1-.3-.1.1-.3.2-.4.3-.2 0-.4 0-.5.1.2-.4.4-.7.8-1 0 .1.1.4.1.5 0-.4 0-.9.1-1.3.3.3.4.6.5 1 0-.4-.1-.8-.1-1.1.1-.2.4-.2.5-.2" fill="#000"/><path d="m35.8 7.8s.1 0 0 0c.1.1.1.1 0 0" fill="#777"/><path d="m35 8h.3c.3 0 .6.3.8 0 .3.4.4.7.6 1.1-.3-.3-.4-.4-.6-.6-.4-.2-.8-.3-1.1-.5" fill="#777"/><path d="m19.2 8.2h.9c.1.1.3.2.3.3-.4 0-.8-.2-1.2-.3" fill="#7d7d7d"/><path d="m36.6 8.1c.3-.1.4.3.3.4-.3.2-.4-.2-.3-.4" fill="#959595"/><path d="m34.8 8.3c.3.1.6.3.6.5l-.1.1c-.1-.1-.4-.2-.4-.3s-.1-.3-.1-.3" fill="#232323"/><path d="m35.7 9.1c.3-.1.8.3.7.5-.3.1-.7-.2-.7-.5" fill="#afafaf"/><path d="m19.9 9.5c0-.4.5.1.4.3-.1 0-.2 0-.3 0 .1 0 0-.2-.1-.3" fill="#969696"/><path d="m9.8 10.2c.2-.2.4-.4.5-.6.1.1.2.3.3.4 0 .4.1.7.2 1s.2.4.3.7c-.1.5.1 1.1.4 1.6.1 0 .4-.1.4-.2l-.1.2c-.1.5-.4 1.1-.1 1.5v.6c-.1.1-.2.3-.3.4-.1-.1-.4-.3-.4-.4.1-.4.1-.6.2-1-.8-.6-1.1-1.7-1.3-2.7-.2.3-.3.5-.4.8 0-.4-.1-.7-.1-1.1h.4c0-.1-.1-.3-.1-.4-.1 0-.3 0-.4 0-.1-.3-.1-.5-.2-.8.1-.3.2-.5.2-.8.1.4.3.5.5.8" fill="#000"/><path d="m26.7 11.4c1.9.4 3.6-1.1 5-2 0 .2-.1.4-.2.6.4.5 1 .9 1.6 1.1.2.1.4.2.6.3.2.2.4.3.5.4.4.5.3 1.1.4 1.8.4.4 1 1 1.1 1.7.3.3.4.7.4 1.1-.1.4 0 .8.3 1.1.1.6.6 1.1 1 1.5-.4.4-.6 1-.5 1.5-.5.1-.6.6-.9 1-.4.1-.8 0-1.2-.1-.5.2-1.1.5-1.7.2-.1.1-.2.2-.2.3 0-.1 0-.4 0-.4-.3.1-.6.3-.9.4-.2-.1-.3-.3-.4-.4-.1.1-.3.2-.4.3-.1-.2-.3-.4-.4-.6-.4 0-1.1.5-1.4.1-.2-.2-.4-.4-.6-.5 0-.4-.2-.8-.4-1.1-.3.2-.5 0-.7-.3-.4-.5-.8-1.1-.7-1.9-.1-.4-.4-.7-.4-1.1s.1-1-.3-1.3c0-.4.1-.9.3-1.2-.2-.2-.5-.3-.6-.5-.1-.4-.1-.9-.3-1.3.2-.2.4-.4.5-.5.2-.3.4-.2.5-.2" fill="#000"/><path d="m31.9 9.4c.3.2.5.4.8.5.2.4.4.8.6 1.1-.6-.3-1.1-.6-1.6-1.1.1-.1.2-.3.2-.5" fill="#000"/><path d="m20.5 10h.1v.1h-.1z" fill="#5b5b5b"/><path d="m34.9 9.9h.4c.4.1.9.3 1.3.4-.6-.2-1.1-.4-1.7-.4" fill="#fff"/><path d="m38.8 10.2h.3c-.1.7.4 1.2.9 1.8.3-.1.5-.1.8-.2-.3.6-.4 1.2-.4 1.9-.3.9-.6 1.9-.3 2.8.1.4.4.6.6.7 0 .1.1.3.1.4.1.7.4 1.2.6 1.9.5.9.7 1.9 1.1 2.8-.5-.4-.8-1-1-1.6-.2-.1-.4-.2-.5-.3.1-1.1-.1-2.3-.8-3.3-.1.1-.2.2-.4.3-.2-.5-.2-1.2-.7-1.6-.3-.1-.5-.1-.8-.1 0-.1-.1-.3-.1-.4-.3.4-.7.5-1.1.4 0 .4.1.9 0 1.3-.4-.3-.7-.5-1.1-.9 0-.4-.1-.8-.4-1.1-.2-.7-.6-1.2-1.1-1.7 0-.6 0-1.2-.4-1.8h.4c-.1-.3-.3-.5-.4-.8.2.1.4.3.6.4l.1.1c-.4.5.2 1 .4 1.4.4.4.5 1.1.6 1.6 0-.4 0-.7.1-1.1.5.9.3 1.9.4 3 .4-.6.4-1.3.5-2 .2 0 .4 0 .5.1.4.1.7.2 1.1.2 0-.5.3-1.1.5-1.6-.2 0-.4-.1-.5-.1-.3-.1-.4-.2-.7-.4.2-.1.4-.1.6-.1-.1-.1-.2-.3-.3-.4.5-.4.7-1 .8-1.6" fill="#d8d8d8"/><path d="m41 10.6c.4.1.8.1 1.2-.1-.3.3-.7.2-1.1.3.3.9.3 1.9 0 2.8.1-.6.1-1.1 0-1.8l-.1-.3c-.3-.2-.2-.7 0-.9" fill="#898989"/><path d="m12.3 10.7c.3 0 .4.2.6.4-.1.3-1-.1-.6-.4" fill="#f4f4f4"/><path d="m19 11c.6-.4 1.5-.4 1.9.2-.3 0-.4 0-.7 0-.4-.1-.7-.1-1.1-.1 0-.1 0-.1-.1-.1" fill="#484848"/><path d="m26.6 10.8c1.1.3 2-.3 3 0-.9.5-1.9.8-2.8.7-.2-.1-.4-.1-.6-.2 0 0-.1 0-.2 0 .3-.2.6-.1.9-.1-.1-.2-.2-.3-.3-.4" fill="#000"/><path d="m11.6 11c.1 0 .2-.1.3-.2.3.4.8.7 1.1 1.1-.5.4-1.1.6-1.8.7.1-.2.3-.4.4-.5-.1 0-.4 0-.5 0 .2-.3.3-.6.5-.8.1-.1 0-.2 0-.3" fill="#ebebeb"/><path d="m18.9 10.9c.1.1.2.2.3.2.4 0 .7 0 1.1.1-.2.2-.4.1-.6.2-.2.2-.3.4-.5.6-.1.2-.2.3-.2.4-.2-.3-.4-.5-.6-.8 0-.3.3-.5.5-.7" fill="#000"/><path d="m25.1 13.8c.1-.9.1-1.9.8-2.7h.2c-.2.2-.4.4-.5.5.2.4.2.9.3 1.3.1.3.4.4.6.5-.1.4-.2.8-.3 1.2.4.4.3.8.3 1.3 0 .4.2.7.4 1.1 0 .7.3 1.3.7 1.9-.3.1-.4.3-.7.4 0-.2.1-.4.1-.5-.2.1-.4.1-.5.2.1-.2.2-.3.3-.4-.1-.2-.2-.4-.2-.7-.1.1-.3.2-.4.3-.2-.2-.3-.4-.4-.5-.1.2-.3.3-.4.4 0-.3 0-.6.1-1 0-1-.5-2-.4-3.3" fill="#fff"/><path d="m13.6 11.9c-.3-.1-.3-.2 0-.4z" fill="#a4a4a4"/><path d="m40.7 11.9c.1-.1.2-.3.3-.4l.2.3c.1.6.1 1.1 0 1.8-.2 1.3-.4 2.6-.4 3.9v.3c0-.1-.1-.3-.1-.4-.3-.6-.4-1.3-.4-2 .4-.4.5-1.1.1-1.5-.1-.8 0-1.4.3-2" fill="#000"/><path d="m36.7 12v.5c.2 0 .4.1.6.1-.1.2-.3.3-.4.4.6-.1.8.6 1.1 1-.3-.1-.4-.1-.7-.2 0-.1.2-.3.2-.4-.5-.1-.9-.4-1-.9-.1 0-.2-.1-.3-.1.2-.2.3-.3.5-.4" fill="#919191"/><path d="m11.8 13.2c.4-.3.9-.5 1.3-.8 0 .3.1.6.1.9-.2.5-.6 1-1.1 1.3 0 0-.1.1-.2.2s-.2.4-.3.5c0-.2 0-.4 0-.6-.3-.4 0-1 .2-1.5" fill="#e5e5e5"/><path d="m19 13.3c.6-.4 1.4-.4 2-.2-.1 0-.4 0-.4 0 .1.5-.1.9-.4 1.3.1-.4.3-.7.2-1.1-.2.3-.4.4-.6.7-.2-.1-.3-.2-.3-.3.2-.3.5-.4.7-.6-.7-.4-2.1.4-1.5 1.3.2.4.5.4.9.4-.4 0-1 .3-1.2-.1-.2-.5 0-1.1.6-1.4" fill="#fdfdfd"/><path d="m30.3 13.1c.8-.4 1.9-.4 2.5.4-.1.2-.2.4-.3.5-.1 0-.2-.1-.3-.2 0-.1 0-.4 0-.4v-.2c-.4-.1-.6-.2-1-.2-.1.4-.4.9-.1 1.2.2.4.7.3 1.1.3-.1.1-.3.2-.4.3v.2c-.4-.3-1.1-.5-1.2-1.1 0-.2.1-.5.1-.6-.2-.2-.3-.2-.4-.2" fill="#2b2b2b"/><path d="m31.2 13c.4.1.6.1 1 .2v.2c-.1 0-.4 0-.4 0v.4h.4c.1.1.2.2.3.2-.1.1-.3.4-.4.4-.4 0-.9.2-1.1-.3-.2-.2.1-.7.2-1.1" fill="#000"/><path d="m38.2 13.6c.4-.2.7-.4 1.1-.5-.3.5-.5 1-.5 1.6-.4 0-.7-.1-1.1-.2.2-.1.4-.3.6-.4 0-.3 0-.4-.1-.5" fill="#919191"/><path d="m31.8 13.5h.4v.4c-.2 0-.3 0-.4 0 0-.2 0-.3 0-.4" fill="#fdfdfd"/><path d="m32.5 14.1c.1-.2.2-.4.3-.5.3.4.5.9.2 1.3-.4.2-.7 0-1.1 0 .1-.1.3-.2.4-.3-.1-.2.1-.4.2-.5" fill="#fff"/><path d="m40 16.6c-.4-.9 0-1.9.3-2.8.5.4.3 1.1-.1 1.5.1.7.2 1.4.4 2-.3-.1-.5-.4-.6-.7" fill="#bebebe"/><path d="m12.2 14.6c0 .1 0 .1 0 0" fill="#aeaeae"/><path d="m17.5 14.7c.5 0 .4.7.5 1.1-.2 0-.5 0-.7 0 0-.4 0-.8.2-1.1" fill="#000"/><path d="m37.2 15.9c.4.2.9 0 1.1-.4 0 .1.1.3.1.4.3 0 .5-.1.8.1.5.4.6 1 .7 1.6.1-.1.2-.2.4-.3.7.9.9 2.1.8 3.3.2.1.4.2.5.3.2.6.4 1.1 1 1.6.5.6 1.1 1.3 1.6 2 0 .1-.1.3-.2.3-.2-.1-.4-.3-.6-.4h.2c-.6-.5-1.3-.8-2-1.1-1.1-1.2-1.8-2.8-2.4-4.2-.2-.8-.2-1.7-.4-2.5-.5.5-.9 1.2-.9 1.9.1 0 .3-.1.4-.2-.3.5-.3 1.1-.2 1.8-.2.2-.4.4-.5.6 0 .2.1.4.1.5-.2 0-.4 0-.5 0-.4.4-1 1.1-.5 1.7.8.7 1.6 1.3 2.4 2 .4.4.4.9.7 1.3.3-.4.5-.8.6-1.2.4-.1.7-.1 1.1-.2 0 .1-.1.4-.1.5.2 0 .4 0 .5.1-.4.1-.9.1-1.2.2-.3.5-.5 1.1-1 1.4-.4-.8-.9-1.5-1.5-2.1-.3-.5-.7-1-1.3-1.2-.2.1-.4.2-.5.3.1.3.2.4.3.7-.1 0-.2-.1-.3-.1-.4-.4-.8-.9-1.1-1.3.3.9.9 1.6.9 2.6-.2-.2-.4-.3-.5-.4-.6-.8-1.2-1.6-1.8-2.4-.2-.2-.1-.4-.2-.7-.3-.2-.4-.3-.7-.4v-.1c.1-.1.2-.2.2-.3.5.4 1.1 0 1.7-.2.4.2.8.3 1.2.1.4-.3.4-.9.9-1-.2-.6 0-1.1.5-1.5-.4-.4-.9-.9-1-1.5-.3-.3-.4-.7-.3-1.1.4.4.7.6 1.1.9-.1-.6-.1-1-.1-1.4" fill="#ebebeb"/><path d="m17.5 15.9c.4 0 .9.2 1.2.4-.3.5-1.1.1-1.2-.4" fill="#000"/><path d="m19.2 16.3c.3-.2.4-.1.4.2-.2.1-.3.1-.4-.2" fill="#000"/><path d="m38.7 16.4c.3.8.2 1.7.4 2.5-.2 0-.4-.1-.5-.1 0 .7.3 1.4.4 2.1-.3.3-.4.5-.7.8h.4v.5c.2.3.4.6.6.9.3.1.5.1.8.2-.2.1-.4.2-.5.3.7.2 1.5.3 1.9.9v.3c-.4.1-.7.2-1.1.2-.2.4-.4.8-.6 1.2-.2-.4-.4-.9-.7-1.3-.7-.7-1.6-1.3-2.4-2-.4-.6.1-1.3.5-1.7h.5c0-.2-.1-.4-.1-.5.2-.2.4-.4.5-.6-.1-.6-.1-1.2.2-1.8-.1.1-.3.2-.4.2 0-.9.3-1.5.8-2.1" fill="#f5f5f5"/><path d="m18.4 16.7c.3.1.6.1.9.4-.2.5-1 .2-.9-.4" fill="#000"/><path d="m16.1 16.9c.3.1.7 0 .5.4-.2.2-.4.4-.7.5.1-.3.1-.5.2-.9" fill="#000"/><path d="m25.1 18.4c.1-.4.2-.7.3-1.1 0 .3-.1.6-.1 1l.1.1c.4.2.6.4.6.9.1.1.3.2.3.2.2.4.5.8 1 1 .2-.1.4-.3.6-.4.3.1.4.3.7.4l.2.2c.2.2.4.4.6.5.4.4 1-.1 1.4-.1.1.2.3.4.4.6.1-.1.3-.2.4-.3.1.1.3.2.4.4.3-.2.6-.3.9-.4v.4.1c.3.2.4.3.7.4.1.3 0 .5.2.7.6.8 1.1 1.6 1.8 2.4-.6-.1-1.2-.1-1.7-.5-.5-.7-1.1-1.6-2-1.8.4.5 1 .9 1.3 1.5-1.3-.4-2.3-1.3-3.3-2.1-.8-.7-1.7-1.1-2.7-1.5 0-.1 0-.2 0-.3-.8-.4-1.2-1.3-2-1.8-.1-.1-.1-.4-.1-.5" fill="#dfdfdf"/><path d="m10.2 18.1c.2-.3.3-.6.7-.6.1.3.1.5.2.8.1 0 .2 0 .3.1h.1c.5.2-.3.5-.4.7 0-.1 0-.4.1-.4-.2-.1-.4-.3-.5-.4-.1.2-.2.4-.3.5-.2.3-.3.5-.4.8-.1 0-.2-.2-.2-.2 0-.5.2-.9.4-1.3" fill="#000"/><path d="m40.8 17.4c.5.4.6 1.1.9 1.7.4.8.8 1.6 1.1 2.5.3 1.1 1.1 1.8 1.8 2.7 0 .2-.1.4-.1.5-.1.1-.3.2-.4.3h-.2c0-.1.1-.3.2-.4 0-.1.1-.3.2-.3-.5-.6-1.1-1.3-1.6-2-.4-.9-.6-1.9-1.1-2.8-.2-.7-.4-1.2-.6-1.9-.2-.1-.2-.2-.2-.3" fill="#c5c5c5"/><path d="m9.3 18.3c.1-.3.2-.5.4-.8.2.5.1 1.1-.3 1.6l.3.3s.2.2.2.2c0 .7-.2 1.4-.3 2 0 .8.6 1.3 1.1 1.8 0 .1-.1.3-.1.4-.2 0-.4-.1-.6-.2-.1-.2-.2-.4-.3-.6-.2.2-.4.3-.5.4 0-.4 0-.8 0-1.1-.2.1-.4.2-.6.2.7-.8.3-1.9.4-2.7.1-.5.1-1 0-1.4.2-.2.2-.1.3-.1" fill="#000"/><path d="m25.3 18.2c.1-.2.3-.3.4-.4.2.2.3.4.4.5.1-.1.3-.2.4-.3 0 .3.1.4.2.7-.1.1-.2.3-.3.4.2-.1.4-.1.5-.2 0 .2-.1.4-.1.5.3-.1.4-.2.7-.4.2.3.4.4.7.3.3.4.4.7.4 1.1l-.2-.2c-.2-.2-.4-.3-.7-.4-.2 0-.4.2-.6.4-.4-.2-.7-.5-1-1-.1-.1-.3-.2-.3-.2 0-.4-.3-.7-.6-.9z" fill="#f5f5f5"/><path d="m11.3 18.3c.1 0 .1 0 0 0" fill="#434343"/><path d="m24.8 19.3c.1-.3.3-.6.4-.9v.5c.7.5 1.1 1.4 2 1.8v.3c.3.5.8.7 1.1 1.1-1.1-.5-1.9-1.5-2.9-2.2v.3c-.3-.2-.4-.6-.6-.9" fill="#afafaf"/><path d="m17.4 20.3c.1-.6.2-1.1.6-1.6 0 .4.3 1 0 1.3-.4-.3-.5.1-.6.3" fill="#000"/><path d="m38.6 18.8c.2 0 .4.1.5.1.7 1.5 1.3 3.1 2.4 4.2.7.4 1.5.6 2 1.1h-.2c-.4.1-1 .2-1.4.4v.6c-.1 0-.2 0-.2.1-.2 0-.4 0-.5-.1 0-.1.1-.4.1-.5s0-.2 0-.3c-.4-.6-1.2-.7-1.9-.9.2-.1.4-.2.5-.3-.3-.1-.5-.1-.8-.2-.2-.3-.4-.6-.6-.9 0-.2 0-.4 0-.5-.1 0-.3 0-.4 0 .2-.3.4-.5.7-.8 0-.6-.2-1.2-.2-2" fill="#fcfcfc"/><path d="m25.4 19.9c1 .7 1.8 1.8 2.9 2.2.5.4 1.1.8 1.7 1.1.6.4 1 1.1 1.5 1.5 1.3.9 2.7 1.9 4.2 2-.4-.6-1.1-.8-1.6-1.4.7.4 1.4.7 1.9 1.3.1.3.2.5.3.8-1.2-.1-2.5-.5-3.4-1.2-.5-.4-1.2-.6-1.7-1.1-1.2-1.4-3-2.1-4.3-3.4-.4-.5-1.3-.7-1.4-1.4-.1-.2-.1-.3-.1-.4" fill="#484848"/><path d="m27.2 20.9c.9.4 1.9.8 2.7 1.5 1.1.8 2 1.8 3.3 2.1-.4-.6-1-1-1.3-1.5.9.2 1.5 1 2 1.8.1.2.2.4.3.7.4.6 1.1.9 1.6 1.4-1.7-.1-2.9-1.2-4.2-2-.5-.4-.9-1.1-1.5-1.5-.5-.4-1.1-.7-1.7-1.1-.4-.6-1-.9-1.2-1.4" fill="#c3c3c3"/><path d="m8.5 22.5c.2-.1.4-.2.6-.2v1.1c-.4.3-.9.6-1.4.9l.1-.3c.2-.6.5-1.1.7-1.5" fill="#000"/><path d="m9.2 23.4c.2-.1.4-.3.5-.4l.3.6c.2.1.4.1.6.2l.1.1c-.4 0-.8 0-1.2.1s-.5.4-.5.7c.4 0 .6.1 1 .1 0 .1-.1.2-.2.3-.4-.1-.7-.2-1.1-.3-.5.3-1 .7-1.6.7.3-.4.5-.7.9-1 .3-.5.7-.8 1.2-1.1" fill="#fbfbfb"/><path d="m35.9 25.7c0-.9-.6-1.7-.9-2.6.4.4.8.9 1.1 1.3.3.7.4 1.5.4 2.2.1 0 .2.1.3.2.1-.1.2-.3.3-.3.1.3.2.4.4.7-.1.1-.2.3-.2.3-.1 0-.3 0-.4 0-.2-.2-.4-.4-.6-.7-.1 0-.3-.1-.4-.2-.5-.6-1.2-.9-1.9-1.3-.1-.2-.2-.4-.3-.7.4.4 1.1.4 1.7.5.3.3.4.5.5.6" fill="#d0d0d0"/><path d="m36.2 23.9c.2-.1.4-.2.5-.3.5.3 1 .7 1.3 1.2-.2 0-.4 0-.5 0-.1.1-.2.3-.2.4h.3c-.5.7.2 1.5.4 2.2-.2 0-.4.1-.5.1h-.2c.1-.1.2-.3.2-.3-.1-.3-.2-.4-.4-.7-.1.1-.2.3-.3.3s-.2-.1-.3-.2c-.1-.8-.2-1.5-.4-2.2.1 0 .2.1.3.1.1-.2 0-.4-.2-.6" fill="#dedede"/><path d="m8.8 24.5c0-.4.3-.6.5-.7.4.4.7.6 1.1 1 .1.1.2.3.3.4-.1.1-.2.2-.3.3-.1-.2-.3-.5-.4-.5-1.1.1-2 .4-3 .6 0-.1-.1-.3-.1-.4.6 0 1.1-.4 1.6-.7.4.2.7.3 1.1.3.1-.1.2-.2.2-.3-.4.1-.6 0-1 0" fill="#dbdbdb"/><path d="m9.3 23.8c.4-.1.8-.1 1.2-.1.1.1.2.3.2.3-.1.3-.2.5-.4.7-.3-.2-.6-.5-1-.9" fill="#bebebe"/><path d="m6.5 26.4c-.2-1.1.8-1.7 1.3-2.4l-.1.3c-.3.4-.6.7-.9 1v.4c.1.2.3.4.4.5-.1 0-.4 0-.4 0 .1.6.2 1.3.7 1.8-.1-.4-.2-.9-.3-1.3.2-.2.4-.4.6-.4.2.2.3.4.4.5.3.2.6.1 1 .1v.4c-.1.1-.2.2-.2.3.1.4.6.4 1 .5.2.3.4.5.7.6l.9.3c0 .1-.1.4-.2.4.3.2.6.3.9.4-.1.1-.3.3-.4.4l.2.1h.1c-.9.4-1.7-.2-2.6-.1-.6.1-1.1-.3-1.5-.6s-.8-.1-1.1-.4c-.1-1-.5-1.9-.5-2.8" fill="#000"/><path d="m42 24.7c.4-.2.9-.3 1.4-.4.2.1.4.3.6.4 0 .1-.1.3-.2.4-.6-.2-1.2-.1-1.8.2 0-.2 0-.4 0-.6" fill="#ddd"/><path d="m44.4 24.9c0-.2 0-.4.1-.5.4.5.4 1.2.4 1.9l-.2-.3c-.3-.2-.5-.2-.9-.3 0-.1 0-.3 0-.4.1-.1.2-.2.3-.3 0 0 .2 0 .3-.1" fill="#919191"/><path d="m37.5 24.9h.5c.6.6 1.1 1.3 1.5 2.1.1.2.3.3.4.4-.4.2-.6.3-1 .4.1.2.2.4.2.5-.1 0-.3 0-.4 0-.6-.3-1.2-.5-1.8-.8h.4.2c.2 0 .4-.1.5-.1-.3-.7-1-1.5-.4-2.2-.1 0-.2 0-.3 0 .1-.1.1-.2.2-.3" fill="#c7c7c7"/><path d="m7 25.6c1-.3 2-.6 3-.6.1.1.3.4.4.4 0 .1-.2.2-.2.2-.4 0-.8-.1-1.1 0-.4.2-.8.4-1.2.5-.2.1-.4.3-.6.4 0 .4.2.9.3 1.3-.5-.4-.5-1.1-.7-1.8h.4c-.1-.2-.3-.4-.4-.5h.1" fill="#bdbdbd"/><path d="m42 25.3c.5-.3 1.2-.4 1.8-.2h.2c-.1.1-.2.2-.3.3-.3.3-.6.5-1 .7-.1-.1-.2-.3-.2-.4-.3-.1-.6-.1-.9-.1s-.5 0-.7 0c-.2.3-.3.5-.4.8 0-.3.1-.6.1-.9.4-.2.8-.2 1.2-.2z" fill="#b9b9b9"/><path d="m6.9 25.7c0-.1 0-.3 0-.4z" fill="#fff"/><path d="m9.1 25.6h1.1c-.1.1-.2.2-.3.3-.2-.4-.7 0-.3.2-.3.2-.4.4-.4.7-.4 0-.7.1-1-.1-.2-.2-.3-.4-.4-.5.4-.3.8-.4 1.3-.6" fill="#969696"/><path d="m42.8 26.1c.4-.3.6-.4 1-.7v.4.5c-.1 0-.3 0-.4 0 .2.2.4.3.6.4-.2.2-.4.3-.5.4.4.1.4.4.4.7-.4.6-1.1.8-1.8 1.1.1.1.4.3.4.3-.2 0-.4 0-.6.1.1-.2.2-.4.3-.6-.1 0-.4.1-.5.1 0-.1 0-.4.1-.4.3-.1.6-.2 1-.3.1 0 .4-.1.4-.1-.2-.5-.7-.7-1.1-1-.2-.3-.3-.5-.4-.8 0-.1.1-.4.1-.5.3 0 .6.1.9.1-.1 0 0 .2.1.3" fill="#a3a3a3"/><path d="m9.7 26.1c-.4-.2.1-.6.3-.2-.1 0-.2.1-.3.2" fill="#fbfbfb"/><path d="m39.5 27c.4-.4.7-.9 1-1.4 0 .3-.1.6-.1.9-.2.5-.2 1-.4 1.5-.3.3-.6.4-1 .4-.1-.2-.2-.4-.2-.5.4-.2.6-.3 1-.4 0-.3-.1-.4-.3-.5" fill="#bcbcbc"/><path d="m41 25.7h.7c0 .2-.1.4-.1.5-.2-.1-.4-.2-.5 0 0 .5.1 1.1.2 1.6v.8c-.2-.1-.4-.1-.5-.2v.4c-.9 0-1.7-.3-2.6-.3.3-.1.5-.1.7-.2h.4c.4-.1.7-.1 1-.4.2-.5.2-1 .4-1.5-.1-.2.1-.5.3-.7" fill="#747474"/><path d="m42 25.9v.2c.3 0 .5.1.5.4-.2-.1-.4-.3-.6-.4 0 0 .1-.2.1-.2" fill="#000"/><path d="m43.8 25.7.9.3c.1.2.2.4.3.6-.3.3-.5.4-.8.7.4-.1.7-.1 1-.2 0 .1-.1.2-.1.3-.2 0-.4 0-.7 0-.1 0-.3-.1-.3-.2 0 .1-.1.4-.2.4 0-.3-.1-.6-.4-.7.2-.2.4-.3.5-.4-.2-.1-.4-.3-.6-.4h.4s0-.3 0-.4" fill="#676767"/><path d="m41 26.2c.2-.2.4-.1.5 0 .2.3.3.5.4.8-.3.3-.5.5-.8.8 0-.6-.1-1.1-.1-1.6" fill="#000"/><path d="m12.4 26.2c.1.4.1.9-.3 1.1.1-.4.1-.8.3-1.1" fill="#000"/><path d="m44.8 26.6c-.1-.2-.2-.4-.3-.6l.2.2c.3.3.3.7.3 1.1-.4.1-.7.1-1 .2.3-.3.6-.6.8-.9" fill="#000"/><path d="m9.7 27c.1-.1.2-.2.3-.3 0 .1.1.3.1.4.2-.1.4-.2.5-.4-.1.4-.1.6-.2 1-.4-.3-.5-.5-.7-.7" fill="#313131"/><path d="m36 26.7c.1 0 .3.1.4.2.2.3.4.4.6.7.5.4 1.1.5 1.8.8-.3 0-.5.1-.7.2-.1 0-.3.1-.4.2-.6-.2-1.2-.5-1.4-1.1-.1-.5-.2-.7-.3-1" fill="#777"/><path d="m9.7 27c.2.3.4.4.6.7-.1.1-.3.3-.3.4-.4-.1-.9 0-1-.5h.1.1c.3.4.3-.4.5-.6" fill="#ccc"/><path d="m41.1 27.8c.3-.3.6-.5.8-.8.4.3.9.4 1.1 1 0 0-.3 0-.4 0-.5 0-.9-.1-1.5-.2" fill="#000"/><path d="m44 27.3c.1 0 .3.1.3.2h.7c-.3.4-.5.9-1.1 1.2-.8.4-1.6 1.1-2.6 1.1-.7 0-1.4-.1-2.1-.4.7.1 1.5.2 2.2-.1 0-.1.1-.3.1-.4v-.3c.1 0 .4-.1.5-.1-.1.2-.2.4-.3.6.2 0 .4 0 .6-.1-.1-.1-.4-.2-.4-.3.7-.3 1.4-.4 1.8-1.1.2.1.3-.2.3-.3" fill="#000"/><path d="m41.1 28.6c0-.3 0-.5 0-.8.4.2 1 .3 1.5.3-.4.1-.6.2-1 .3 0 .1 0 .4-.1.4v.2c-.4 0-.7-.1-1-.1 0-.1 0-.4 0-.4.3 0 .5 0 .6.1" fill="#535353"/><path d="m7.3 28.2c.2-.2.5.1.4.3s-.5-.1-.4-.3" fill="#2b2b2b"/><path d="m10.7 28.7c.4-.1.7-.2 1.1-.3-.1.2-.1.4-.2.6-.3-.1-.7-.2-.9-.3" fill="#777"/><path d="m37.7 28.7c.1 0 .3-.1.4-.2.9 0 1.7.3 2.6.3.4 0 .6.1 1 .1 0 .1-.1.3-.1.4-.7.3-1.5.1-2.2.1-.6-.1-1.2-.4-1.7-.7" fill="#232323"/><path d="m9 29.1c.3-.1.4 0 .3.3-.3.1-.4 0-.3-.3" fill="#000"/><g fill="#231f20"><path d="m62.8 14.6h-4.2v5.1c0 1.7.2 2.8 2.2 2.8.5 0 1.5-.1 1.9-.4v4c-1.1.4-2.2.4-3.4.4-3.2 0-5.6-1.3-5.6-4.7v-7.3h-3v-3.8h3v-4.6h4.8v4.6h4.2z"/><path d="m80 26.2h-4.6v-2.1h-.1c-.6 1.2-2.2 2.5-4.5 2.5-4.8 0-5.7-3.2-5.7-7.2v-8.5h4.8v7.5c0 1.8 0 4.1 2.5 4.1s2.8-1.9 2.8-3.9v-7.7h4.8z"/><path d="m92.8 15.9c-.4-.7-1.3-1.1-2.4-1.1-2.4 0-3.8 1.6-3.8 3.9s1.4 3.9 3.8 3.9c1.1 0 1.8-.5 2.3-1.1l3.1 3.3c-1.5 1.5-3.7 2-5.5 2-4.8 0-8.6-3.2-8.6-8s3.8-8 8.6-8c1.8 0 4 .5 5.5 2z"/><path d="m105.3 10.5c4.8 0 8.6 3.2 8.6 8 0 4.9-3.8 8-8.6 8s-8.6-3.2-8.6-8 3.8-8 8.6-8zm0 11.9c2.4 0 3.8-1.6 3.8-3.9s-1.4-3.9-3.8-3.9-3.8 1.6-3.8 3.9c0 2.4 1.4 3.9 3.8 3.9z"/><path d="m113.5 10.8h5l3.2 9.6h.1l2.7-9.6h5.2l2.8 9.6h.1l2.9-9.6h4.8l-5.5 15.4h-4.7l-3.2-10.2h-.1l-2.8 10.2h-4.8z"/><path d="m149.6 15.3c-.7-.9-1.6-1.3-2.7-1.3-.8 0-1.8.4-1.8 1.2 0 2.3 8 .4 8 6.2 0 3.9-3.8 5-7.1 5-2.1 0-4.5-.5-6-2.1l2.9-3.2c.9 1.1 1.9 1.7 3.4 1.7 1.1 0 2.1-.3 2.1-1.1 0-2.5-8-.4-8-6.3 0-3.6 3.3-5.2 6.4-5.2 2 0 4.2.5 5.7 2z"/></g></g></svg>