<?xml version="1.0" encoding="utf-8"?>
<!-- Generator: Adobe Illustrator 19.1.0, SVG Export Plug-In . SVG Version: 6.00 Build 0)  -->
<svg version="1.1" id="Layer_1" xmlns="http://www.w3.org/2000/svg" xmlns:xlink="http://www.w3.org/1999/xlink" x="0px" y="0px"
	 viewBox="0 0 32 32" style="enable-background:new 0 0 32 32;" xml:space="preserve">
<style type="text/css">
	.st0{fill:#BBBDBF;}
</style>
<path class="st0" d="M27.1,7.8c-0.9,0.5-1.8,0.9-2.8,1.1c-0.8-0.8-2-1.4-3.2-1.4c-2.5,0-4.4,2-4.4,4.4c0,0.3,0,0.7,0.1,1
	c-3.7-0.2-7-1.9-9.2-4.6c-0.4,0.6-0.6,1.4-0.6,2.2c0,1.5,0.8,2.9,2,3.6c-0.7,0-1.4-0.2-2-0.5c0,0,0,0,0,0.1c0,2.1,1.5,3.9,3.6,4.3
	c-0.4,0.1-0.8,0.2-1.2,0.2c-0.3,0-0.6,0-0.8-0.1c0.6,1.7,2.2,3,4.1,3c-1.5,1.2-3.4,1.9-5.5,1.9c-0.4,0-0.7,0-1.1-0.1
	c2,1.2,4.3,2,6.8,2c8.2,0,12.6-6.7,12.6-12.4c0-0.2,0-0.4,0-0.6c0.9-0.6,1.6-1.4,2.2-2.3c-0.8,0.3-1.7,0.6-2.6,0.7
	C26.1,9.7,26.8,8.8,27.1,7.8z"/>
</svg>
