<?xml version="1.0" encoding="utf-8"?>
<!-- Generator: Adobe Illustrator 19.1.0, SVG Export Plug-In . SVG Version: 6.00 Build 0)  -->
<svg version="1.1" id="Layer_1" xmlns="http://www.w3.org/2000/svg" xmlns:xlink="http://www.w3.org/1999/xlink" x="0px" y="0px"
	 viewBox="0 0 32 32" style="enable-background:new 0 0 32 32;" xml:space="preserve">
<style type="text/css">
	.st0{fill-rule:evenodd;clip-rule:evenodd;fill:#BBBDBF;}
</style>
<path class="st0" d="M16,2.8C8.5,2.8,2.4,8.8,2.4,16.3c0,6,3.9,11.1,9.3,12.9c0.7,0.1,0.9-0.3,0.9-0.7c0-0.3,0-1.4,0-2.5
	C8.8,26.9,8,24.4,8,24.4c-0.6-1.6-1.5-2-1.5-2c-1.2-0.8,0.1-0.8,0.1-0.8C8,21.7,8.7,23,8.7,23c1.2,2.1,3.2,1.5,4,1.1
	c0.1-0.9,0.5-1.5,0.9-1.8c-3-0.3-6.2-1.5-6.2-6.7c0-1.5,0.5-2.7,1.4-3.6c-0.1-0.3-0.6-1.7,0.1-3.6c0,0,1.1-0.4,3.7,1.4
	c1.1-0.3,2.2-0.5,3.4-0.5c1.2,0,2.3,0.2,3.4,0.5C22,8,23.1,8.4,23.1,8.4c0.7,1.9,0.3,3.3,0.1,3.6c0.9,1,1.4,2.2,1.4,3.6
	c0,5.2-3.2,6.4-6.2,6.7c0.5,0.4,0.9,1.2,0.9,2.5c0,1.8,0,3.3,0,3.7c0,0.4,0.2,0.8,0.9,0.7c5.4-1.8,9.3-6.9,9.3-12.9
	C29.6,8.8,23.5,2.8,16,2.8z"/>
</svg>
