<?xml version="1.0" encoding="utf-8"?>
<!-- Generated by IcoMoon.io -->
<!DOCTYPE svg PUBLIC "-//W3C//DTD SVG 1.1//EN" "http://www.w3.org/Graphics/SVG/1.1/DTD/svg11.dtd">
<svg version="1.1" xmlns="http://www.w3.org/2000/svg" xmlns:xlink="http://www.w3.org/1999/xlink" width="30" height="32" viewBox="0 0 30 32">
<path fill="white" d="M30 26l-7.785-7.785c1.111-1.814 1.785-3.929 1.785-6.215 0-6.626-5.375-12-12-12s-12 5.374-12 12c0 6.625 5.374 12 12 12 2.286 0 4.4-0.674 6.215-1.781l7.785 7.781c0.547 0.547 1.453 0.543 2 0l2-2c0.547-0.547 0.547-1.453 0-2zM12 20c-4.418 0-8-3.582-8-8s3.582-8 8-8 8 3.582 8 8-3.582 8-8 8z"></path>
</svg>
