<svg id="Layer_1" xmlns="http://www.w3.org/2000/svg" viewBox="0 0 32 32"><style>.st0{fill:#bbbdbf}</style><path class="st0" d="M7.9 19.7c0 1.6-1.3 2.9-2.9 2.9s-3-1.3-3-2.9c0-1.6 1.3-2.9 2.9-2.9h2.9v2.9zM9.4 19.7c0-1.6 1.3-2.9 2.9-2.9s2.9 1.3 2.9 2.9v7.4c0 1.6-1.3 2.9-2.9 2.9s-2.9-1.3-2.9-2.9v-7.4zM12.3 7.9c-1.6 0-2.9-1.3-2.9-2.9s1.3-3 2.9-3 2.9 1.3 2.9 2.9v2.9h-2.9zM12.3 9.4c1.6 0 2.9 1.3 2.9 2.9s-1.3 2.9-2.9 2.9H4.9c-1.6 0-2.9-1.3-2.9-2.9s1.3-2.9 2.9-2.9h7.4zM24.1 12.3c0-1.6 1.3-2.9 2.9-2.9 1.6 0 2.9 1.3 2.9 2.9s-1.3 2.9-2.9 2.9h-2.9v-2.9zM22.6 12.3c0 1.6-1.3 2.9-2.9 2.9-1.6 0-2.9-1.3-2.9-2.9V4.9c0-1.6 1.3-2.9 2.9-2.9 1.6 0 2.9 1.3 2.9 2.9v7.4zM19.7 24.1c1.6 0 2.9 1.3 2.9 2.9 0 1.6-1.3 2.9-2.9 2.9-1.6 0-2.9-1.3-2.9-2.9v-2.9h2.9zM19.7 22.6c-1.6 0-2.9-1.3-2.9-2.9 0-1.6 1.3-2.9 2.9-2.9h7.4c1.6 0 2.9 1.3 2.9 2.9 0 1.6-1.3 2.9-2.9 2.9h-7.4z"/></svg>