<?xml version="1.0" encoding="utf-8"?>
<!-- Generator: Adobe Illustrator 19.1.0, SVG Export Plug-In . SVG Version: 6.00 Build 0)  -->
<svg version="1.1" id="Layer_1" xmlns="http://www.w3.org/2000/svg" xmlns:xlink="http://www.w3.org/1999/xlink" x="0px" y="0px"
	 viewBox="-163 237 32 32" style="enable-background:new -163 237 32 32;" xml:space="preserve">
<style type="text/css">
	.st0{fill:#BBBDBF;}
</style>
<g>
	<polygon class="st0" points="-139.7,263.4 -139.7,256.6 -137.4,256.6 -137.4,265.6 -157.6,265.6 -157.6,256.6 -155.4,256.6 
		-155.4,263.4 	"/>
	<path class="st0" d="M-152.9,256l11,2.3l0.5-2.2l-11-2.3L-152.9,256z M-151.5,250.7l10.2,4.7l0.9-2l-10.2-4.7L-151.5,250.7z
		 M-148.6,245.7l8.6,7.2l1.4-1.7l-8.6-7.2L-148.6,245.7z M-143.1,240.4l-1.8,1.3l6.7,9l1.8-1.3L-143.1,240.4z M-153.1,261.1h11.2
		v-2.2h-11.2C-153.1,258.9-153.1,261.1-153.1,261.1z"/>
</g>
</svg>
