<?xml version="1.0" encoding="utf-8"?>
<!-- Generator: Adobe Illustrator 19.1.0, SVG Export Plug-In . SVG Version: 6.00 Build 0)  -->
<svg version="1.1" id="Layer_1" xmlns="http://www.w3.org/2000/svg" xmlns:xlink="http://www.w3.org/1999/xlink" x="0px" y="0px"
	 viewBox="0 0 32 32" style="enable-background:new 0 0 32 32;" xml:space="preserve">
<style type="text/css">
	.st0{fill:#BBBDBF;}
</style>
<g>
	<path class="st0" d="M15.6,7.3c4-0.6,7.9-1.2,11.9-1.9c0.7-0.1,1.3,0.2,1.8,0.7c0.2,0.2,0.2,0.4,0.3,0.6c0.8,5,1.6,9.9,2.3,14.9
		c0.1,0.6-0.1,1-0.4,1.4c-0.3,0.3-0.6,0.5-1.1,0.6c-6.4,1-12.9,2-19.3,3c-1.2,0.2-2.5,0.4-3.7,0.6c-0.3,0.1-0.7,0.1-1,0.1
		c-0.4,0.1-0.8-0.1-1.1-0.3c-0.4-0.3-0.7-0.7-0.8-1.2C3.7,21,2.9,16.1,2.2,11.2c-0.1-0.6,0.1-1,0.4-1.4c0.3-0.3,0.6-0.6,1.1-0.6
		C7.6,8.5,11.6,7.9,15.6,7.3z M2.9,14.2c0,0.1,0,0.2,0,0.2c0.5,3.5,1.1,7,1.6,10.5c0,0.2,0,0.2,0.3,0.2c8.8-1.4,17.5-2.8,26.3-4.1
		c0.2,0,0.2,0,0.2-0.3c-0.6-3.5-1.1-7-1.7-10.5c0-0.1,0-0.1,0-0.2C20.8,11.4,11.9,12.8,2.9,14.2z"/>
	<g>
		<path class="st0" d="M8.6,19.1c0-0.4,0-0.8,0-1.1c0.1-0.6,0.2-1.2,0.3-1.8c0-0.2,0.2-0.3,0.4-0.3c0.2,0,0.4,0,0.6,0
			c0.2,0,0.4,0.1,0.5,0.3c0.2,0.5,0.5,1.1,0.7,1.6c0.3,0.6,0.5,1.3,0.8,1.9c0.2,0.4,0.3,0.8,0.5,1.2c-0.2,0.1-0.5,0.2-0.7,0.3
			c-0.2,0.1-0.2,0.1-0.3-0.1c-0.2-0.4-0.4-0.7-0.6-1c-0.2-0.5-0.5-1-0.7-1.5c0-0.1-0.1-0.2-0.2-0.3c0,0,0,0-0.1,0
			c0,0.3,0.1,0.6,0.1,1c0,0.5,0.1,1,0.1,1.4c0,0,0,0,0,0.1c0,0.3,0,0.3-0.3,0.4c-0.2,0.1-0.5,0.1-0.7,0.2c-0.1,0-0.2,0-0.2-0.1
			c-0.3-0.4-0.6-0.7-0.9-1.1c0,0-0.1-0.1-0.1-0.1c0.1,0.3,0.2,0.6,0.3,1c0,0.1,0,0.3-0.1,0.3c-0.2,0.1-0.4,0.2-0.7,0.3
			c-0.2,0.1-0.3,0-0.4-0.2c-0.1-0.3-0.2-0.6-0.3-1c-0.3-0.9-0.4-1.9-0.5-2.9c0.3-0.1,0.6-0.3,0.9-0.3c0.2,0,0.3,0,0.4,0.2
			c0.4,0.5,0.8,1,1.2,1.6C8.5,19,8.5,19.1,8.6,19.1z"/>
		<path class="st0" d="M26.1,18.5c0.1,0.8,0.3,1.6,0.7,2.4C26.4,21,26.1,21,25.8,21c0,0-0.1-0.1-0.1-0.2c-0.2-0.4-0.3-0.9-0.5-1.3
			c-0.1-0.2-0.1-0.5-0.2-0.8c0-0.2-0.1-0.3-0.3-0.4c-0.1-0.1-0.1-0.1-0.2-0.2c0-0.1,0-0.2,0.1-0.2c0.2-0.1,0.2-0.2,0.2-0.3
			c0-0.3,0-0.5,0-0.8c0-0.4,0.1-0.9,0.1-1.3c0.1-0.6,0.4-1.2,0.9-1.6c0.2-0.2,0.4-0.2,0.7-0.2c0.3,0.1,0.6,0.1,0.9,0.2
			c0.1,0,0.3,0.2,0.3,0.3c0.5,0.8,0.5,1.6,0.1,2.5c-0.3,0.5-0.6,1-1.1,1.4C26.6,18.2,26.3,18.3,26.1,18.5z M26,17.5
			C26,17.4,26.1,17.4,26,17.5c0.2-0.2,0.3-0.3,0.4-0.5c0.6-0.7,0.7-1.4,0.4-2.3c0-0.1-0.1-0.1-0.1-0.2c-0.1,0-0.1,0.1-0.2,0.1
			c-0.1,0.3-0.3,0.5-0.4,0.8C26,16.1,26,16.8,26,17.5z"/>
		<path class="st0" d="M15.6,20.1c-0.7,0.4-1.3,0.7-2.1,0.6c-0.4,0-0.8-0.2-1.1-0.5c-0.1-0.1-0.2-0.3-0.3-0.5
			c-0.2-0.8-0.3-1.5-0.2-2.4c0.1-0.7,0.5-1.1,1-1.6c0,0,0.1-0.1,0.2-0.1c0.3,0,0.6,0,0.9,0.1c0.1,0,0.2,0.2,0.3,0.3
			c0.2,0.6,0.3,1.2,0.4,1.8c0,0.1,0,0.3,0,0.4c0,0.1-0.1,0.2-0.2,0.3c-0.4,0-0.8,0.1-1.2,0.1c-0.2,0-0.2,0-0.2,0.2
			c0,0.2,0.1,0.4,0.1,0.7c0,0,0,0.1,0,0.1c0.3,0.6,0.7,0.7,1.2,0.4C14.8,19.8,15.2,19.8,15.6,20.1z M13.2,17
			C13.2,17,13.2,17,13.2,17c-0.2,0.3-0.2,0.6-0.3,0.9c0,0.2,0.1,0.2,0.3,0.2c0.2,0,0.2-0.1,0.1-0.2C13.3,17.6,13.3,17.3,13.2,17z"/>
		<path class="st0" d="M15,18.6c0-0.2,0-0.4,0-0.7c0-0.4,0.1-0.7,0.1-1.1c0.1-0.7,0.4-1.2,0.8-1.7C16,15,16.2,15,16.4,15
			c0.2,0,0.5,0.1,0.7,0.1c0.2,0,0.3,0.2,0.3,0.4c0,0.4,0,0.8,0.1,1.2c0,0.4,0.1,0.8,0.1,1.2c0,0.2,0,0.3-0.2,0.3
			c-0.3,0.1-0.6,0.2-0.9,0.2c-0.4,0-0.5,0.1-0.3,0.5c0.1,0.2,0.3,0.5,0.5,0.6c0.3,0.2,1,0.1,1.2-0.3c0.1-0.1,0.1-0.2,0.3-0.2
			c0.1,0.1,0.3,0.1,0.4,0.2c0.1,0.1,0,0.2-0.1,0.3c-0.4,0.3-0.9,0.5-1.4,0.5c-0.1,0-0.3,0-0.4,0c-0.8,0-1.4-0.5-1.6-1.3
			C15,18.7,15,18.7,15,18.6C15,18.6,15,18.6,15,18.6z M16.4,16.5C16.4,16.5,16.4,16.5,16.4,16.5c-0.1,0.4-0.2,0.8-0.3,1.2
			c0,0.1,0,0.2,0.2,0.2c0.2,0,0.3,0,0.3-0.2C16.5,17.3,16.5,16.9,16.4,16.5z"/>
		<path class="st0" d="M19.6,20c-0.1-0.5-0.2-1-0.3-1.5c0-0.2-0.1-0.4-0.1-0.5c0-0.1-0.1-0.2-0.2-0.2c-0.2,0-0.4,0-0.6,0
			c-0.2,0-0.3-0.1-0.4-0.3c0-0.2,0.1-0.3,0.3-0.4c0.1,0,0.2,0,0.3,0c0.1,0,0.2,0,0.3,0c-0.1-0.4-0.2-0.7-0.3-1
			c-0.2-0.9-0.4-1.7-0.6-2.6c0-0.1,0-0.2,0-0.3c0-0.3,0.1-0.4,0.4-0.4c0,0,0.1,0,0.1,0c0.6,0.1,0.7,0.1,0.8,0.7
			c0.2,0.9,0.3,1.7,0.5,2.6c0,0.2,0,0.4,0,0.6c0,0.1,0.1,0.1,0.1,0.2c0-0.1,0.1-0.1,0.1-0.2c0-0.2,0.1-0.3,0.3-0.2
			c0.3,0.2,0.6,0.4,0.8,0.6c0.1,0.1,0,0.1-0.1,0.2c-0.3,0.1-0.5,0.2-0.8,0.3c-0.3,0.1-0.3,0.1-0.3,0.4c0.1,0.5,0.2,1,0.3,1.5
			c0,0.1,0,0.2,0,0.2c0,0.1,0,0.2-0.2,0.2C20,19.9,19.8,19.9,19.6,20z"/>
		<path class="st0" d="M22.9,18.6c0.1-0.1,0.1-0.1,0.1-0.1c0.3-0.5,0.5-1,0.4-1.7c-0.1-0.3-0.1-0.6-0.1-0.9c0-0.3,0.1-0.4,0.4-0.3
			c0.2,0,0.4,0.1,0.7,0.2c0.1,0,0.2,0.1,0.2,0.3c0,0.3,0,0.7,0,1c0,0.1-0.1,0.3-0.1,0.4c-0.1,0.3-0.2,0.5-0.4,0.8
			c-0.2,0.4-0.4,0.8-1,0.9c-0.1,0-0.3,0-0.4,0.1c-0.3,0.1-0.5,0-0.7-0.3c-0.2-0.4-0.4-0.7-0.5-1.1c-0.2-0.5-0.2-1-0.4-1.5
			c0-0.1,0-0.1,0-0.2c0-0.2,0-0.3,0.2-0.3c0.3,0,0.5,0.1,0.8,0.2c0.1,0.1,0.2,0.2,0.2,0.4c0.1,0.6,0.3,1.2,0.4,1.8
			C22.8,18.4,22.8,18.5,22.9,18.6z"/>
	</g>
</g>
</svg>
