<?xml version="1.0" encoding="utf-8"?>
<!-- Generator: Adobe Illustrator 19.1.0, SVG Export Plug-In . SVG Version: 6.00 Build 0)  -->
<svg version="1.1" id="Layer_1" xmlns="http://www.w3.org/2000/svg" xmlns:xlink="http://www.w3.org/1999/xlink" x="0px" y="0px"
	 viewBox="-359 143 32 32" style="enable-background:new -359 143 32 32;" xml:space="preserve">
<style type="text/css">
	.st0{fill:#BBBDBF;}
</style>
<path class="st0" d="M-332.1,167.3c0,1,0.6,1.8,1.4,2.2v0.3c-0.2,0-0.5,0-0.7,0c-1.4,0-2.8-0.6-3.7-1.6c-0.6,0.1-1.2,0.2-1.8,0.2
	c-3.4,0-6.1-2.4-6.1-5.5c0-3,2.7-5.5,6.1-5.5c3.4,0,6.1,2.4,6.1,5.5c0,1.2-0.4,2.3-1.1,3.2C-332,166.6-332.1,166.9-332.1,167.3
	L-332.1,167.3z M-350.4,152.8c-1.4,1.1-2.2,2.6-2.2,4.2c0,0.9,0.2,1.7,0.7,2.5c0.5,0.8,1.2,1.5,2.1,2.1c0.6,0.4,1.1,1.1,1.2,1.9
	c0,0.3,0.1,0.5,0.1,0.8c0.2-0.1,0.3-0.3,0.5-0.4c0.5-0.5,1.2-0.8,1.9-0.8c0.1,0,0.2,0,0.3,0c0.4,0.1,0.9,0.1,1.4,0.1v2.7
	c-0.6,0-1.1,0-1.7-0.1c-2.3,2.3-5.1,2.8-7.8,2.8V168c1.5-0.7,2.7-2,2.7-3.5c0-0.2,0-0.4,0-0.6c-2.5-1.6-4-4.1-4-6.9
	c0-4.9,4.9-8.9,10.9-8.9c5.9,0,10.8,3.8,10.9,8.6c-0.9-0.4-1.8-0.6-2.8-0.7c-0.2-1.2-1-2.3-2.1-3.2c-0.8-0.6-1.6-1.1-2.6-1.4
	c-1.1-0.4-2.2-0.5-3.4-0.5s-2.3,0.2-3.4,0.5C-348.7,151.7-349.6,152.2-350.4,152.8L-350.4,152.8z"/>
</svg>
